<?xml version="1.0" encoding="UTF-8" standalone="no"?>
<!DOCTYPE svg PUBLIC "-//W3C//DTD SVG 1.1//EN" "http://www.w3.org/Graphics/SVG/1.1/DTD/svg11.dtd">
<svg width="100%" height="100%" viewBox="0 0 2481 3508" version="1.1" xmlns="http://www.w3.org/2000/svg" xmlns:xlink="http://www.w3.org/1999/xlink" xml:space="preserve" xmlns:serif="http://www.serif.com/" style="fill-rule:evenodd;clip-rule:evenodd;stroke-linecap:round;stroke-linejoin:round;stroke-miterlimit:1.5;">
    <g id="Capa2">
        <g>
            <g transform="matrix(1,0,0,1,24.5115,-204.663)">
                <g transform="matrix(1,0,0,1.20255,0,-384.246)">
                    <rect x="1804.33" y="1844.42" width="442.992" height="56.73" style="fill:rgb(101,159,190);"/>
                </g>
                <g transform="matrix(1,0,0,1,14.1842,75.6257)">
                    <rect x="2060.71" y="1767.72" width="137.689" height="49.06" style="fill:rgb(101,159,190);"/>
                    <g transform="matrix(1,0,0,1,-15.59,80.7729)">
                        <rect x="2167.77" y="1698.12" width="0.422" height="28.979" style="fill:rgb(101,159,190);stroke:rgb(86,79,69);stroke-width:8.33px;"/>
                    </g>
                    <g transform="matrix(1,0,0,1,-2.59,80.7729)">
                        <rect x="2167.77" y="1698.12" width="0.422" height="28.979" style="fill:rgb(101,159,190);stroke:rgb(86,79,69);stroke-width:8.33px;"/>
                    </g>
                </g>
                <g transform="matrix(1.30134,0,0,1.28578,-539.615,-444.464)">
                    <ellipse cx="1838.26" cy="1798.39" rx="18.333" ry="17.526" style="fill:rgb(101,159,190);stroke:rgb(254,248,228);stroke-width:6.44px;"/>
                </g>
            </g>
            <g transform="matrix(1,0,0,1.20255,0,-384.246)">
                <rect x="1804.33" y="1844.42" width="442.992" height="56.73" style="fill:rgb(111,168,140);"/>
            </g>
            <g transform="matrix(1,0,0,1,14.1842,75.6257)">
                <rect x="2060.71" y="1767.72" width="137.689" height="49.06" style="fill:rgb(254,248,228);"/>
                <g transform="matrix(1,0,0,1,-15.59,80.7729)">
                    <rect x="2167.77" y="1698.12" width="0.422" height="28.979" style="fill:rgb(86,79,69);stroke:rgb(86,79,69);stroke-width:8.33px;"/>
                </g>
                <g transform="matrix(1,0,0,1,-2.59,80.7729)">
                    <rect x="2167.77" y="1698.12" width="0.422" height="28.979" style="fill:rgb(86,79,69);stroke:rgb(86,79,69);stroke-width:8.33px;"/>
                </g>
            </g>
            <g transform="matrix(1.30134,0,0,1.28578,-539.615,-444.464)">
                <ellipse cx="1838.26" cy="1798.39" rx="18.333" ry="17.526" style="fill:rgb(86,79,69);stroke:rgb(254,248,228);stroke-width:6.44px;"/>
            </g>
            <g transform="matrix(1,0,0,1,24.5115,-68.2209)">
                <g transform="matrix(1,0,0,1.20255,0,-384.246)">
                    <rect x="1804.33" y="1844.42" width="442.992" height="56.73" style="fill:rgb(234,113,108);"/>
                </g>
                <g transform="matrix(1,0,0,1,14.1842,75.6257)">
                    <rect x="2060.71" y="1767.72" width="137.689" height="49.06" style="fill:rgb(234,113,108);"/>
                    <g transform="matrix(1,0,0,1,-15.59,80.7729)">
                        <rect x="2167.77" y="1698.12" width="0.422" height="28.979" style="fill:rgb(234,113,108);stroke:rgb(86,79,69);stroke-width:8.33px;"/>
                    </g>
                    <g transform="matrix(1,0,0,1,-2.59,80.7729)">
                        <rect x="2167.77" y="1698.12" width="0.422" height="28.979" style="fill:rgb(234,113,108);stroke:rgb(86,79,69);stroke-width:8.33px;"/>
                    </g>
                </g>
                <g transform="matrix(1.30134,0,0,1.28578,-539.615,-444.464)">
                    <ellipse cx="1838.26" cy="1798.39" rx="18.333" ry="17.526" style="fill:rgb(234,113,108);stroke:rgb(254,248,228);stroke-width:6.44px;"/>
                </g>
            </g>
            <g transform="matrix(1,0,0,1,12.9928,-136.442)">
                <g transform="matrix(1,0,0,1.20255,0,-384.246)">
                    <rect x="1804.33" y="1844.42" width="442.992" height="56.73" style="fill:rgb(245,206,144);"/>
                </g>
                <g transform="matrix(1,0,0,1,14.1842,75.6257)">
                    <rect x="2060.71" y="1767.72" width="137.689" height="49.06" style="fill:rgb(245,206,144);"/>
                    <g transform="matrix(1,0,0,1,-15.59,80.7729)">
                        <rect x="2167.77" y="1698.12" width="0.422" height="28.979" style="fill:rgb(245,206,144);stroke:rgb(86,79,69);stroke-width:8.33px;"/>
                    </g>
                    <g transform="matrix(1,0,0,1,-2.59,80.7729)">
                        <rect x="2167.77" y="1698.12" width="0.422" height="28.979" style="fill:rgb(245,206,144);stroke:rgb(86,79,69);stroke-width:8.33px;"/>
                    </g>
                </g>
                <g transform="matrix(1.30134,0,0,1.28578,-539.615,-444.464)">
                    <ellipse cx="1838.26" cy="1798.39" rx="18.333" ry="17.526" style="fill:rgb(245,206,144);stroke:rgb(254,248,228);stroke-width:6.44px;"/>
                </g>
            </g>
            <g transform="matrix(1.30134,0,0,1.28578,-515.758,-512.685)">
                <ellipse cx="1838.26" cy="1798.39" rx="18.333" ry="17.526" style="fill:rgb(86,79,69);stroke:rgb(254,248,228);stroke-width:6.44px;"/>
            </g>
            <g transform="matrix(1.30134,0,0,1.28578,-523.593,-580.906)">
                <ellipse cx="1838.26" cy="1798.39" rx="18.333" ry="17.526" style="fill:rgb(86,79,69);stroke:rgb(254,248,228);stroke-width:6.44px;"/>
            </g>
            <g transform="matrix(1.30134,0,0,1.28578,-515.758,-649.158)">
                <ellipse cx="1838.26" cy="1798.39" rx="18.333" ry="17.526" style="fill:rgb(86,79,69);stroke:rgb(254,248,228);stroke-width:6.44px;"/>
            </g>
            <g transform="matrix(1,0,0,1,35.4115,9.39987)">
                <rect x="2060.71" y="1767.72" width="137.689" height="49.06" style="fill:rgb(254,248,228);"/>
                <g transform="matrix(1,0,0,1,-15.59,80.7729)">
                    <rect x="2167.77" y="1698.12" width="0.422" height="28.979" style="fill:rgb(86,79,69);stroke:rgb(86,79,69);stroke-width:8.33px;"/>
                </g>
                <g transform="matrix(1,0,0,1,-2.59,80.7729)">
                    <rect x="2167.77" y="1698.12" width="0.422" height="28.979" style="fill:rgb(86,79,69);stroke:rgb(86,79,69);stroke-width:8.33px;"/>
                </g>
            </g>
            <g transform="matrix(1,0,0,1,27.2805,-62.8111)">
                <rect x="2060.71" y="1767.72" width="137.689" height="49.06" style="fill:rgb(254,248,228);"/>
                <g transform="matrix(1,0,0,1,-15.59,80.7729)">
                    <rect x="2167.77" y="1698.12" width="0.422" height="28.979" style="fill:rgb(86,79,69);stroke:rgb(86,79,69);stroke-width:8.33px;"/>
                </g>
                <g transform="matrix(1,0,0,1,-2.59,80.7729)">
                    <rect x="2167.77" y="1698.12" width="0.422" height="28.979" style="fill:rgb(86,79,69);stroke:rgb(86,79,69);stroke-width:8.33px;"/>
                </g>
            </g>
            <g transform="matrix(1,0,0,1,41.7892,-129.069)">
                <rect x="2060.71" y="1767.72" width="137.689" height="49.06" style="fill:rgb(254,248,228);"/>
                <g transform="matrix(1,0,0,1,-15.59,80.7729)">
                    <rect x="2167.77" y="1698.12" width="0.422" height="28.979" style="fill:rgb(86,79,69);stroke:rgb(86,79,69);stroke-width:8.33px;"/>
                </g>
                <g transform="matrix(1,0,0,1,-2.59,80.7729)">
                    <rect x="2167.77" y="1698.12" width="0.422" height="28.979" style="fill:rgb(86,79,69);stroke:rgb(86,79,69);stroke-width:8.33px;"/>
                </g>
            </g>
        </g>
        <g transform="matrix(-0.00527696,1.38236,-5.63545,-0.0215124,12737.4,689.609)">
            <path d="M968.877,1997.31C968.877,1988.92 941.124,1982.12 906.94,1982.12L715.504,1982.12C681.319,1982.12 653.566,1988.92 653.566,1997.31L653.566,2027.69C653.566,2036.08 681.319,2042.89 715.504,2042.89L906.94,2042.89C941.124,2042.89 968.877,2036.08 968.877,2027.69L968.877,1997.31Z" style="fill:rgb(24,79,165);"/>
        </g>
        <g transform="matrix(1,0,0,1,-48,1)">
            <path d="M1264.61,1710.75C1233.58,1768.84 1219.32,1838.35 1220.08,1901.99L1357.74,1901.99L1357.74,1860.43C1338.7,1863.59 1319.68,1865.46 1300.72,1860.79L1264.61,1710.75Z" style="fill:rgb(239,160,33);"/>
        </g>
        <g transform="matrix(-1,0,0,1,2908.26,-0.831227)">
            <path d="M1264.61,1710.75C1229.99,1770.58 1211.25,1842.27 1220.05,1901.99L1357.74,1901.99L1357.74,1860.43C1338.7,1863.59 1319.68,1865.46 1300.72,1860.79L1264.61,1710.75Z" style="fill:rgb(239,160,33);"/>
        </g>
        <g>
            <path d="M1414.75,2373.41L1558.48,2455.99C1583.22,2470.21 1602.96,2492.96 1606.46,2528.67" style="fill:none;stroke:rgb(61,63,78);stroke-width:8.33px;"/>
            <g transform="matrix(-1,0,0,1,2794.75,0)">
                <path d="M1414.75,2373.41L1558.48,2455.99C1583.22,2470.21 1602.96,2492.96 1606.46,2528.67" style="fill:none;stroke:rgb(61,63,78);stroke-width:8.33px;"/>
            </g>
            <path d="M1414.75,2383.32L1498.65,2461.27L1509.71,2528.67" style="fill:none;stroke:rgb(61,63,78);stroke-width:8.33px;"/>
            <g transform="matrix(-1,0,0,1,2784.73,2.98711)">
                <path d="M1414.75,2383.32L1498.65,2461.27L1509.71,2528.67" style="fill:none;stroke:rgb(61,63,78);stroke-width:8.33px;"/>
            </g>
            <g transform="matrix(1,0,0,1,-2.32938,-0.392119)">
                <rect x="1382.94" y="2221.21" width="22.196" height="123.956" style="fill:rgb(61,63,78);"/>
            </g>
            <rect x="1370.52" y="2341.87" width="44.23" height="82.904" style="fill:rgb(61,63,78);"/>
            <g transform="matrix(1,0,0,1.80555,0,-1787.05)">
                <ellipse cx="1391.71" cy="2209.67" rx="32.28" ry="11.824" style="fill:rgb(61,63,78);"/>
            </g>
            <path d="M1547.08,2434.32L1547.08,2466.62L1606.46,2481.21L1606.46,2434.1L1547.08,2434.32Z" style="fill:rgb(255,218,137);"/>
        </g>
        <path d="M1547.08,2466.24C1540.24,2487.92 1539.14,2509.75 1540.99,2531.65L1606.46,2531.65L1606.46,2522.39C1614.88,2528.01 1617.62,2531.09 1626.54,2531.65C1658.06,2531 1716.09,2531.36 1746.33,2530.74C1749.67,2530.67 1740.26,2507.58 1719.08,2500.56C1697.44,2493.39 1664.64,2488.23 1664.64,2488.23L1606.46,2448.75C1602.06,2459.7 1601.93,2470.52 1606.46,2481.21C1586.97,2471.48 1567.33,2464.08 1547.08,2466.24Z" style="fill:rgb(61,63,78);"/>
        <path d="M1760.89,2307.62C1764.43,2333.95 1775.24,2350.54 1795.14,2354.95L1808.8,2349.98L1865.44,2348.95C1939.74,2321.4 1949.27,2277.43 1889.89,2274.4C1875.4,2273.66 1857.19,2273.42 1831.79,2272.66L1795.14,2258.28C1784.91,2275.99 1787.19,2289.81 1795.14,2301.86L1760.89,2307.62Z" style="fill:rgb(61,63,78);"/>
        <path d="M1719.08,2266.24L1759.35,2307.45C1772.18,2308.09 1784.46,2307.1 1795.14,2301.24C1791.06,2289.8 1787.19,2278.3 1795.14,2263.44L1760.89,2224.69L1719.08,2266.24Z" style="fill:rgb(24,79,165);fill-opacity:0.88;"/>
        <g transform="matrix(1,0,0,1,0,3)">
            <rect x="384.83" y="915.829" width="215.629" height="50.381" style="fill:rgb(17,15,175);"/>
        </g>
        <g transform="matrix(0.229704,0,0,1,296.433,3)">
            <rect x="384.83" y="915.829" width="215.629" height="50.381" style="fill:rgb(37,36,103);"/>
        </g>
        <g transform="matrix(1,0,0,1,-3,0)">
            <path d="M735.025,762.278L735.054,941.577" style="fill:none;stroke:rgb(82,196,27);stroke-width:8.33px;"/>
        </g>
        <path d="M820.662,947.937C820.662,944.427 817.812,941.577 814.301,941.577L652.449,941.577C648.939,941.577 646.089,944.427 646.089,947.937L646.089,960.657C646.089,964.168 648.939,967.018 652.449,967.018L814.301,967.018C817.812,967.018 820.662,964.168 820.662,960.657L820.662,947.937Z" style="fill:rgb(242,226,16);"/>
        <g transform="matrix(0.0243074,-0.703415,1.34456,0.0464629,-462.123,1407.7)">
            <path d="M803.343,873.594C785.914,879.359 768.484,894.431 768.484,903.362C768.484,913.427 784.104,921.599 803.343,921.599C822.583,921.599 838.203,913.427 838.203,903.362C838.203,894.431 796.372,888.478 803.343,873.594Z" style="fill:rgb(82,196,27);"/>
        </g>
        <g transform="matrix(-0.00998124,-0.514456,1.11222,-0.0215789,-232.206,1271.99)">
            <path d="M803.343,873.594C785.914,881.472 768.484,895.91 768.484,905.474C768.484,914.374 784.104,921.599 803.343,921.599C822.583,921.599 838.203,914.374 838.203,905.474C838.203,895.91 796.372,889.534 803.343,873.594Z" style="fill:rgb(82,196,27);"/>
        </g>
        <g transform="matrix(-0.00806298,-0.415584,0.764188,-0.0148265,70.8556,1149.67)">
            <path d="M803.343,873.594C785.914,878.639 768.484,893.927 768.484,902.641C768.484,913.104 784.104,921.599 803.343,921.599C822.583,921.599 838.203,913.104 838.203,902.641C838.203,893.927 796.372,888.117 803.343,873.594Z" style="fill:rgb(82,196,27);"/>
        </g>
        <g transform="matrix(0.0202819,0.415167,-0.763422,0.037295,1382.37,454.607)">
            <path d="M803.343,873.594C810.315,888.117 768.484,893.927 768.484,902.641C768.484,913.104 784.104,921.599 803.343,921.599C822.583,921.599 838.203,913.104 838.203,902.641C838.203,893.927 820.773,878.639 803.343,873.594Z" style="fill:rgb(82,196,27);"/>
        </g>
        <g transform="matrix(0.0145852,0.298556,-0.535016,0.0261368,1187.13,521.695)">
            <path d="M803.343,873.594C810.315,887.87 768.484,893.58 768.484,902.146C768.484,912.882 784.104,921.599 803.343,921.599C822.583,921.599 838.203,912.882 838.203,902.146C838.203,893.58 820.773,878.144 803.343,873.594Z" style="fill:rgb(82,196,27);"/>
        </g>
        <g transform="matrix(0.0224651,0.459857,-0.993541,0.0485369,1581.72,449.151)">
            <path d="M803.343,873.594C810.315,889.529 768.484,895.903 768.484,905.464C768.484,914.369 784.104,921.599 803.343,921.599C822.583,921.599 838.203,914.369 838.203,905.464C838.203,895.903 820.773,881.462 803.343,873.594Z" style="fill:rgb(82,196,27);"/>
        </g>
        <g transform="matrix(0.032559,0.666477,-1.19364,0.0583124,1749.22,318.771)">
            <path d="M803.343,873.594C810.315,887.864 768.484,893.572 768.484,902.135C768.484,912.877 784.104,921.599 803.343,921.599C822.583,921.599 838.203,912.877 838.203,902.135C838.203,893.572 820.773,878.132 803.343,873.594Z" style="fill:rgb(82,196,27);"/>
        </g>
        <g transform="matrix(1.01786,0,0,1.00938,-31.6021,-22.8686)">
            <path d="M1273.47,1986.74C1273.47,1986.74 1441.64,1982.46 1563.66,1979.61C1602.69,1978.7 1630.78,1982.64 1656.97,2016.08C1706.21,2078.95 1751.97,2195.03 1769.75,2219.53L1694.37,2293.65L1619.25,2185.39L1627.15,2435.69L1526.36,2437.88L1506.63,2152.99L1357.12,2146.79L1273.47,2012.12L1273.47,1986.74Z" style="fill:rgb(61,63,78);"/>
        </g>
        <g transform="matrix(1,0,0,1,1.9844,2.27374e-13)">
            <rect x="1218.09" y="1924.01" width="53.395" height="123.956" style="fill:rgb(24,79,165);"/>
        </g>
        <path d="M1275.08,2014.51L1224.32,2029.68C1212.79,2031.29 1206.98,2037.85 1205.26,2047.96C1209.71,2114.55 1193.68,2146.18 1218.46,2180.32C1248.07,2221.13 1357.02,2200.16 1511.28,2200.16L1511.28,2143.04L1354.85,2142.09L1354.85,2041.87C1343.77,2016.56 1317.35,2007.26 1275.08,2014.51Z" style="fill:rgb(24,79,165);"/>
        <g transform="matrix(1.27459,0,0,1,-439.384,-9.37505)">
            <rect x="1341.8" y="1812.54" width="248.847" height="82.529" style="fill:rgb(239,160,33);"/>
        </g>
        <g transform="matrix(-1,0,0,1,2925.39,2)">
            <path d="M1357.74,1860.8C1411.45,1856.07 1421.81,1862.83 1421.81,1883.69L1357.74,1883.69L1357.74,1860.8Z" style="fill:rgb(239,188,143);"/>
        </g>
        <g transform="matrix(0.328789,0,0,0.65782,303.34,-241.692)">
            <path d="M1673.06,1850.89C1673.06,1844.97 1663.43,1840.16 1651.57,1840.16L244.503,1840.16C232.645,1840.16 223.017,1844.97 223.017,1850.89L223.017,1872.37C223.017,1878.3 232.645,1883.11 244.503,1883.11L1651.57,1883.11C1663.43,1883.11 1673.06,1878.3 1673.06,1872.37L1673.06,1850.89Z" style="fill:rgb(142,91,19);"/>
        </g>
        <g transform="matrix(1,0,0,1.4776,636.301,-832.781)">
            <rect x="281.801" y="1884.28" width="43.271" height="399.026" style="fill:rgb(103,65,12);"/>
        </g>
        <g transform="matrix(1,0,0,1.47139,1922.25,-827.971)">
            <rect x="281.801" y="1884.28" width="43.271" height="399.026" style="fill:rgb(103,65,12);"/>
        </g>
        <g transform="matrix(1,0,0,1,1,3)">
            <path d="M558.403,934.635L558.792,934.687L559.174,934.777L559.545,934.904L559.902,935.067L560.242,935.264L560.56,935.493L560.855,935.752L561.123,936.04L561.361,936.352L561.567,936.685L561.74,937.038L561.878,937.406L561.978,937.785L562.041,938.172L562.066,938.564L562.053,938.956L562,939.346L561.91,939.728L561.783,940.099L561.621,940.456L561.423,940.796L561.194,941.114L560.935,941.409L560.647,941.676L560.336,941.915L560.002,942.121L559.649,942.294L559.282,942.431L558.902,942.532L558.515,942.595L558.123,942.62L461.005,943.987L460.613,943.973L460.224,943.921L459.842,943.831L459.47,943.704L459.113,943.541L458.774,943.344L458.455,943.115L458.161,942.855L457.893,942.568L457.655,942.256L457.448,941.922L457.275,941.57L457.138,941.202L457.037,940.823L456.974,940.435L456.949,940.044L456.963,939.651L457.015,939.262L457.105,938.88L457.232,938.509L457.395,938.152L457.592,937.812L457.822,937.493L458.081,937.199L458.368,936.931L458.68,936.693L459.014,936.486L459.366,936.314L459.734,936.176L460.113,936.076L460.501,936.012L460.893,935.988L558.01,934.621L558.403,934.635Z" style="fill:rgb(37,36,103);"/>
        </g>
        <g transform="matrix(1,0,0,1,0,2)">
            <rect x="399.096" y="874.662" width="240.628" height="42.697" style="fill:rgb(167,37,167);"/>
        </g>
        <g transform="matrix(0.0587535,0,0,0.764012,565.491,226.276)">
            <rect x="600.993" y="856.769" width="7.177" height="44.84" style="fill:rgb(167,37,167);stroke:rgb(109,43,152);stroke-width:15.38px;"/>
        </g>
        <g transform="matrix(0.0587535,0,0,0.764012,584.491,226.276)">
            <rect x="600.993" y="856.769" width="7.177" height="44.84" style="fill:rgb(167,37,167);stroke:rgb(109,43,152);stroke-width:15.38px;"/>
        </g>
        <g transform="matrix(5.28918,0,0,-1.64056,-3738.82,6517.81)">
            <path d="M734.965,2424.04L1164.37,2425.54" style="fill:none;"/>
            <path d="M1164.88,2430.13L1165.34,2429.28L1165.68,2427.99L1165.86,2426.4L1165.86,2424.7L1165.68,2423.11L1165.34,2421.81L1164.89,2420.96L1164.37,2420.67L734.967,2419.16L734.449,2419.46L733.994,2420.3L733.656,2421.6L733.476,2423.19L733.475,2424.88L733.654,2426.47L733.992,2427.77L734.446,2428.62L734.964,2428.92L1164.37,2430.42L1164.88,2430.13Z"/>
        </g>
        <path d="M847.34,1903.92L2312.31,1901.99L2311.36,1951.44C2280.81,1948.26 2264.29,1959.83 2261.63,1985.98L918.102,1985.98C900.941,1958.57 873.769,1942.76 847.165,1944.53L847.34,1903.92Z" style="fill:rgb(103,65,12);"/>
        <g transform="matrix(1,0,0,1,-34,0)">
            <path d="M1420.86,1532.93L1532.21,1532.91C1546.94,1546.31 1563.01,1557.64 1579.74,1567.96L1357.74,1567.96C1386.34,1557.82 1406.23,1545.91 1420.86,1532.93Z" style="fill:rgb(239,160,33);"/>
        </g>
        <g transform="matrix(1,0,0,1,-48,2)">
            <path d="M1357.74,1860.8C1411.45,1856.07 1441.94,1862.4 1441.94,1883.26L1357.74,1883.69L1357.74,1860.8Z" style="fill:rgb(239,188,143);"/>
        </g>
        <g transform="matrix(1,0,0,1,-37,0)">
            <path d="M1448.42,1521.25L1448.33,1536.29L1429.46,1541.83L1450.67,1567.96L1500.92,1567.96L1517.18,1544.79L1500.31,1536.29L1500.2,1520.75L1448.42,1521.25Z" style="fill:rgb(213,154,126);"/>
        </g>
        <g transform="matrix(1.05009,0,0,1.0456,-648.42,-14.5053)">
            <path d="M2224.95,1835.27L1797.37,1835.27L1819.88,1812.65L2202.43,1812.65L2224.95,1835.27Z" style="fill:rgb(137,143,153);"/>
        </g>
        <g transform="matrix(1,0,0,1,-14.5493,23.8603)">
            <g transform="matrix(1,0,0,1,197.114,46.701)">
                <path d="M1061.77,1886.37L1068.21,1904.74" style="fill:none;"/>
            </g>
            <g transform="matrix(1.07419,0,0,0.781314,37.3404,449.684)">
                <g transform="matrix(1.03271,0,0,1.0292,-55.9123,-49.9352)">
                    <path d="M1583.27,1498.15C1583.27,1448.76 1554.21,1408.67 1518.4,1408.67L1178.82,1408.67C1143.02,1408.67 1113.95,1448.76 1113.95,1498.15L1113.95,1677.12C1113.95,1726.51 1143.02,1766.61 1178.82,1766.61L1518.4,1766.61C1554.21,1766.61 1583.27,1726.51 1583.27,1677.12L1583.27,1498.15Z" style="fill:rgb(179,173,166);"/>
                </g>
                <g transform="matrix(0.990949,0,0,1.03235,10.2001,-55.5057)">
                    <path d="M1583.27,1498.15C1583.27,1448.76 1552.89,1408.67 1515.46,1408.67L1181.76,1408.67C1144.34,1408.67 1113.95,1448.76 1113.95,1498.15L1113.95,1677.12C1113.95,1726.51 1144.34,1766.61 1181.76,1766.61L1515.46,1766.61C1552.89,1766.61 1583.27,1726.51 1583.27,1677.12L1583.27,1498.15Z" style="fill:rgb(203,201,197);"/>
                </g>
            </g>
            <g transform="matrix(0.22036,0,0,0.400431,1169.34,1196.74)">
                <clipPath id="_clip1">
                    <rect x="1113.95" y="1408.67" width="469.316" height="293.605"/>
                </clipPath>
                <g clip-path="url(#_clip1)">
                    <path d="M1583.27,1473.24C1583.27,1437.6 1530.7,1408.67 1465.94,1408.67L1231.28,1408.67C1166.53,1408.67 1113.95,1437.6 1113.95,1473.24L1113.95,1702.04C1113.95,1737.67 1166.53,1766.61 1231.28,1766.61L1465.94,1766.61C1530.7,1766.61 1583.27,1737.67 1583.27,1702.04L1583.27,1473.24Z" style="fill:rgb(179,173,166);"/>
                </g>
            </g>
            <g transform="matrix(0.181002,0,0,0.40341,1229.78,1192.11)">
                <clipPath id="_clip2">
                    <rect x="1113.95" y="1408.67" width="469.316" height="292.525"/>
                </clipPath>
                <g clip-path="url(#_clip2)">
                    <path d="M1583.27,1461.31C1583.27,1432.26 1530.7,1408.67 1465.94,1408.67L1231.28,1408.67C1166.53,1408.67 1113.95,1432.26 1113.95,1461.31L1113.95,1713.96C1113.95,1743.02 1166.53,1766.61 1231.28,1766.61L1465.94,1766.61C1530.7,1766.61 1583.27,1743.02 1583.27,1713.96L1583.27,1461.31Z" style="fill:rgb(203,201,197);"/>
                </g>
            </g>
            <g transform="matrix(1.11068,0,0,0.813343,-651.491,617.137)">
                <g transform="matrix(-1.46198,0,0,0.518552,4579.31,597.018)">
                    <path d="M1860.86,1202.18L1860.42,1202.33L1859.98,1202.54L1859.55,1202.84L1859.12,1203.2L1858.69,1203.65L1858.27,1204.16L1857.85,1204.75L1857.44,1205.41L1857.05,1206.14L1856.65,1206.94L1856.27,1207.8L1855.9,1208.73L1855.54,1209.73L1855.2,1210.78L1854.86,1211.89L1854.54,1213.06L1854.23,1214.28L1853.94,1215.56L1853.66,1216.88L1853.4,1218.25L1853.15,1219.67L1852.92,1221.12L1852.71,1222.62L1852.52,1224.15L1852.34,1225.71L1852.18,1227.3L1852.05,1228.92L1851.92,1230.56L1851.82,1232.21L1851.74,1233.88L1851.68,1235.57L1851.64,1237.27L1851.62,1238.97L1850.16,1434.77L1850.16,1436.47L1850.18,1438.17L1850.22,1439.87L1850.27,1441.56L1850.35,1443.23L1850.44,1444.9L1850.56,1446.54L1850.69,1448.16L1850.85,1449.76L1851.02,1451.33L1851.21,1452.87L1851.41,1454.37L1851.64,1455.84L1851.88,1457.26L1852.14,1458.65L1852.41,1459.99L1852.7,1461.27L1853,1462.51L1853.32,1463.69L1853.65,1464.82L1854,1465.89L1854.35,1466.9L1854.72,1467.85L1855.1,1468.73L1855.49,1469.55L1855.88,1470.29L1856.29,1470.97L1856.7,1471.58L1857.12,1472.12L1857.55,1472.58L1857.98,1472.97L1858.41,1473.28L1858.85,1473.52L1859.29,1473.68L1859.73,1473.77L1860.17,1473.78L1860.62,1473.71L1861.06,1473.57L1861.5,1473.36L1861.93,1473.06L1862.36,1472.69L1862.79,1472.25L1863.21,1471.73L1863.63,1471.14L1864.03,1470.49L1864.43,1469.76L1864.83,1468.96L1865.21,1468.09L1865.58,1467.16L1865.93,1466.17L1866.28,1465.12L1866.62,1464.01L1866.94,1462.84L1867.25,1461.61L1867.54,1460.34L1867.82,1459.01L1868.08,1457.64L1868.33,1456.23L1868.55,1454.77L1868.77,1453.28L1868.96,1451.75L1869.14,1450.19L1869.3,1448.6L1869.43,1446.98L1869.55,1445.34L1869.65,1443.68L1869.74,1442.01L1869.8,1440.33L1869.84,1438.63L1869.86,1436.93L1871.31,1241.13L1871.32,1239.43L1871.3,1237.73L1871.26,1236.03L1871.21,1234.34L1871.13,1232.66L1871.03,1231L1870.92,1229.36L1870.79,1227.74L1870.63,1226.14L1870.46,1224.57L1870.27,1223.03L1870.06,1221.53L1869.84,1220.06L1869.6,1218.63L1869.34,1217.25L1869.07,1215.91L1868.78,1214.62L1868.48,1213.39L1868.16,1212.2L1867.83,1211.07L1867.48,1210.01L1867.12,1209L1866.76,1208.05L1866.38,1207.17L1865.99,1206.35L1865.59,1205.6L1865.19,1204.92L1864.78,1204.32L1864.36,1203.78L1863.93,1203.32L1863.5,1202.93L1863.07,1202.62L1862.63,1202.38L1862.19,1202.21L1861.75,1202.13L1861.3,1202.12L1860.86,1202.18Z" style="fill:rgb(179,176,172);"/>
                </g>
                <g transform="matrix(-1.46198,0,0,0.518552,4661.31,597.018)">
                    <path d="M1860.86,1202.18L1860.42,1202.33L1859.98,1202.54L1859.55,1202.84L1859.12,1203.2L1858.69,1203.65L1858.27,1204.16L1857.85,1204.75L1857.44,1205.41L1857.05,1206.14L1856.65,1206.94L1856.27,1207.8L1855.9,1208.73L1855.54,1209.73L1855.2,1210.78L1854.86,1211.89L1854.54,1213.06L1854.23,1214.28L1853.94,1215.56L1853.66,1216.88L1853.4,1218.25L1853.15,1219.67L1852.92,1221.12L1852.71,1222.62L1852.52,1224.15L1852.34,1225.71L1852.18,1227.3L1852.05,1228.92L1851.92,1230.56L1851.82,1232.21L1851.74,1233.88L1851.68,1235.57L1851.64,1237.27L1851.62,1238.97L1850.16,1434.77L1850.16,1436.47L1850.18,1438.17L1850.22,1439.87L1850.27,1441.56L1850.35,1443.23L1850.44,1444.9L1850.56,1446.54L1850.69,1448.16L1850.85,1449.76L1851.02,1451.33L1851.21,1452.87L1851.41,1454.37L1851.64,1455.84L1851.88,1457.26L1852.14,1458.65L1852.41,1459.99L1852.7,1461.27L1853,1462.51L1853.32,1463.69L1853.65,1464.82L1854,1465.89L1854.35,1466.9L1854.72,1467.85L1855.1,1468.73L1855.49,1469.55L1855.88,1470.29L1856.29,1470.97L1856.7,1471.58L1857.12,1472.12L1857.55,1472.58L1857.98,1472.97L1858.41,1473.28L1858.85,1473.52L1859.29,1473.68L1859.73,1473.77L1860.17,1473.78L1860.62,1473.71L1861.06,1473.57L1861.5,1473.36L1861.93,1473.06L1862.36,1472.69L1862.79,1472.25L1863.21,1471.73L1863.63,1471.14L1864.03,1470.49L1864.43,1469.76L1864.83,1468.96L1865.21,1468.09L1865.58,1467.16L1865.93,1466.17L1866.28,1465.12L1866.62,1464.01L1866.94,1462.84L1867.25,1461.61L1867.54,1460.34L1867.82,1459.01L1868.08,1457.64L1868.33,1456.23L1868.55,1454.77L1868.77,1453.28L1868.96,1451.75L1869.14,1450.19L1869.3,1448.6L1869.43,1446.98L1869.55,1445.34L1869.65,1443.68L1869.74,1442.01L1869.8,1440.33L1869.84,1438.63L1869.86,1436.93L1871.31,1241.13L1871.32,1239.43L1871.3,1237.73L1871.26,1236.03L1871.21,1234.34L1871.13,1232.66L1871.03,1231L1870.92,1229.36L1870.79,1227.74L1870.63,1226.14L1870.46,1224.57L1870.27,1223.03L1870.06,1221.53L1869.84,1220.06L1869.6,1218.63L1869.34,1217.25L1869.07,1215.91L1868.78,1214.62L1868.47,1213.39L1868.16,1212.2L1867.83,1211.07L1867.48,1210.01L1867.12,1209L1866.76,1208.05L1866.38,1207.17L1865.99,1206.35L1865.59,1205.6L1865.19,1204.92L1864.78,1204.32L1864.36,1203.78L1863.93,1203.32L1863.5,1202.93L1863.07,1202.62L1862.63,1202.38L1862.19,1202.21L1861.75,1202.13L1861.3,1202.12L1860.86,1202.18Z" style="fill:rgb(179,176,172);"/>
                </g>
                <path d="M1939.75,1263.52L1940.39,1263.57L1941.04,1263.65L1941.67,1263.78L1942.31,1263.94L1942.94,1264.15L1943.56,1264.39L1944.17,1264.67L1944.78,1264.99L1945.37,1265.34L1945.95,1265.73L1946.52,1266.16L1947.07,1266.62L1947.6,1267.11L1948.12,1267.64L1948.62,1268.19L1949.11,1268.78L1949.57,1269.39L1950.01,1270.04L1950.43,1270.71L1950.83,1271.4L1951.21,1272.12L1951.56,1272.86L1951.89,1273.63L1952.19,1274.41L1952.46,1275.21L1952.71,1276.02L1952.93,1276.85L1953.13,1277.69L1953.29,1278.55L1953.43,1279.41L1953.54,1280.28L1953.62,1281.15L1953.67,1282.03L1953.7,1282.92L1953.69,1283.8L1953.66,1284.68L1953.59,1285.56L1953.5,1286.43L1953.38,1287.3L1953.23,1288.16L1953.05,1289.01L1952.85,1289.84L1952.61,1290.67L1952.36,1291.48L1952.07,1292.27L1951.76,1293.04L1951.42,1293.8L1951.06,1294.53L1950.67,1295.24L1950.27,1295.92L1949.84,1296.58L1949.39,1297.21L1948.92,1297.82L1948.42,1298.39L1947.92,1298.94L1947.39,1299.45L1946.85,1299.93L1946.29,1300.38L1945.72,1300.79L1945.13,1301.16L1944.54,1301.5L1943.93,1301.81L1943.31,1302.07L1942.69,1302.3L1942.06,1302.49L1941.42,1302.64L1940.78,1302.75L1940.13,1302.82L1939.49,1302.85L1865.27,1304.21L1864.63,1304.2L1863.98,1304.15L1863.34,1304.07L1862.7,1303.94L1862.06,1303.78L1861.43,1303.57L1860.81,1303.33L1860.2,1303.05L1859.6,1302.73L1859,1302.38L1858.42,1301.99L1857.86,1301.56L1857.31,1301.1L1856.77,1300.61L1856.25,1300.08L1855.75,1299.53L1855.27,1298.94L1854.8,1298.32L1854.36,1297.68L1853.94,1297.01L1853.54,1296.32L1853.16,1295.6L1852.81,1294.86L1852.49,1294.09L1852.19,1293.31L1851.91,1292.51L1851.66,1291.7L1851.44,1290.87L1851.25,1290.03L1851.08,1289.17L1850.94,1288.31L1850.83,1287.44L1850.75,1286.57L1850.7,1285.69L1850.68,1284.8L1850.68,1283.92L1850.72,1283.04L1850.78,1282.16L1850.87,1281.29L1850.99,1280.42L1851.14,1279.56L1851.32,1278.71L1851.53,1277.88L1851.76,1277.05L1852.02,1276.24L1852.3,1275.45L1852.62,1274.68L1852.95,1273.92L1853.31,1273.19L1853.7,1272.48L1854.11,1271.8L1854.54,1271.14L1854.99,1270.51L1855.46,1269.9L1855.95,1269.33L1856.46,1268.78L1856.98,1268.27L1857.53,1267.79L1858.08,1267.34L1858.66,1266.93L1859.24,1266.56L1859.84,1266.22L1860.44,1265.91L1861.06,1265.65L1861.69,1265.42L1862.32,1265.23L1862.95,1265.08L1863.6,1264.97L1864.24,1264.9L1864.89,1264.87L1939.1,1263.51L1939.75,1263.52Z" style="fill:rgb(179,176,172);"/>
            </g>
        </g>
        <g transform="matrix(0.859383,0,0,0.859383,179.07,232.958)">
            <g transform="matrix(1,0,0,1,494.852,382.921)">
                <ellipse cx="931.331" cy="751.252" rx="12.24" ry="0.659" style="fill:rgb(202,154,118);"/>
            </g>
            <g transform="matrix(0.466213,0,0,0.453362,1155.38,1001.59)">
                <ellipse cx="931.794" cy="727.851" rx="48.989" ry="50.265" style="fill:rgb(202,154,118);"/>
            </g>
            <g transform="matrix(0.837381,0,0,0.779417,810.205,763.864)">
                <ellipse cx="931.794" cy="727.851" rx="48.989" ry="50.265" style="fill:rgb(218,196,179);"/>
            </g>
            <g transform="matrix(0.837381,0,0,0.779417,566.834,762.57)">
                <ellipse cx="931.794" cy="727.851" rx="48.989" ry="50.265" style="fill:rgb(218,196,179);"/>
            </g>
            <g transform="matrix(0.466213,0,0,0.453362,912.013,1000.3)">
                <ellipse cx="931.794" cy="727.851" rx="48.989" ry="50.265" style="fill:rgb(202,154,118);"/>
            </g>
            <g transform="matrix(0.466213,0,0,0.453362,1157.03,1001.23)">
                <ellipse cx="931.794" cy="727.851" rx="48.989" ry="50.265" style="fill:rgb(202,154,118);"/>
            </g>
            <g transform="matrix(1.13233,0,0,1.11134,325.215,283.82)">
                <ellipse cx="1009.37" cy="828.185" rx="138.389" ry="134.408"/>
            </g>
            <g transform="matrix(1.20218,0,0,0.977145,336.895,377.783)">
                <ellipse cx="941.597" cy="960.654" rx="109.384" ry="231.338" style="fill:rgb(203,171,147);"/>
            </g>
            <g transform="matrix(1,0,0,1,494.852,382.921)">
                <ellipse cx="931.331" cy="751.252" rx="12.24" ry="0.659" style="fill:rgb(202,154,118);"/>
            </g>
            <g transform="matrix(1.42207,0,0,1.18609,148.988,234.366)">
                <ellipse cx="968.434" cy="758.599" rx="53.645" ry="66.499"/>
            </g>
            <g transform="matrix(1.17005,0,0,1.0196,317.258,361.318)">
                <ellipse cx="923.295" cy="742.172" rx="61.623" ry="62.313"/>
            </g>
            <g transform="matrix(1,0,0,1,468.852,382.921)">
                <ellipse cx="1134.03" cy="780.204" rx="21.41" ry="20.114"/>
            </g>
            <g transform="matrix(1,0,0,1,437.252,326.834)">
                <ellipse cx="894.643" cy="810.662" rx="21.6" ry="22.789"/>
            </g>
            <g transform="matrix(1.55107,0,0,1.78315,659.235,-298.029)">
                <ellipse cx="480.389" cy="887.928" rx="8.975" ry="8.478"/>
            </g>
            <g transform="matrix(1.55107,0,0,1.78315,783.235,-298.029)">
                <ellipse cx="480.389" cy="887.928" rx="8.975" ry="8.478"/>
            </g>
            <g transform="matrix(0.0279348,-1.59344,0.992192,-0.0288432,217.887,2681.94)">
                <path d="M765.116,1196.55C748.633,1196.55 735.25,1214.74 735.25,1237.14C735.25,1259.54 748.633,1277.73 765.116,1277.73C760.171,1268.26 756.156,1253.33 756.156,1237.14C756.156,1220.95 760.171,1206.02 765.116,1196.55Z"/>
            </g>
            <g transform="matrix(0.839738,0,0,0.388882,-57.4351,1034.49)">
                <ellipse cx="1812.78" cy="1109.47" rx="22.706" ry="21.753" style="fill:rgb(218,37,26);"/>
            </g>
            <g transform="matrix(1,0,0,1,31,0)">
                <path d="M1413.58,1272.85C1413.58,1265.77 1407.83,1260.02 1400.76,1260.02L1345.84,1260.02C1338.76,1260.02 1333.01,1265.77 1333.01,1272.85L1333.01,1298.5C1333.01,1305.58 1338.76,1311.33 1345.84,1311.33L1400.76,1311.33C1407.83,1311.33 1413.58,1305.58 1413.58,1298.5L1413.58,1272.85Z" style="fill:none;stroke:rgb(13,41,167);stroke-width:9.7px;"/>
            </g>
            <g transform="matrix(1,0,0,1,160.596,-0.333149)">
                <path d="M1413.58,1272.85C1413.58,1265.77 1407.83,1260.02 1400.76,1260.02L1345.84,1260.02C1338.76,1260.02 1333.01,1265.77 1333.01,1272.85L1333.01,1298.5C1333.01,1305.58 1338.76,1311.33 1345.84,1311.33L1400.76,1311.33C1407.83,1311.33 1413.58,1305.58 1413.58,1298.5L1413.58,1272.85Z" style="fill:none;stroke:rgb(13,41,167);stroke-width:9.7px;"/>
            </g>
            <g transform="matrix(1,0,0,1,31,0)">
                <path d="M1569.63,1270.46L1569.91,1270.48L1570.2,1270.5L1570.49,1270.54L1570.77,1270.58L1571.05,1270.63L1571.33,1270.69L1571.61,1270.75L1571.89,1270.83L1572.16,1270.91L1572.43,1271.01L1572.7,1271.11L1572.97,1271.22L1573.23,1271.34L1573.48,1271.46L1573.74,1271.59L1573.99,1271.74L1574.23,1271.88L1574.47,1272.04L1574.71,1272.2L1574.94,1272.38L1575.16,1272.55L1575.38,1272.74L1575.6,1272.93L1575.81,1273.13L1576.01,1273.33L1576.2,1273.54L1576.39,1273.76L1576.57,1273.98L1576.75,1274.2L1576.91,1274.44L1577.07,1274.67L1577.23,1274.92L1577.37,1275.16L1577.51,1275.42L1577.64,1275.67L1577.76,1275.93L1577.88,1276.19L1577.98,1276.46L1578.08,1276.73L1578.17,1277L1578.25,1277.28L1578.32,1277.56L1578.39,1277.84L1578.44,1278.12L1578.49,1278.4L1578.53,1278.68L1578.56,1278.97L1578.58,1279.25L1578.59,1279.54L1578.59,1279.83L1578.58,1280.11L1578.57,1280.4L1578.54,1280.69L1578.51,1280.97L1578.47,1281.26L1578.42,1281.54L1578.36,1281.82L1578.29,1282.1L1578.22,1282.37L1578.13,1282.65L1578.04,1282.92L1577.94,1283.19L1577.83,1283.45L1577.71,1283.71L1577.59,1283.97L1577.45,1284.22L1577.31,1284.47L1577.16,1284.72L1577.01,1284.96L1576.84,1285.19L1576.67,1285.42L1576.5,1285.65L1576.31,1285.87L1576.12,1286.08L1575.92,1286.29L1575.72,1286.49L1575.51,1286.69L1575.29,1286.88L1575.07,1287.06L1574.84,1287.23L1574.61,1287.4L1574.37,1287.56L1574.13,1287.71L1573.88,1287.86L1573.63,1288L1573.38,1288.13L1573.12,1288.25L1572.85,1288.36L1572.59,1288.47L1572.32,1288.57L1572.05,1288.66L1571.77,1288.74L1571.49,1288.81L1571.21,1288.87L1549.02,1293.58L1548.74,1293.64L1548.45,1293.68L1548.17,1293.72L1547.88,1293.75L1547.6,1293.77L1547.31,1293.78L1547.02,1293.78L1546.74,1293.78L1546.45,1293.76L1546.16,1293.74L1545.88,1293.71L1545.6,1293.66L1545.31,1293.62L1545.03,1293.56L1544.76,1293.49L1544.48,1293.41L1544.2,1293.33L1543.93,1293.24L1543.66,1293.13L1543.4,1293.02L1543.14,1292.91L1542.88,1292.78L1542.63,1292.65L1542.38,1292.51L1542.13,1292.36L1541.89,1292.2L1541.66,1292.04L1541.43,1291.87L1541.2,1291.69L1540.98,1291.51L1540.77,1291.31L1540.56,1291.12L1540.36,1290.91L1540.16,1290.7L1539.98,1290.49L1539.79,1290.26L1539.62,1290.04L1539.45,1289.8L1539.29,1289.57L1539.14,1289.32L1538.99,1289.08L1538.85,1288.83L1538.72,1288.57L1538.6,1288.31L1538.49,1288.05L1538.38,1287.78L1538.28,1287.51L1538.19,1287.24L1538.11,1286.96L1538.04,1286.69L1537.98,1286.41L1537.92,1286.13L1537.88,1285.84L1537.84,1285.56L1537.81,1285.27L1537.79,1284.99L1537.78,1284.7L1537.78,1284.41L1537.78,1284.13L1537.8,1283.84L1537.82,1283.56L1537.85,1283.27L1537.89,1282.99L1537.94,1282.7L1538,1282.42L1538.07,1282.15L1538.15,1281.87L1538.23,1281.6L1538.33,1281.32L1538.43,1281.06L1538.54,1280.79L1538.65,1280.53L1538.78,1280.27L1538.91,1280.02L1539.05,1279.77L1539.2,1279.52L1539.36,1279.28L1539.52,1279.05L1539.69,1278.82L1539.87,1278.59L1540.06,1278.37L1540.25,1278.16L1540.44,1277.95L1540.65,1277.75L1540.86,1277.56L1541.07,1277.37L1541.3,1277.18L1541.52,1277.01L1541.76,1276.84L1541.99,1276.68L1542.24,1276.53L1542.48,1276.38L1542.73,1276.25L1542.99,1276.12L1543.25,1275.99L1543.51,1275.88L1543.78,1275.77L1544.05,1275.68L1544.32,1275.59L1544.6,1275.51L1544.87,1275.43L1545.15,1275.37L1567.35,1270.66L1567.63,1270.61L1567.91,1270.56L1568.2,1270.52L1568.48,1270.49L1568.77,1270.47L1569.06,1270.46L1569.34,1270.46L1569.63,1270.46Z" style="fill:rgb(13,41,167);"/>
            </g>
            <g transform="matrix(0.780759,0,0,0.803698,317.408,251.483)">
                <path d="M1306.69,1269.53L1307.04,1269.54L1307.4,1269.56L1307.75,1269.6L1308.11,1269.64L1308.46,1269.7L1335.52,1274.4L1335.87,1274.46L1336.21,1274.54L1336.56,1274.63L1336.9,1274.72L1337.24,1274.83L1337.58,1274.94L1337.91,1275.07L1338.24,1275.21L1338.56,1275.35L1338.88,1275.51L1339.2,1275.67L1339.51,1275.84L1339.81,1276.02L1340.11,1276.21L1340.4,1276.41L1340.69,1276.62L1340.96,1276.83L1341.24,1277.06L1341.5,1277.29L1341.76,1277.53L1342.01,1277.77L1342.26,1278.03L1342.49,1278.29L1342.72,1278.55L1342.94,1278.83L1343.15,1279.11L1343.35,1279.39L1343.54,1279.68L1343.73,1279.98L1343.9,1280.28L1344.07,1280.59L1344.22,1280.9L1344.37,1281.22L1344.5,1281.54L1344.63,1281.86L1344.75,1282.19L1344.85,1282.52L1344.95,1282.86L1345.03,1283.19L1345.11,1283.53L1345.17,1283.87L1345.23,1284.21L1345.27,1284.56L1345.31,1284.9L1345.33,1285.25L1345.34,1285.6L1345.34,1285.94L1345.33,1286.29L1345.31,1286.63L1345.28,1286.98L1345.24,1287.32L1345.18,1287.67L1345.12,1288.01L1345.05,1288.35L1344.96,1288.68L1344.87,1289.02L1344.77,1289.35L1344.65,1289.68L1344.53,1290L1344.39,1290.32L1344.25,1290.64L1344.1,1290.95L1343.93,1291.26L1343.76,1291.56L1343.58,1291.86L1343.39,1292.15L1343.18,1292.44L1342.98,1292.72L1342.76,1293L1342.53,1293.27L1342.3,1293.53L1342.06,1293.78L1341.81,1294.03L1341.55,1294.27L1341.29,1294.5L1341.02,1294.73L1340.74,1294.94L1340.45,1295.15L1340.16,1295.35L1339.86,1295.54L1339.56,1295.73L1339.25,1295.9L1338.94,1296.07L1338.62,1296.22L1338.3,1296.37L1337.97,1296.51L1337.64,1296.63L1337.3,1296.75L1336.96,1296.86L1336.62,1296.96L1336.28,1297.05L1335.93,1297.12L1335.58,1297.19L1335.23,1297.25L1334.87,1297.3L1334.52,1297.33L1334.16,1297.36L1333.81,1297.38L1333.45,1297.38L1333.09,1297.38L1332.74,1297.36L1332.38,1297.34L1332.03,1297.3L1331.67,1297.26L1331.32,1297.2L1304.26,1292.51L1303.91,1292.44L1303.57,1292.36L1303.22,1292.28L1302.88,1292.18L1302.54,1292.07L1302.2,1291.96L1301.87,1291.83L1301.54,1291.7L1301.22,1291.55L1300.9,1291.4L1300.58,1291.24L1300.27,1291.06L1299.97,1290.88L1299.67,1290.69L1299.38,1290.49L1299.09,1290.29L1298.81,1290.07L1298.54,1289.85L1298.28,1289.62L1298.02,1289.38L1297.77,1289.13L1297.52,1288.88L1297.29,1288.62L1297.06,1288.35L1296.84,1288.08L1296.63,1287.8L1296.43,1287.51L1296.24,1287.22L1296.05,1286.92L1295.88,1286.62L1295.71,1286.31L1295.56,1286L1295.41,1285.68L1295.28,1285.36L1295.15,1285.04L1295.03,1284.71L1294.93,1284.38L1294.83,1284.05L1294.75,1283.71L1294.67,1283.37L1294.61,1283.03L1294.55,1282.69L1294.51,1282.35L1294.47,1282L1294.45,1281.65L1294.44,1281.31L1294.44,1280.96L1294.45,1280.62L1294.47,1280.27L1294.5,1279.92L1294.54,1279.58L1294.59,1279.24L1294.66,1278.89L1294.73,1278.56L1294.81,1278.22L1294.91,1277.88L1295.01,1277.55L1295.13,1277.23L1295.25,1276.9L1295.39,1276.58L1295.53,1276.26L1295.68,1275.95L1295.85,1275.64L1296.02,1275.34L1296.2,1275.04L1296.39,1274.75L1296.59,1274.46L1296.8,1274.18L1297.02,1273.91L1297.25,1273.64L1297.48,1273.38L1297.72,1273.12L1297.97,1272.87L1298.23,1272.63L1298.49,1272.4L1298.76,1272.18L1299.04,1271.96L1299.33,1271.75L1299.62,1271.55L1299.92,1271.36L1300.22,1271.18L1300.53,1271L1300.84,1270.84L1301.16,1270.68L1301.48,1270.54L1301.81,1270.4L1302.14,1270.27L1302.48,1270.15L1302.82,1270.04L1303.16,1269.95L1303.5,1269.86L1303.85,1269.78L1304.2,1269.71L1304.55,1269.65L1304.91,1269.61L1305.26,1269.57L1305.62,1269.54L1305.97,1269.53L1306.33,1269.52L1306.69,1269.53Z" style="fill:rgb(13,41,167);"/>
            </g>
            <path d="M1480.54,1326.75L1491.67,1356.43C1483.96,1366.22 1472.32,1368.81 1454.72,1360.51" style="fill:none;stroke:rgb(202,154,118);stroke-width:9.7px;"/>
            <g transform="matrix(1,0,0,1,31,0)">
                <path d="M1417.74,1284.29L1460.13,1283.69" style="fill:none;stroke:rgb(13,41,167);stroke-width:9.7px;"/>
            </g>
        </g>
        <g>
            <g transform="matrix(1,0,0,1,-1033.94,416.846)">
                <path d="M2024.54,1338.14L2047.25,1487.61L2118.24,1487.1L2137.82,1338.08L2024.54,1338.14Z" style="fill:rgb(195,199,205);"/>
            </g>
            <g transform="matrix(1,0,0,1,-1033.94,416.846)">
                <path d="M2137.82,1320.16C2137.82,1317.78 2135.88,1315.85 2133.5,1315.85L2028.86,1315.85C2026.47,1315.85 2024.54,1317.78 2024.54,1320.16L2024.54,1328.8C2024.54,1331.18 2026.47,1333.11 2028.86,1333.11L2133.5,1333.11C2135.88,1333.11 2137.82,1331.18 2137.82,1328.8L2137.82,1320.16Z" style="fill:rgb(233,115,120);"/>
            </g>
            <g transform="matrix(1,0,0,1.39065,-1033.94,-107.452)">
                <rect x="2019.46" y="1333.11" width="124.891" height="9.012" style="fill:rgb(195,199,205);"/>
            </g>
            <g transform="matrix(1,0,0,1,-1033.94,416.846)">
                <path d="M2031.85,1383.03L2132.1,1382.91L2122.36,1450.62L2041.76,1450.84L2031.85,1383.03Z" style="fill:rgb(233,115,120);"/>
            </g>
        </g>
    </g>
</svg>
