<?xml version="1.0" encoding="UTF-8" standalone="no"?><!DOCTYPE svg PUBLIC "-//W3C//DTD SVG 1.1//EN" "http://www.w3.org/Graphics/SVG/1.1/DTD/svg11.dtd"><svg width="100%" height="100%" viewBox="0 0 140 100" version="1.1" xmlns="http://www.w3.org/2000/svg" xmlns:xlink="http://www.w3.org/1999/xlink" xml:space="preserve" xmlns:serif="http://www.serif.com/" style="fill-rule:evenodd;clip-rule:evenodd;stroke-linejoin:round;stroke-miterlimit:1.41421;"><g transform="matrix(1.20754,0,0,1.20754,-14.0327,-2.90625)"><text x="25.287px" y="63.67px" style="font-family:'Arial-Black', 'Arial Black', sans-serif;font-weight:900;font-size:55.443px;fill:#00ff63;">&lt;</text><path d="M58.964,36.653l-18.707,7.201l18.707,7.228l0,9.556l-30.781,-12.805l0,-8.013l30.781,-12.778l0,9.611Zm-29.538,3.996l0,6.356l28.296,11.771l0,-6.842l-17.912,-6.922l-0.114,-0.05l-0.108,-0.062l-0.101,-0.072l-0.094,-0.082l-0.085,-0.091l-0.075,-0.099l-0.065,-0.106l-0.055,-0.112l-0.042,-0.117l-0.031,-0.121l-0.019,-0.123l-0.006,-0.124l0.007,-0.124l0.018,-0.123l0.031,-0.121l0.043,-0.117l0.054,-0.112l0.066,-0.106l0.075,-0.099l0.085,-0.09l0.094,-0.082l0.101,-0.072l0.108,-0.062l0.114,-0.05l17.911,-6.895l0,-6.897l-28.296,11.746Z"/><text x="61.888px" y="63.67px" style="font-family:'Arial-Black', 'Arial Black', sans-serif;font-weight:900;font-size:55.443px;fill:#009dff;">\</text><path d="M77.265,64.32l-5.577,0l-9.963,-41.014l5.631,0l9.909,41.014Zm-13.96,-39.772l9.359,38.53l3.023,0l-9.308,-38.53l-3.074,0Z"/><text x="77.292px" y="63.67px" style="font-family:'Arial-Black', 'Arial Black', sans-serif;font-weight:900;font-size:55.443px;fill:#fff000;">&gt;</text><path d="M110.996,39.82l0,8.013l-30.78,12.805l0,-9.556l18.706,-7.228l-18.706,-7.201l0,-9.611l30.78,12.778Zm-29.538,-4.02l17.91,6.895l0.114,0.05l0.108,0.062l0.102,0.072l0.093,0.082l0.086,0.09l0.075,0.099l0.065,0.106l0.055,0.112l0.042,0.117l0.031,0.121l0.019,0.123l0.006,0.124l-0.006,0.124l-0.018,0.123l-0.031,0.121l-0.043,0.117l-0.054,0.112l-0.065,0.106l-0.075,0.099l-0.085,0.091l-0.094,0.082l-0.101,0.072l-0.108,0.062l-0.114,0.05l-17.912,6.922l0,6.842l28.296,-11.771l0,-6.356l-28.296,-11.746l0,6.897Z"/></g></svg>