<?xml version="1.0" encoding="UTF-8" standalone="no"?><!DOCTYPE svg PUBLIC "-//W3C//DTD SVG 1.1//EN" "http://www.w3.org/Graphics/SVG/1.1/DTD/svg11.dtd"><svg width="100%" height="100%" viewBox="0 0 140 100" version="1.1" xmlns="http://www.w3.org/2000/svg" xmlns:xlink="http://www.w3.org/1999/xlink" xml:space="preserve" xmlns:serif="http://www.serif.com/" style="fill-rule:evenodd;clip-rule:evenodd;stroke-linejoin:round;stroke-miterlimit:1.41421;"><g><path d="M96.569,12.966l-20.713,8.112l-0.031,0.006c-1.87,0.834 -3.239,2.316 -4.075,4.394c-0.749,1.861 -0.806,3.607 -0.806,4.1l0,0.969l34.412,-13.3l-1.625,-0.794l-30.137,11.65c0.916,-1.244 2.404,-2.331 4.45,-3.244l23.693,-9.375l-1.612,-0.787l-22.581,8.931l-0.025,0.013c-2.233,0.994 -3.89,2.203 -4.95,3.612c0.419,-1.708 1.415,-3.888 3.781,-4.95l21.837,-8.55l-1.618,-0.787Zm-53.113,0.006l-1.625,0.787l21.813,8.544c2.366,1.062 3.362,3.242 3.781,4.95c-1.06,-1.409 -2.717,-2.619 -4.95,-3.612l-22.588,-8.938l-1.618,0.788l23.681,9.368c2.046,0.913 3.534,2 4.45,3.244l-30.125,-11.644l-1.631,0.794l34.406,13.294l0,-0.969c0,-0.493 -0.057,-2.239 -0.806,-4.1c-0.836,-2.078 -2.205,-3.56 -4.075,-4.394l-20.713,-8.112Zm-13.456,5.944l0,53.337l32.431,12.7l0,-53.331l-32.431,-12.706Zm80,0l-32.431,12.706l0,53.331l32.431,-12.7l0,-53.337Zm-45.462,14.031l0,54.087l10.925,0l0,-54.087l-10.925,0Z" style="fill:#09f483;fill-rule:nonzero;stroke:#000;stroke-width:1px;"/><path d="M85.418,40.649l18.763,-7.935l-0.194,33.044l-18.968,7.79l0.399,-32.899Z" style="fill:#fe0;"/></g></svg>