<svg width="100%" height="100%" viewBox="0 0 140 100" version="1.1" xmlns="http://www.w3.org/2000/svg" xmlns:xlink="http://www.w3.org/1999/xlink" xml:space="preserve" xmlns:serif="http://www.serif.com/" style="fill-rule:evenodd;clip-rule:evenodd;stroke-linecap:round;stroke-miterlimit:1.5;"><g id="Layer2"><path d="M38.689,85.659l62.152,0l0.696,-20.252l5.963,0.001l0,-7.216l-74.628,0.232l0,7.216l5.584,0l0.233,20.019Z" style="fill:#00afff;"/><path d="M109,66.908l-6.013,-0.001l-0.697,20.252l-65.084,0l-0.232,-20.019l-5.602,0l0,-10.211l77.628,-0.242l0,10.221Zm-76.128,-8.484l0,7.216l5.584,0l0.233,20.019l62.152,0l0.696,-20.252l5.963,0.001l0,-7.216l-74.628,0.232Z"/><path d="M32.5,52.469l67.937,2.105c0,0 -1.646,-27.989 -29.861,-29.233c-28.216,-1.244 -34.942,14.872 -38.076,27.128Z" style="fill:#09f483;"/><path d="M68.003,23.775l0.323,0.003l0.325,0.004l0.327,0.006l0.329,0.008l0.331,0.009l0.333,0.011l0.334,0.013l0.338,0.014l0.34,0.016l0.338,0.019l0.337,0.021l0.334,0.024l0.331,0.027l0.33,0.028l0.327,0.032l0.324,0.033l0.323,0.036l0.32,0.039l0.318,0.04l0.315,0.044l0.313,0.045l0.311,0.048l0.309,0.05l0.306,0.052l0.305,0.055l0.301,0.056l0.3,0.059l0.298,0.062l0.295,0.063l0.293,0.065l0.291,0.068l0.288,0.07l0.286,0.072l0.285,0.074l0.282,0.076l0.279,0.078l0.278,0.08l0.275,0.082l0.274,0.084l0.271,0.086l0.269,0.088l0.266,0.09l0.265,0.091l0.262,0.094l0.261,0.096l0.258,0.097l0.256,0.099l0.254,0.101l0.252,0.103l0.25,0.104l0.247,0.107l0.246,0.108l0.244,0.109l0.241,0.112l0.239,0.113l0.238,0.114l0.235,0.117l0.233,0.118l0.231,0.119l0.229,0.121l0.227,0.123l0.225,0.124l0.223,0.125l0.221,0.127l0.219,0.128l0.217,0.13l0.215,0.131l0.213,0.133l0.211,0.134l0.209,0.135l0.207,0.137l0.205,0.138l0.203,0.139l0.201,0.14l0.199,0.142l0.197,0.143l0.195,0.144l0.194,0.145l0.191,0.146l0.19,0.148l0.187,0.148l0.186,0.15l0.184,0.151l0.182,0.151l0.18,0.153l0.179,0.154l0.176,0.154l0.175,0.156l0.172,0.156l0.171,0.158l0.169,0.158l0.168,0.159l0.165,0.16l0.164,0.161l0.162,0.161l0.16,0.162l0.158,0.163l0.157,0.164l0.155,0.164l0.153,0.165l0.152,0.166l0.149,0.167l0.148,0.167l0.147,0.167l0.144,0.168l0.143,0.169l0.142,0.169l0.139,0.17l0.138,0.17l0.137,0.171l0.134,0.171l0.133,0.171l0.132,0.172l0.13,0.172l0.128,0.173l0.127,0.173l0.125,0.173l0.123,0.174l0.123,0.174l0.12,0.174l0.119,0.174l0.117,0.174l0.116,0.175l0.115,0.175l0.113,0.175l0.111,0.175l0.11,0.175l0.108,0.176l0.108,0.175l0.105,0.176l0.104,0.175l0.103,0.175l0.101,0.176l0.1,0.175l0.099,0.176l0.097,0.175l0.096,0.175l0.094,0.175l0.093,0.175l0.092,0.175l0.09,0.174l0.09,0.175l0.087,0.174l0.087,0.174l0.085,0.174l0.084,0.173l0.083,0.173l0.081,0.173l0.08,0.172l0.079,0.172l0.078,0.172l0.076,0.171l0.075,0.171l0.074,0.171l0.073,0.17l0.072,0.169l0.07,0.169l0.07,0.169l0.068,0.168l0.067,0.167l0.066,0.167l0.064,0.166l0.064,0.166l0.063,0.165l0.061,0.164l0.061,0.166l0.117,0.323l0.113,0.323l0.11,0.319l0.105,0.316l0.101,0.313l0.097,0.309l0.094,0.305l0.09,0.302l0.086,0.298l0.082,0.293l0.079,0.289l0.076,0.285l0.072,0.28l0.069,0.275l0.065,0.271l0.063,0.265l0.059,0.26l0.057,0.255l0.053,0.249l0.051,0.243l0.048,0.238l0.045,0.232l0.043,0.225l0.04,0.219l0.038,0.213l0.035,0.206l0.033,0.199l0.031,0.192l0.028,0.186l0.027,0.177l0.024,0.171l0.023,0.163l0.021,0.157l0.035,0.285l0.03,0.254l0.023,0.221l0.018,0.185l0.013,0.148l0.009,0.113l0.121,1.742l-69.594,-2.157l-1.407,-1.873l0.075,-0.291l0.077,-0.294l0.078,-0.296l0.08,-0.297l0.081,-0.298l0.084,-0.3l0.084,-0.302l0.087,-0.302l0.088,-0.304l0.091,-0.305l0.092,-0.306l0.094,-0.307l0.097,-0.307l0.098,-0.309l0.1,-0.309l0.103,-0.311l0.105,-0.31l0.108,-0.312l0.109,-0.312l0.112,-0.312l0.115,-0.313l0.117,-0.313l0.12,-0.314l0.122,-0.314l0.126,-0.314l0.128,-0.314l0.13,-0.314l0.134,-0.314l0.137,-0.314l0.139,-0.314l0.143,-0.313l0.146,-0.314l0.148,-0.311l0.076,-0.158l0.077,-0.156l0.077,-0.156l0.078,-0.156l0.079,-0.156l0.08,-0.156l0.08,-0.156l0.082,-0.155l0.082,-0.155l0.084,-0.155l0.084,-0.155l0.085,-0.155l0.086,-0.155l0.086,-0.154l0.088,-0.154l0.089,-0.154l0.089,-0.153l0.091,-0.154l0.091,-0.153l0.092,-0.153l0.094,-0.153l0.094,-0.152l0.095,-0.152l0.096,-0.152l0.098,-0.151l0.098,-0.151l0.099,-0.151l0.1,-0.151l0.101,-0.15l0.102,-0.15l0.103,-0.149l0.105,-0.149l0.105,-0.149l0.106,-0.148l0.107,-0.148l0.109,-0.148l0.109,-0.147l0.111,-0.147l0.111,-0.146l0.113,-0.146l0.113,-0.146l0.115,-0.145l0.116,-0.144l0.117,-0.144l0.118,-0.144l0.12,-0.143l0.12,-0.143l0.121,-0.142l0.123,-0.142l0.124,-0.141l0.125,-0.14l0.126,-0.14l0.127,-0.14l0.129,-0.139l0.129,-0.138l0.131,-0.138l0.132,-0.137l0.133,-0.136l0.134,-0.136l0.136,-0.136l0.137,-0.134l0.138,-0.135l0.139,-0.133l0.14,-0.133l0.142,-0.132l0.143,-0.131l0.144,-0.131l0.146,-0.13l0.146,-0.13l0.148,-0.129l0.149,-0.127l0.151,-0.128l0.152,-0.126l0.153,-0.126l0.154,-0.125l0.156,-0.124l0.157,-0.124l0.158,-0.123l0.159,-0.122l0.161,-0.121l0.162,-0.12l0.164,-0.12l0.165,-0.118l0.166,-0.118l0.167,-0.117l0.169,-0.116l0.17,-0.116l0.172,-0.114l0.173,-0.114l0.174,-0.112l0.176,-0.112l0.177,-0.111l0.178,-0.11l0.18,-0.109l0.181,-0.108l0.183,-0.107l0.184,-0.106l0.185,-0.106l0.187,-0.104l0.188,-0.103l0.19,-0.103l0.191,-0.101l0.193,-0.1l0.193,-0.1l0.196,-0.098l0.197,-0.098l0.198,-0.096l0.2,-0.095l0.201,-0.094l0.202,-0.094l0.204,-0.092l0.206,-0.091l0.207,-0.09l0.208,-0.089l0.21,-0.088l0.212,-0.086l0.213,-0.086l0.214,-0.084l0.216,-0.084l0.218,-0.082l0.219,-0.081l0.22,-0.08l0.222,-0.079l0.224,-0.077l0.225,-0.077l0.226,-0.075l0.229,-0.074l0.229,-0.073l0.231,-0.072l0.233,-0.071l0.235,-0.069l0.236,-0.068l0.237,-0.067l0.239,-0.066l0.241,-0.064l0.242,-0.063l0.244,-0.062l0.245,-0.061l0.247,-0.06l0.249,-0.058l0.25,-0.057l0.252,-0.055l0.254,-0.054l0.255,-0.053l0.257,-0.052l0.258,-0.051l0.26,-0.049l0.262,-0.047l0.263,-0.047l0.265,-0.045l0.267,-0.044l0.268,-0.042l0.27,-0.041l0.272,-0.04l0.274,-0.038l0.275,-0.037l0.277,-0.035l0.278,-0.034l0.28,-0.033l0.282,-0.031l0.284,-0.03l0.286,-0.029l0.287,-0.027l0.289,-0.025l0.29,-0.024l0.293,-0.023l0.294,-0.021l0.296,-0.02l0.298,-0.019l0.299,-0.016l0.302,-0.016l0.303,-0.014l0.305,-0.012l0.306,-0.011l0.309,-0.009l0.31,-0.008l0.312,-0.006l0.314,-0.005l0.316,-0.004l0.318,-0.001l0.32,0l0.321,0.001Zm-0.637,1.499l-0.31,0.001l-0.308,0.004l-0.307,0.004l-0.305,0.007l-0.302,0.007l-0.301,0.009l-0.299,0.011l-0.298,0.012l-0.295,0.014l-0.293,0.015l-0.292,0.016l-0.29,0.018l-0.288,0.019l-0.286,0.021l-0.284,0.022l-0.283,0.023l-0.281,0.025l-0.279,0.026l-0.277,0.028l-0.275,0.029l-0.274,0.03l-0.272,0.032l-0.27,0.033l-0.268,0.035l-0.267,0.035l-0.265,0.037l-0.263,0.039l-0.261,0.039l-0.26,0.041l-0.258,0.043l-0.256,0.043l-0.254,0.045l-0.253,0.046l-0.251,0.048l-0.25,0.048l-0.247,0.05l-0.247,0.051l-0.244,0.053l-0.243,0.053l-0.241,0.055l-0.239,0.056l-0.238,0.057l-0.236,0.059l-0.235,0.059l-0.233,0.061l-0.231,0.062l-0.23,0.063l-0.228,0.064l-0.226,0.066l-0.225,0.066l-0.224,0.068l-0.221,0.069l-0.221,0.07l-0.218,0.071l-0.217,0.072l-0.216,0.073l-0.214,0.074l-0.212,0.076l-0.211,0.076l-0.21,0.078l-0.207,0.078l-0.207,0.08l-0.205,0.081l-0.203,0.082l-0.202,0.082l-0.2,0.084l-0.199,0.085l-0.197,0.086l-0.196,0.087l-0.195,0.087l-0.193,0.089l-0.191,0.09l-0.19,0.091l-0.189,0.091l-0.187,0.093l-0.186,0.093l-0.185,0.095l-0.183,0.095l-0.181,0.097l-0.18,0.097l-0.179,0.098l-0.178,0.099l-0.176,0.1l-0.174,0.101l-0.174,0.102l-0.172,0.102l-0.17,0.104l-0.169,0.104l-0.168,0.105l-0.167,0.106l-0.165,0.107l-0.164,0.108l-0.163,0.108l-0.161,0.11l-0.16,0.11l-0.159,0.111l-0.157,0.111l-0.156,0.113l-0.155,0.113l-0.154,0.114l-0.152,0.114l-0.151,0.116l-0.15,0.116l-0.149,0.117l-0.147,0.118l-0.146,0.118l-0.145,0.119l-0.144,0.12l-0.142,0.12l-0.141,0.122l-0.14,0.121l-0.139,0.123l-0.138,0.123l-0.136,0.124l-0.136,0.124l-0.134,0.126l-0.133,0.125l-0.132,0.127l-0.13,0.127l-0.13,0.127l-0.128,0.129l-0.127,0.128l-0.127,0.13l-0.125,0.13l-0.124,0.13l-0.122,0.131l-0.122,0.132l-0.121,0.132l-0.119,0.133l-0.119,0.133l-0.117,0.134l-0.117,0.134l-0.115,0.135l-0.114,0.136l-0.113,0.135l-0.112,0.137l-0.111,0.137l-0.111,0.137l-0.109,0.138l-0.108,0.138l-0.107,0.139l-0.106,0.139l-0.105,0.139l-0.104,0.14l-0.103,0.141l-0.102,0.14l-0.101,0.142l-0.1,0.141l-0.1,0.142l-0.098,0.143l-0.097,0.142l-0.097,0.144l-0.095,0.143l-0.095,0.144l-0.093,0.144l-0.093,0.145l-0.092,0.145l-0.091,0.145l-0.09,0.145l-0.089,0.146l-0.088,0.146l-0.087,0.146l-0.087,0.147l-0.085,0.147l-0.085,0.147l-0.084,0.148l-0.083,0.148l-0.082,0.148l-0.082,0.148l-0.081,0.148l-0.079,0.149l-0.079,0.149l-0.079,0.149l-0.077,0.149l-0.077,0.15l-0.075,0.149l-0.075,0.15l-0.075,0.15l-0.073,0.15l-0.073,0.151l-0.143,0.301l-0.14,0.301l-0.138,0.303l-0.134,0.302l-0.132,0.303l-0.129,0.303l-0.126,0.304l-0.124,0.303l-0.121,0.304l-0.119,0.303l-0.116,0.304l-0.113,0.304l-0.111,0.303l-0.109,0.303l-0.107,0.303l-0.104,0.303l-0.102,0.302l-0.1,0.302l-0.098,0.302l-0.096,0.3l-0.094,0.301l-0.092,0.299l-0.09,0.299l-0.088,0.298l-0.087,0.297l-0.085,0.296l-0.083,0.295l-0.081,0.294l-0.08,0.293l-0.078,0.292l-0.077,0.29l-0.076,0.29l-0.074,0.288l67.937,2.105l-0.006,-0.08l-0.008,-0.098l-0.012,-0.136l-0.016,-0.172l-0.022,-0.206l-0.028,-0.24l-0.034,-0.273l-0.02,-0.147l-0.021,-0.156l-0.023,-0.163l-0.026,-0.17l-0.027,-0.177l-0.03,-0.184l-0.031,-0.191l-0.034,-0.198l-0.036,-0.204l-0.039,-0.21l-0.041,-0.217l-0.043,-0.223l-0.046,-0.228l-0.049,-0.234l-0.052,-0.24l-0.054,-0.245l-0.057,-0.251l-0.061,-0.255l-0.063,-0.261l-0.066,-0.265l-0.07,-0.27l-0.072,-0.274l-0.077,-0.278l-0.079,-0.283l-0.083,-0.287l-0.086,-0.29l-0.09,-0.294l-0.094,-0.298l-0.097,-0.301l-0.102,-0.305l-0.105,-0.307l-0.109,-0.31l-0.113,-0.313l-0.058,-0.157l-0.059,-0.158l-0.06,-0.159l-0.061,-0.159l-0.063,-0.16l-0.063,-0.161l-0.064,-0.161l-0.066,-0.161l-0.067,-0.162l-0.067,-0.162l-0.069,-0.163l-0.07,-0.163l-0.071,-0.164l-0.072,-0.164l-0.074,-0.164l-0.074,-0.165l-0.076,-0.165l-0.077,-0.166l-0.078,-0.165l-0.079,-0.166l-0.08,-0.166l-0.082,-0.167l-0.083,-0.167l-0.084,-0.166l-0.085,-0.167l-0.087,-0.168l-0.088,-0.167l-0.089,-0.167l-0.09,-0.168l-0.092,-0.168l-0.093,-0.167l-0.094,-0.168l-0.096,-0.168l-0.097,-0.167l-0.098,-0.168l-0.099,-0.168l-0.101,-0.167l-0.102,-0.168l-0.104,-0.167l-0.105,-0.168l-0.106,-0.167l-0.108,-0.167l-0.109,-0.167l-0.111,-0.166l-0.112,-0.167l-0.113,-0.166l-0.115,-0.166l-0.116,-0.165l-0.118,-0.166l-0.119,-0.165l-0.121,-0.164l-0.122,-0.165l-0.124,-0.164l-0.125,-0.163l-0.126,-0.163l-0.129,-0.163l-0.129,-0.162l-0.131,-0.162l-0.133,-0.162l-0.134,-0.16l-0.136,-0.161l-0.138,-0.159l-0.139,-0.16l-0.14,-0.158l-0.142,-0.158l-0.144,-0.157l-0.146,-0.157l-0.147,-0.156l-0.148,-0.155l-0.151,-0.155l-0.151,-0.154l-0.154,-0.153l-0.155,-0.152l-0.157,-0.152l-0.159,-0.151l-0.16,-0.15l-0.162,-0.149l-0.164,-0.148l-0.165,-0.148l-0.167,-0.146l-0.169,-0.146l-0.171,-0.144l-0.172,-0.144l-0.175,-0.143l-0.175,-0.141l-0.178,-0.141l-0.18,-0.14l-0.181,-0.138l-0.183,-0.138l-0.185,-0.136l-0.187,-0.135l-0.188,-0.134l-0.191,-0.133l-0.192,-0.132l-0.194,-0.131l-0.196,-0.129l-0.198,-0.128l-0.2,-0.127l-0.202,-0.126l-0.203,-0.124l-0.206,-0.123l-0.207,-0.122l-0.21,-0.12l-0.211,-0.119l-0.213,-0.118l-0.215,-0.116l-0.218,-0.115l-0.219,-0.113l-0.221,-0.112l-0.223,-0.11l-0.225,-0.109l-0.227,-0.107l-0.23,-0.106l-0.231,-0.104l-0.233,-0.102l-0.235,-0.101l-0.238,-0.1l-0.239,-0.097l-0.242,-0.096l-0.243,-0.095l-0.246,-0.092l-0.248,-0.091l-0.25,-0.09l-0.252,-0.087l-0.254,-0.086l-0.256,-0.083l-0.259,-0.082l-0.26,-0.081l-0.263,-0.078l-0.265,-0.076l-0.267,-0.075l-0.269,-0.072l-0.272,-0.071l-0.274,-0.069l-0.276,-0.066l-0.278,-0.065l-0.28,-0.063l-0.283,-0.06l-0.285,-0.059l-0.287,-0.057l-0.289,-0.054l-0.292,-0.052l-0.294,-0.051l-0.297,-0.048l-0.298,-0.045l-0.301,-0.044l-0.303,-0.041l-0.306,-0.04l-0.308,-0.037l-0.31,-0.034l-0.313,-0.033l-0.315,-0.03l-0.317,-0.028l-0.32,-0.025l-0.322,-0.023l-0.325,-0.021l-0.327,-0.018l-0.329,-0.016l-0.33,-0.013l-0.328,-0.013l-0.325,-0.01l-0.324,-0.009l-0.322,-0.008l-0.32,-0.006l-0.318,-0.004l-0.316,-0.003l-0.314,-0.001l-0.313,0Z"/><path d="M52.192,19.418c54.936,-12.801 57.566,33.429 57.566,33.429l-5.193,0.797c0,0 -0.93,-42.133 -50.511,-30.959" style="fill:none;stroke:#000;stroke-width:1.5px;"/><path d="M52.192,20.501l1.38,2.271" style="fill:none;stroke:#000;stroke-width:1.5px;"/><path d="M88.368,17.664c3.76,1.36 9.774,5.241 12.823,8.998l4.399,-5.025l-10.392,-9.462l-6.83,5.489Z" style="fill:#fe0;stroke:#000;stroke-width:1.5px;stroke-linejoin:bevel;"/></g></svg>