<?xml version="1.0" encoding="UTF-8" standalone="no"?>
<!DOCTYPE svg PUBLIC "-//W3C//DTD SVG 1.1//EN" "http://www.w3.org/Graphics/SVG/1.1/DTD/svg11.dtd">
<svg width="100%" height="100%" viewBox="0 0 2481 3508" version="1.1" xmlns="http://www.w3.org/2000/svg" xmlns:xlink="http://www.w3.org/1999/xlink" xml:space="preserve" xmlns:serif="http://www.serif.com/" style="fill-rule:evenodd;clip-rule:evenodd;stroke-linecap:round;stroke-linejoin:round;stroke-miterlimit:1.5;">
    <g id="Capa2">
        <g transform="matrix(1,0,0,1,-48,1)">
            <path d="M1264.61,1710.75C1233.58,1768.84 1219.32,1838.35 1220.08,1901.99L1357.74,1901.99L1357.74,1860.43C1338.7,1863.59 1336.67,1854.23 1317.71,1849.56L1264.61,1710.75Z" style="fill:rgb(102,255,51);"/>
        </g>
        <g transform="matrix(-1,0,0,1,2908.26,-0.831227)">
            <path d="M1264.61,1710.75C1229.99,1770.58 1211.25,1842.27 1220.05,1901.99L1357.74,1901.99L1357.74,1860.43C1338.7,1863.59 1336.77,1857.6 1317.81,1852.93L1264.61,1710.75Z" style="fill:rgb(102,255,51);"/>
        </g>
        <g>
            <path d="M1414.75,2373.41L1558.48,2455.99C1583.22,2470.21 1602.96,2492.96 1606.46,2528.67" style="fill:none;stroke:rgb(61,63,78);stroke-width:8.33px;"/>
            <g transform="matrix(-1,0,0,1,2794.75,0)">
                <path d="M1414.75,2373.41L1558.48,2455.99C1583.22,2470.21 1602.96,2492.96 1606.46,2528.67" style="fill:none;stroke:rgb(61,63,78);stroke-width:8.33px;"/>
            </g>
            <path d="M1414.75,2383.32L1498.65,2461.27L1509.71,2528.67" style="fill:none;stroke:rgb(61,63,78);stroke-width:8.33px;"/>
            <g transform="matrix(-1,0,0,1,2784.73,2.98711)">
                <path d="M1414.75,2383.32L1498.65,2461.27L1509.71,2528.67" style="fill:none;stroke:rgb(61,63,78);stroke-width:8.33px;"/>
            </g>
            <g transform="matrix(1,0,0,1,-2.32938,-0.392119)">
                <rect x="1382.94" y="2221.21" width="22.196" height="123.956" style="fill:rgb(61,63,78);"/>
            </g>
            <rect x="1370.52" y="2341.87" width="44.23" height="82.904" style="fill:rgb(61,63,78);"/>
            <g transform="matrix(1,0,0,1.80555,0,-1787.05)">
                <ellipse cx="1391.71" cy="2209.67" rx="32.28" ry="11.824" style="fill:rgb(61,63,78);"/>
            </g>
            <path d="M1547.08,2434.32L1547.08,2466.62L1606.46,2481.21L1606.46,2434.1L1547.08,2434.32Z" style="fill:rgb(255,163,0);"/>
        </g>
        <path d="M1547.08,2466.24C1540.24,2487.92 1539.14,2509.75 1540.99,2531.65L1606.46,2531.65L1606.46,2522.39C1614.88,2528.01 1617.62,2531.09 1626.54,2531.65C1658.06,2531 1716.09,2531.36 1746.33,2530.74C1749.67,2530.67 1740.26,2507.58 1719.08,2500.56C1697.44,2493.39 1664.64,2488.23 1664.64,2488.23L1606.46,2448.75C1602.06,2459.7 1601.93,2470.52 1606.46,2481.21C1586.97,2471.48 1567.33,2464.08 1547.08,2466.24Z" style="fill:rgb(61,63,78);"/>
        <path d="M1760.89,2307.62C1764.43,2333.95 1775.24,2350.54 1795.14,2354.95L1808.8,2349.98L1865.44,2348.95C1939.74,2321.4 1949.27,2277.43 1889.89,2274.4C1875.4,2273.66 1857.19,2273.42 1831.79,2272.66L1795.14,2258.28C1784.91,2275.99 1787.19,2289.81 1795.14,2301.86L1760.89,2307.62Z" style="fill:rgb(61,63,78);"/>
        <path d="M1719.08,2266.24L1759.35,2307.45C1772.18,2308.09 1784.46,2307.1 1795.14,2301.24C1791.06,2289.8 1787.19,2278.3 1795.14,2263.44L1760.89,2224.69L1719.08,2266.24Z" style="fill:rgb(51,102,255);fill-opacity:0.88;"/>
        <g transform="matrix(1,0,0,1,0,3)">
            <rect x="384.83" y="915.829" width="215.629" height="50.381" style="fill:rgb(185,185,185);stroke:rgb(102,223,51);stroke-width:1px;stroke-linecap:butt;stroke-miterlimit:2;"/>
        </g>
        <g transform="matrix(0.0833553,0,0,1,352.752,3)">
            <rect x="384.83" y="915.829" width="215.629" height="50.381" style="fill:rgb(37,36,103);"/>
        </g>
        <g transform="matrix(1,0,0,1,-3,0)">
            <path d="M735.025,762.278L735.054,941.577" style="fill:none;stroke:rgb(82,196,27);stroke-width:8.33px;"/>
        </g>
        <path d="M820.662,947.937C820.662,944.427 817.812,941.577 814.301,941.577L652.449,941.577C648.939,941.577 646.089,944.427 646.089,947.937L646.089,960.657C646.089,964.168 648.939,967.018 652.449,967.018L814.301,967.018C817.812,967.018 820.662,964.168 820.662,960.657L820.662,947.937Z" style="fill:rgb(242,226,16);"/>
        <g transform="matrix(0.0243074,-0.703415,1.34456,0.0464629,-462.123,1407.7)">
            <path d="M803.343,873.594C785.914,879.359 768.484,894.431 768.484,903.362C768.484,913.427 784.104,921.599 803.343,921.599C822.583,921.599 838.203,913.427 838.203,903.362C838.203,894.431 796.372,888.478 803.343,873.594Z" style="fill:rgb(82,196,27);"/>
        </g>
        <g transform="matrix(-0.00998124,-0.514456,1.11222,-0.0215789,-232.206,1271.99)">
            <path d="M803.343,873.594C785.914,881.472 768.484,895.91 768.484,905.474C768.484,914.374 784.104,921.599 803.343,921.599C822.583,921.599 838.203,914.374 838.203,905.474C838.203,895.91 796.372,889.534 803.343,873.594Z" style="fill:rgb(82,196,27);"/>
        </g>
        <g transform="matrix(-0.00806298,-0.415584,0.764188,-0.0148265,70.8556,1149.67)">
            <path d="M803.343,873.594C785.914,878.639 768.484,893.927 768.484,902.641C768.484,913.104 784.104,921.599 803.343,921.599C822.583,921.599 838.203,913.104 838.203,902.641C838.203,893.927 796.372,888.117 803.343,873.594Z" style="fill:rgb(82,196,27);"/>
        </g>
        <g transform="matrix(0.0202819,0.415167,-0.763422,0.037295,1382.37,454.607)">
            <path d="M803.343,873.594C810.315,888.117 768.484,893.927 768.484,902.641C768.484,913.104 784.104,921.599 803.343,921.599C822.583,921.599 838.203,913.104 838.203,902.641C838.203,893.927 820.773,878.639 803.343,873.594Z" style="fill:rgb(82,196,27);"/>
        </g>
        <g transform="matrix(0.0145852,0.298556,-0.535016,0.0261368,1187.13,521.695)">
            <path d="M803.343,873.594C810.315,887.87 768.484,893.58 768.484,902.146C768.484,912.882 784.104,921.599 803.343,921.599C822.583,921.599 838.203,912.882 838.203,902.146C838.203,893.58 820.773,878.144 803.343,873.594Z" style="fill:rgb(82,196,27);"/>
        </g>
        <g transform="matrix(0.0224651,0.459857,-0.993541,0.0485369,1581.72,449.151)">
            <path d="M803.343,873.594C810.315,889.529 768.484,895.903 768.484,905.464C768.484,914.369 784.104,921.599 803.343,921.599C822.583,921.599 838.203,914.369 838.203,905.464C838.203,895.903 820.773,881.462 803.343,873.594Z" style="fill:rgb(82,196,27);"/>
        </g>
        <g transform="matrix(0.032559,0.666477,-1.19364,0.0583124,1749.22,318.771)">
            <path d="M803.343,873.594C810.315,887.864 768.484,893.572 768.484,902.135C768.484,912.877 784.104,921.599 803.343,921.599C822.583,921.599 838.203,912.877 838.203,902.135C838.203,893.572 820.773,878.132 803.343,873.594Z" style="fill:rgb(82,196,27);"/>
        </g>
        <g transform="matrix(1.01786,0,0,1.00938,-31.6021,-22.8686)">
            <path d="M1273.47,1986.74C1273.47,1986.74 1441.64,1982.46 1563.66,1979.61C1602.69,1978.7 1630.78,1982.64 1656.97,2016.08C1706.21,2078.95 1751.97,2195.03 1769.75,2219.53L1694.37,2293.65L1619.25,2185.39L1627.15,2435.69L1526.36,2437.88L1506.63,2152.99L1357.12,2146.79L1273.47,2012.12L1273.47,1986.74Z" style="fill:rgb(61,63,78);"/>
        </g>
        <g transform="matrix(1,0,0,1,1.9844,2.27374e-13)">
            <rect x="1218.09" y="1924.01" width="53.395" height="123.956" style="fill:rgb(24,79,165);"/>
        </g>
        <path d="M1275.08,2014.51L1224.32,2029.68C1212.79,2031.29 1206.98,2037.85 1205.26,2047.96C1209.71,2114.55 1193.68,2146.18 1218.46,2180.32C1248.07,2221.13 1357.02,2200.16 1511.28,2200.16L1511.28,2143.04L1354.85,2142.09L1354.85,2041.87C1343.77,2016.56 1317.35,2007.26 1275.08,2014.51Z" style="fill:rgb(51,102,255);"/>
        <g transform="matrix(1.27459,0,0,1,-439.384,-9.37505)">
            <rect x="1341.8" y="1812.54" width="248.847" height="82.529" style="fill:rgb(102,223,51);"/>
        </g>
        <g transform="matrix(0.328789,0,0,0.65782,303.34,-241.692)">
            <path d="M1673.06,1850.89C1673.06,1844.97 1663.43,1840.16 1651.57,1840.16L244.503,1840.16C232.645,1840.16 223.017,1844.97 223.017,1850.89L223.017,1872.37C223.017,1878.3 232.645,1883.11 244.503,1883.11L1651.57,1883.11C1663.43,1883.11 1673.06,1878.3 1673.06,1872.37L1673.06,1850.89Z" style="fill:rgb(142,91,19);"/>
        </g>
        <g>
            <g transform="matrix(1,0,0,1.4776,636.301,-832.781)">
                <rect x="281.801" y="1884.28" width="43.271" height="399.026" style="fill:rgb(255,255,51);"/>
            </g>
            <g transform="matrix(1,0,0,1.49849,1922.25,-879.044)">
                <rect x="281.801" y="1884.28" width="43.271" height="399.026" style="fill:rgb(255,255,51);"/>
            </g>
            <path d="M847.34,1903.92L2312.31,1901.99L2311.36,1951.44C2280.81,1948.26 2264.29,1959.83 2261.63,1985.98L918.102,1985.98C900.941,1958.57 873.769,1942.76 847.165,1944.53L847.34,1903.92Z" style="fill:rgb(255,255,51);"/>
        </g>
        <g transform="matrix(1,0,0,1,1,3)">
            <path d="M558.403,934.635L558.792,934.687L559.174,934.777L559.545,934.904L559.902,935.067L560.242,935.264L560.56,935.493L560.855,935.752L561.123,936.04L561.361,936.352L561.567,936.685L561.74,937.038L561.878,937.406L561.978,937.785L562.041,938.172L562.066,938.564L562.053,938.956L562,939.346L561.91,939.728L561.783,940.099L561.621,940.456L561.423,940.796L561.194,941.114L560.935,941.409L560.647,941.676L560.336,941.915L560.002,942.121L559.649,942.294L559.282,942.431L558.902,942.532L558.515,942.595L558.123,942.62L461.005,943.987L460.613,943.973L460.224,943.921L459.842,943.831L459.47,943.704L459.113,943.541L458.774,943.344L458.455,943.115L458.161,942.855L457.893,942.568L457.655,942.256L457.448,941.922L457.275,941.57L457.138,941.202L457.037,940.823L456.974,940.435L456.949,940.044L456.963,939.651L457.015,939.262L457.105,938.88L457.232,938.509L457.395,938.152L457.592,937.812L457.822,937.493L458.081,937.199L458.368,936.931L458.68,936.693L459.014,936.486L459.366,936.314L459.734,936.176L460.113,936.076L460.501,936.012L460.893,935.988L558.01,934.621L558.403,934.635Z" style="fill:rgb(37,36,103);"/>
        </g>
        <g transform="matrix(1,0,0,1,0,2)">
            <rect x="399.096" y="874.662" width="240.628" height="42.697" style="fill:rgb(51,153,255);"/>
        </g>
        <g transform="matrix(0.0587535,0,0,0.764012,584.491,226.276)">
            <rect x="600.993" y="856.769" width="7.177" height="44.84" style="stroke:black;stroke-width:15.38px;"/>
        </g>
        <g transform="matrix(1,0,0,1,-34,0)">
            <path d="M1420.86,1532.93L1532.21,1532.91C1546.94,1546.31 1563.01,1557.64 1579.74,1567.96L1357.74,1567.96C1386.34,1557.82 1406.23,1545.91 1420.86,1532.93Z" style="fill:rgb(102,223,51);"/>
        </g>
        <g transform="matrix(1,0,0,1,-37,0)">
            <path d="M1448.42,1521.25L1448.33,1536.29L1429.46,1541.83L1450.67,1567.96L1500.92,1567.96L1517.18,1544.79L1500.31,1536.29L1500.2,1520.75L1448.42,1521.25Z" style="fill:rgb(213,154,126);"/>
        </g>
        <g transform="matrix(1.05009,0,0,1.0456,-648.42,-14.5053)">
            <path d="M2224.95,1835.27L1797.37,1835.27L1819.88,1812.65L2202.43,1812.65L2224.95,1835.27Z" style="fill:rgb(185,185,185);"/>
        </g>
        <g transform="matrix(1,0,0,1,-14.5493,23.8603)">
            <g transform="matrix(1,0,0,1,197.114,46.701)">
                <path d="M1061.77,1886.37L1068.21,1904.74" style="fill:none;"/>
            </g>
            <g transform="matrix(1.07419,0,0,0.781314,37.3404,449.684)">
                <g transform="matrix(1.03271,0,0,1.0292,-55.9123,-49.9352)">
                    <path d="M1583.27,1498.15C1583.27,1448.76 1554.21,1408.67 1518.4,1408.67L1178.82,1408.67C1143.02,1408.67 1113.95,1448.76 1113.95,1498.15L1113.95,1677.12C1113.95,1726.51 1143.02,1766.61 1178.82,1766.61L1518.4,1766.61C1554.21,1766.61 1583.27,1726.51 1583.27,1677.12L1583.27,1498.15Z" style="fill:rgb(185,185,185);"/>
                </g>
                <g transform="matrix(0.990949,0,0,1.03235,10.2001,-55.5057)">
                    <path d="M1583.27,1498.15C1583.27,1448.76 1552.89,1408.67 1515.46,1408.67L1181.76,1408.67C1144.34,1408.67 1113.95,1448.76 1113.95,1498.15L1113.95,1677.12C1113.95,1726.51 1144.34,1766.61 1181.76,1766.61L1515.46,1766.61C1552.89,1766.61 1583.27,1726.51 1583.27,1677.12L1583.27,1498.15Z" style="fill:rgb(203,201,197);"/>
                </g>
            </g>
            <g transform="matrix(0.22036,0,0,0.400431,1169.34,1196.74)">
                <path d="M1583.27,1473.24C1583.27,1437.6 1530.7,1408.67 1465.94,1408.67L1231.28,1408.67C1166.53,1408.67 1113.95,1437.6 1113.95,1473.24L1113.95,1702.04C1113.95,1737.67 1166.53,1766.61 1231.28,1766.61L1465.94,1766.61C1530.7,1766.61 1583.27,1737.67 1583.27,1702.04L1583.27,1473.24Z" style="fill:rgb(185,185,185);"/>
            </g>
            <g transform="matrix(0.181002,0,0,0.40341,1229.78,1192.11)">
                <path d="M1583.27,1461.31C1583.27,1432.26 1530.7,1408.67 1465.94,1408.67L1231.28,1408.67C1166.53,1408.67 1113.95,1432.26 1113.95,1461.31L1113.95,1713.96C1113.95,1743.02 1166.53,1766.61 1231.28,1766.61L1465.94,1766.61C1530.7,1766.61 1583.27,1743.02 1583.27,1713.96L1583.27,1461.31Z" style="fill:rgb(203,201,197);"/>
            </g>
        </g>
        <g transform="matrix(0.859174,0.0189477,-0.0189477,0.859174,203.981,205.399)">
            <g transform="matrix(1,0,0,1,494.852,382.921)">
                <ellipse cx="931.331" cy="751.252" rx="12.24" ry="0.659" style="fill:rgb(202,154,118);"/>
            </g>
            <g transform="matrix(0.466213,0,0,0.453362,1155.38,1001.59)">
                <ellipse cx="931.794" cy="727.851" rx="48.989" ry="50.265" style="fill:rgb(202,154,118);"/>
            </g>
            <g transform="matrix(0.837381,0,0,0.779417,810.205,763.864)">
                <ellipse cx="931.794" cy="727.851" rx="48.989" ry="50.265" style="fill:rgb(218,196,179);"/>
            </g>
            <g transform="matrix(0.837381,0,0,0.779417,566.834,762.57)">
                <ellipse cx="931.794" cy="727.851" rx="48.989" ry="50.265" style="fill:rgb(218,196,179);"/>
            </g>
            <g transform="matrix(0.466213,0,0,0.453362,912.013,1000.3)">
                <ellipse cx="931.794" cy="727.851" rx="48.989" ry="50.265" style="fill:rgb(202,154,118);"/>
            </g>
            <g transform="matrix(0.466213,0,0,0.453362,1157.03,1001.23)">
                <ellipse cx="931.794" cy="727.851" rx="48.989" ry="50.265" style="fill:rgb(202,154,118);"/>
            </g>
            <g transform="matrix(1.13233,0,0,1.11134,325.215,283.82)">
                <ellipse cx="1009.37" cy="828.185" rx="138.389" ry="134.408"/>
            </g>
            <g transform="matrix(1.20218,0,0,0.977145,336.895,377.783)">
                <ellipse cx="941.597" cy="960.654" rx="109.384" ry="231.338" style="fill:rgb(205,171,152);"/>
            </g>
            <g transform="matrix(1,0,0,1,494.852,382.921)">
                <ellipse cx="931.331" cy="751.252" rx="12.24" ry="0.659" style="fill:rgb(202,154,118);"/>
            </g>
            <g transform="matrix(1.42207,0,0,1.18609,148.988,234.366)">
                <ellipse cx="968.434" cy="758.599" rx="53.645" ry="66.499"/>
            </g>
            <g transform="matrix(1.17005,0,0,1.0196,317.258,361.318)">
                <ellipse cx="923.295" cy="742.172" rx="61.623" ry="62.313"/>
            </g>
            <g transform="matrix(1,0,0,1,468.852,382.921)">
                <ellipse cx="1134.03" cy="780.204" rx="21.41" ry="20.114"/>
            </g>
            <g transform="matrix(1,0,0,1,437.252,326.834)">
                <ellipse cx="894.643" cy="810.662" rx="21.6" ry="22.789"/>
            </g>
            <g transform="matrix(1.55107,0,0,1.78315,659.235,-298.029)">
                <ellipse cx="480.389" cy="887.928" rx="8.975" ry="8.478"/>
            </g>
            <g transform="matrix(1.55107,0,0,1.78315,783.235,-298.029)">
                <ellipse cx="480.389" cy="887.928" rx="8.975" ry="8.478"/>
            </g>
            <g transform="matrix(0.0279348,-1.59344,0.992192,-0.0288432,217.887,2681.94)">
                <path d="M765.116,1196.55C748.633,1196.55 735.25,1214.74 735.25,1237.14C735.25,1259.54 748.633,1277.73 765.116,1277.73C760.171,1268.26 756.156,1253.33 756.156,1237.14C756.156,1220.95 760.171,1206.02 765.116,1196.55Z"/>
            </g>
            <g transform="matrix(0.839738,0,0,0.388882,-57.4351,1034.49)">
                <ellipse cx="1812.78" cy="1109.47" rx="22.706" ry="21.753" style="fill:rgb(218,37,26);"/>
            </g>
            <g transform="matrix(1,0,0,1,-6.63398,2.43779)">
                <g transform="matrix(1,0,0,1,31,2.84217e-14)">
                    <path d="M1413.58,1272.85C1413.58,1265.77 1407.83,1260.02 1400.76,1260.02L1345.84,1260.02C1338.76,1260.02 1333.01,1265.77 1333.01,1272.85L1333.01,1298.5C1333.01,1305.58 1338.76,1311.33 1345.84,1311.33L1400.76,1311.33C1407.83,1311.33 1413.58,1305.58 1413.58,1298.5L1413.58,1272.85Z" style="fill:none;stroke:black;stroke-width:9.7px;"/>
                </g>
                <g transform="matrix(1,0,0,1,160.596,-0.333149)">
                    <path d="M1413.58,1272.85C1413.58,1265.77 1407.83,1260.02 1400.76,1260.02L1345.84,1260.02C1338.76,1260.02 1333.01,1265.77 1333.01,1272.85L1333.01,1298.5C1333.01,1305.58 1338.76,1311.33 1345.84,1311.33L1400.76,1311.33C1407.83,1311.33 1413.58,1305.58 1413.58,1298.5L1413.58,1272.85Z" style="fill:none;stroke:black;stroke-width:9.7px;"/>
                </g>
                <g transform="matrix(1,0,0,1,31,2.84217e-14)">
                    <path d="M1417.74,1284.29L1460.13,1283.69" style="fill:none;stroke:black;stroke-width:9.7px;"/>
                </g>
            </g>
            <path d="M1480.54,1326.75L1491.67,1356.43C1483.96,1366.22 1472.32,1368.81 1454.72,1360.51" style="fill:none;stroke:rgb(202,154,118);stroke-width:9.7px;"/>
        </g>
        <g>
            <g transform="matrix(1,0,0,1,-1033.94,416.846)">
                <path d="M2024.54,1338.14L2047.25,1487.61L2118.24,1487.1L2137.82,1338.08L2024.54,1338.14Z" style="fill:rgb(204,204,204);"/>
            </g>
            <g transform="matrix(1,0,0,1,-1033.94,416.846)">
                <path d="M2137.82,1320.16C2137.82,1317.78 2135.88,1315.85 2133.5,1315.85L2122.97,1315.85L2028.86,1315.85C2026.47,1315.85 2024.54,1317.78 2024.54,1320.16L2024.54,1328.8C2024.54,1331.18 2026.47,1333.11 2028.86,1333.11L2133.5,1333.11C2135.88,1333.11 2137.82,1331.18 2137.82,1328.8L2137.82,1320.16Z" style="fill:rgb(102,153,255);"/>
            </g>
            <g transform="matrix(1,0,0,1.39065,-1033.94,-107.452)">
                <rect x="2019.46" y="1333.11" width="124.891" height="9.012" style="fill:rgb(195,199,205);"/>
            </g>
            <g transform="matrix(1,0,0,1,-1033.94,416.846)">
                <path d="M2031.85,1383.03L2132.1,1382.91L2122.36,1450.62L2041.76,1450.84L2031.85,1383.03Z" style="fill:rgb(102,153,255);"/>
            </g>
        </g>
        <g transform="matrix(1.27623,-0.00468052,0.00468052,1.27623,-373.616,-461.126)">
            <text x="1383.13px" y="1738.15px" style="font-family:'ArialRoundedMTBold', 'Arial Rounded MT Bold', sans-serif;font-size:123.033px;fill:rgb(185,185,185);">H</text>
        </g>
        <g transform="matrix(0.775419,0,0,1,421.276,-0.99138)">
            <path d="M510.416,2553.54L2444.86,2553.96" style="fill:none;stroke:rgb(31,176,228);stroke-width:10.06px;stroke-linecap:square;stroke-dasharray:10.06,10.06;"/>
        </g>
    </g>
</svg>
