<?xml version="1.0" encoding="UTF-8" standalone="no"?><!DOCTYPE svg PUBLIC "-//W3C//DTD SVG 1.1//EN" "http://www.w3.org/Graphics/SVG/1.1/DTD/svg11.dtd"><svg width="100%" height="100%" viewBox="0 0 492 401" version="1.1" xmlns="http://www.w3.org/2000/svg" xmlns:xlink="http://www.w3.org/1999/xlink" xml:space="preserve" xmlns:serif="http://www.serif.com/" style="fill-rule:evenodd;clip-rule:evenodd;stroke-linecap:round;stroke-linejoin:round;stroke-miterlimit:1.5;"><path d="M131.491,241.041c0,0 1.415,-8.227 10.695,-9.762" style="fill:none;stroke:#000;stroke-width:1.3px;"/><path d="M130.261,236.16c0,0 1.131,-5.408 7.796,-6.546" style="fill:none;stroke:#000;stroke-width:1.3px;"/><path d="M490.532,311.226l-134.651,-0.601" style="fill:none;stroke:#000;stroke-width:1.5px;stroke-dasharray:1.5,3,135,9;"/><path d="M380.3,323.145l-22.523,-0.091" style="fill:none;stroke:#000;stroke-width:1.5px;stroke-dasharray:1.5,3,135,9;"/><path d="M114.007,57.545c0,-0.904 -0.734,-1.638 -1.638,-1.638l-107.275,0c-0.904,0 -1.638,0.734 -1.638,1.638l0,3.276c0,0.904 0.734,1.638 1.638,1.638l107.275,0c0.904,0 1.638,-0.734 1.638,-1.638l0,-3.276Z" style="fill:#16438a;"/><rect x="3.209" y="38.572" width="51.751" height="12.092" style="fill:#110faf;"/><rect x="3.209" y="38.572" width="11.887" height="12.092" style="fill:#252467;"/><path d="M86.536,1l0.007,43.032" style="fill:none;stroke:#52c41b;stroke-width:2px;"/><path d="M107.809,45.558c0,-0.842 -0.684,-1.526 -1.526,-1.526l-38.845,0c-0.843,0 -1.527,0.684 -1.527,1.526l0,3.053c0,0.842 0.684,1.526 1.527,1.526l38.845,0c0.842,0 1.526,-0.684 1.526,-1.526l0,-3.053Z" style="fill:#f2e210;"/><path d="M86.53,30.022c1.759,3.007 6.521,6.117 9.403,6.217c3.248,0.112 5.976,-2.434 6.088,-5.682c0.112,-3.248 -2.433,-5.976 -5.681,-6.088c-2.882,-0.099 -5.047,6.896 -9.81,5.553Z" style="fill:#52c41b;"/><path d="M86.388,19.618c2.145,2.111 6.041,4.188 8.594,4.139c2.375,-0.046 4.266,-2.012 4.22,-4.388c-0.046,-2.375 -2.012,-4.266 -4.387,-4.22c-2.553,0.049 -4.155,5.247 -8.427,4.469Z" style="fill:#52c41b;"/><path d="M86.523,10.74c0.959,1.721 3.796,3.405 5.395,3.374c1.918,-0.037 3.446,-1.626 3.409,-3.545c-0.037,-1.919 -1.625,-3.446 -3.544,-3.409c-1.599,0.031 -2.583,4.224 -5.26,3.58Z" style="fill:#52c41b;"/><path d="M86.468,15.023c-2.627,0.825 -3.895,-3.291 -5.492,-3.213c-1.917,0.094 -3.397,1.726 -3.303,3.643c0.093,1.917 1.726,3.398 3.643,3.304c1.596,-0.078 4.313,-1.952 5.152,-3.734Z" style="fill:#52c41b;"/><path d="M86.4,6.302c-1.809,0.589 -2.689,-2.372 -3.789,-2.318c-1.378,0.067 -2.443,1.241 -2.375,2.619c0.067,1.379 1.241,2.444 2.619,2.376c1.1,-0.054 3.021,-1.399 3.545,-2.677Z" style="fill:#52c41b;"/><path d="M86.485,24.687c-3.762,0.955 -5.507,-3.587 -7.787,-3.476c-2.123,0.104 -3.763,1.912 -3.659,4.036c0.103,2.123 1.912,3.763 4.035,3.659c2.28,-0.111 5.629,-2.203 7.411,-4.219Z" style="fill:#52c41b;"/><path d="M86.677,35.283c-4.033,1.314 -5.995,-5.297 -8.448,-5.177c-3.078,0.15 -5.454,2.771 -5.304,5.848c0.151,3.078 2.771,5.454 5.849,5.304c2.452,-0.12 6.739,-3.124 7.903,-5.975Z" style="fill:#52c41b;"/><path d="M297.019,313.985c0,-1.686 -1.37,-3.056 -3.056,-3.056l-69.563,0c-1.687,0 -3.056,1.37 -3.056,3.056l0,6.112c0,1.687 1.369,3.056 3.056,3.056l69.563,0c1.686,0 3.056,-1.369 3.056,-3.056l0,-6.112Z" style="fill:#184fa5;"/><path d="M273.02,389.751l0.489,-71.951l-10.011,-0.068l-0.49,71.951l10.012,0.068Z" style="fill:#184fa5;"/><path d="M273.435,328.699l0.037,-5.373l-10.012,-0.068l-0.036,5.372l10.011,0.069Z" style="fill:#16438a;"/><path d="M211.137,301.903c-4.617,0.121 -8.463,-3.528 -8.584,-8.145l-2.439,-93.067c-0.121,-4.617 3.529,-8.463 8.145,-8.584l16.729,-0.438c4.616,-0.121 8.462,3.528 8.583,8.145l2.439,93.068c0.121,4.616 -3.529,8.462 -8.145,8.583l-16.728,0.438Z" style="fill:#4e73ad;"/><path d="M262.615,301.536c9.938,0.037 18.038,-8.001 18.076,-17.939l0.281,-73.531c0.038,-9.938 -8.001,-18.038 -17.939,-18.076l-36.015,-0.138c-9.939,-0.037 -18.038,8.001 -18.076,17.939l-0.281,73.531c-0.038,9.938 8,18.038 17.939,18.076l36.015,0.138Z" style="fill:#184fa5;"/><path d="M269.024,313.732c0,-1.715 -1.393,-3.107 -3.108,-3.107l-41.418,0c-1.715,0 -3.107,1.392 -3.107,3.107l0,6.214c0,1.715 1.392,3.108 3.107,3.108l41.418,0c1.715,0 3.108,-1.393 3.108,-3.108l0,-6.214Z" style="fill:#4e73ad;"/><g><path d="M445.014,191.944c0,-12.2 -9.904,-22.104 -22.104,-22.104l-72.112,0c-12.2,0 -22.104,9.904 -22.104,22.104l0,44.207c0,12.199 9.904,22.103 22.104,22.103l72.112,0c12.2,0 22.104,-9.904 22.104,-22.103l0,-44.207Z" style="fill:#b3ada6;"/><path d="M445.014,191.741c0,-12.237 -9.935,-22.172 -22.171,-22.172l-67.274,0c-12.237,0 -22.171,9.935 -22.171,22.172l0,44.342c0,12.236 9.934,22.171 22.171,22.171l67.274,0c12.236,0 22.171,-9.935 22.171,-22.171l0,-44.342Z" style="fill:#cbc9c5;"/></g><path d="M403.247,242.923c0,-3.084 -2.503,-5.587 -5.587,-5.587l-11.173,0c-3.084,0 -5.587,2.503 -5.587,5.587l0,31.12c0,3.083 2.503,5.587 5.587,5.587l11.173,0c3.084,0 5.587,-2.504 5.587,-5.587l0,-31.12Z" style="fill:#b3ada6;"/><path d="M293.283,391.78l0.1,0.011l0.095,0.031l0.087,0.051l0.074,0.067l0.059,0.082l0.04,0.092l0.02,0.098l0,0.1l-0.021,0.098l-0.042,0.092l-0.059,0.081l-0.075,0.066l-0.087,0.05l-0.096,0.031l-0.099,0.01l-53.348,-0.258l-0.099,-0.011l-0.096,-0.032l-0.086,-0.05l-0.075,-0.068l-0.058,-0.081l-0.041,-0.092l-0.02,-0.098l0.001,-0.101l0.021,-0.098l0.041,-0.091l0.06,-0.081l0.074,-0.067l0.088,-0.05l0.095,-0.03l0.1,-0.01l53.347,0.258Z"/><path d="M384.878,274.255c0.449,0.001 0.814,-0.362 0.815,-0.811l0.004,-1.626c0.001,-0.449 -0.362,-0.814 -0.811,-0.815l-19.644,-0.05c-0.449,-0.001 -0.814,0.363 -0.815,0.812l-0.004,1.626c-0.001,0.449 0.362,0.814 0.811,0.815l19.644,0.049Z" style="fill:#b3ada6;"/><path d="M402.841,241.795c0,-2.532 -2.056,-4.589 -4.589,-4.589l-9.177,0c-2.533,0 -4.589,2.057 -4.589,4.589l0,33.431c0,2.533 2.056,4.589 4.589,4.589l9.177,0c2.533,0 4.589,-2.056 4.589,-4.589l0,-33.431Z" style="fill:#cbc9c5;"/><path d="M351.405,292.431c0,-3.398 -2.758,-6.156 -6.156,-6.156l-81.902,0c-3.397,0 -6.156,2.758 -6.156,6.156l0,12.312c0,3.398 2.759,6.156 6.156,6.156l81.902,0c3.398,0 6.156,-2.758 6.156,-6.156l0,-12.312Z"/><ellipse cx="284.962" cy="137.63" rx="5.481" ry="5.469" style="fill:#ca9a76;"/><ellipse cx="285.124" cy="137.532" rx="9.845" ry="9.403" style="fill:#dac4b3;"/><path d="M264.123,171.344c0,-2.433 -1.975,-4.408 -4.408,-4.408l-8.817,0c-2.433,0 -4.409,1.975 -4.409,4.408l0,26.121c0,2.433 1.976,4.408 4.409,4.408l8.817,0c2.433,0 4.408,-1.975 4.408,-4.408l0,-26.121Z" style="fill:#ca9a76;"/><ellipse cx="226.714" cy="137.222" rx="9.845" ry="9.403" style="fill:#dac4b3;"/><ellipse cx="226.553" cy="137.319" rx="5.481" ry="5.469" style="fill:#ca9a76;"/><ellipse cx="285.357" cy="137.543" rx="5.481" ry="5.469" style="fill:#ca9a76;"/><ellipse cx="255.767" cy="107.066" rx="37.609" ry="35.85"/><ellipse cx="255.998" cy="134.773" rx="31.56" ry="54.252" style="fill:#cbab93;"/><ellipse cx="245.694" cy="90.255" rx="2.938" ry="0.158" style="fill:#ca9a76;"/><ellipse cx="269.691" cy="90.246" rx="18.309" ry="18.93"/><ellipse cx="238.825" cy="86.382" rx="17.305" ry="15.248"/><ellipse cx="288.102" cy="97.203" rx="5.138" ry="4.827"/><ellipse cx="223.065" cy="91.052" rx="5.184" ry="5.469"/><ellipse cx="240.455" cy="126.52" rx="3.341" ry="3.628"/><ellipse cx="270.215" cy="126.52" rx="3.341" ry="3.628"/><path d="M257.903,126.702c0,-0.684 -0.556,-1.239 -1.239,-1.239l-2.478,0c-0.684,0 -1.239,0.555 -1.239,1.239l0,19.425c0,0.683 0.555,1.238 1.239,1.238l2.478,0c0.683,0 1.239,-0.555 1.239,-1.238l0,-19.425Z" style="fill:#ca9a76;"/><path d="M284.046,212.398c0,-7.856 -6.377,-14.233 -14.233,-14.233l-28.465,0c-7.855,0 -14.233,6.377 -14.233,14.233l0,82.933c0,7.856 6.378,14.233 14.233,14.233l28.465,0c7.856,0 14.233,-6.377 14.233,-14.233l0,-82.933Z" style="fill:#ef9521;"/><path d="M320.874,288.759c0,-4.075 -3.308,-7.384 -7.384,-7.384l-79.445,0c-4.076,0 -7.384,3.309 -7.384,7.384l0,14.769c0,4.076 3.308,7.385 7.384,7.385l79.445,0c4.076,0 7.384,-3.309 7.384,-7.385l0,-14.769Z"/><rect x="321.294" y="292.585" width="30.443" height="104.986"/><path d="M323.32,292.859l-29.823,0.344l1.191,102.978l29.823,-0.345l-1.191,-102.977Z"/><clipPath id="_clip1"><rect x="325.537" y="380.142" width="41.71" height="18.088"/></clipPath><g clip-path="url(#_clip1)"><ellipse cx="346.392" cy="394.949" rx="20.855" ry="14.807" style="fill:#60330c;"/></g><path d="M285.192,210.358c-0.545,-2.005 -2.614,-3.191 -4.62,-2.647l-7.267,1.971c-2.005,0.545 -3.191,2.614 -2.647,4.62l14.146,52.138c0.544,2.005 2.613,3.192 4.619,2.648l7.267,-1.972c2.005,-0.544 3.191,-2.614 2.647,-4.619l-14.145,-52.139Z" style="fill:#ef9521;"/><path d="M263.982,262.078c-2.077,0.004 -3.761,1.695 -3.757,3.773l0.015,7.529c0.004,2.078 1.695,3.761 3.773,3.757l54.023,-0.108c2.078,-0.004 3.761,-1.694 3.757,-3.772l-0.015,-7.53c-0.004,-2.078 -1.695,-3.761 -3.772,-3.757l-54.024,0.108Z" style="fill:#ef9821;"/><path d="M315.674,269.952c-0.004,-1.933 3.93,-3.51 8.78,-3.519c4.849,-0.01 8.79,1.551 8.794,3.484c0.004,1.933 -3.931,3.51 -8.78,3.52c-4.85,0.009 -8.79,-1.552 -8.794,-3.485Z" style="fill:#dac4b3;"/><path d="M321.966,270.331c-0.009,-4.644 5.136,-8.424 11.482,-8.437c6.346,-0.012 11.506,3.747 11.515,8.391c0.009,4.644 -5.135,8.424 -11.481,8.437c-6.347,0.013 -11.507,-3.747 -11.516,-8.391Z" style="fill:#cbab93;"/><path d="M324.527,267.147c-0.341,-1.885 3.221,-4.512 7.95,-5.863c4.728,-1.35 8.844,-0.917 9.185,0.968c0.341,1.885 -3.221,4.512 -7.949,5.863c-4.729,1.351 -8.844,0.917 -9.186,-0.968Z" style="fill:#ca9a76;"/><path d="M238.698,217.627c0.923,-1.861 0.161,-4.122 -1.7,-5.045l-6.746,-3.345c-1.862,-0.923 -4.122,-0.161 -5.045,1.7l-24,48.4c-0.923,1.862 -0.161,4.123 1.701,5.046l6.746,3.345c1.861,0.923 4.122,0.161 5.045,-1.701l23.999,-48.4Z" style="fill:#ea9b0e;"/><path d="M245.763,160.835c-0.111,6.304 4.13,11.296 9.465,11.141c5.335,-0.155 9.755,-5.399 9.866,-11.703c-2.289,1.957 -5.87,3.596 -9.726,3.708c-3.856,0.112 -7.383,-1.32 -9.605,-3.146Z"/><ellipse cx="254.967" cy="169.88" rx="4.576" ry="2.03" style="fill:#da251a;"/><path d="M320.127,287.02l1.546,4.408" style="fill:none;"/><clipPath id="_clip2"><rect x="292.357" y="380.354" width="41.71" height="18.088"/></clipPath><g clip-path="url(#_clip2)"><ellipse cx="313.212" cy="395.161" rx="20.855" ry="14.807" style="fill:#60330c;stroke:#0d29a7;stroke-width:0.24px;stroke-linecap:butt;stroke-miterlimit:1.41421;"/></g><path d="M321.278,289.852l1.533,91.171" style="fill:none;stroke:#7e7272;stroke-width:2px;"/><path d="M322.184,381.265c7.471,3.783 8.756,6.066 8.756,6.066l0.956,1.465c0,0 0.854,1.031 1.249,2.859c0.361,1.667 1.25,3.702 0.341,5.888" style="fill:none;stroke:#7e7272;stroke-width:2px;"/><path d="M274.783,390.191c0,-1.485 -1.206,-2.69 -2.691,-2.69l-7.903,0c-1.485,0 -2.691,1.205 -2.691,2.69l0,5.382c0,1.485 1.206,2.691 2.691,2.691l7.903,0c1.485,0 2.691,-1.206 2.691,-2.691l0,-5.382Z" style="fill:#898f99;"/><path d="M248.894,390.072c0,-1.485 -1.205,-2.691 -2.69,-2.691l-7.903,0c-1.485,0 -2.691,1.206 -2.691,2.691l0,5.381c0,1.485 1.206,2.691 2.691,2.691l7.903,0c1.485,0 2.69,-1.206 2.69,-2.691l0,-5.381Z" style="fill:#898f99;"/><path d="M203.477,259.865c-2.059,0.282 -3.501,2.182 -3.219,4.241l1.022,7.46c0.282,2.058 2.183,3.5 4.241,3.218l53.523,-7.334c2.059,-0.282 3.501,-2.182 3.219,-4.241l-1.022,-7.46c-0.282,-2.058 -2.182,-3.5 -4.241,-3.218l-53.523,7.334Z" style="fill:#efa021;"/><path d="M255.757,263.633c-0.262,-1.915 3.425,-4.004 8.23,-4.663c4.805,-0.658 8.919,0.362 9.181,2.277c0.263,1.915 -3.425,4.004 -8.23,4.663c-4.805,0.658 -8.919,-0.362 -9.181,-2.277Z" style="fill:#dac4b3;"/><path d="M262.043,262.207c-0.63,-4.601 3.963,-9.036 10.25,-9.897c6.288,-0.862 11.904,2.174 12.535,6.775c0.63,4.601 -3.963,9.035 -10.25,9.897c-6.288,0.861 -11.904,-2.174 -12.535,-6.775Z" style="fill:#cbab93;"/><path d="M264.392,260.206c0.989,-1.64 5.399,-1.259 9.841,0.851c4.442,2.11 7.245,5.155 6.256,6.795c-0.99,1.64 -5.399,1.259 -9.841,-0.851c-4.442,-2.11 -7.245,-5.155 -6.256,-6.795Z" style="fill:#ca9a76;"/><clipPath id="_clip3"><rect x="324.538" y="267.328" width="18.851" height="8.847"/></clipPath><g clip-path="url(#_clip3)"><ellipse cx="333.964" cy="274.571" rx="9.426" ry="7.243" style="fill:#808080;"/></g><path d="M277.176,218.85l11.147,48.934" style="fill:#f26b0f;"/><path d="M277.256,218.377l0.091,0.025l0.084,0.042l0.075,0.058l0.061,0.071l0.047,0.081l0.03,0.09l11.147,48.933l0.012,0.094l-0.006,0.094l-0.025,0.09l-0.042,0.084l-0.058,0.075l-0.071,0.061l-0.082,0.047l-0.089,0.03l-0.093,0.012l-0.094,-0.007l-0.091,-0.025l-0.084,-0.042l-0.075,-0.057l-0.061,-0.071l-0.047,-0.082l-0.03,-0.089l-11.147,-48.934l-0.012,-0.094l0.007,-0.093l0.024,-0.091l0.042,-0.084l0.058,-0.075l0.071,-0.061l0.082,-0.047l0.089,-0.03l0.093,-0.012l0.094,0.007Z" style="fill:#f80;"/><path d="M250.11,123.537c0,-1.699 -1.38,-3.079 -3.079,-3.079l-13.179,0c-1.699,0 -3.078,1.38 -3.078,3.079l0,6.156c0,1.699 1.379,3.079 3.078,3.079l13.179,0c1.699,0 3.079,-1.38 3.079,-3.079l0,-6.156Z" style="fill:none;stroke:#0d29a7;stroke-width:2px;"/><path d="M281.213,123.457c0,-1.699 -1.38,-3.078 -3.079,-3.078l-13.179,0c-1.699,0 -3.078,1.379 -3.078,3.078l0,6.156c0,1.699 1.379,3.079 3.078,3.079l13.179,0c1.699,0 3.079,-1.38 3.079,-3.079l0,-6.156Z" style="fill:none;stroke:#0d29a7;stroke-width:2px;"/><path d="M251.107,126.283l10.174,-0.143" style="fill:none;stroke:#0d29a7;stroke-width:2px;"/><path d="M287.521,123.278l0.063,0.002l0.063,0.005l0.064,0.006l0.062,0.009l0.063,0.011l0.062,0.013l0.062,0.015l0.061,0.017l0.061,0.019l0.06,0.021l0.059,0.023l0.058,0.024l0.058,0.027l0.056,0.029l0.056,0.031l0.055,0.032l0.053,0.034l0.053,0.036l0.051,0.038l0.05,0.039l0.048,0.041l0.047,0.042l0.046,0.044l0.044,0.046l0.043,0.047l0.041,0.048l0.04,0.05l0.037,0.051l0.037,0.052l0.034,0.053l0.033,0.055l0.03,0.055l0.029,0.057l0.028,0.057l0.025,0.059l0.023,0.059l0.021,0.059l0.019,0.061l0.018,0.061l0.015,0.062l0.013,0.062l0.011,0.062l0.009,0.063l0.007,0.063l0.005,0.064l0.003,0.063l0.001,0.064l-0.002,0.063l-0.003,0.063l-0.006,0.064l-0.008,0.063l-0.01,0.062l-0.011,0.063l-0.014,0.062l-0.016,0.061l-0.018,0.061l-0.02,0.06l-0.022,0.06l-0.024,0.059l-0.026,0.058l-0.028,0.057l-0.029,0.056l-0.032,0.055l-0.033,0.054l-0.035,0.053l-0.037,0.052l-0.038,0.05l-0.04,0.05l-0.042,0.047l-0.043,0.047l-0.045,0.045l-0.046,0.043l-0.048,0.042l-0.049,0.041l-0.05,0.038l-0.052,0.037l-0.053,0.036l-0.054,0.033l-0.055,0.032l-0.056,0.03l-0.057,0.028l-0.058,0.026l-0.058,0.024l-0.06,0.022l-0.06,0.021l-0.061,0.018l-0.061,0.016l-0.062,0.014l-5.327,1.131l-0.062,0.012l-0.063,0.01l-0.063,0.008l-0.063,0.006l-0.064,0.004l-0.063,0.001l-0.064,0l-0.063,-0.003l-0.063,-0.004l-0.064,-0.007l-0.062,-0.009l-0.063,-0.01l-0.062,-0.013l-0.062,-0.015l-0.061,-0.017l-0.061,-0.019l-0.06,-0.021l-0.059,-0.023l-0.058,-0.025l-0.058,-0.027l-0.056,-0.028l-0.056,-0.031l-0.055,-0.032l-0.053,-0.034l-0.053,-0.036l-0.051,-0.038l-0.05,-0.039l-0.048,-0.041l-0.047,-0.043l-0.046,-0.044l-0.044,-0.045l-0.043,-0.047l-0.041,-0.049l-0.04,-0.049l-0.038,-0.051l-0.036,-0.052l-0.034,-0.054l-0.033,-0.054l-0.031,-0.056l-0.028,-0.056l-0.028,-0.058l-0.025,-0.058l-0.023,-0.059l-0.021,-0.06l-0.019,-0.06l-0.018,-0.062l-0.015,-0.061l-0.013,-0.062l-0.011,-0.063l-0.009,-0.063l-0.007,-0.063l-0.005,-0.063l-0.003,-0.063l-0.001,-0.064l0.002,-0.063l0.003,-0.064l0.006,-0.063l0.008,-0.063l0.01,-0.063l0.011,-0.062l0.014,-0.062l0.016,-0.062l0.018,-0.06l0.02,-0.061l0.022,-0.059l0.024,-0.059l0.026,-0.058l0.028,-0.057l0.029,-0.056l0.032,-0.056l0.033,-0.054l0.035,-0.053l0.037,-0.051l0.038,-0.051l0.04,-0.049l0.042,-0.048l0.043,-0.046l0.045,-0.045l0.046,-0.044l0.048,-0.042l0.049,-0.04l0.05,-0.039l0.052,-0.037l0.053,-0.035l0.054,-0.034l0.055,-0.031l0.056,-0.03l0.057,-0.028l0.058,-0.026l0.058,-0.025l0.06,-0.022l0.06,-0.02l0.061,-0.018l0.061,-0.017l0.062,-0.014l5.327,-1.13l0.062,-0.012l0.063,-0.01l0.063,-0.008l0.063,-0.006l0.064,-0.004l0.063,-0.002l0.064,0.001Z" style="fill:#0d29a7;"/><path d="M224.468,123.6l0.062,0.004l0.062,0.006l0.061,0.008l0.062,0.01l5.07,0.906l0.061,0.012l0.06,0.014l0.06,0.016l0.06,0.017l0.059,0.02l0.058,0.022l0.058,0.023l0.056,0.026l0.056,0.027l0.055,0.029l0.055,0.03l0.053,0.033l0.051,0.034l0.051,0.036l0.05,0.037l0.048,0.039l0.047,0.041l0.046,0.042l0.045,0.044l0.043,0.045l0.041,0.046l0.04,0.048l0.038,0.048l0.037,0.051l0.035,0.051l0.034,0.052l0.031,0.054l0.03,0.054l0.029,0.056l0.026,0.056l0.025,0.057l0.022,0.058l0.021,0.059l0.019,0.059l0.017,0.06l0.015,0.06l0.013,0.061l0.011,0.061l0.009,0.061l0.007,0.062l0.006,0.062l0.003,0.062l0.001,0.062l-0.001,0.063l-0.003,0.062l-0.005,0.062l-0.007,0.062l-0.009,0.061l-0.011,0.061l-0.013,0.061l-0.015,0.06l-0.017,0.06l-0.018,0.06l-0.021,0.058l-0.022,0.058l-0.025,0.057l-0.026,0.057l-0.028,0.055l-0.03,0.055l-0.032,0.053l-0.033,0.053l-0.035,0.051l-0.037,0.05l-0.038,0.05l-0.04,0.047l-0.041,0.047l-0.043,0.045l-0.044,0.043l-0.046,0.043l-0.047,0.04l-0.048,0.04l-0.05,0.037l-0.05,0.036l-0.052,0.034l-0.053,0.033l-0.054,0.031l-0.055,0.029l-0.056,0.027l-0.057,0.026l-0.057,0.023l-0.058,0.022l-0.059,0.02l-0.06,0.018l-0.06,0.016l-0.061,0.014l-0.061,0.012l-0.061,0.01l-0.062,0.008l-0.061,0.006l-0.063,0.005l-0.062,0.002l-0.062,0l-0.062,-0.002l-0.062,-0.004l-0.062,-0.006l-0.062,-0.008l-0.061,-0.01l-5.07,-0.906l-0.061,-0.012l-0.06,-0.014l-0.061,-0.016l-0.059,-0.017l-0.059,-0.02l-0.058,-0.022l-0.058,-0.023l-0.057,-0.026l-0.056,-0.027l-0.055,-0.029l-0.054,-0.03l-0.053,-0.033l-0.052,-0.034l-0.051,-0.036l-0.049,-0.037l-0.049,-0.039l-0.047,-0.041l-0.045,-0.042l-0.045,-0.044l-0.043,-0.045l-0.041,-0.046l-0.04,-0.048l-0.039,-0.048l-0.036,-0.051l-0.036,-0.051l-0.033,-0.052l-0.032,-0.054l-0.03,-0.054l-0.028,-0.056l-0.026,-0.056l-0.025,-0.057l-0.023,-0.058l-0.02,-0.059l-0.019,-0.059l-0.017,-0.06l-0.015,-0.06l-0.013,-0.061l-0.011,-0.061l-0.01,-0.061l-0.007,-0.062l-0.005,-0.062l-0.003,-0.062l-0.001,-0.063l0.001,-0.062l0.003,-0.062l0.005,-0.062l0.007,-0.062l0.009,-0.061l0.011,-0.061l0.013,-0.061l0.014,-0.061l0.017,-0.059l0.019,-0.06l0.021,-0.058l0.022,-0.058l0.025,-0.057l0.026,-0.057l0.028,-0.055l0.03,-0.055l0.031,-0.053l0.034,-0.053l0.035,-0.051l0.036,-0.051l0.039,-0.049l0.039,-0.047l0.042,-0.047l0.043,-0.045l0.044,-0.044l0.046,-0.042l0.047,-0.04l0.048,-0.04l0.049,-0.037l0.051,-0.036l0.052,-0.034l0.053,-0.033l0.054,-0.031l0.055,-0.029l0.056,-0.027l0.056,-0.026l0.058,-0.023l0.058,-0.022l0.059,-0.02l0.06,-0.018l0.06,-0.016l0.06,-0.014l0.061,-0.012l0.062,-0.01l0.061,-0.008l0.062,-0.007l0.062,-0.004l0.062,-0.002l0.063,0l0.062,0.002Z" style="fill:#0d29a7;"/><path d="M319.513,286.9l1.651,2.3" style="fill:none;stroke:#7e7272;stroke-width:2px;"/><path d="M115.672,52.26c0,-0.935 -0.76,-1.695 -1.696,-1.695l-111.031,0c-0.935,0 -1.695,0.76 -1.695,1.695l0,3.391c0,0.936 0.76,1.696 1.695,1.696l111.031,0c0.936,0 1.696,-0.76 1.696,-1.696l0,-3.391Z" style="fill:#8e5b13;stroke:#07090c;stroke-width:2.5px;"/><path d="M315.967,274.163l-107.761,0l5.675,-5.675l96.411,0l5.675,5.675Z" style="fill:#898f99;"/><rect x="108.424" y="284.145" width="10.385" height="114.209" style="fill:#67410c;"/><rect x="410.545" y="284.715" width="10.385" height="113.716" style="fill:#67410c;"/><rect x="439.948" y="284.576" width="10.385" height="113.78" style="fill:#67410c;"/><rect x="79.175" y="284.741" width="10.385" height="113.815" style="fill:#67410c;"/><path d="M466.443,277.61c0,-1.843 -1.496,-3.339 -3.339,-3.339l-403.012,0c-1.843,0 -3.339,1.496 -3.339,3.339l0,6.677c0,1.843 1.496,3.339 3.339,3.339l403.012,0c1.843,0 3.339,-1.496 3.339,-3.339l0,-6.677Z" style="fill:#8e5b13;"/><path d="M135.783,277.61c0,-1.843 -1.496,-3.339 -3.339,-3.339l-72.187,0c-1.843,0 -3.339,1.496 -3.339,3.339l0,6.677c0,1.843 1.496,3.339 3.339,3.339l72.187,0c1.843,0 3.339,-1.496 3.339,-3.339l0,-6.677Z" style="fill:#a87e42;"/><g><path d="M380.369,196.725l0.083,0.012l0.081,0.022l0.079,0.03l0.074,0.04l0.07,0.047l0.063,0.055l0.058,0.061l0.05,0.068l0.042,0.072l0.034,0.077l0.025,0.081l0.016,0.082l0.006,0.084l0.509,24.368l-0.003,0.084l-0.012,0.084l-0.022,0.081l-0.03,0.078l-0.039,0.075l-0.048,0.069l-0.054,0.064l-0.062,0.057l-0.067,0.051l-0.073,0.042l-0.077,0.034l-0.081,0.024l-0.082,0.016l-0.084,0.007l-0.084,-0.003l-0.083,-0.013l-0.082,-0.021l-0.078,-0.031l-0.074,-0.039l-0.07,-0.047l-0.064,-0.055l-0.057,-0.061l-0.05,-0.068l-0.042,-0.073l-0.034,-0.077l-0.025,-0.08l-0.016,-0.083l-0.007,-0.083l-0.509,-24.369l0.003,-0.084l0.013,-0.083l0.021,-0.081l0.031,-0.078l0.039,-0.075l0.047,-0.069l0.055,-0.064l0.062,-0.058l0.067,-0.05l0.073,-0.042l0.077,-0.034l0.08,-0.025l0.083,-0.016l0.084,-0.006l0.084,0.003Z" style="fill:#b3b0ac;"/><path d="M400.049,196.725l0.083,0.012l0.081,0.022l0.078,0.03l0.075,0.04l0.07,0.047l0.063,0.055l0.058,0.061l0.05,0.068l0.042,0.072l0.034,0.077l0.025,0.081l0.016,0.082l0.006,0.084l0.509,24.368l-0.003,0.084l-0.012,0.084l-0.022,0.081l-0.03,0.078l-0.039,0.075l-0.048,0.069l-0.054,0.064l-0.062,0.057l-0.068,0.051l-0.072,0.042l-0.077,0.034l-0.081,0.024l-0.082,0.016l-0.084,0.007l-0.084,-0.003l-0.083,-0.013l-0.082,-0.021l-0.078,-0.031l-0.074,-0.039l-0.07,-0.047l-0.064,-0.055l-0.057,-0.061l-0.05,-0.068l-0.042,-0.073l-0.034,-0.077l-0.025,-0.08l-0.016,-0.083l-0.007,-0.083l-0.509,-24.369l0.003,-0.084l0.013,-0.083l0.021,-0.081l0.031,-0.078l0.039,-0.075l0.047,-0.069l0.055,-0.064l0.062,-0.058l0.067,-0.05l0.073,-0.042l0.077,-0.034l0.08,-0.025l0.083,-0.016l0.084,-0.006l0.084,0.003Z" style="fill:#b3b0ac;"/><path d="M399.894,207.076l0.071,0.009l0.069,0.015l0.068,0.022l0.066,0.029l0.062,0.034l0.059,0.041l0.055,0.045l0.05,0.051l0.045,0.055l0.04,0.06l0.034,0.063l0.027,0.065l0.022,0.068l0.015,0.07l0.008,0.071l0.001,0.071l-0.005,0.072l-0.013,0.07l-0.019,0.069l-0.025,0.067l-0.031,0.064l-0.038,0.06l-0.043,0.057l-0.048,0.053l-0.053,0.047l-0.058,0.043l-0.061,0.037l-0.064,0.031l-0.067,0.024l-0.069,0.018l-0.071,0.012l-0.071,0.004l-17.811,0.327l-0.071,-0.002l-0.071,-0.009l-0.07,-0.016l-0.068,-0.022l-0.065,-0.028l-0.063,-0.035l-0.059,-0.04l-0.054,-0.046l-0.051,-0.051l-0.045,-0.055l-0.039,-0.059l-0.034,-0.063l-0.028,-0.066l-0.021,-0.068l-0.015,-0.07l-0.008,-0.071l-0.002,-0.071l0.006,-0.071l0.012,-0.07l0.019,-0.069l0.025,-0.067l0.032,-0.064l0.037,-0.061l0.043,-0.057l0.049,-0.052l0.053,-0.048l0.057,-0.042l0.061,-0.037l0.065,-0.031l0.067,-0.025l0.069,-0.018l0.07,-0.011l0.071,-0.005l17.812,-0.326l0.071,0.002Z" style="fill:#b3b0ac;"/></g><g><clipPath id="_clip4"><rect x="136.835" y="232.538" width="42.784" height="7.216"/></clipPath><g clip-path="url(#_clip4)"><ellipse cx="158.227" cy="242.386" rx="21.392" ry="9.847" style="fill:#f21027;"/></g><path d="M134.829,249.765l11.686,-3.016l-2.135,3.802l-5.843,1.508l-3.708,-2.294Z" style="fill:#f21027;stroke:#f21027;stroke-width:2px;"/><path d="M168.974,246.061l11.603,3.323l-3.768,2.196l-5.801,-1.662l-2.034,-3.857Z" style="fill:#f21027;stroke:#f21027;stroke-width:2px;"/><path d="M146.834,272.157c0,-0.263 -0.214,-0.476 -0.476,-0.476l-1.675,0c-0.262,0 -0.476,0.213 -0.476,0.476l0,0.952c0,0.263 0.214,0.476 0.476,0.476l1.675,0c0.262,0 0.476,-0.213 0.476,-0.476l0,-0.952Z" style="fill:#f21027;stroke:#f21027;stroke-width:2px;"/><path d="M146.834,272.157c0,-0.263 -0.214,-0.476 -0.476,-0.476l-1.675,0c-0.262,0 -0.476,0.213 -0.476,0.476l0,0.952c0,0.263 0.214,0.476 0.476,0.476l1.675,0c0.262,0 0.476,-0.213 0.476,-0.476l0,-0.952Z" style="fill:#f21027;stroke:#f21027;stroke-width:2px;"/><path d="M171.353,272.157c0,-0.263 -0.213,-0.476 -0.476,-0.476l-1.674,0c-0.263,0 -0.476,0.213 -0.476,0.476l0,0.952c0,0.263 0.213,0.476 0.476,0.476l1.674,0c0.263,0 0.476,-0.213 0.476,-0.476l0,-0.952Z" style="fill:#f21027;stroke:#f21027;stroke-width:2px;"/><path d="M176.798,269.427c0,-0.433 -0.352,-0.785 -0.786,-0.785l-35.988,0c-0.434,0 -0.785,0.352 -0.785,0.785l0,1.571c0,0.433 0.351,0.785 0.785,0.785l35.988,0c0.434,0 0.786,-0.352 0.786,-0.785l0,-1.571Z" style="fill:#f21027;stroke:#f21027;stroke-width:2px;"/><path d="M165.666,247.508c0,-2.203 -1.789,-3.992 -3.992,-3.992l-7.984,0c-2.203,0 -3.992,1.789 -3.992,3.992l0,20.297c0,2.203 1.789,3.992 3.992,3.992l7.984,0c2.203,0 3.992,-1.789 3.992,-3.992l0,-20.297Z" style="fill:#f21027;stroke:#f21027;stroke-width:2px;"/><ellipse cx="157.376" cy="260.574" rx="16.001" ry="10.965" style="fill:#f21027;stroke:#f21027;stroke-width:2px;"/><path d="M149.332,260.427c0.155,-1.095 -0.608,-2.109 -1.703,-2.264l-3.968,-0.56c-1.095,-0.155 -2.11,0.609 -2.265,1.704l-1.321,9.358c-0.155,1.095 0.609,2.11 1.704,2.265l3.968,0.56c1.095,0.155 2.109,-0.609 2.264,-1.704l1.321,-9.359Z" style="fill:#f21027;stroke:#f21027;stroke-width:2px;"/><path d="M173.197,258.914c-0.297,-1.065 -1.403,-1.689 -2.468,-1.392l-3.86,1.076c-1.066,0.297 -1.69,1.402 -1.393,2.468l2.537,9.105c0.297,1.065 1.403,1.689 2.468,1.392l3.861,-1.076c1.065,-0.297 1.689,-1.402 1.392,-2.468l-2.537,-9.105Z" style="fill:#f21027;stroke:#f21027;stroke-width:2px;"/><path d="M174.854,271.253l-34.359,0l6.842,-19.261l18.927,0l8.59,19.261Z" style="fill:#f21027;stroke:#f21027;stroke-width:2px;"/><path d="M133.921,248.297l12.767,-3.453"/><path d="M146.755,244.369l0.048,0.009l0.047,0.015l0.045,0.018l0.042,0.023l0.04,0.028l0.038,0.031l0.034,0.035l0.03,0.038l0.026,0.041l0.022,0.043l0.017,0.046l0.013,0.047l0.008,0.048l0.003,0.048l-0.002,0.049l-0.007,0.048l-0.012,0.047l-0.016,0.046l-0.021,0.044l-0.025,0.041l-0.03,0.039l-0.033,0.036l-0.036,0.032l-0.04,0.028l-0.042,0.024l-0.045,0.02l-0.046,0.015l-12.766,3.452l-0.048,0.01l-0.048,0.006l-0.049,0l-0.048,-0.004l-0.048,-0.009l-0.047,-0.014l-0.044,-0.019l-0.043,-0.023l-0.04,-0.027l-0.038,-0.032l-0.034,-0.035l-0.03,-0.038l-0.026,-0.041l-0.022,-0.043l-0.017,-0.046l-0.013,-0.047l-0.008,-0.048l-0.003,-0.048l0.002,-0.049l0.007,-0.048l0.012,-0.047l0.016,-0.046l0.021,-0.044l0.025,-0.041l0.03,-0.039l0.033,-0.036l0.036,-0.032l0.04,-0.028l0.042,-0.024l0.045,-0.02l0.046,-0.015l12.766,-3.452l0.048,-0.01l0.048,-0.006l0.049,0l0.048,0.004Z" style="fill:#f21027;"/><path d="M134.336,245.377c2.389,-4.718 1.084,-2.415 1.084,-2.415l2.126,-3.177l2.87,-2.037l3.036,-1.275l2.817,-1.245l2.324,-0.962l2.868,-0.75l2.573,-0.32l2.38,-0.145l3.199,-0.169l2.247,-0.072l2.54,0.358l2.129,0.416l2.693,1.011l2.526,1.198l2.224,0.675l1.881,1.081l1.743,0.906l1.699,1.802l1.399,2.101l0.52,1.698l0.313,2.211l0.272,2.061l-2.512,-0.795l-2.739,-0.652l-3.656,-0.944l-4.089,-1.137l-1.529,-2.876l-2.07,-0.985l-2.176,-0.796l-2.242,-0.25l-1.586,-0.05l-2.06,-0.232l-1.596,0.222l-2.642,-0.05l-1.877,0.273l-1.551,0.715l-1.886,0.779l-1.129,0.953l0.443,2.068l-1.584,0.564l-1.496,0.134l-1.654,0.764l-2.072,0.907l-2.213,0.45l-1.969,0.168c0,0 -4.009,2.619 -1.578,-2.181Z" style="fill:#f21027;"/><path d="M158.056,251.519l0.065,0.001l0.065,0l0.066,0.002l0.064,0.001l0.065,0.002l0.065,0.002l0.065,0.002l0.064,0.003l0.064,0.003l0.065,0.004l0.064,0.004l0.064,0.004l0.065,0.004l0.064,0.005l0.063,0.005l0.064,0.005l0.064,0.006l0.063,0.006l0.064,0.006l0.064,0.007l0.062,0.007l0.063,0.007l0.064,0.008l0.063,0.007l0.063,0.009l0.062,0.008l0.062,0.009l0.063,0.009l0.062,0.009l0.063,0.01l0.062,0.01l0.062,0.011l0.062,0.01l0.061,0.011l0.062,0.011l0.062,0.012l0.061,0.012l0.061,0.012l0.061,0.012l0.061,0.013l0.061,0.013l0.061,0.014l0.06,0.013l0.061,0.014l0.06,0.015l0.061,0.014l0.059,0.015l0.06,0.015l0.06,0.015l0.059,0.016l0.06,0.016l0.059,0.016l0.06,0.017l0.059,0.017l0.059,0.017l0.058,0.017l0.059,0.018l0.059,0.018l0.058,0.018l0.057,0.019l0.059,0.019l0.058,0.019l0.058,0.019l0.057,0.02l0.057,0.02l0.057,0.02l0.057,0.021l0.057,0.02l0.057,0.022l0.057,0.021l0.056,0.022l0.056,0.022l0.056,0.022l0.056,0.022l0.056,0.023l0.055,0.023l0.056,0.023l0.055,0.024l0.055,0.023l0.055,0.025l0.055,0.024l0.054,0.025l0.054,0.024l0.054,0.026l0.055,0.025l0.053,0.026l0.054,0.026l0.053,0.026l0.053,0.026l0.054,0.027l0.052,0.027l0.053,0.027l0.052,0.028l0.053,0.028l0.052,0.028l0.052,0.028l0.052,0.029l0.051,0.028l0.051,0.029l0.051,0.03l0.051,0.029l0.051,0.03l0.05,0.03l0.05,0.031l0.051,0.03l0.049,0.031l0.05,0.031l0.05,0.032l0.049,0.031l0.049,0.032l0.049,0.032l0.048,0.033l0.049,0.032l0.048,0.033l0.048,0.033l0.048,0.034l0.047,0.033l0.047,0.034l0.048,0.034l0.047,0.035l0.046,0.034l0.046,0.035l0.047,0.035l0.046,0.036l0.045,0.035l0.046,0.036l0.045,0.036l0.045,0.036l0.045,0.037l0.045,0.037l0.044,0.036l0.044,0.038l0.044,0.038l0.043,0.037l0.043,0.038l0.043,0.038l0.044,0.039l0.042,0.039l0.043,0.039l0.042,0.039l0.041,0.039l0.042,0.04l0.042,0.04l0.04,0.04l0.041,0.04l0.041,0.041l0.04,0.041l0.04,0.041l0.04,0.041l0.039,0.042l0.04,0.042l0.038,0.041l0.039,0.043l0.038,0.042l0.039,0.043l0.037,0.043l0.038,0.043l0.037,0.043l0.037,0.044l0.037,0.044l0.036,0.044l0.036,0.044l0.036,0.045l0.036,0.044l0.035,0.046l0.035,0.044l0.034,0.045l0.035,0.046l0.034,0.046l0.034,0.046l0.033,0.046l0.033,0.047l0.033,0.047l0.033,0.047l0.032,0.047l0.032,0.047l0.031,0.048l0.031,0.047l0.031,0.048l0.031,0.049l0.03,0.048l0.03,0.049l0.03,0.049l0.029,0.048l0.029,0.05l0.028,0.049l0.029,0.05l0.028,0.05l0.027,0.05l0.027,0.05l0.027,0.051l0.027,0.05l0.026,0.051l0.026,0.051l0.025,0.052l0.025,0.051l0.025,0.052l0.025,0.052l0.023,0.051l0.024,0.053l0.023,0.052l0.023,0.053l0.023,0.052l0.022,0.054l0.022,0.053l0.021,0.053l0.021,0.054l0.021,0.053l0.02,0.054l0.02,0.054l0.019,0.054l0.019,0.055l0.019,0.055l0.018,0.054l0.018,0.055l0.017,0.055l0.017,0.055l0.017,0.056l0.016,0.055l0.016,0.056l0.016,0.056l0.015,0.056l0.014,0.056l0.014,0.056l0.014,0.057l0.013,0.057l0.013,0.056l0.013,0.057l0.012,0.057l0.011,0.057l0.011,0.057l0.011,0.058l0.011,0.058l0.009,0.057l0.01,0.058l0.009,0.058l0.008,0.058l0.008,0.058l0.008,0.058l0.007,0.059l0.007,0.058l0.006,0.058l0.006,0.06l0.005,0.058l0.005,0.059l0.005,0.059l0.003,0.059l0.004,0.059l0.003,0.059l0.003,0.06l0.002,0.059l0.001,0.059l0.002,0.06l0,0.06l0.001,0.059l-0.001,0.06l0,0.06l-0.002,0.06l-0.001,0.059l-0.002,0.059l-0.003,0.059l-0.003,0.06l-0.004,0.059l-0.003,0.059l-0.005,0.059l-0.005,0.059l-0.005,0.058l-0.006,0.06l-0.006,0.058l-0.007,0.058l-0.007,0.059l-0.008,0.058l-0.008,0.058l-0.008,0.058l-0.009,0.058l-0.01,0.058l-0.009,0.057l-0.011,0.058l-0.011,0.058l-0.011,0.057l-0.011,0.057l-0.012,0.057l-0.013,0.057l-0.013,0.056l-0.013,0.057l-0.014,0.056l-0.014,0.057l-0.014,0.056l-0.015,0.056l-0.016,0.055l-0.016,0.057l-0.016,0.055l-0.017,0.056l-0.017,0.055l-0.017,0.055l-0.018,0.055l-0.018,0.054l-0.019,0.055l-0.019,0.054l-0.019,0.055l-0.02,0.054l-0.02,0.054l-0.021,0.053l-0.021,0.054l-0.021,0.053l-0.022,0.053l-0.022,0.053l-0.023,0.053l-0.023,0.053l-0.023,0.052l-0.024,0.052l-0.024,0.052l-0.024,0.052l-0.025,0.052l-0.025,0.051l-0.025,0.052l-0.026,0.051l-0.026,0.051l-0.027,0.05l-0.027,0.051l-0.027,0.05l-0.028,0.05l-0.027,0.05l-0.029,0.049l-0.028,0.05l-0.029,0.049l-0.029,0.049l-0.03,0.049l-0.03,0.049l-0.03,0.049l-0.031,0.048l-0.031,0.047l-0.031,0.048l-0.031,0.048l-0.032,0.047l-0.032,0.047l-0.033,0.047l-0.033,0.047l-0.033,0.046l-0.033,0.046l-0.034,0.047l-0.034,0.045l-0.034,0.046l-0.035,0.046l-0.035,0.045l-0.035,0.045l-0.036,0.044l-0.035,0.045l-0.037,0.044l-0.036,0.044l-0.037,0.044l-0.037,0.044l-0.037,0.043l-0.038,0.043l-0.038,0.043l-0.037,0.043l-0.039,0.042l-0.039,0.043l-0.038,0.041l-0.04,0.042l-0.039,0.042l-0.04,0.041l-0.04,0.041l-0.04,0.041l-0.041,0.04l-0.04,0.041l-0.042,0.04l-0.041,0.04l-0.041,0.039l-0.043,0.04l-0.042,0.039l-0.042,0.039l-0.042,0.039l-0.043,0.038l-0.044,0.039l-0.043,0.038l-0.043,0.037l-0.044,0.038l-0.044,0.037l-0.045,0.037l-0.044,0.037l-0.045,0.036l-0.045,0.037l-0.045,0.036l-0.046,0.036l-0.045,0.035l-0.046,0.036l-0.046,0.035l-0.047,0.035l-0.046,0.034l-0.048,0.035l-0.047,0.034l-0.047,0.034l-0.047,0.033l-0.048,0.034l-0.048,0.033l-0.048,0.032l-0.048,0.033l-0.05,0.033l-0.048,0.032l-0.049,0.032l-0.049,0.031l-0.05,0.032l-0.05,0.031l-0.049,0.031l-0.05,0.03l-0.051,0.031l-0.05,0.03l-0.051,0.03l-0.051,0.029l-0.051,0.03l-0.051,0.028l-0.051,0.029l-0.052,0.029l-0.052,0.028l-0.052,0.028l-0.053,0.028l-0.052,0.028l-0.053,0.027l-0.053,0.027l-0.053,0.027l-0.053,0.026l-0.053,0.026l-0.054,0.026l-0.053,0.026l-0.054,0.025l-0.055,0.026l-0.054,0.025l-0.054,0.024l-0.055,0.024l-0.055,0.025l-0.055,0.023l-0.055,0.024l-0.056,0.023l-0.055,0.023l-0.056,0.023l-0.056,0.022l-0.056,0.023l-0.056,0.021l-0.056,0.022l-0.057,0.021l-0.057,0.021l-0.056,0.021l-0.058,0.021l-0.057,0.02l-0.057,0.02l-0.058,0.02l-0.057,0.019l-0.058,0.019l-0.058,0.019l-0.059,0.019l-0.058,0.018l-0.058,0.018l-0.058,0.018l-0.059,0.017l-0.059,0.017l-0.059,0.017l-0.06,0.017l-0.059,0.016l-0.059,0.016l-0.06,0.016l-0.06,0.015l-0.06,0.015l-0.06,0.015l-0.06,0.014l-0.06,0.015l-0.061,0.014l-0.06,0.013l-0.061,0.014l-0.061,0.013l-0.061,0.012l-0.061,0.013l-0.061,0.012l-0.061,0.012l-0.062,0.011l-0.062,0.012l-0.061,0.011l-0.062,0.01l-0.062,0.011l-0.062,0.01l-0.063,0.009l-0.062,0.01l-0.062,0.009l-0.063,0.009l-0.063,0.008l-0.063,0.009l-0.062,0.007l-0.063,0.008l-0.063,0.007l-0.064,0.007l-0.063,0.007l-0.063,0.006l-0.064,0.006l-0.064,0.006l-0.063,0.005l-0.065,0.005l-0.064,0.005l-0.063,0.004l-0.064,0.004l-0.065,0.004l-0.065,0.004l-0.064,0.003l-0.065,0.002l-0.064,0.003l-0.064,0.002l-0.065,0.002l-0.066,0.001l-0.065,0.002l-0.065,0l-0.065,0.001l-0.065,0l-0.065,0l-0.066,-0.001l-0.064,0l-0.065,-0.002l-0.066,-0.001l-0.065,-0.002l-0.064,-0.002l-0.065,-0.003l-0.065,-0.002l-0.064,-0.003l-0.064,-0.004l-0.065,-0.004l-0.064,-0.004l-0.064,-0.004l-0.064,-0.005l-0.064,-0.005l-0.064,-0.005l-0.063,-0.006l-0.064,-0.006l-0.063,-0.006l-0.064,-0.007l-0.063,-0.007l-0.063,-0.007l-0.063,-0.008l-0.063,-0.007l-0.063,-0.009l-0.063,-0.008l-0.062,-0.009l-0.063,-0.009l-0.062,-0.01l-0.062,-0.009l-0.062,-0.01l-0.062,-0.011l-0.062,-0.01l-0.062,-0.011l-0.061,-0.012l-0.062,-0.011l-0.061,-0.012l-0.061,-0.012l-0.062,-0.013l-0.061,-0.012l-0.06,-0.013l-0.061,-0.014l-0.061,-0.013l-0.06,-0.014l-0.061,-0.015l-0.059,-0.014l-0.061,-0.015l-0.06,-0.015l-0.06,-0.015l-0.059,-0.016l-0.059,-0.016l-0.06,-0.016l-0.059,-0.017l-0.059,-0.017l-0.059,-0.017l-0.059,-0.017l-0.058,-0.018l-0.059,-0.018l-0.058,-0.018l-0.058,-0.019l-0.058,-0.019l-0.058,-0.019l-0.058,-0.019l-0.057,-0.02l-0.058,-0.02l-0.057,-0.02l-0.057,-0.021l-0.057,-0.021l-0.056,-0.021l-0.057,-0.021l-0.056,-0.022l-0.056,-0.021l-0.056,-0.023l-0.056,-0.022l-0.056,-0.023l-0.056,-0.023l-0.055,-0.023l-0.055,-0.024l-0.055,-0.023l-0.056,-0.025l-0.054,-0.024l-0.054,-0.024l-0.054,-0.025l-0.055,-0.026l-0.054,-0.025l-0.053,-0.026l-0.054,-0.026l-0.054,-0.026l-0.053,-0.026l-0.053,-0.027l-0.053,-0.027l-0.052,-0.027l-0.053,-0.028l-0.052,-0.028l-0.052,-0.028l-0.052,-0.028l-0.052,-0.029l-0.051,-0.028l-0.051,-0.029l-0.051,-0.03l-0.052,-0.029l-0.05,-0.03l-0.051,-0.03l-0.05,-0.031l-0.05,-0.03l-0.05,-0.031l-0.049,-0.031l-0.05,-0.032l-0.05,-0.031l-0.048,-0.032l-0.049,-0.032l-0.049,-0.033l-0.048,-0.032l-0.048,-0.033l-0.048,-0.033l-0.048,-0.034l-0.048,-0.033l-0.047,-0.034l-0.047,-0.034l-0.047,-0.035l-0.047,-0.034l-0.046,-0.035l-0.046,-0.035l-0.046,-0.035l-0.046,-0.036l-0.045,-0.036l-0.046,-0.036l-0.045,-0.037l-0.044,-0.036l-0.045,-0.037l-0.044,-0.037l-0.045,-0.037l-0.043,-0.038l-0.044,-0.037l-0.043,-0.038l-0.043,-0.039l-0.043,-0.038l-0.043,-0.039l-0.042,-0.039l-0.042,-0.039l-0.042,-0.04l-0.042,-0.039l-0.041,-0.04l-0.041,-0.04l-0.041,-0.04l-0.04,-0.041l-0.04,-0.041l-0.041,-0.041l-0.039,-0.041l-0.04,-0.042l-0.039,-0.042l-0.039,-0.041l-0.038,-0.043l-0.039,-0.042l-0.038,-0.043l-0.038,-0.043l-0.037,-0.043l-0.038,-0.043l-0.037,-0.044l-0.036,-0.044l-0.037,-0.044l-0.036,-0.045l-0.036,-0.044l-0.035,-0.044l-0.035,-0.045l-0.035,-0.045l-0.035,-0.046l-0.034,-0.046l-0.034,-0.045l-0.034,-0.047l-0.033,-0.046l-0.033,-0.046l-0.033,-0.047l-0.033,-0.047l-0.032,-0.047l-0.032,-0.047l-0.032,-0.048l-0.031,-0.048l-0.031,-0.047l-0.03,-0.048l-0.031,-0.049l-0.03,-0.049l-0.029,-0.049l-0.029,-0.049l-0.029,-0.049l-0.029,-0.05l-0.028,-0.049l-0.028,-0.05l-0.027,-0.05l-0.028,-0.05l-0.027,-0.051l-0.026,-0.05l-0.026,-0.051l-0.026,-0.051l-0.026,-0.052l-0.025,-0.051l-0.024,-0.052l-0.025,-0.052l-0.024,-0.052l-0.023,-0.052l-0.024,-0.052l-0.022,-0.053l-0.023,-0.053l-0.022,-0.053l-0.022,-0.053l-0.021,-0.053l-0.022,-0.054l-0.02,-0.053l-0.02,-0.054l-0.02,-0.054l-0.02,-0.055l-0.019,-0.054l-0.018,-0.055l-0.019,-0.054l-0.017,-0.055l-0.018,-0.055l-0.017,-0.055l-0.016,-0.056l-0.017,-0.055l-0.016,-0.057l-0.015,-0.055l-0.015,-0.056l-0.015,-0.056l-0.014,-0.057l-0.013,-0.056l-0.014,-0.057l-0.013,-0.056l-0.012,-0.057l-0.012,-0.057l-0.012,-0.057l-0.011,-0.057l-0.011,-0.058l-0.01,-0.058l-0.01,-0.057l-0.009,-0.058l-0.009,-0.058l-0.009,-0.058l-0.008,-0.058l-0.007,-0.058l-0.007,-0.059l-0.007,-0.058l-0.006,-0.059l-0.006,-0.058l-0.006,-0.059l-0.004,-0.059l-0.005,-0.059l-0.004,-0.059l-0.003,-0.059l-0.003,-0.06l-0.003,-0.059l-0.002,-0.059l-0.002,-0.059l-0.001,-0.06l-0.001,-0.06l0,-0.06l0,-0.059l0.001,-0.06l0.001,-0.06l0.002,-0.059l0.002,-0.059l0.003,-0.06l0.003,-0.059l0.003,-0.059l0.004,-0.059l0.005,-0.059l0.004,-0.059l0.006,-0.059l0.006,-0.058l0.006,-0.059l0.007,-0.058l0.007,-0.059l0.007,-0.058l0.008,-0.058l0.009,-0.058l0.009,-0.058l0.009,-0.058l0.01,-0.057l0.01,-0.058l0.011,-0.058l0.011,-0.057l0.012,-0.057l0.012,-0.057l0.012,-0.057l0.013,-0.056l0.014,-0.057l0.013,-0.057l0.014,-0.056l0.015,-0.056l0.015,-0.056l0.015,-0.056l0.016,-0.056l0.017,-0.055l0.016,-0.056l0.017,-0.055l0.018,-0.055l0.017,-0.055l0.019,-0.054l0.018,-0.055l0.02,-0.055l0.019,-0.054l0.02,-0.054l0.02,-0.054l0.021,-0.053l0.021,-0.054l0.021,-0.053l0.022,-0.053l0.022,-0.054l0.023,-0.052l0.022,-0.053l0.024,-0.052l0.023,-0.053l0.024,-0.051l0.025,-0.052l0.024,-0.052l0.025,-0.051l0.026,-0.052l0.026,-0.051l0.026,-0.051l0.026,-0.05l0.027,-0.051l0.027,-0.05l0.028,-0.05l0.028,-0.05l0.028,-0.05l0.029,-0.049l0.029,-0.05l0.029,-0.048l0.029,-0.049l0.031,-0.049l0.03,-0.048l0.03,-0.049l0.031,-0.048l0.031,-0.047l0.032,-0.048l0.032,-0.047l0.032,-0.047l0.033,-0.047l0.032,-0.047l0.034,-0.047l0.033,-0.046l0.034,-0.046l0.034,-0.046l0.034,-0.045l0.035,-0.046l0.035,-0.045l0.035,-0.045l0.035,-0.044l0.036,-0.045l0.037,-0.044l0.036,-0.044l0.036,-0.044l0.037,-0.044l0.038,-0.043l0.037,-0.043l0.038,-0.043l0.038,-0.043l0.039,-0.042l0.038,-0.042l0.039,-0.042l0.039,-0.042l0.04,-0.041l0.04,-0.042l0.04,-0.041l0.04,-0.041l0.041,-0.041l0.04,-0.04l0.041,-0.04l0.041,-0.04l0.042,-0.04l0.042,-0.039l0.042,-0.039l0.042,-0.039l0.043,-0.039l0.043,-0.039l0.043,-0.038l0.043,-0.038l0.044,-0.038l0.044,-0.037l0.044,-0.038l0.044,-0.036l0.045,-0.037l0.045,-0.037l0.044,-0.036l0.045,-0.036l0.046,-0.036l0.046,-0.036l0.046,-0.035l0.046,-0.035l0.047,-0.035l0.046,-0.034l0.047,-0.035l0.047,-0.034l0.048,-0.034l0.047,-0.033l0.048,-0.034l0.047,-0.033l0.049,-0.033l0.048,-0.032l0.049,-0.033l0.049,-0.032l0.048,-0.032l0.05,-0.031l0.05,-0.032l0.049,-0.031l0.05,-0.031l0.05,-0.031l0.05,-0.03l0.05,-0.03l0.052,-0.03l0.051,-0.029l0.05,-0.03l0.052,-0.029l0.051,-0.029l0.052,-0.028l0.052,-0.028l0.052,-0.028l0.052,-0.028l0.053,-0.028l0.053,-0.027l0.052,-0.027l0.053,-0.027l0.054,-0.026l0.053,-0.026l0.053,-0.026l0.054,-0.026l0.054,-0.025l0.054,-0.026l0.055,-0.024l0.054,-0.025l0.055,-0.024l0.055,-0.025l0.055,-0.023l0.055,-0.024l0.055,-0.023l0.056,-0.023l0.056,-0.023l0.056,-0.022l0.055,-0.022l0.057,-0.022l0.056,-0.022l0.057,-0.021l0.056,-0.022l0.058,-0.02l0.056,-0.021l0.057,-0.02l0.058,-0.02l0.057,-0.02l0.058,-0.019l0.058,-0.019l0.058,-0.019l0.058,-0.019l0.058,-0.018l0.059,-0.018l0.059,-0.018l0.058,-0.017l0.059,-0.017l0.059,-0.017l0.059,-0.017l0.06,-0.016l0.059,-0.016l0.059,-0.016l0.06,-0.015l0.061,-0.015l0.059,-0.015l0.06,-0.014l0.061,-0.015l0.06,-0.014l0.061,-0.013l0.06,-0.014l0.061,-0.013l0.062,-0.013l0.061,-0.012l0.061,-0.012l0.061,-0.012l0.062,-0.012l0.061,-0.011l0.062,-0.011l0.062,-0.01l0.061,-0.011l0.063,-0.01l0.062,-0.01l0.062,-0.009l0.063,-0.009l0.063,-0.009l0.062,-0.008l0.063,-0.009l0.063,-0.007l0.063,-0.008l0.064,-0.007l0.062,-0.007l0.063,-0.007l0.065,-0.006l0.063,-0.006l0.063,-0.006l0.065,-0.005l0.063,-0.005l0.064,-0.005l0.064,-0.004l0.064,-0.004l0.065,-0.004l0.064,-0.004l0.064,-0.003l0.065,-0.003l0.065,-0.002l0.065,-0.002l0.065,-0.002l0.064,-0.001l0.065,-0.002l0.065,0l0.066,-0.001l0.065,0l0.065,0Zm-0.111,3.84l-0.046,0l-0.045,0.001l-0.045,0.001l-0.046,0.001l-0.045,0.001l-0.046,0.002l-0.044,0.001l-0.046,0.002l-0.045,0.002l-0.045,0.003l-0.044,0.002l-0.045,0.003l-0.045,0.003l-0.044,0.004l-0.045,0.003l-0.044,0.004l-0.044,0.004l-0.045,0.004l-0.043,0.004l-0.044,0.005l-0.045,0.005l-0.043,0.005l-0.044,0.005l-0.043,0.005l-0.043,0.006l-0.044,0.006l-0.043,0.006l-0.043,0.006l-0.043,0.007l-0.043,0.007l-0.042,0.006l-0.043,0.008l-0.043,0.007l-0.043,0.007l-0.042,0.008l-0.042,0.008l-0.042,0.008l-0.042,0.009l-0.042,0.008l-0.042,0.009l-0.041,0.009l-0.042,0.009l-0.041,0.009l-0.042,0.01l-0.041,0.009l-0.041,0.01l-0.041,0.011l-0.04,0.01l-0.041,0.01l-0.041,0.011l-0.04,0.011l-0.04,0.011l-0.04,0.011l-0.04,0.011l-0.04,0.012l-0.04,0.012l-0.04,0.012l-0.039,0.012l-0.039,0.012l-0.04,0.013l-0.039,0.013l-0.039,0.012l-0.038,0.013l-0.039,0.014l-0.039,0.013l-0.038,0.014l-0.038,0.014l-0.038,0.013l-0.038,0.014l-0.038,0.015l-0.038,0.014l-0.037,0.015l-0.037,0.015l-0.038,0.015l-0.036,0.015l-0.037,0.015l-0.037,0.015l-0.037,0.016l-0.036,0.016l-0.036,0.016l-0.036,0.016l-0.036,0.016l-0.036,0.016l-0.036,0.017l-0.035,0.016l-0.035,0.017l-0.036,0.017l-0.035,0.018l-0.034,0.017l-0.034,0.017l-0.035,0.018l-0.035,0.018l-0.034,0.018l-0.034,0.018l-0.033,0.018l-0.034,0.018l-0.033,0.018l-0.034,0.019l-0.033,0.019l-0.033,0.019l-0.033,0.019l-0.032,0.019l-0.032,0.019l-0.033,0.02l-0.031,0.019l-0.032,0.02l-0.032,0.02l-0.031,0.02l-0.031,0.02l-0.032,0.02l-0.031,0.02l-0.03,0.021l-0.031,0.02l-0.03,0.021l-0.03,0.021l-0.03,0.021l-0.03,0.021l-0.03,0.021l-0.029,0.021l-0.029,0.022l-0.03,0.021l-0.028,0.022l-0.029,0.022l-0.028,0.022l-0.028,0.021l-0.028,0.022l-0.028,0.023l-0.028,0.022l-0.027,0.023l-0.027,0.022l-0.028,0.023l-0.026,0.022l-0.027,0.023l-0.026,0.023l-0.027,0.023l-0.026,0.023l-0.025,0.023l-0.026,0.023l-0.025,0.024l-0.026,0.023l-0.025,0.024l-0.024,0.023l-0.025,0.024l-0.024,0.024l-0.025,0.024l-0.023,0.024l-0.024,0.024l-0.024,0.024l-0.023,0.024l-0.023,0.025l-0.023,0.024l-0.022,0.024l-0.023,0.025l-0.022,0.025l-0.022,0.024l-0.022,0.025l-0.022,0.025l-0.021,0.025l-0.021,0.024l-0.021,0.026l-0.021,0.025l-0.02,0.025l-0.021,0.025l-0.02,0.025l-0.02,0.026l-0.019,0.025l-0.02,0.025l-0.019,0.026l-0.019,0.025l-0.019,0.026l-0.018,0.026l-0.019,0.026l-0.018,0.025l-0.018,0.026l-0.017,0.026l-0.018,0.026l-0.017,0.026l-0.017,0.026l-0.017,0.027l-0.017,0.026l-0.016,0.026l-0.016,0.026l-0.016,0.026l-0.016,0.027l-0.015,0.026l-0.016,0.027l-0.015,0.026l-0.014,0.026l-0.015,0.027l-0.014,0.026l-0.015,0.027l-0.014,0.027l-0.013,0.027l-0.014,0.026l-0.013,0.027l-0.013,0.027l-0.013,0.027l-0.012,0.026l-0.013,0.028l-0.012,0.027l-0.012,0.027l-0.012,0.027l-0.012,0.027l-0.011,0.026l-0.011,0.028l-0.011,0.027l-0.011,0.027l-0.01,0.028l-0.01,0.027l-0.01,0.028l-0.01,0.027l-0.01,0.027l-0.009,0.027l-0.009,0.028l-0.009,0.027l-0.009,0.028l-0.009,0.028l-0.008,0.027l-0.008,0.028l-0.008,0.027l-0.007,0.028l-0.008,0.028l-0.007,0.028l-0.007,0.027l-0.007,0.028l-0.006,0.028l-0.007,0.028l-0.006,0.028l-0.006,0.028l-0.005,0.028l-0.006,0.028l-0.005,0.028l-0.005,0.028l-0.005,0.029l-0.005,0.028l-0.004,0.028l-0.004,0.028l-0.004,0.029l-0.004,0.028l-0.003,0.029l-0.004,0.028l-0.003,0.028l-0.002,0.03l-0.003,0.028l-0.002,0.029l-0.003,0.029l-0.002,0.029l-0.001,0.029l-0.002,0.028l-0.001,0.029l-0.001,0.029l-0.001,0.03l0,0.029l-0.001,0.029l0,0.029l0,0.03l0.001,0.029l0,0.029l0.001,0.03l0.001,0.029l0.001,0.029l0.002,0.028l0.001,0.029l0.002,0.029l0.003,0.029l0.002,0.029l0.003,0.028l0.002,0.029l0.003,0.029l0.004,0.028l0.003,0.029l0.004,0.028l0.004,0.029l0.004,0.028l0.004,0.028l0.005,0.028l0.005,0.029l0.005,0.028l0.005,0.027l0.006,0.029l0.005,0.028l0.006,0.028l0.006,0.028l0.007,0.028l0.006,0.028l0.007,0.028l0.007,0.027l0.007,0.028l0.008,0.028l0.007,0.028l0.008,0.027l0.008,0.028l0.009,0.027l0.008,0.028l0.009,0.028l0.009,0.027l0.009,0.027l0.009,0.028l0.01,0.027l0.01,0.028l0.01,0.027l0.01,0.027l0.011,0.028l0.01,0.027l0.011,0.027l0.011,0.027l0.011,0.027l0.012,0.027l0.012,0.027l0.012,0.027l0.012,0.027l0.012,0.027l0.013,0.027l0.013,0.027l0.013,0.027l0.013,0.026l0.014,0.027l0.013,0.027l0.014,0.027l0.015,0.026l0.014,0.027l0.015,0.026l0.015,0.027l0.015,0.027l0.015,0.026l0.015,0.026l0.016,0.027l0.016,0.026l0.016,0.026l0.016,0.026l0.017,0.026l0.017,0.027l0.017,0.026l0.017,0.026l0.018,0.026l0.017,0.026l0.018,0.025l0.018,0.026l0.019,0.026l0.018,0.026l0.019,0.025l0.019,0.026l0.019,0.026l0.02,0.025l0.019,0.025l0.02,0.025l0.02,0.026l0.021,0.026l0.02,0.024l0.021,0.025l0.021,0.026l0.021,0.024l0.021,0.025l0.022,0.025l0.021,0.024l0.023,0.026l0.022,0.024l0.022,0.024l0.023,0.025l0.023,0.024l0.023,0.025l0.024,0.024l0.023,0.024l0.023,0.024l0.025,0.024l0.024,0.024l0.024,0.024l0.025,0.024l0.025,0.023l0.024,0.023l0.025,0.024l0.026,0.024l0.026,0.023l0.025,0.023l0.026,0.023l0.026,0.023l0.027,0.023l0.027,0.023l0.027,0.022l0.026,0.023l0.028,0.022l0.027,0.023l0.028,0.022l0.028,0.022l0.028,0.022l0.028,0.022l0.028,0.022l0.029,0.022l0.029,0.022l0.029,0.021l0.029,0.021l0.029,0.022l0.03,0.021l0.03,0.021l0.03,0.021l0.03,0.021l0.03,0.021l0.031,0.02l0.03,0.02l0.031,0.021l0.032,0.02l0.03,0.02l0.032,0.02l0.032,0.02l0.032,0.02l0.032,0.019l0.032,0.02l0.032,0.019l0.033,0.019l0.032,0.019l0.033,0.019l0.033,0.019l0.034,0.018l0.033,0.019l0.034,0.018l0.033,0.018l0.034,0.018l0.034,0.018l0.035,0.018l0.034,0.018l0.035,0.017l0.035,0.018l0.034,0.017l0.035,0.016l0.036,0.018l0.036,0.016l0.035,0.017l0.035,0.016l0.037,0.017l0.036,0.016l0.036,0.015l0.036,0.016l0.037,0.016l0.037,0.015l0.036,0.015l0.037,0.015l0.038,0.015l0.037,0.015l0.037,0.015l0.038,0.014l0.038,0.014l0.038,0.014l0.038,0.014l0.038,0.014l0.038,0.014l0.039,0.013l0.038,0.013l0.039,0.013l0.039,0.013l0.039,0.013l0.039,0.012l0.04,0.013l0.039,0.012l0.04,0.012l0.04,0.012l0.039,0.011l0.041,0.012l0.04,0.011l0.04,0.011l0.041,0.011l0.04,0.011l0.041,0.01l0.041,0.01l0.04,0.01l0.041,0.01l0.042,0.01l0.041,0.01l0.041,0.009l0.041,0.009l0.042,0.009l0.042,0.009l0.042,0.008l0.042,0.009l0.042,0.008l0.042,0.008l0.042,0.007l0.043,0.008l0.042,0.007l0.043,0.007l0.043,0.007l0.043,0.007l0.043,0.007l0.043,0.006l0.043,0.006l0.044,0.006l0.043,0.005l0.043,0.006l0.044,0.005l0.044,0.005l0.044,0.005l0.043,0.005l0.045,0.004l0.044,0.004l0.044,0.004l0.044,0.004l0.044,0.003l0.045,0.004l0.045,0.003l0.045,0.003l0.044,0.002l0.045,0.003l0.045,0.002l0.045,0.002l0.045,0.001l0.046,0.002l0.045,0.001l0.045,0.001l0.045,0.001l0.046,0.001l0.046,0l0.046,0l0.046,0l0.045,0l0.046,-0.001l0.046,-0.001l0.044,-0.001l0.046,-0.001l0.045,-0.002l0.046,-0.001l0.044,-0.002l0.046,-0.002l0.045,-0.003l0.044,-0.002l0.044,-0.003l0.046,-0.003l0.044,-0.004l0.044,-0.003l0.044,-0.004l0.045,-0.004l0.044,-0.004l0.044,-0.004l0.044,-0.005l0.044,-0.005l0.043,-0.005l0.044,-0.005l0.044,-0.006l0.043,-0.005l0.043,-0.006l0.043,-0.006l0.044,-0.006l0.043,-0.007l0.043,-0.007l0.043,-0.007l0.042,-0.007l0.042,-0.007l0.043,-0.008l0.042,-0.007l0.042,-0.008l0.043,-0.008l0.042,-0.009l0.041,-0.008l0.042,-0.009l0.042,-0.009l0.042,-0.009l0.041,-0.009l0.041,-0.01l0.041,-0.01l0.042,-0.01l0.04,-0.01l0.041,-0.01l0.041,-0.01l0.04,-0.011l0.041,-0.011l0.04,-0.011l0.04,-0.011l0.04,-0.012l0.04,-0.011l0.04,-0.012l0.039,-0.012l0.04,-0.012l0.039,-0.013l0.039,-0.012l0.039,-0.013l0.039,-0.013l0.039,-0.013l0.039,-0.013l0.038,-0.013l0.038,-0.014l0.039,-0.014l0.038,-0.014l0.038,-0.014l0.037,-0.014l0.038,-0.014l0.038,-0.015l0.037,-0.015l0.037,-0.015l0.037,-0.015l0.037,-0.015l0.037,-0.015l0.036,-0.016l0.037,-0.016l0.036,-0.015l0.035,-0.016l0.037,-0.017l0.036,-0.016l0.035,-0.017l0.036,-0.016l0.035,-0.018l0.035,-0.016l0.035,-0.017l0.035,-0.018l0.035,-0.017l0.034,-0.018l0.034,-0.018l0.034,-0.018l0.034,-0.018l0.034,-0.018l0.034,-0.018l0.033,-0.018l0.033,-0.019l0.034,-0.019l0.032,-0.019l0.033,-0.019l0.033,-0.019l0.032,-0.019l0.032,-0.02l0.032,-0.019l0.032,-0.02l0.032,-0.02l0.031,-0.02l0.031,-0.02l0.031,-0.02l0.032,-0.021l0.03,-0.02l0.03,-0.02l0.031,-0.021l0.03,-0.021l0.03,-0.021l0.03,-0.021l0.03,-0.021l0.029,-0.022l0.029,-0.021l0.029,-0.021l0.029,-0.022l0.028,-0.022l0.029,-0.022l0.028,-0.022l0.028,-0.022l0.028,-0.022l0.027,-0.022l0.028,-0.023l0.027,-0.022l0.027,-0.023l0.027,-0.022l0.026,-0.023l0.027,-0.023l0.026,-0.023l0.026,-0.023l0.026,-0.023l0.026,-0.023l0.025,-0.024l0.026,-0.024l0.024,-0.023l0.025,-0.023l0.025,-0.024l0.024,-0.024l0.024,-0.024l0.024,-0.024l0.024,-0.024l0.023,-0.024l0.024,-0.025l0.022,-0.023l0.023,-0.025l0.024,-0.025l0.022,-0.024l0.022,-0.024l0.022,-0.026l0.022,-0.024l0.021,-0.025l0.022,-0.025l0.021,-0.025l0.021,-0.024l0.021,-0.026l0.02,-0.025l0.02,-0.025l0.021,-0.026l0.019,-0.025l0.02,-0.025l0.019,-0.026l0.02,-0.025l0.019,-0.026l0.018,-0.025l0.019,-0.026l0.019,-0.026l0.018,-0.026l0.017,-0.025l0.018,-0.026l0.017,-0.026l0.018,-0.026l0.017,-0.026l0.017,-0.027l0.016,-0.026l0.016,-0.026l0.017,-0.026l0.016,-0.026l0.015,-0.027l0.016,-0.026l0.015,-0.026l0.015,-0.027l0.015,-0.027l0.015,-0.026l0.014,-0.027l0.014,-0.026l0.014,-0.027l0.014,-0.027l0.013,-0.027l0.014,-0.026l0.013,-0.027l0.013,-0.027l0.012,-0.027l0.013,-0.027l0.012,-0.027l0.012,-0.027l0.012,-0.027l0.011,-0.027l0.012,-0.027l0.011,-0.027l0.011,-0.027l0.01,-0.027l0.011,-0.028l0.01,-0.027l0.01,-0.027l0.01,-0.028l0.009,-0.027l0.01,-0.028l0.009,-0.027l0.009,-0.027l0.009,-0.028l0.008,-0.028l0.008,-0.027l0.009,-0.028l0.007,-0.027l0.008,-0.028l0.007,-0.028l0.008,-0.028l0.007,-0.027l0.006,-0.028l0.007,-0.028l0.006,-0.028l0.006,-0.028l0.006,-0.028l0.006,-0.028l0.006,-0.029l0.005,-0.027l0.005,-0.028l0.005,-0.029l0.004,-0.028l0.005,-0.028l0.004,-0.029l0.004,-0.028l0.003,-0.028l0.004,-0.028l0.003,-0.029l0.003,-0.029l0.003,-0.028l0.003,-0.029l0.002,-0.029l0.002,-0.029l0.002,-0.029l0.002,-0.029l0.001,-0.028l0.002,-0.029l0.001,-0.029l0,-0.03l0.001,-0.029l0,-0.029l0,-0.03l0,-0.029l0,-0.029l-0.001,-0.029l0,-0.03l-0.001,-0.029l-0.002,-0.029l-0.001,-0.028l-0.002,-0.029l-0.002,-0.029l-0.002,-0.029l-0.002,-0.029l-0.003,-0.029l-0.003,-0.028l-0.003,-0.029l-0.003,-0.029l-0.004,-0.028l-0.003,-0.028l-0.004,-0.028l-0.004,-0.029l-0.005,-0.028l-0.004,-0.028l-0.005,-0.029l-0.005,-0.028l-0.005,-0.028l-0.006,-0.028l-0.006,-0.028l-0.006,-0.028l-0.006,-0.028l-0.006,-0.028l-0.007,-0.028l-0.006,-0.028l-0.007,-0.027l-0.008,-0.028l-0.007,-0.028l-0.008,-0.028l-0.008,-0.027l-0.008,-0.028l-0.008,-0.027l-0.008,-0.028l-0.009,-0.028l-0.009,-0.027l-0.009,-0.028l-0.01,-0.027l-0.009,-0.027l-0.01,-0.027l-0.01,-0.028l-0.01,-0.027l-0.011,-0.028l-0.01,-0.027l-0.011,-0.027l-0.012,-0.028l-0.011,-0.026l-0.011,-0.027l-0.012,-0.027l-0.012,-0.027l-0.012,-0.027l-0.013,-0.028l-0.012,-0.026l-0.013,-0.027l-0.013,-0.027l-0.014,-0.027l-0.013,-0.026l-0.014,-0.027l-0.014,-0.027l-0.014,-0.027l-0.014,-0.026l-0.015,-0.027l-0.015,-0.026l-0.015,-0.026l-0.015,-0.027l-0.016,-0.026l-0.015,-0.027l-0.016,-0.026l-0.016,-0.026l-0.017,-0.026l-0.016,-0.026l-0.017,-0.027l-0.017,-0.026l-0.018,-0.026l-0.017,-0.026l-0.018,-0.026l-0.018,-0.026l-0.018,-0.025l-0.018,-0.026l-0.019,-0.026l-0.018,-0.026l-0.019,-0.025l-0.019,-0.025l-0.02,-0.026l-0.02,-0.026l-0.02,-0.025l-0.02,-0.025l-0.02,-0.025l-0.02,-0.025l-0.021,-0.026l-0.021,-0.024l-0.021,-0.025l-0.022,-0.026l-0.021,-0.024l-0.022,-0.025l-0.022,-0.024l-0.022,-0.025l-0.023,-0.025l-0.023,-0.024l-0.023,-0.025l-0.022,-0.024l-0.024,-0.024l-0.023,-0.024l-0.024,-0.024l-0.024,-0.024l-0.024,-0.024l-0.025,-0.024l-0.024,-0.024l-0.025,-0.023l-0.025,-0.024l-0.025,-0.023l-0.025,-0.024l-0.026,-0.023l-0.025,-0.023l-0.027,-0.023l-0.026,-0.023l-0.027,-0.023l-0.026,-0.023l-0.027,-0.022l-0.027,-0.023l-0.027,-0.022l-0.027,-0.023l-0.028,-0.022l-0.028,-0.022l-0.028,-0.023l-0.028,-0.022l-0.029,-0.021l-0.028,-0.022l-0.029,-0.022l-0.029,-0.021l-0.029,-0.022l-0.029,-0.021l-0.03,-0.021l-0.03,-0.021l-0.03,-0.021l-0.03,-0.021l-0.031,-0.021l-0.03,-0.02l-0.031,-0.021l-0.031,-0.02l-0.031,-0.02l-0.031,-0.02l-0.031,-0.02l-0.032,-0.02l-0.032,-0.02l-0.032,-0.019l-0.032,-0.02l-0.033,-0.019l-0.032,-0.019l-0.033,-0.019l-0.033,-0.019l-0.033,-0.019l-0.033,-0.019l-0.033,-0.018l-0.034,-0.018l-0.034,-0.018l-0.034,-0.019l-0.033,-0.017l-0.035,-0.018l-0.035,-0.018l-0.034,-0.017l-0.035,-0.017l-0.035,-0.018l-0.035,-0.017l-0.035,-0.017l-0.036,-0.016l-0.035,-0.017l-0.036,-0.016l-0.036,-0.016l-0.036,-0.016l-0.036,-0.016l-0.037,-0.016l-0.036,-0.016l-0.037,-0.015l-0.037,-0.015l-0.037,-0.015l-0.037,-0.015l-0.038,-0.015l-0.037,-0.015l-0.038,-0.014l-0.037,-0.015l-0.038,-0.014l-0.038,-0.013l-0.039,-0.014l-0.038,-0.014l-0.038,-0.013l-0.039,-0.014l-0.039,-0.013l-0.038,-0.012l-0.039,-0.013l-0.04,-0.013l-0.04,-0.012l-0.039,-0.012l-0.039,-0.012l-0.04,-0.012l-0.04,-0.012l-0.04,-0.011l-0.04,-0.011l-0.04,-0.011l-0.041,-0.011l-0.04,-0.011l-0.041,-0.01l-0.04,-0.01l-0.042,-0.011l-0.041,-0.01l-0.041,-0.009l-0.041,-0.01l-0.041,-0.009l-0.042,-0.009l-0.042,-0.009l-0.041,-0.009l-0.042,-0.008l-0.042,-0.009l-0.043,-0.008l-0.042,-0.008l-0.042,-0.008l-0.042,-0.007l-0.043,-0.007l-0.043,-0.008l-0.042,-0.006l-0.043,-0.007l-0.043,-0.007l-0.043,-0.006l-0.043,-0.006l-0.044,-0.006l-0.044,-0.006l-0.043,-0.005l-0.043,-0.005l-0.044,-0.005l-0.044,-0.005l-0.044,-0.005l-0.044,-0.004l-0.044,-0.004l-0.045,-0.004l-0.043,-0.004l-0.045,-0.003l-0.045,-0.004l-0.044,-0.003l-0.045,-0.003l-0.045,-0.002l-0.044,-0.003l-0.046,-0.002l-0.045,-0.002l-0.045,-0.001l-0.045,-0.002l-0.045,-0.001l-0.046,-0.001l-0.045,-0.001l-0.046,-0.001l-0.045,0l-0.046,0l-0.046,0Z" style="fill:#fff;"/><path d="M163.768,264.623l2.328,1.641l-2.244,1.206l-0.084,-2.847Z" style="fill:#f21027;"/><path d="M146.583,244.431c0.405,-4.626 8.573,-4.728 11.199,-4.789c6.685,-0.117 9.884,1.516 11.323,4.476" style="fill:none;stroke:#f21027;stroke-width:2px;"/></g><path d="M45.107,43.086l0.093,0.012l0.092,0.022l0.089,0.03l0.086,0.039l0.081,0.048l0.077,0.055l0.07,0.062l0.065,0.069l0.057,0.075l0.049,0.08l0.042,0.084l0.033,0.089l0.024,0.091l0.015,0.093l0.006,0.094l-0.003,0.094l-0.013,0.093l-0.021,0.092l-0.031,0.089l-0.039,0.086l-0.047,0.081l-0.055,0.077l-0.062,0.07l-0.069,0.065l-0.075,0.057l-0.08,0.049l-0.085,0.042l-0.088,0.033l-0.091,0.024l-0.093,0.015l-0.094,0.006l-23.309,0.328l-0.094,-0.003l-0.093,-0.013l-0.092,-0.021l-0.089,-0.031l-0.086,-0.039l-0.081,-0.047l-0.077,-0.055l-0.07,-0.062l-0.064,-0.069l-0.058,-0.075l-0.049,-0.08l-0.042,-0.085l-0.033,-0.088l-0.024,-0.091l-0.015,-0.093l-0.006,-0.094l0.003,-0.094l0.013,-0.094l0.021,-0.092l0.031,-0.089l0.039,-0.085l0.047,-0.082l0.055,-0.076l0.063,-0.071l0.069,-0.064l0.074,-0.057l0.081,-0.05l0.084,-0.041l0.088,-0.033l0.091,-0.025l0.093,-0.015l0.094,-0.006l23.309,-0.328l0.094,0.004Z" style="fill:#252467;"/><rect x="6.633" y="28.452" width="57.751" height="10.247" style="fill:#a725a7;"/><rect x="55.043" y="29.459" width="0.101" height="8.222" style="fill:#a725a7;stroke:#6d2b98;stroke-width:2px;"/><rect x="59.603" y="29.459" width="0.101" height="8.222" style="fill:#a725a7;stroke:#6d2b98;stroke-width:2px;"/><path d="M67.115,398.229l391.885,0.035" style="fill:#00a5ff;stroke:#07090c;stroke-width:3.5px;stroke-dasharray:315,7,7,7;"/></svg>