<?xml version="1.0" encoding="UTF-8" standalone="no"?><!DOCTYPE svg PUBLIC "-//W3C//DTD SVG 1.1//EN" "http://www.w3.org/Graphics/SVG/1.1/DTD/svg11.dtd"><svg width="100%" height="100%" viewBox="0 0 140 100" version="1.1" xmlns="http://www.w3.org/2000/svg" xmlns:xlink="http://www.w3.org/1999/xlink" xml:space="preserve" xmlns:serif="http://www.serif.com/" style="fill-rule:evenodd;clip-rule:evenodd;stroke-linejoin:round;stroke-miterlimit:1.41421;"><g><path d="M123.771,46.961c-0.286,-1.122 -1.006,-2.133 -2.092,-2.741c-14.212,-7.965 -36.797,-2.562 -54.839,4.253c-15.047,-17.522 -39.607,4.704 -39.607,4.704l1,3.931c9.717,-4.734 16.271,-3.718 19.994,-0.561c-6.21,3.032 -9.976,5.217 -9.645,5.028l3.365,13.234c-0.381,-0.008 3.971,0.113 10.875,-0.19c-1.764,4.552 -7.036,8.576 -17.834,9.057l0.997,3.924c0,0.001 32.195,7.804 37.046,-14.777c19.106,-2.63 41.529,-8.67 50.211,-22.454c0.663,-1.054 0.814,-2.286 0.529,-3.408Zm-23.192,5.896c0.722,2.838 -0.996,5.727 -3.833,6.448c-2.838,0.721 -5.72,-0.998 -6.441,-3.836c-0.721,-2.837 0.989,-5.724 3.827,-6.446c2.837,-0.721 5.726,0.997 6.447,3.834Zm-14.918,3.793c0.396,1.56 -0.545,3.144 -2.105,3.54c-1.56,0.397 -3.151,-0.543 -3.547,-2.103c-0.397,-1.56 0.552,-3.145 2.112,-3.542c1.56,-0.396 3.143,0.545 3.54,2.105Zm-10.296,2.618c0.396,1.56 -0.545,3.143 -2.105,3.54c-1.56,0.396 -3.143,-0.545 -3.54,-2.105c-0.397,-1.56 0.545,-3.143 2.105,-3.54c1.56,-0.397 3.143,0.545 3.54,2.105Z" style="fill:#00afff;fill-rule:nonzero;stroke:#000;stroke-width:1.5px;"/><path d="M32.368,66.276l-19.729,5.547" style="fill:none;stroke:#000;stroke-width:1.5px;stroke-linecap:round;stroke-linejoin:bevel;stroke-miterlimit:1.5;"/><path d="M29.248,71.823l-19.729,5.547" style="fill:none;stroke:#000;stroke-width:1.5px;stroke-linecap:round;stroke-linejoin:bevel;stroke-miterlimit:1.5;"/><ellipse cx="95.593" cy="54.338" rx="4.769" ry="4.338" style="fill:#fe0;"/><path d="M95.739,49.002l0.145,0.005l0.144,0.008l0.144,0.012l0.142,0.014l0.142,0.018l0.141,0.022l0.139,0.024l0.139,0.027l0.137,0.031l0.136,0.033l0.134,0.037l0.134,0.039l0.132,0.043l0.13,0.045l0.129,0.048l0.128,0.051l0.126,0.053l0.124,0.056l0.123,0.059l0.121,0.062l0.119,0.064l0.118,0.067l0.116,0.069l0.114,0.072l0.112,0.074l0.11,0.077l0.108,0.079l0.106,0.082l0.103,0.084l0.102,0.086l0.1,0.088l0.097,0.091l0.095,0.093l0.093,0.095l0.09,0.097l0.088,0.099l0.086,0.102l0.083,0.103l0.08,0.106l0.078,0.107l0.075,0.109l0.072,0.112l0.07,0.113l0.066,0.115l0.064,0.116l0.061,0.119l0.058,0.12l0.055,0.122l0.051,0.123l0.049,0.125l0.045,0.127l0.042,0.127l0.038,0.13l0.035,0.13l0.032,0.132l0.027,0.13l0.014,0.07l0.011,0.068l0.011,0.067l0.01,0.068l0.009,0.068l0.008,0.068l0.008,0.069l0.006,0.069l0.005,0.069l0.004,0.069l0.004,0.069l0.002,0.07l0.002,0.07l0,0.07l0,0.07l-0.002,0.069l-0.002,0.07l-0.004,0.069l-0.004,0.07l-0.005,0.069l-0.006,0.068l-0.008,0.069l-0.008,0.068l-0.009,0.068l-0.01,0.068l-0.011,0.068l-0.011,0.067l-0.014,0.07l-0.027,0.13l-0.032,0.132l-0.035,0.131l-0.038,0.129l-0.042,0.128l-0.045,0.126l-0.049,0.125l-0.051,0.123l-0.055,0.122l-0.058,0.12l-0.061,0.119l-0.064,0.117l-0.066,0.114l-0.07,0.114l-0.072,0.111l-0.075,0.109l-0.078,0.108l-0.08,0.105l-0.083,0.103l-0.086,0.102l-0.088,0.099l-0.09,0.097l-0.093,0.095l-0.095,0.093l-0.097,0.091l-0.1,0.088l-0.102,0.087l-0.103,0.083l-0.106,0.082l-0.108,0.079l-0.11,0.077l-0.112,0.074l-0.114,0.072l-0.116,0.069l-0.118,0.067l-0.119,0.064l-0.121,0.062l-0.123,0.059l-0.124,0.056l-0.126,0.054l-0.128,0.05l-0.129,0.048l-0.13,0.046l-0.132,0.042l-0.134,0.039l-0.134,0.037l-0.136,0.033l-0.137,0.031l-0.139,0.027l-0.139,0.025l-0.141,0.021l-0.142,0.018l-0.142,0.015l-0.144,0.011l-0.144,0.009l-0.145,0.005l-0.146,0.001l-0.147,-0.001l-0.145,-0.005l-0.144,-0.009l-0.144,-0.011l-0.142,-0.015l-0.142,-0.018l-0.141,-0.021l-0.139,-0.025l-0.139,-0.027l-0.137,-0.031l-0.136,-0.033l-0.134,-0.037l-0.134,-0.039l-0.132,-0.042l-0.13,-0.046l-0.129,-0.048l-0.128,-0.05l-0.126,-0.054l-0.124,-0.056l-0.123,-0.059l-0.121,-0.062l-0.119,-0.064l-0.118,-0.067l-0.116,-0.069l-0.114,-0.072l-0.112,-0.074l-0.11,-0.077l-0.108,-0.079l-0.106,-0.082l-0.103,-0.083l-0.102,-0.087l-0.1,-0.088l-0.097,-0.091l-0.095,-0.093l-0.093,-0.095l-0.09,-0.097l-0.088,-0.099l-0.086,-0.102l-0.083,-0.103l-0.08,-0.105l-0.078,-0.108l-0.075,-0.109l-0.072,-0.111l-0.07,-0.114l-0.066,-0.114l-0.064,-0.117l-0.061,-0.119l-0.058,-0.12l-0.055,-0.122l-0.051,-0.123l-0.049,-0.125l-0.045,-0.126l-0.042,-0.128l-0.038,-0.129l-0.035,-0.131l-0.032,-0.132l-0.027,-0.13l-0.014,-0.07l-0.011,-0.067l-0.011,-0.068l-0.01,-0.068l-0.009,-0.068l-0.008,-0.068l-0.008,-0.069l-0.006,-0.068l-0.005,-0.069l-0.004,-0.07l-0.004,-0.069l-0.002,-0.07l-0.002,-0.069l0,-0.07l0,-0.07l0.002,-0.07l0.002,-0.07l0.004,-0.069l0.004,-0.069l0.005,-0.069l0.006,-0.069l0.008,-0.069l0.008,-0.068l0.009,-0.068l0.01,-0.068l0.011,-0.067l0.011,-0.068l0.014,-0.07l0.027,-0.13l0.032,-0.132l0.035,-0.13l0.038,-0.13l0.042,-0.127l0.045,-0.127l0.049,-0.125l0.051,-0.123l0.055,-0.122l0.058,-0.12l0.061,-0.119l0.064,-0.116l0.066,-0.115l0.07,-0.113l0.072,-0.112l0.075,-0.109l0.078,-0.107l0.08,-0.106l0.083,-0.103l0.086,-0.102l0.088,-0.099l0.09,-0.097l0.093,-0.095l0.095,-0.093l0.097,-0.091l0.1,-0.088l0.102,-0.086l0.103,-0.084l0.106,-0.082l0.108,-0.079l0.11,-0.077l0.112,-0.074l0.114,-0.072l0.116,-0.069l0.118,-0.067l0.119,-0.064l0.121,-0.062l0.123,-0.059l0.124,-0.056l0.126,-0.053l0.128,-0.051l0.129,-0.048l0.13,-0.045l0.132,-0.043l0.134,-0.039l0.134,-0.037l0.136,-0.033l0.137,-0.031l0.139,-0.027l0.139,-0.024l0.141,-0.022l0.142,-0.018l0.142,-0.014l0.144,-0.012l0.144,-0.008l0.145,-0.005l0.147,-0.002l0.146,0.002Zm-0.269,0.999l-0.123,0.005l-0.121,0.007l-0.121,0.009l-0.12,0.013l-0.118,0.015l-0.118,0.018l-0.117,0.02l-0.116,0.023l-0.115,0.026l-0.113,0.028l-0.113,0.03l-0.111,0.033l-0.11,0.035l-0.109,0.038l-0.108,0.04l-0.106,0.042l-0.105,0.045l-0.104,0.047l-0.102,0.049l-0.1,0.051l-0.099,0.053l-0.098,0.056l-0.096,0.057l-0.094,0.06l-0.093,0.061l-0.091,0.064l-0.089,0.065l-0.088,0.067l-0.085,0.069l-0.084,0.071l-0.082,0.073l-0.08,0.075l-0.078,0.076l-0.076,0.078l-0.074,0.079l-0.072,0.081l-0.069,0.083l-0.068,0.084l-0.065,0.086l-0.063,0.087l-0.061,0.089l-0.059,0.09l-0.056,0.092l-0.054,0.093l-0.052,0.094l-0.049,0.095l-0.046,0.097l-0.044,0.098l-0.042,0.099l-0.038,0.1l-0.037,0.101l-0.033,0.103l-0.031,0.103l-0.028,0.105l-0.025,0.105l-0.023,0.106l-0.01,0.054l-0.009,0.053l-0.009,0.054l-0.008,0.054l-0.007,0.055l-0.007,0.054l-0.005,0.055l-0.005,0.055l-0.005,0.055l-0.003,0.056l-0.003,0.055l-0.002,0.056l-0.001,0.056l0,0.056l0,0.056l0.001,0.055l0.002,0.056l0.003,0.056l0.003,0.055l0.005,0.055l0.005,0.055l0.005,0.055l0.007,0.054l0.007,0.055l0.008,0.054l0.009,0.054l0.009,0.054l0.01,0.053l0.023,0.106l0.025,0.106l0.028,0.104l0.031,0.104l0.033,0.102l0.037,0.101l0.038,0.1l0.042,0.099l0.044,0.098l0.046,0.097l0.049,0.095l0.052,0.095l0.054,0.092l0.056,0.092l0.059,0.09l0.061,0.089l0.063,0.087l0.065,0.086l0.068,0.084l0.069,0.083l0.072,0.081l0.074,0.08l0.076,0.077l0.078,0.077l0.08,0.074l0.082,0.073l0.084,0.071l0.085,0.069l0.088,0.067l0.089,0.066l0.091,0.063l0.093,0.062l0.094,0.059l0.096,0.057l0.098,0.056l0.099,0.053l0.1,0.051l0.102,0.049l0.104,0.047l0.105,0.045l0.106,0.042l0.108,0.04l0.109,0.038l0.11,0.035l0.111,0.033l0.113,0.031l0.113,0.028l0.115,0.025l0.116,0.023l0.117,0.02l0.118,0.018l0.118,0.015l0.12,0.013l0.121,0.01l0.121,0.007l0.123,0.004l0.123,0.001l0.123,-0.001l0.122,-0.004l0.121,-0.007l0.121,-0.01l0.12,-0.013l0.118,-0.015l0.118,-0.018l0.117,-0.02l0.116,-0.023l0.115,-0.025l0.113,-0.028l0.113,-0.031l0.111,-0.033l0.11,-0.035l0.109,-0.038l0.108,-0.04l0.106,-0.042l0.105,-0.045l0.104,-0.047l0.102,-0.049l0.1,-0.051l0.099,-0.053l0.098,-0.056l0.096,-0.057l0.094,-0.059l0.093,-0.062l0.091,-0.063l0.089,-0.066l0.088,-0.067l0.085,-0.069l0.084,-0.071l0.082,-0.073l0.08,-0.074l0.078,-0.077l0.076,-0.077l0.074,-0.08l0.072,-0.081l0.069,-0.083l0.068,-0.084l0.065,-0.086l0.063,-0.087l0.061,-0.089l0.059,-0.09l0.056,-0.092l0.054,-0.092l0.052,-0.095l0.049,-0.095l0.046,-0.097l0.044,-0.098l0.042,-0.099l0.038,-0.1l0.037,-0.101l0.033,-0.102l0.031,-0.104l0.028,-0.104l0.025,-0.106l0.023,-0.106l0.01,-0.053l0.009,-0.054l0.009,-0.054l0.008,-0.054l0.007,-0.055l0.007,-0.054l0.005,-0.055l0.005,-0.055l0.005,-0.055l0.003,-0.055l0.003,-0.056l0.002,-0.056l0.001,-0.055l0,-0.056l0,-0.056l-0.001,-0.056l-0.002,-0.056l-0.003,-0.055l-0.003,-0.056l-0.005,-0.055l-0.005,-0.055l-0.005,-0.055l-0.007,-0.054l-0.007,-0.055l-0.008,-0.054l-0.009,-0.054l-0.009,-0.053l-0.01,-0.054l-0.023,-0.106l-0.025,-0.105l-0.028,-0.105l-0.031,-0.103l-0.033,-0.103l-0.037,-0.101l-0.038,-0.1l-0.042,-0.099l-0.044,-0.098l-0.046,-0.097l-0.049,-0.095l-0.052,-0.094l-0.054,-0.093l-0.056,-0.092l-0.059,-0.09l-0.061,-0.089l-0.063,-0.087l-0.065,-0.086l-0.068,-0.084l-0.069,-0.083l-0.072,-0.081l-0.074,-0.079l-0.076,-0.078l-0.078,-0.076l-0.08,-0.075l-0.082,-0.073l-0.084,-0.071l-0.085,-0.069l-0.088,-0.067l-0.089,-0.065l-0.091,-0.064l-0.093,-0.061l-0.094,-0.06l-0.096,-0.057l-0.098,-0.056l-0.099,-0.053l-0.1,-0.051l-0.102,-0.049l-0.104,-0.047l-0.105,-0.045l-0.106,-0.042l-0.108,-0.04l-0.109,-0.038l-0.11,-0.035l-0.111,-0.033l-0.113,-0.03l-0.113,-0.028l-0.115,-0.026l-0.116,-0.023l-0.117,-0.02l-0.118,-0.018l-0.118,-0.015l-0.12,-0.013l-0.121,-0.009l-0.121,-0.007l-0.122,-0.005l-0.123,-0.001l-0.123,0.001Z"/><path d="M39.113,71.823l-19.729,5.547" style="fill:none;stroke:#000;stroke-width:1.5px;stroke-linecap:round;stroke-linejoin:bevel;stroke-miterlimit:1.5;"/><ellipse cx="82.864" cy="57.449" rx="2.018" ry="2.039" style="fill:#4ef409;"/><path d="M82.954,53.911l0.09,0.003l0.09,0.006l0.089,0.008l0.089,0.01l0.088,0.013l0.088,0.015l0.086,0.016l0.086,0.019l0.086,0.021l0.084,0.024l0.084,0.025l0.083,0.027l0.081,0.029l0.081,0.031l0.08,0.033l0.079,0.035l0.077,0.036l0.077,0.039l0.076,0.04l0.074,0.042l0.073,0.044l0.072,0.045l0.071,0.047l0.069,0.049l0.069,0.05l0.067,0.052l0.065,0.054l0.064,0.055l0.063,0.056l0.062,0.058l0.06,0.059l0.059,0.061l0.057,0.062l0.056,0.063l0.054,0.065l0.052,0.066l0.052,0.068l0.049,0.068l0.048,0.07l0.047,0.071l0.044,0.073l0.043,0.073l0.042,0.075l0.039,0.075l0.038,0.077l0.036,0.078l0.034,0.079l0.033,0.08l0.03,0.081l0.029,0.081l0.026,0.083l0.025,0.084l0.022,0.084l0.021,0.085l0.018,0.086l0.017,0.087l0.014,0.087l0.012,0.088l0.01,0.088l0.008,0.089l0.006,0.09l0.003,0.09l0.001,0.09l-0.001,0.09l-0.003,0.09l-0.006,0.09l-0.008,0.089l-0.01,0.088l-0.012,0.088l-0.014,0.087l-0.017,0.087l-0.018,0.086l-0.021,0.085l-0.022,0.084l-0.025,0.084l-0.026,0.082l-0.029,0.082l-0.03,0.081l-0.033,0.08l-0.034,0.079l-0.036,0.078l-0.038,0.077l-0.039,0.075l-0.042,0.075l-0.043,0.073l-0.044,0.073l-0.047,0.071l-0.048,0.07l-0.049,0.068l-0.052,0.068l-0.052,0.066l-0.054,0.065l-0.056,0.063l-0.057,0.062l-0.059,0.061l-0.06,0.059l-0.062,0.058l-0.063,0.056l-0.064,0.055l-0.065,0.054l-0.067,0.051l-0.069,0.051l-0.069,0.048l-0.071,0.047l-0.072,0.046l-0.073,0.044l-0.074,0.042l-0.076,0.04l-0.077,0.038l-0.077,0.037l-0.079,0.035l-0.08,0.033l-0.081,0.031l-0.081,0.029l-0.083,0.027l-0.084,0.025l-0.084,0.024l-0.085,0.021l-0.087,0.018l-0.086,0.017l-0.088,0.015l-0.088,0.012l-0.089,0.011l-0.089,0.008l-0.09,0.005l-0.09,0.004l-0.09,0.001l-0.091,-0.001l-0.09,-0.004l-0.089,-0.005l-0.09,-0.008l-0.088,-0.011l-0.088,-0.012l-0.088,-0.015l-0.087,-0.017l-0.086,-0.018l-0.085,-0.021l-0.084,-0.024l-0.084,-0.025l-0.083,-0.027l-0.082,-0.029l-0.08,-0.031l-0.08,-0.033l-0.079,-0.035l-0.078,-0.037l-0.076,-0.038l-0.076,-0.04l-0.074,-0.042l-0.073,-0.044l-0.072,-0.046l-0.071,-0.047l-0.07,-0.048l-0.068,-0.051l-0.067,-0.051l-0.065,-0.054l-0.065,-0.055l-0.063,-0.056l-0.061,-0.058l-0.06,-0.059l-0.059,-0.061l-0.057,-0.062l-0.056,-0.063l-0.054,-0.065l-0.053,-0.066l-0.051,-0.068l-0.049,-0.068l-0.048,-0.07l-0.047,-0.071l-0.045,-0.073l-0.043,-0.073l-0.041,-0.075l-0.039,-0.075l-0.038,-0.077l-0.036,-0.078l-0.034,-0.079l-0.033,-0.08l-0.03,-0.081l-0.029,-0.082l-0.026,-0.082l-0.025,-0.084l-0.023,-0.084l-0.02,-0.085l-0.019,-0.086l-0.016,-0.087l-0.015,-0.087l-0.012,-0.088l-0.01,-0.089l-0.008,-0.089l-0.005,-0.089l-0.004,-0.09l-0.001,-0.09l0.001,-0.09l0.004,-0.09l0.005,-0.09l0.008,-0.089l0.01,-0.088l0.012,-0.088l0.015,-0.087l0.016,-0.087l0.019,-0.086l0.02,-0.085l0.023,-0.084l0.025,-0.084l0.026,-0.083l0.029,-0.081l0.03,-0.081l0.033,-0.08l0.034,-0.079l0.036,-0.078l0.038,-0.077l0.039,-0.075l0.041,-0.075l0.043,-0.073l0.045,-0.073l0.047,-0.071l0.047,-0.07l0.05,-0.068l0.051,-0.068l0.053,-0.066l0.054,-0.065l0.056,-0.063l0.057,-0.062l0.059,-0.061l0.06,-0.059l0.061,-0.058l0.063,-0.056l0.065,-0.055l0.065,-0.054l0.067,-0.052l0.068,-0.05l0.07,-0.049l0.071,-0.047l0.072,-0.045l0.073,-0.044l0.074,-0.042l0.076,-0.04l0.076,-0.039l0.078,-0.036l0.079,-0.035l0.08,-0.033l0.08,-0.031l0.082,-0.029l0.083,-0.027l0.084,-0.025l0.084,-0.024l0.085,-0.021l0.086,-0.019l0.087,-0.016l0.088,-0.015l0.088,-0.013l0.088,-0.01l0.09,-0.008l0.089,-0.006l0.09,-0.003l0.091,-0.001l0.09,0.001Zm-0.142,1.5l-0.052,0.002l-0.051,0.003l-0.051,0.004l-0.051,0.006l-0.05,0.007l-0.05,0.009l-0.05,0.009l-0.049,0.011l-0.048,0.012l-0.048,0.013l-0.048,0.015l-0.047,0.015l-0.047,0.017l-0.046,0.017l-0.045,0.019l-0.045,0.02l-0.045,0.021l-0.044,0.022l-0.043,0.023l-0.043,0.024l-0.041,0.025l-0.042,0.026l-0.04,0.027l-0.04,0.028l-0.039,0.029l-0.039,0.03l-0.038,0.031l-0.037,0.031l-0.036,0.033l-0.035,0.033l-0.035,0.034l-0.034,0.035l-0.033,0.036l-0.032,0.037l-0.031,0.037l-0.031,0.038l-0.029,0.039l-0.029,0.04l-0.028,0.04l-0.026,0.041l-0.026,0.042l-0.025,0.042l-0.024,0.043l-0.023,0.044l-0.021,0.044l-0.021,0.045l-0.02,0.046l-0.019,0.046l-0.017,0.046l-0.016,0.047l-0.016,0.048l-0.014,0.048l-0.013,0.049l-0.012,0.049l-0.011,0.049l-0.009,0.05l-0.008,0.051l-0.007,0.05l-0.006,0.052l-0.005,0.051l-0.003,0.052l-0.002,0.052l-0.001,0.053l0.001,0.053l0.002,0.052l0.003,0.052l0.005,0.051l0.006,0.051l0.007,0.051l0.008,0.051l0.009,0.05l0.011,0.049l0.012,0.049l0.013,0.049l0.014,0.048l0.016,0.048l0.016,0.047l0.017,0.046l0.019,0.046l0.02,0.046l0.021,0.045l0.021,0.044l0.023,0.044l0.024,0.043l0.025,0.042l0.026,0.042l0.026,0.041l0.028,0.04l0.029,0.04l0.029,0.038l0.031,0.039l0.031,0.037l0.032,0.037l0.033,0.035l0.034,0.035l0.035,0.035l0.035,0.033l0.036,0.032l0.037,0.032l0.038,0.031l0.039,0.03l0.039,0.029l0.04,0.028l0.04,0.027l0.042,0.026l0.041,0.025l0.043,0.024l0.043,0.023l0.044,0.022l0.045,0.021l0.045,0.02l0.045,0.018l0.046,0.018l0.047,0.017l0.047,0.015l0.048,0.015l0.048,0.013l0.048,0.012l0.049,0.01l0.05,0.01l0.05,0.008l0.05,0.008l0.051,0.005l0.051,0.005l0.051,0.003l0.052,0.002l0.052,0.001l0.052,-0.001l0.052,-0.002l0.051,-0.003l0.051,-0.005l0.051,-0.005l0.05,-0.008l0.05,-0.008l0.049,-0.01l0.049,-0.01l0.049,-0.012l0.048,-0.013l0.048,-0.015l0.047,-0.015l0.047,-0.017l0.046,-0.018l0.045,-0.018l0.045,-0.02l0.045,-0.021l0.043,-0.022l0.044,-0.023l0.042,-0.024l0.042,-0.025l0.041,-0.026l0.041,-0.027l0.04,-0.028l0.039,-0.029l0.039,-0.03l0.038,-0.031l0.037,-0.032l0.036,-0.032l0.035,-0.033l0.035,-0.035l0.034,-0.035l0.033,-0.035l0.032,-0.037l0.031,-0.037l0.031,-0.039l0.029,-0.038l0.029,-0.04l0.027,-0.04l0.027,-0.041l0.026,-0.042l0.025,-0.042l0.024,-0.043l0.022,-0.044l0.022,-0.044l0.021,-0.045l0.02,-0.046l0.018,-0.046l0.018,-0.046l0.016,-0.047l0.016,-0.048l0.014,-0.048l0.013,-0.049l0.012,-0.049l0.01,-0.049l0.01,-0.05l0.008,-0.051l0.007,-0.051l0.006,-0.051l0.004,-0.051l0.004,-0.052l0.002,-0.052l0,-0.053l0,-0.053l-0.002,-0.052l-0.004,-0.052l-0.004,-0.051l-0.006,-0.052l-0.007,-0.05l-0.008,-0.051l-0.01,-0.05l-0.01,-0.049l-0.012,-0.049l-0.013,-0.049l-0.014,-0.048l-0.016,-0.048l-0.016,-0.047l-0.018,-0.046l-0.018,-0.046l-0.02,-0.046l-0.021,-0.045l-0.022,-0.044l-0.022,-0.044l-0.024,-0.043l-0.025,-0.042l-0.026,-0.042l-0.027,-0.041l-0.027,-0.04l-0.029,-0.04l-0.029,-0.039l-0.031,-0.038l-0.031,-0.037l-0.032,-0.037l-0.033,-0.036l-0.034,-0.035l-0.035,-0.034l-0.035,-0.033l-0.036,-0.033l-0.037,-0.031l-0.038,-0.031l-0.039,-0.03l-0.039,-0.029l-0.04,-0.028l-0.041,-0.027l-0.041,-0.026l-0.042,-0.025l-0.042,-0.024l-0.044,-0.023l-0.043,-0.022l-0.045,-0.021l-0.045,-0.02l-0.045,-0.019l-0.046,-0.017l-0.047,-0.017l-0.047,-0.015l-0.048,-0.015l-0.048,-0.013l-0.049,-0.012l-0.049,-0.011l-0.049,-0.009l-0.05,-0.009l-0.05,-0.007l-0.051,-0.006l-0.051,-0.004l-0.051,-0.003l-0.052,-0.002l-0.052,-0.001l-0.052,0.001Z"/></g></svg>