<?xml version="1.0" encoding="UTF-8" standalone="no"?><!DOCTYPE svg PUBLIC "-//W3C//DTD SVG 1.1//EN" "http://www.w3.org/Graphics/SVG/1.1/DTD/svg11.dtd"><svg width="100%" height="100%" viewBox="0 0 2481 2500" version="1.1" xmlns="http://www.w3.org/2000/svg" xmlns:xlink="http://www.w3.org/1999/xlink" xml:space="preserve" xmlns:serif="http://www.serif.com/" style="fill-rule:evenodd;clip-rule:evenodd;stroke-linecap:round;stroke-linejoin:round;stroke-miterlimit:1.5;"><g id="Capa2"><g><g><rect x="1828.84" y="1125.16" width="442.992" height="68.221" style="fill:#659fbe;"/><g><rect x="2099.41" y="1134.75" width="137.689" height="49.06" style="fill:#659fbe;"/><rect x="2190.88" y="1145.92" width="0.422" height="28.979" style="fill:#659fbe;stroke:#564f45;stroke-width:8.33px;"/><rect x="2203.88" y="1145.92" width="0.422" height="28.979" style="fill:#659fbe;stroke:#564f45;stroke-width:8.33px;"/></g><ellipse cx="1877.09" cy="1159.28" rx="23.857" ry="22.535" style="fill:#659fbe;stroke:#fef8e4;stroke-width:8.33px;"/></g><rect x="1804.33" y="1329.83" width="442.992" height="68.221" style="fill:#6fa88c;"/><g><rect x="2074.9" y="1339.41" width="137.689" height="49.06" style="fill:#fef8e4;"/><rect x="2166.36" y="1350.58" width="0.422" height="28.979" style="fill:#564f45;stroke:#564f45;stroke-width:8.33px;"/><rect x="2179.36" y="1350.58" width="0.422" height="28.979" style="fill:#564f45;stroke:#564f45;stroke-width:8.33px;"/></g><ellipse cx="1852.58" cy="1363.94" rx="23.857" ry="22.535" style="fill:#564f45;stroke:#fef8e4;stroke-width:8.33px;"/><g><rect x="1828.84" y="1261.61" width="442.992" height="68.221" style="fill:#ea716c;"/><g><rect x="2099.41" y="1271.19" width="137.689" height="49.06" style="fill:#ea716c;"/><rect x="2190.88" y="1282.36" width="0.422" height="28.979" style="fill:#ea716c;stroke:#564f45;stroke-width:8.33px;"/><rect x="2203.88" y="1282.36" width="0.422" height="28.979" style="fill:#ea716c;stroke:#564f45;stroke-width:8.33px;"/></g><ellipse cx="1877.09" cy="1295.72" rx="23.857" ry="22.535" style="fill:#ea716c;stroke:#fef8e4;stroke-width:8.33px;"/></g><g><rect x="1817.32" y="1193.39" width="442.992" height="68.221" style="fill:#f5ce90;"/><g><rect x="2087.89" y="1202.97" width="137.689" height="49.06" style="fill:#f5ce90;"/><rect x="2179.36" y="1214.14" width="0.422" height="28.979" style="fill:#f5ce90;stroke:#564f45;stroke-width:8.33px;"/><rect x="2192.36" y="1214.14" width="0.422" height="28.979" style="fill:#f5ce90;stroke:#564f45;stroke-width:8.33px;"/></g><ellipse cx="1865.58" cy="1227.5" rx="23.857" ry="22.535" style="fill:#f5ce90;stroke:#fef8e4;stroke-width:8.33px;"/></g><ellipse cx="1876.44" cy="1295.72" rx="23.857" ry="22.535" style="fill:#564f45;stroke:#fef8e4;stroke-width:8.33px;"/><ellipse cx="1868.61" cy="1227.5" rx="23.857" ry="22.535" style="fill:#564f45;stroke:#fef8e4;stroke-width:8.33px;"/><ellipse cx="1876.44" cy="1159.24" rx="23.857" ry="22.535" style="fill:#564f45;stroke:#fef8e4;stroke-width:8.33px;"/><g><rect x="2096.12" y="1273.18" width="137.689" height="49.06" style="fill:#fef8e4;"/><rect x="2187.59" y="1284.36" width="0.422" height="28.979" style="fill:#564f45;stroke:#564f45;stroke-width:8.33px;"/><rect x="2200.59" y="1284.36" width="0.422" height="28.979" style="fill:#564f45;stroke:#564f45;stroke-width:8.33px;"/></g><g><rect x="2087.99" y="1200.97" width="137.689" height="49.06" style="fill:#fef8e4;"/><rect x="2179.46" y="1212.14" width="0.422" height="28.979" style="fill:#564f45;stroke:#564f45;stroke-width:8.33px;"/><rect x="2192.46" y="1212.14" width="0.422" height="28.979" style="fill:#564f45;stroke:#564f45;stroke-width:8.33px;"/></g><g><rect x="2102.5" y="1134.71" width="137.689" height="49.06" style="fill:#fef8e4;"/><rect x="2193.97" y="1145.89" width="0.422" height="28.979" style="fill:#564f45;stroke:#564f45;stroke-width:8.33px;"/><rect x="2206.97" y="1145.89" width="0.422" height="28.979" style="fill:#564f45;stroke:#564f45;stroke-width:8.33px;"/></g></g><path d="M1476.58,1482.05c47.255,0.18 85.766,-38.038 85.946,-85.293l1.011,-264.635c0.18,-47.255 -38.038,-85.766 -85.293,-85.947l-171.24,-0.653c-47.255,-0.181 -85.767,38.038 -85.947,85.293l-1.01,264.634c-0.181,47.255 38.038,85.767 85.293,85.947l171.24,0.654Z" style="fill:#184fa5;"/><path d="M1216.61,1207.81c-31.032,58.088 -45.287,127.603 -44.534,191.239l137.661,0l0,-41.555c-19.033,3.163 -38.052,5.033 -57.02,0.36l-36.107,-150.044Z" style="fill:#efa021;"/><path d="M1643.65,1205.98c34.616,59.835 53.357,131.522 44.562,191.24l-137.689,0l0,-41.556c19.033,3.164 38.052,5.034 57.02,0.361l36.107,-150.045Z" style="fill:#efa021;"/><g><path d="M1414.75,1869.48l143.726,82.581c24.741,14.216 44.482,36.966 47.977,72.673" style="fill:none;stroke:#3d3f4e;stroke-width:8.33px;"/><path d="M1380,1869.48l-143.726,82.581c-24.741,14.216 -44.483,36.966 -47.977,72.673" style="fill:none;stroke:#3d3f4e;stroke-width:8.33px;"/><path d="M1414.75,1879.38l83.894,77.948l11.065,67.397" style="fill:none;stroke:#3d3f4e;stroke-width:8.33px;"/><path d="M1369.98,1882.37l-83.895,77.948l-11.065,67.397" style="fill:none;stroke:#3d3f4e;stroke-width:8.33px;"/><rect x="1380.61" y="1716.88" width="22.196" height="123.956" style="fill:#3d3f4e;"/><rect x="1370.52" y="1837.93" width="44.23" height="82.904" style="fill:#3d3f4e;"/><ellipse cx="1391.71" cy="1698.67" rx="32.28" ry="21.348" style="fill:#3d3f4e;"/><path d="M1547.08,1930.38l0,32.301l59.373,14.589l0,-47.106l-59.373,0.216Z" style="fill:#ffda89;"/></g><path d="M1547.08,1962.31c-6.84,21.681 -7.944,43.508 -6.096,65.411l65.469,0l0,-9.261c8.426,5.619 11.168,8.695 20.087,9.261c31.514,-0.651 89.548,-0.291 119.785,-0.913c3.346,-0.069 -6.071,-23.158 -27.248,-30.179c-21.636,-7.173 -54.445,-12.335 -54.445,-12.335l-58.179,-39.477c-4.402,10.951 -4.525,21.774 0,32.457c-19.49,-9.726 -39.128,-17.123 -59.373,-14.964Z" style="fill:#3d3f4e;"/><path d="M1760.89,1803.68c3.538,26.332 14.347,42.921 34.25,47.326l13.66,-4.966l56.638,-1.029c74.296,-27.55 83.828,-71.52 24.444,-74.554c-14.482,-0.74 -32.696,-0.979 -58.093,-1.739l-36.649,-14.374c-10.231,17.708 -7.957,31.526 0,43.576l-34.25,5.76Z" style="fill:#3d3f4e;"/><path d="M1719.08,1762.31l40.271,41.206c12.825,0.641 25.111,-0.35 35.792,-6.215c-4.089,-11.438 -7.956,-22.938 0,-37.797l-34.25,-38.752l-41.813,41.558Z" style="fill:#184fa5;fill-opacity:0.88;"/><rect x="384.83" y="414.892" width="215.629" height="50.381" style="fill:#110faf;"/><rect x="384.83" y="414.892" width="49.531" height="50.381" style="fill:#252467;"/><path d="M732.025,258.341l0.029,179.299" style="fill:none;stroke:#52c41b;stroke-width:8.33px;"/><path d="M820.662,444c0,-3.51 -2.85,-6.36 -6.361,-6.36l-161.852,0c-3.51,0 -6.36,2.85 -6.36,6.36l0,12.72c0,3.511 2.85,6.361 6.36,6.361l161.852,0c3.511,0 6.361,-2.85 6.361,-6.361l0,-12.72Z" style="fill:#f2e210;"/><path d="M732.001,379.267c7.328,12.528 27.17,25.488 39.177,25.903c13.533,0.468 24.9,-10.14 25.368,-23.673c0.467,-13.533 -10.14,-24.9 -23.673,-25.368c-12.008,-0.415 -21.03,28.733 -40.872,23.138Z" style="fill:#52c41b;"/><path d="M731.408,335.916c8.936,8.797 25.168,17.452 35.806,17.246c9.898,-0.193 17.778,-8.384 17.586,-18.282c-0.192,-9.898 -8.384,-17.778 -18.282,-17.586c-10.637,0.207 -17.312,21.865 -35.11,18.622Z" style="fill:#52c41b;"/><path d="M731.968,298.925c3.996,7.169 15.82,14.186 22.479,14.057c7.996,-0.155 14.361,-6.773 14.206,-14.768c-0.155,-7.996 -6.772,-14.361 -14.768,-14.206c-6.659,0.129 -10.761,17.599 -21.917,14.917Z" style="fill:#52c41b;"/><path d="M731.741,316.772c-10.946,3.436 -16.229,-13.714 -22.882,-13.389c-7.988,0.39 -14.156,7.192 -13.766,15.18c0.391,7.987 7.192,14.155 15.18,13.765c6.653,-0.325 17.97,-8.131 21.468,-15.556Z" style="fill:#52c41b;"/><path d="M731.455,280.434c-7.536,2.455 -11.201,-9.885 -15.784,-9.661c-5.744,0.28 -10.179,5.172 -9.899,10.916c0.281,5.744 5.172,10.179 10.916,9.899c4.583,-0.224 12.587,-5.831 14.767,-11.154Z" style="fill:#52c41b;"/><path d="M731.813,357.039c-15.675,3.979 -22.948,-14.948 -32.447,-14.484c-8.847,0.432 -15.679,7.966 -15.247,16.814c0.432,8.847 7.966,15.679 16.813,15.247c9.5,-0.464 23.456,-9.18 30.881,-17.577Z" style="fill:#52c41b;"/><path d="M732.613,401.185c-16.807,5.479 -24.982,-22.068 -35.202,-21.568c-12.823,0.626 -22.725,11.545 -22.098,24.367c0.626,12.823 11.545,22.725 24.367,22.098c10.221,-0.499 28.083,-13.016 32.933,-24.897Z" style="fill:#52c41b;"/><path d="M1264.61,1478.57c0,0 171.172,-4.328 295.367,-7.203c39.726,-0.919 68.324,3.065 94.978,36.814c50.12,63.463 96.699,180.626 114.794,205.357l-76.729,74.821l-76.461,-109.275l8.048,252.647l-102.597,2.206l-20.082,-287.561l-152.173,-6.262l-85.145,-135.927l0,-25.617Z" style="fill:#3d3f4e;"/><rect x="1220.08" y="1420.07" width="53.395" height="123.956" style="fill:#184fa5;"/><path d="M1275.08,1510.57l-50.76,15.174c-11.526,1.608 -17.344,8.166 -19.063,18.278c4.455,66.592 -11.58,98.217 13.2,132.362c29.612,40.802 138.562,19.835 292.819,19.835l0,-57.12l-156.43,-0.947l0,-100.221c-11.073,-25.316 -37.495,-34.611 -79.766,-27.361Z" style="fill:#184fa5;"/><rect x="1270.87" y="1299.22" width="317.18" height="82.529" style="fill:#efa021;"/><path d="M1567.65,1358.86c-53.711,-4.729 -64.071,2.033 -64.068,22.89l64.068,0l0,-22.89Z" style="fill:#efbc8f;"/><path d="M853.423,471.926c0,-3.898 -3.166,-7.064 -7.065,-7.064l-462.628,0c-3.899,0 -7.064,3.166 -7.064,7.064l0,14.129c0,3.898 3.165,7.064 7.064,7.064l462.628,0c3.899,0 7.065,-3.166 7.065,-7.064l0,-14.129Z" style="fill:#8e5b13;"/><rect x="918.102" y="1447.5" width="43.271" height="589.603" style="fill:#67410c;"/><rect x="2204.05" y="1440.59" width="43.271" height="587.121" style="fill:#67410c;"/><path d="M559.403,433.698l0.389,0.052l0.382,0.09l0.371,0.127l0.357,0.163l0.34,0.197l0.318,0.229l0.295,0.259l0.268,0.288l0.238,0.312l0.206,0.333l0.173,0.353l0.138,0.368l0.1,0.379l0.063,0.387l0.025,0.392l-0.013,0.392l-0.053,0.39l-0.09,0.382l-0.127,0.371l-0.162,0.357l-0.198,0.34l-0.229,0.318l-0.259,0.295l-0.288,0.267l-0.311,0.239l-0.334,0.206l-0.353,0.173l-0.367,0.137l-0.38,0.101l-0.387,0.063l-0.392,0.025l-97.118,1.367l-0.392,-0.014l-0.389,-0.052l-0.382,-0.09l-0.372,-0.127l-0.357,-0.163l-0.339,-0.197l-0.319,-0.229l-0.294,-0.26l-0.268,-0.287l-0.238,-0.312l-0.207,-0.334l-0.173,-0.352l-0.137,-0.368l-0.101,-0.379l-0.063,-0.388l-0.025,-0.391l0.014,-0.393l0.052,-0.389l0.09,-0.382l0.127,-0.371l0.163,-0.357l0.197,-0.34l0.23,-0.319l0.259,-0.294l0.287,-0.268l0.312,-0.238l0.334,-0.206l0.352,-0.173l0.368,-0.138l0.379,-0.1l0.388,-0.064l0.392,-0.024l97.117,-1.367l0.393,0.014Z" style="fill:#252467;"/><rect x="399.096" y="372.725" width="240.628" height="42.697" style="fill:#a725a7;"/><rect x="600.802" y="376.92" width="0.422" height="34.258" style="fill:#a725a7;stroke:#6d2b98;stroke-width:8.33px;"/><rect x="619.802" y="376.92" width="0.422" height="34.258" style="fill:#a725a7;stroke:#6d2b98;stroke-width:8.33px;"/><path d="M148.55,2037.1l2271.2,-2.466" style="fill:none;"/><path d="M2422.47,2027.12l2.407,1.387l1.788,2.126l0.954,2.61l0.003,2.778l-0.948,2.612l-1.783,2.13l-2.405,1.392l-2.736,0.486l-2271.2,2.466l-2.737,-0.48l-2.407,-1.387l-1.788,-2.126l-0.954,-2.61l-0.003,-2.778l0.948,-2.612l1.783,-2.13l2.405,-1.392l2.736,-0.485l2271.2,-2.466l2.737,0.479Z"/><path d="M847.34,1399.98l1464.97,-1.933l-0.957,49.452c-30.543,-3.182 -47.064,8.391 -49.727,34.546l-1343.53,0c-17.161,-27.41 -44.333,-43.223 -70.937,-41.453l0.175,-40.612Z" style="fill:#67410c;"/><path d="M1386.86,1029l111.351,-0.024c14.725,13.404 30.802,24.728 47.527,35.052l-222.002,0c28.6,-10.145 48.497,-22.053 63.124,-35.028Z" style="fill:#efa021;"/><path d="M1309.74,1358.86c53.711,-4.729 84.204,1.601 84.201,22.458l-84.201,0.432l0,-22.89Z" style="fill:#efbc8f;"/><path d="M1411.42,1017.31l-0.098,15.037l-18.866,5.537l21.208,26.137l50.254,0l16.257,-23.174l-16.867,-8.5l-0.108,-15.535l-51.78,0.498Z" style="fill:#d59a7e;"/><path d="M1687.99,1400.52l-449.006,0l23.648,-23.647l401.711,0l23.647,23.647Z" style="fill:#898f99;"/><g><path d="M1244.33,1453l6.441,18.365" style="fill:none;"/><g><path d="M1719.08,1135.3c0,-39.714 -32.243,-71.957 -71.957,-71.957l-376.706,0c-39.714,0 -71.957,32.243 -71.957,71.957l0,143.914c0,39.715 32.243,71.958 71.957,71.958l376.706,0c39.714,0 71.957,-32.243 71.957,-71.958l0,-143.914Z" style="fill:#b3ada6;"/><path d="M1719.08,1134.64c0,-39.836 -32.341,-72.178 -72.177,-72.178l-355.215,0c-39.836,0 -72.177,32.342 -72.177,72.178l0,144.355c0,39.836 32.341,72.178 72.177,72.178l355.215,0c39.836,0 72.177,-32.342 72.177,-72.178l0,-144.355Z" style="fill:#cbc9c5;"/></g><clipPath id="_clip1"><rect x="1400.27" y="1280.74" width="103.418" height="117.569"/></clipPath><g clip-path="url(#_clip1)"><path d="M1503.68,1306.6c0,-14.269 -11.585,-25.854 -25.855,-25.854l-51.709,0c-14.27,0 -25.855,11.585 -25.855,25.854l0,91.621c0,14.27 11.585,25.855 25.855,25.855l51.709,0c14.27,0 25.855,-11.585 25.855,-25.855l0,-91.621Z" style="fill:#b3ada6;"/></g><clipPath id="_clip2"><rect x="1416.86" y="1280.3" width="84.947" height="118.008"/></clipPath><g clip-path="url(#_clip2)"><path d="M1501.81,1301.54c0,-11.72 -9.516,-21.236 -21.237,-21.236l-42.474,0c-11.721,0 -21.237,9.516 -21.237,21.236l0,101.923c0,11.721 9.516,21.237 21.237,21.237l42.474,0c11.721,0 21.237,-9.516 21.237,-21.237l0,-101.923Z" style="fill:#cbc9c5;"/></g><g><path d="M1398.47,1129.67l0.715,0.06l0.712,0.092l0.707,0.124l0.701,0.155l0.694,0.187l0.684,0.218l0.674,0.248l0.662,0.278l0.648,0.308l0.635,0.336l0.618,0.365l0.602,0.392l0.583,0.418l0.565,0.444l0.543,0.469l0.522,0.493l0.499,0.516l0.476,0.538l0.451,0.559l0.426,0.578l0.399,0.597l0.372,0.614l0.344,0.63l0.316,0.645l0.286,0.659l0.256,0.671l0.226,0.681l0.195,0.691l0.164,0.699l0.133,0.706l0.101,0.711l0.068,0.714l0.037,0.717l2.356,82.582l0.004,0.718l-0.028,0.718l-0.06,0.715l-0.092,0.712l-0.124,0.708l-0.155,0.701l-0.187,0.693l-0.218,0.684l-0.248,0.674l-0.278,0.662l-0.308,0.649l-0.336,0.634l-0.365,0.619l-0.392,0.601l-0.418,0.584l-0.444,0.564l-0.47,0.543l-0.493,0.522l-0.516,0.5l-0.537,0.475l-0.559,0.451l-0.578,0.426l-0.597,0.399l-0.614,0.372l-0.63,0.344l-0.645,0.316l-0.659,0.286l-0.671,0.256l-0.681,0.226l-0.691,0.195l-0.699,0.165l-0.706,0.132l-0.711,0.101l-0.715,0.068l-0.717,0.037l-0.718,0.004l-0.717,-0.027l-0.716,-0.061l-0.712,-0.092l-0.707,-0.123l-0.701,-0.156l-0.693,-0.187l-0.684,-0.218l-0.674,-0.248l-0.662,-0.278l-0.649,-0.308l-0.634,-0.336l-0.619,-0.364l-0.602,-0.392l-0.583,-0.419l-0.564,-0.444l-0.544,-0.469l-0.522,-0.493l-0.499,-0.516l-0.476,-0.538l-0.451,-0.559l-0.425,-0.578l-0.399,-0.597l-0.372,-0.614l-0.345,-0.63l-0.315,-0.645l-0.286,-0.659l-0.257,-0.67l-0.226,-0.682l-0.195,-0.691l-0.164,-0.699l-0.132,-0.706l-0.101,-0.71l-0.069,-0.715l-0.036,-0.717l-2.356,-82.582l-0.005,-0.718l0.028,-0.718l0.06,-0.715l0.092,-0.712l0.124,-0.707l0.156,-0.701l0.187,-0.694l0.217,-0.684l0.249,-0.674l0.278,-0.662l0.307,-0.648l0.337,-0.635l0.364,-0.618l0.392,-0.602l0.419,-0.583l0.444,-0.564l0.469,-0.544l0.493,-0.522l0.516,-0.499l0.538,-0.476l0.559,-0.451l0.578,-0.426l0.597,-0.399l0.614,-0.372l0.63,-0.344l0.645,-0.315l0.658,-0.287l0.671,-0.256l0.682,-0.226l0.691,-0.195l0.699,-0.164l0.705,-0.133l0.711,-0.101l0.715,-0.068l0.717,-0.037l0.718,-0.004l0.718,0.028Z" style="fill:#b3b0ac;"/><path d="M1489.55,1129.67l0.715,0.06l0.712,0.092l0.708,0.124l0.701,0.155l0.693,0.187l0.684,0.218l0.674,0.248l0.662,0.278l0.649,0.308l0.634,0.336l0.618,0.365l0.602,0.392l0.584,0.418l0.564,0.444l0.543,0.469l0.522,0.493l0.5,0.516l0.475,0.538l0.451,0.559l0.426,0.578l0.399,0.597l0.372,0.614l0.344,0.63l0.316,0.645l0.286,0.659l0.256,0.671l0.226,0.681l0.195,0.691l0.164,0.699l0.133,0.706l0.101,0.711l0.068,0.714l0.037,0.717l2.356,82.582l0.004,0.718l-0.028,0.718l-0.06,0.715l-0.092,0.712l-0.124,0.708l-0.155,0.701l-0.187,0.693l-0.218,0.684l-0.248,0.674l-0.278,0.662l-0.308,0.649l-0.336,0.634l-0.365,0.619l-0.392,0.601l-0.418,0.584l-0.444,0.564l-0.469,0.543l-0.493,0.522l-0.516,0.5l-0.538,0.475l-0.559,0.451l-0.578,0.426l-0.597,0.399l-0.614,0.372l-0.63,0.344l-0.645,0.316l-0.659,0.286l-0.671,0.256l-0.681,0.226l-0.691,0.195l-0.699,0.165l-0.706,0.132l-0.711,0.101l-0.714,0.068l-0.718,0.037l-0.718,0.004l-0.717,-0.027l-0.715,-0.061l-0.713,-0.092l-0.707,-0.123l-0.701,-0.156l-0.693,-0.187l-0.684,-0.218l-0.674,-0.248l-0.662,-0.278l-0.649,-0.308l-0.634,-0.336l-0.619,-0.364l-0.601,-0.392l-0.584,-0.419l-0.564,-0.444l-0.543,-0.469l-0.522,-0.493l-0.5,-0.516l-0.476,-0.538l-0.451,-0.559l-0.425,-0.578l-0.399,-0.597l-0.372,-0.614l-0.344,-0.63l-0.316,-0.645l-0.286,-0.659l-0.256,-0.67l-0.227,-0.682l-0.195,-0.691l-0.164,-0.699l-0.132,-0.706l-0.101,-0.71l-0.069,-0.715l-0.036,-0.717l-2.356,-82.582l-0.004,-0.718l0.027,-0.718l0.06,-0.715l0.093,-0.712l0.123,-0.707l0.156,-0.701l0.187,-0.694l0.217,-0.684l0.249,-0.674l0.278,-0.662l0.307,-0.648l0.337,-0.635l0.364,-0.618l0.392,-0.602l0.419,-0.583l0.444,-0.564l0.469,-0.544l0.493,-0.522l0.516,-0.499l0.538,-0.476l0.559,-0.451l0.578,-0.426l0.597,-0.399l0.614,-0.372l0.63,-0.344l0.645,-0.315l0.659,-0.287l0.67,-0.256l0.682,-0.226l0.691,-0.195l0.699,-0.164l0.706,-0.133l0.71,-0.101l0.715,-0.068l0.717,-0.037l0.718,-0.004l0.718,0.028Z" style="fill:#b3b0ac;"/><path d="M1488.4,1164.73l0.717,0.038l0.715,0.071l0.711,0.103l0.705,0.135l0.698,0.166l0.691,0.197l0.681,0.228l0.67,0.258l0.657,0.288l0.644,0.318l0.629,0.346l0.614,0.374l0.595,0.401l0.577,0.427l0.558,0.453l0.536,0.477l0.514,0.501l0.492,0.523l0.467,0.545l0.443,0.565l0.417,0.585l0.39,0.603l0.363,0.62l0.334,0.635l0.306,0.65l0.276,0.662l0.246,0.675l0.216,0.685l0.185,0.693l0.153,0.702l0.122,0.708l0.09,0.712l0.058,0.716l0.026,0.717l-0.007,0.718l-0.038,0.717l-0.071,0.715l-0.103,0.71l-0.135,0.706l-0.166,0.698l-0.197,0.69l-0.228,0.681l-0.258,0.67l-0.288,0.658l-0.318,0.644l-0.346,0.629l-0.374,0.613l-0.4,0.596l-0.428,0.577l-0.452,0.557l-0.478,0.537l-0.501,0.514l-0.523,0.492l-0.545,0.467l-0.565,0.443l-0.585,0.417l-0.603,0.39l-0.619,0.362l-0.636,0.335l-0.649,0.306l-0.663,0.276l-0.675,0.246l-0.685,0.216l-0.693,0.185l-0.702,0.153l-0.707,0.122l-0.713,0.09l-0.715,0.058l-0.718,0.025l-82.428,1.107l-0.718,-0.007l-0.716,-0.038l-0.715,-0.071l-0.711,-0.103l-0.705,-0.134l-0.698,-0.167l-0.691,-0.197l-0.681,-0.228l-0.67,-0.258l-0.657,-0.288l-0.644,-0.318l-0.63,-0.346l-0.613,-0.373l-0.595,-0.401l-0.577,-0.428l-0.558,-0.452l-0.536,-0.478l-0.515,-0.5l-0.491,-0.524l-0.468,-0.545l-0.442,-0.565l-0.417,-0.585l-0.39,-0.603l-0.363,-0.619l-0.334,-0.636l-0.306,-0.649l-0.276,-0.663l-0.246,-0.675l-0.216,-0.684l-0.185,-0.694l-0.153,-0.702l-0.122,-0.707l-0.09,-0.713l-0.058,-0.715l-0.026,-0.718l0.007,-0.718l0.038,-0.717l0.071,-0.714l0.103,-0.711l0.134,-0.705l0.167,-0.699l0.197,-0.69l0.228,-0.681l0.258,-0.67l0.288,-0.658l0.318,-0.644l0.346,-0.629l0.373,-0.613l0.401,-0.596l0.428,-0.577l0.452,-0.557l0.478,-0.536l0.5,-0.515l0.524,-0.491l0.545,-0.468l0.565,-0.443l0.585,-0.416l0.603,-0.39l0.619,-0.363l0.636,-0.335l0.649,-0.305l0.663,-0.277l0.675,-0.246l0.684,-0.216l0.694,-0.184l0.702,-0.154l0.707,-0.122l0.713,-0.09l0.715,-0.057l0.718,-0.026l82.427,-1.107l0.718,0.007Z" style="fill:#b3b0ac;"/></g></g><g><ellipse cx="1404.71" cy="703.709" rx="10.519" ry="0.567" style="fill:#ca9a76;"/><ellipse cx="1545.32" cy="873.349" rx="19.628" ry="19.584" style="fill:#ca9a76;"/><ellipse cx="1545.89" cy="873" rx="35.254" ry="33.668" style="fill:#dac4b3;"/><ellipse cx="1336.75" cy="871.887" rx="35.254" ry="33.668" style="fill:#dac4b3;"/><ellipse cx="1336.17" cy="872.237" rx="19.628" ry="19.584" style="fill:#ca9a76;"/><ellipse cx="1546.73" cy="873.038" rx="19.628" ry="19.584" style="fill:#ca9a76;"/><ellipse cx="1440.78" cy="763.906" rx="134.667" ry="128.369"/><ellipse cx="1441.38" cy="860.383" rx="113.008" ry="194.264" style="fill:#cbab93;"/><ellipse cx="1404.71" cy="703.709" rx="10.519" ry="0.567" style="fill:#ca9a76;"/><ellipse cx="1490.64" cy="703.677" rx="65.559" ry="67.783"/><ellipse cx="1380.11" cy="689.844" rx="61.964" ry="54.6"/><ellipse cx="1556.56" cy="728.59" rx="18.4" ry="17.286"/><ellipse cx="1323.68" cy="706.565" rx="18.563" ry="19.585"/><ellipse cx="1385.95" cy="833.566" rx="11.964" ry="12.992"/><ellipse cx="1492.51" cy="833.566" rx="11.964" ry="12.992"/><path d="M1404.95,956.441c-0.396,22.573 14.791,40.448 33.893,39.893c19.102,-0.556 34.932,-19.333 35.328,-41.905c-8.195,7.006 -21.02,12.874 -34.826,13.275c-13.806,0.402 -26.438,-4.726 -34.395,-11.263Z"/><ellipse cx="1437.91" cy="988.83" rx="16.386" ry="7.27" style="fill:#da251a;"/><path d="M1420.52,822.885c0,-6.084 -4.939,-11.023 -11.022,-11.023l-47.193,0c-6.083,0 -11.022,4.939 -11.022,11.023l0,22.045c0,6.083 4.939,11.022 11.022,11.022l47.193,0c6.083,0 11.022,-4.939 11.022,-11.022l0,-22.045Z" style="fill:none;stroke:#0d29a7;stroke-width:8.33px;"/><path d="M1531.89,822.598c0,-6.083 -4.939,-11.022 -11.023,-11.022l-47.192,0c-6.083,0 -11.022,4.939 -11.022,11.022l0,22.046c0,6.083 4.939,11.022 11.022,11.022l47.192,0c6.084,0 11.023,-4.939 11.023,-11.022l0,-22.046Z" style="fill:none;stroke:#0d29a7;stroke-width:8.33px;"/><path d="M1554.62,820.836l0.246,0.013l0.245,0.02l0.245,0.028l0.244,0.036l0.242,0.043l0.242,0.051l0.239,0.058l0.238,0.065l0.235,0.073l0.233,0.079l0.231,0.087l0.227,0.094l0.225,0.101l0.222,0.108l0.218,0.115l0.214,0.121l0.211,0.128l0.206,0.134l0.203,0.141l0.198,0.147l0.193,0.152l0.189,0.159l0.183,0.164l0.179,0.17l0.173,0.176l0.167,0.18l0.162,0.186l0.156,0.191l0.151,0.195l0.144,0.2l0.138,0.204l0.131,0.208l0.125,0.212l0.119,0.216l0.111,0.22l0.105,0.223l0.098,0.226l0.092,0.229l0.083,0.232l0.077,0.234l0.07,0.236l0.062,0.239l0.055,0.24l0.047,0.242l0.04,0.243l0.033,0.244l0.025,0.245l0.017,0.246l0.01,0.246l0.002,0.246l-0.006,0.247l-0.013,0.246l-0.02,0.245l-0.028,0.245l-0.036,0.244l-0.043,0.242l-0.051,0.242l-0.058,0.239l-0.065,0.238l-0.072,0.235l-0.08,0.233l-0.087,0.231l-0.094,0.227l-0.101,0.225l-0.108,0.222l-0.115,0.218l-0.121,0.214l-0.128,0.211l-0.134,0.206l-0.141,0.203l-0.147,0.198l-0.152,0.193l-0.159,0.189l-0.164,0.183l-0.17,0.179l-0.176,0.173l-0.18,0.167l-0.186,0.162l-0.19,0.156l-0.196,0.151l-0.2,0.144l-0.204,0.138l-0.208,0.131l-0.212,0.125l-0.216,0.119l-0.22,0.112l-0.223,0.104l-0.226,0.099l-0.229,0.091l-0.232,0.083l-0.234,0.077l-0.236,0.07l-0.238,0.062l-0.241,0.055l-19.075,4.047l-0.242,0.047l-0.243,0.04l-0.244,0.033l-0.245,0.024l-0.246,0.018l-0.246,0.01l-0.247,0.002l-0.246,-0.006l-0.246,-0.013l-0.245,-0.02l-0.245,-0.028l-0.244,-0.036l-0.243,-0.043l-0.241,-0.051l-0.239,-0.058l-0.238,-0.065l-0.235,-0.073l-0.233,-0.079l-0.231,-0.087l-0.228,-0.094l-0.224,-0.101l-0.222,-0.108l-0.218,-0.115l-0.214,-0.121l-0.211,-0.128l-0.207,-0.134l-0.202,-0.141l-0.198,-0.147l-0.193,-0.152l-0.189,-0.159l-0.183,-0.164l-0.179,-0.17l-0.173,-0.176l-0.167,-0.18l-0.162,-0.186l-0.156,-0.191l-0.151,-0.195l-0.144,-0.2l-0.138,-0.204l-0.131,-0.208l-0.125,-0.212l-0.119,-0.217l-0.112,-0.219l-0.105,-0.223l-0.098,-0.226l-0.091,-0.229l-0.084,-0.232l-0.076,-0.234l-0.07,-0.236l-0.062,-0.239l-0.055,-0.24l-0.047,-0.242l-0.04,-0.243l-0.033,-0.244l-0.025,-0.245l-0.017,-0.246l-0.01,-0.246l-0.002,-0.246l0.005,-0.247l0.013,-0.246l0.021,-0.245l0.028,-0.245l0.036,-0.244l0.043,-0.242l0.05,-0.242l0.058,-0.239l0.066,-0.238l0.072,-0.235l0.08,-0.233l0.087,-0.231l0.094,-0.227l0.101,-0.225l0.108,-0.222l0.115,-0.218l0.121,-0.214l0.128,-0.211l0.134,-0.207l0.141,-0.202l0.146,-0.198l0.153,-0.193l0.159,-0.189l0.164,-0.183l0.17,-0.179l0.175,-0.173l0.181,-0.167l0.186,-0.162l0.19,-0.156l0.196,-0.151l0.199,-0.144l0.205,-0.138l0.208,-0.131l0.212,-0.125l0.216,-0.119l0.22,-0.112l0.223,-0.105l0.226,-0.098l0.229,-0.091l0.231,-0.084l0.235,-0.076l0.236,-0.07l0.238,-0.062l0.241,-0.055l19.075,-4.047l0.241,-0.047l0.244,-0.04l0.244,-0.033l0.245,-0.025l0.246,-0.017l0.246,-0.01l0.246,-0.002l0.247,0.006Z" style="fill:#0d29a7;"/><path d="M1328.59,821.982l0.239,0.01l0.239,0.017l0.238,0.025l0.237,0.031l0.236,0.039l18.154,3.244l0.235,0.045l0.233,0.053l0.232,0.06l0.23,0.066l0.228,0.073l0.225,0.08l0.223,0.087l0.221,0.094l0.217,0.1l0.215,0.106l0.211,0.113l0.207,0.119l0.204,0.126l0.2,0.131l0.196,0.137l0.192,0.143l0.188,0.149l0.183,0.154l0.178,0.16l0.174,0.165l0.168,0.17l0.163,0.175l0.158,0.18l0.153,0.184l0.147,0.189l0.141,0.193l0.135,0.198l0.13,0.201l0.123,0.205l0.117,0.209l0.111,0.212l0.104,0.216l0.098,0.218l0.092,0.221l0.084,0.224l0.078,0.226l0.072,0.229l0.064,0.23l0.057,0.233l0.051,0.234l0.043,0.235l0.036,0.237l0.029,0.237l0.023,0.239l0.015,0.239l0.007,0.239l0.001,0.239l-0.007,0.239l-0.013,0.239l-0.021,0.239l-0.028,0.237l-0.035,0.237l-0.042,0.236l-0.049,0.234l-0.056,0.233l-0.063,0.231l-0.07,0.229l-0.077,0.226l-0.084,0.225l-0.09,0.221l-0.097,0.219l-0.103,0.216l-0.11,0.213l-0.116,0.209l-0.122,0.206l-0.128,0.202l-0.134,0.198l-0.141,0.194l-0.145,0.19l-0.152,0.185l-0.157,0.181l-0.162,0.176l-0.168,0.171l-0.172,0.166l-0.178,0.16l-0.182,0.156l-0.187,0.149l-0.191,0.144l-0.195,0.139l-0.2,0.132l-0.203,0.126l-0.207,0.121l-0.21,0.114l-0.214,0.107l-0.217,0.101l-0.22,0.095l-0.222,0.088l-0.225,0.082l-0.228,0.074l-0.229,0.068l-0.232,0.061l-0.233,0.054l-0.235,0.046l-0.236,0.04l-0.237,0.033l-0.238,0.026l-0.239,0.018l-0.239,0.012l-0.239,0.004l-0.239,-0.003l-0.239,-0.01l-0.239,-0.017l-0.238,-0.025l-0.238,-0.031l-0.236,-0.039l-18.153,-3.244l-0.235,-0.046l-0.234,-0.052l-0.232,-0.06l-0.23,-0.066l-0.227,-0.074l-0.226,-0.08l-0.223,-0.087l-0.22,-0.093l-0.218,-0.1l-0.214,-0.107l-0.211,-0.112l-0.208,-0.12l-0.204,-0.125l-0.2,-0.131l-0.196,-0.137l-0.192,-0.143l-0.187,-0.149l-0.183,-0.154l-0.179,-0.16l-0.173,-0.165l-0.169,-0.17l-0.163,-0.175l-0.158,-0.18l-0.152,-0.184l-0.147,-0.189l-0.141,-0.194l-0.136,-0.197l-0.129,-0.201l-0.123,-0.206l-0.118,-0.208l-0.11,-0.212l-0.105,-0.216l-0.098,-0.218l-0.091,-0.221l-0.085,-0.224l-0.078,-0.227l-0.071,-0.228l-0.064,-0.231l-0.058,-0.232l-0.05,-0.234l-0.043,-0.235l-0.037,-0.237l-0.029,-0.238l-0.022,-0.238l-0.015,-0.239l-0.008,-0.239l0,-0.239l0.006,-0.24l0.014,-0.239l0.021,-0.238l0.027,-0.238l0.036,-0.236l0.042,-0.236l0.049,-0.234l0.056,-0.233l0.063,-0.231l0.07,-0.229l0.077,-0.227l0.083,-0.224l0.09,-0.222l0.097,-0.219l0.103,-0.215l0.11,-0.213l0.116,-0.21l0.122,-0.205l0.129,-0.202l0.134,-0.199l0.14,-0.194l0.146,-0.189l0.151,-0.186l0.157,-0.18l0.163,-0.176l0.167,-0.171l0.173,-0.166l0.177,-0.161l0.182,-0.155l0.187,-0.15l0.191,-0.144l0.196,-0.138l0.199,-0.132l0.203,-0.127l0.207,-0.12l0.211,-0.114l0.214,-0.108l0.216,-0.101l0.22,-0.094l0.223,-0.088l0.225,-0.082l0.227,-0.074l0.23,-0.068l0.231,-0.061l0.234,-0.054l0.234,-0.047l0.236,-0.04l0.237,-0.032l0.238,-0.026l0.239,-0.019l0.239,-0.011l0.239,-0.004l0.24,0.003Z" style="fill:#0d29a7;"/><path d="M1451.42,869.209l9.567,25.505c-6.624,8.41 -16.628,10.642 -31.755,3.509" style="fill:none;stroke:#ca9a76;stroke-width:8.33px;"/><path d="M1424.09,832.72l36.428,-0.513" style="fill:none;stroke:#0d29a7;stroke-width:8.33px;"/></g><g><path d="M990.595,1251.05l22.712,149.475l70.988,-0.511l19.579,-149.018l-113.279,0.054Z" style="fill:#c3c7cd;"/><path d="M1103.87,1233.07c0,-2.382 -1.934,-4.316 -4.316,-4.316l-104.646,0c-2.382,0 -4.317,1.934 -4.317,4.316l0,8.633c0,2.383 1.935,4.317 4.317,4.317l104.646,0c2.382,0 4.316,-1.934 4.316,-4.317l0,-8.633Z" style="fill:#e97378;"/><rect x="985.512" y="1242.5" width="124.891" height="12.532" style="fill:#c3c7cd;"/><path d="M997.902,1295.94l100.259,-0.123l-9.745,67.712l-80.599,0.218l-9.915,-67.807Z" style="fill:#e97378;"/></g></g></svg>