<?xml version="1.0" encoding="UTF-8" standalone="no"?>
<!DOCTYPE svg PUBLIC "-//W3C//DTD SVG 1.1//EN" "http://www.w3.org/Graphics/SVG/1.1/DTD/svg11.dtd">
<svg width="100%" height="100%" viewBox="0 0 96 79" version="1.1" xmlns="http://www.w3.org/2000/svg" xmlns:xlink="http://www.w3.org/1999/xlink" xml:space="preserve" xmlns:serif="http://www.serif.com/" style="fill-rule:evenodd;clip-rule:evenodd;stroke-linecap:square;stroke-miterlimit:5;">
    <g>
        <g transform="matrix(0.322403,0,0,0.322403,-169.551,-12.9582)">
            <g transform="matrix(1,0,0,-1,224.525,332.24)">
                <clipPath id="_clip1">
                    <rect x="415.475" y="137.147" width="69.56" height="18.953"/>
                </clipPath>
                <g clip-path="url(#_clip1)">
                    <path d="M415.781,154.957L450.255,140.957L485.341,155.399" style="fill:none;stroke:rgb(233,128,13);stroke-opacity:0.3;stroke-width:5px;"/>
                </g>
            </g>
            <g transform="matrix(1,0,0,1,224.525,24.8841)">
                <clipPath id="_clip2">
                    <rect x="415.475" y="137.147" width="69.56" height="18.953"/>
                </clipPath>
                <g clip-path="url(#_clip2)">
                    <path d="M415.781,154.957L450.255,140.957L485.341,155.399" style="fill:none;stroke:rgb(233,128,13);stroke-opacity:0.3;stroke-width:5px;"/>
                </g>
            </g>
            <g transform="matrix(1,0,0,-1,224.525,324.24)">
                <clipPath id="_clip3">
                    <rect x="415.475" y="137.147" width="69.56" height="18.953"/>
                </clipPath>
                <g clip-path="url(#_clip3)">
                    <path d="M415.781,154.957L450.255,140.957L485.341,155.399" style="fill:none;stroke:rgb(233,128,13);stroke-opacity:0.51;stroke-width:5px;"/>
                </g>
            </g>
            <g transform="matrix(1,0,0,1,224.525,16.8841)">
                <clipPath id="_clip4">
                    <rect x="415.475" y="137.147" width="69.56" height="18.953"/>
                </clipPath>
                <g clip-path="url(#_clip4)">
                    <path d="M415.781,154.957L450.255,140.957L485.341,155.399" style="fill:none;stroke:rgb(233,128,13);stroke-opacity:0.51;stroke-width:5px;"/>
                </g>
            </g>
            <g transform="matrix(1,0,0,-1,224.525,313.24)">
                <clipPath id="_clip5">
                    <rect x="415.475" y="137.147" width="69.56" height="18.953"/>
                </clipPath>
                <g clip-path="url(#_clip5)">
                    <path d="M415.781,154.957L450.255,140.957L485.341,155.399" style="fill:none;stroke:black;stroke-width:5px;"/>
                </g>
            </g>
            <g transform="matrix(1,0,0,1,224.525,5.88406)">
                <clipPath id="_clip6">
                    <rect x="415.475" y="137.147" width="69.56" height="18.953"/>
                </clipPath>
                <g clip-path="url(#_clip6)">
                    <path d="M415.781,154.957L450.255,140.957L485.341,155.399" style="fill:none;stroke:black;stroke-width:5px;"/>
                </g>
            </g>
            <g transform="matrix(1,0,0,1,224.525,5.88406)">
                <path d="M417.84,132.562L417.84,173.351" style="fill:none;stroke:black;stroke-width:5px;"/>
            </g>
            <g transform="matrix(1,0,0,1,289.525,5.88406)">
                <path d="M417.84,132.562L417.84,173.351" style="fill:none;stroke:black;stroke-width:5px;"/>
            </g>
        </g>
        <g transform="matrix(0.0754745,0,0,0.07279,17.1501,19.3065)">
            <text x="97.86px" y="543.524px" style="font-family:'AppleSymbols', 'Apple Symbols';font-size:178.596px;">Episodio 1</text>
        </g>
        <g transform="matrix(0.0754745,0,0,0.07279,17.1501,-15.6663)">
            <text x="97.86px" y="543.524px" style="font-family:'AppleSymbols', 'Apple Symbols';font-size:178.596px;">PODCAST</text>
        </g>
    </g>
</svg>
