<?xml version="1.0" encoding="UTF-8" standalone="no"?><!DOCTYPE svg PUBLIC "-//W3C//DTD SVG 1.1//EN" "http://www.w3.org/Graphics/SVG/1.1/DTD/svg11.dtd"><svg width="100%" height="100%" viewBox="0 0 1200 988" version="1.1" xmlns="http://www.w3.org/2000/svg" xmlns:xlink="http://www.w3.org/1999/xlink" xml:space="preserve" xmlns:serif="http://www.serif.com/" style="fill-rule:evenodd;clip-rule:evenodd;stroke-linecap:square;stroke-miterlimit:5;"><g><g><g><clipPath id="_clip1"><rect x="377.339" y="547.94" width="457.1" height="124.548"/></clipPath><g clip-path="url(#_clip1)"><path d="M379.351,555.456l226.538,91.998l230.562,-94.906" style="fill:none;stroke:#e9800d;stroke-opacity:0.3;stroke-width:32.86px;"/></g><clipPath id="_clip2"><rect x="377.339" y="455.23" width="457.1" height="124.548"/></clipPath><g clip-path="url(#_clip2)"><path d="M379.351,572.262l226.538,-91.998l230.562,94.906" style="fill:none;stroke:#e9800d;stroke-opacity:0.3;stroke-width:32.86px;"/></g><clipPath id="_clip3"><rect x="377.339" y="495.369" width="457.1" height="124.548"/></clipPath><g clip-path="url(#_clip3)"><path d="M379.351,502.885l226.538,91.999l230.562,-94.906" style="fill:none;stroke:#e9800d;stroke-opacity:0.51;stroke-width:32.86px;"/></g><clipPath id="_clip4"><rect x="377.339" y="402.659" width="457.1" height="124.548"/></clipPath><g clip-path="url(#_clip4)"><path d="M379.351,519.692l226.538,-91.999l230.562,94.906" style="fill:none;stroke:#e9800d;stroke-opacity:0.51;stroke-width:32.86px;"/></g><clipPath id="_clip5"><rect x="377.339" y="423.085" width="457.1" height="124.548"/></clipPath><g clip-path="url(#_clip5)"><path d="M379.351,430.6l226.538,91.999l230.562,-94.906" style="fill:none;stroke:#000;stroke-width:32.86px;"/></g><clipPath id="_clip6"><rect x="377.339" y="330.375" width="457.1" height="124.548"/></clipPath><g clip-path="url(#_clip6)"><path d="M379.351,447.407l226.538,-91.999l230.562,94.906" style="fill:none;stroke:#000;stroke-width:32.86px;"/></g><path d="M392.879,300.246l0,268.037" style="fill:none;stroke:#000;stroke-width:32.86px;"/><path d="M820.015,300.246l0,268.037" style="fill:none;stroke:#000;stroke-width:32.86px;"/></g><text x="222.976px" y="811.618px" style="font-family:'AppleSymbols', 'Apple Symbols';font-size:208.887px;">E<tspan x="311.495px 404.032px 440.201px 518.567px 611.739px 704.276px 740.445px 833.617px 905.743px " y="811.618px 811.618px 811.618px 811.618px 811.618px 811.618px 811.618px 811.618px 811.618px ">pisodio 1</tspan></text><text x="281.691px" y="201.757px" style="font-family:'AppleSymbols', 'Apple Symbols';font-size:183.995px;">P<tspan x="360.686px 460.268px 555.193px 643.41px 741.874px 823.943px " y="201.757px 201.757px 201.757px 201.757px 201.757px 201.757px ">ODCAST</tspan></text></g></g></svg>