<?xml version="1.0" encoding="UTF-8" standalone="no"?><!DOCTYPE svg PUBLIC "-//W3C//DTD SVG 1.1//EN" "http://www.w3.org/Graphics/SVG/1.1/DTD/svg11.dtd"><svg width="100%" height="100%" viewBox="0 0 260 260" version="1.1" xmlns="http://www.w3.org/2000/svg" xmlns:xlink="http://www.w3.org/1999/xlink" xml:space="preserve" xmlns:serif="http://www.serif.com/" style="fill-rule:evenodd;clip-rule:evenodd;stroke-linecap:square;stroke-miterlimit:5;"><g id="Layer1"><rect x="0" y="0" width="260" height="260" style="fill:#e6e6e6;"/></g><g><g><clipPath id="_clip1"><rect x="17.133" y="178.153" width="225.734" height="61.507"/></clipPath><g clip-path="url(#_clip1)"><path d="M18.127,181.864l111.873,45.433l113.86,-46.868" style="fill:none;stroke:#e9800d;stroke-opacity:0.3;stroke-width:16.23px;"/></g><clipPath id="_clip2"><rect x="17.133" y="132.369" width="225.734" height="61.507"/></clipPath><g clip-path="url(#_clip2)"><path d="M18.127,190.164l111.873,-45.432l113.86,46.868" style="fill:none;stroke:#e9800d;stroke-opacity:0.3;stroke-width:16.23px;"/></g><clipPath id="_clip3"><rect x="17.133" y="152.192" width="225.734" height="61.507"/></clipPath><g clip-path="url(#_clip3)"><path d="M18.127,155.903l111.873,45.432l113.86,-46.868" style="fill:none;stroke:#e9800d;stroke-opacity:0.51;stroke-width:16.23px;"/></g><clipPath id="_clip4"><rect x="17.133" y="106.408" width="225.734" height="61.507"/></clipPath><g clip-path="url(#_clip4)"><path d="M18.127,164.203l111.873,-45.433l113.86,46.869" style="fill:none;stroke:#e9800d;stroke-opacity:0.51;stroke-width:16.23px;"/></g><clipPath id="_clip5"><rect x="17.133" y="116.495" width="225.734" height="61.507"/></clipPath><g clip-path="url(#_clip5)"><path d="M18.127,120.206l111.873,45.433l113.86,-46.869" style="fill:none;stroke:#000;stroke-width:16.23px;"/></g><clipPath id="_clip6"><rect x="17.133" y="70.711" width="225.734" height="61.507"/></clipPath><g clip-path="url(#_clip6)"><path d="M18.127,128.506l111.873,-45.433l113.86,46.869" style="fill:none;stroke:#000;stroke-width:16.23px;"/></g><path d="M24.808,55.832l0,132.367" style="fill:none;stroke:#000;stroke-width:16.23px;"/><path d="M235.744,55.832l0,132.367" style="fill:none;stroke:#000;stroke-width:16.23px;"/></g></g></svg>