<?xml version="1.0" encoding="UTF-8" standalone="no"?><!DOCTYPE svg PUBLIC "-//W3C//DTD SVG 1.1//EN" "http://www.w3.org/Graphics/SVG/1.1/DTD/svg11.dtd"><svg width="100%" height="100%" viewBox="0 0 96 79" version="1.1" xmlns="http://www.w3.org/2000/svg" xmlns:xlink="http://www.w3.org/1999/xlink" xml:space="preserve" xmlns:serif="http://www.serif.com/" style="fill-rule:evenodd;clip-rule:evenodd;stroke-linecap:square;stroke-miterlimit:5;"><g><clipPath id="_clip1"><rect x="12.441" y="50.441" width="69.56" height="18.953"/></clipPath><g clip-path="url(#_clip1)"><path d="M12.748,51.584l34.473,14l35.086,-14.442" style="fill:none;stroke:#e9800d;stroke-opacity:0.3;stroke-width:5px;"/></g><clipPath id="_clip2"><rect x="12.441" y="36.332" width="69.56" height="18.953"/></clipPath><g clip-path="url(#_clip2)"><path d="M12.748,54.142l34.473,-14l35.086,14.442" style="fill:none;stroke:#e9800d;stroke-opacity:0.3;stroke-width:5px;"/></g><clipPath id="_clip3"><rect x="12.441" y="42.441" width="69.56" height="18.953"/></clipPath><g clip-path="url(#_clip3)"><path d="M12.748,43.584l34.473,14l35.086,-14.442" style="fill:none;stroke:#e9800d;stroke-opacity:0.51;stroke-width:5px;"/></g><clipPath id="_clip4"><rect x="12.441" y="28.332" width="69.56" height="18.953"/></clipPath><g clip-path="url(#_clip4)"><path d="M12.748,46.142l34.473,-14l35.086,14.442" style="fill:none;stroke:#e9800d;stroke-opacity:0.51;stroke-width:5px;"/></g><clipPath id="_clip5"><rect x="12.441" y="31.441" width="69.56" height="18.953"/></clipPath><g clip-path="url(#_clip5)"><path d="M12.748,32.584l34.473,14l35.086,-14.442" style="fill:none;stroke:#000;stroke-width:5px;"/></g><clipPath id="_clip6"><rect x="12.441" y="17.332" width="69.56" height="18.953"/></clipPath><g clip-path="url(#_clip6)"><path d="M12.748,35.142l34.473,-14l35.086,14.442" style="fill:none;stroke:#000;stroke-width:5px;"/></g><path d="M14.806,12.748l0,40.788" style="fill:none;stroke:#000;stroke-width:5px;"/><path d="M79.806,12.748l0,40.788" style="fill:none;stroke:#000;stroke-width:5px;"/></g></svg>