<?xml version="1.0" standalone="no"?>
<!DOCTYPE svg PUBLIC "-//W3C//DTD SVG 20010904//EN"
 "http://www.w3.org/TR/2001/REC-SVG-20010904/DTD/svg10.dtd">
<svg version="1.0" xmlns="http://www.w3.org/2000/svg"
 width="700.000000pt" height="700.000000pt" viewBox="0 0 700.000000 700.000000"
 preserveAspectRatio="xMidYMid meet">
<metadata>
Created by potrace 1.11, written by Peter Selinger 2001-2013
</metadata>
<g transform="translate(0.000000,700.000000) scale(0.100000,-0.100000)"
fill="#000000" stroke="none">
<path d="M450 3715 l0 -2005 218 2 217 3 3 823 2 823 23 -7 c12 -4 137 -54
277 -111 140 -58 466 -190 725 -295 259 -105 589 -239 735 -298 146 -59 394
-160 552 -224 158 -64 292 -116 299 -116 6 0 287 113 623 251 989 407 1383
569 1695 698 161 66 297 121 302 121 5 0 9 -361 9 -835 l0 -835 218 2 217 3 0
2000 0 2000 -217 3 -218 2 0 -901 c0 -717 -3 -900 -12 -896 -7 3 -599 246
-1315 541 l-1302 536 -1303 -529 -1303 -529 -5 886 -5 887 -217 3 -218 2 0
-2005z m4114 375 c580 -239 1052 -437 1048 -440 -9 -8 -86 -40 -632 -263 -234
-96 -662 -272 -952 -392 l-528 -217 -87 35 c-204 83 -920 373 -1193 484 -162
66 -421 171 -575 233 -154 62 -283 116 -287 119 -7 6 2130 881 2144 878 3 -1
481 -198 1062 -437z"/>
</g>
</svg>
