<?xml version="1.0" standalone="no"?>
<!DOCTYPE svg PUBLIC "-//W3C//DTD SVG 20010904//EN"
 "http://www.w3.org/TR/2001/REC-SVG-20010904/DTD/svg10.dtd">
<svg version="1.0" xmlns="http://www.w3.org/2000/svg"
 width="484.000000pt" height="484.000000pt" viewBox="0 0 484.000000 484.000000"
 preserveAspectRatio="xMidYMid meet">
<metadata>
Created by potrace 1.11, written by Peter Selinger 2001-2013
</metadata>
<g transform="translate(0.000000,484.000000) scale(0.100000,-0.100000)"
fill="#000000" stroke="none">
<path d="M2205 4743 c-171 -16 -414 -73 -594 -140 -86 -32 -295 -128 -330
-151 -10 -8 -1 -27 45 -93 31 -46 60 -88 64 -92 4 -4 36 21 71 56 81 80 134
99 203 73 92 -35 181 -179 181 -293 0 -47 -5 -68 -21 -90 -33 -44 -97 -75
-170 -81 -35 -2 -64 -7 -64 -11 0 -13 116 -231 123 -231 4 0 44 18 88 40 160
81 309 122 506 141 412 40 827 -111 1129 -411 243 -242 381 -538 415 -887 l12
-123 36 5 c101 12 324 15 337 4 19 -16 18 -46 -5 -77 -39 -56 -71 -132 -71
-170 0 -65 50 -93 165 -94 152 -2 182 64 104 232 -48 105 -50 104 160 108
l173 2 -7 88 c-36 491 -189 906 -476 1289 -148 197 -409 433 -634 573 -270
168 -639 294 -967 329 -90 10 -381 12 -473 4z"/>
<path d="M1109 4352 c-236 -161 -461 -375 -628 -597 -218 -289 -356 -601 -424
-955 -29 -158 -32 -547 -4 -715 103 -615 401 -1114 881 -1474 100 -75 266
-181 284 -181 13 0 102 159 102 182 0 11 -21 21 -66 32 -83 21 -136 48 -163
82 -60 76 11 261 127 335 84 53 160 34 240 -57 25 -30 52 -54 59 -54 11 0 153
267 153 288 0 5 -33 33 -72 63 -98 72 -240 217 -312 317 -117 164 -202 362
-248 577 -31 143 -30 398 0 542 73 340 251 623 530 840 45 36 82 67 82 71 0 3
-18 33 -39 66 -52 80 -119 223 -123 261 l-3 30 110 5 c113 5 143 14 169 52 37
52 0 154 -84 232 -80 75 -117 63 -215 -70 -33 -45 -62 -74 -73 -74 -12 0 -46
42 -101 125 -46 69 -87 127 -91 130 -4 2 -45 -21 -91 -53z"/>
<path d="M3966 2393 c-55 -2 -106 -9 -113 -15 -7 -6 -13 -25 -13 -42 0 -50
-46 -254 -75 -336 -78 -215 -180 -376 -344 -541 -180 -180 -373 -296 -606
-364 -321 -93 -677 -66 -984 76 -46 22 -90 39 -97 39 -12 0 -96 -143 -173
-297 -23 -46 -46 -83 -51 -83 -5 0 -22 19 -36 43 -92 147 -165 187 -245 135
-46 -31 -89 -119 -96 -196 -5 -56 -4 -62 21 -85 29 -27 52 -32 179 -43 42 -3
79 -10 82 -13 2 -4 -30 -68 -71 -142 -48 -85 -72 -139 -67 -147 11 -17 211
-110 338 -157 123 -46 329 -98 477 -122 162 -25 540 -25 693 0 507 84 939 303
1308 663 351 343 574 767 652 1237 17 106 37 365 29 379 -3 4 -66 8 -140 8
-154 0 -145 8 -114 -102 25 -90 25 -115 0 -155 -30 -50 -91 -76 -191 -81 -72
-4 -93 -1 -136 18 -73 31 -96 59 -100 122 -3 41 3 68 26 123 16 39 27 73 24
78 -2 4 -21 6 -41 5 -20 -1 -82 -4 -136 -5z"/>
</g>
</svg>
