<svg version="1" xmlns="http://www.w3.org/2000/svg" width="601.333" height="601.333" viewBox="0 0 451.000000 451.000000"><path d="M98 9.4C82.2 21.9 69.2 35 52.3 55.2c-1.2 1.5-3 3.9-4 5.5-1 1.5-2.5 3.6-3.4 4.6-.9 1-2.5 3.3-3.5 5.2-1 1.9-2.2 3.5-2.6 3.5-.5 0-.8.4-.8.9s-1.7 3.8-3.8 7.2c-2.1 3.5-6.3 11.3-9.2 17.4-2.9 6-5.7 11.8-6.2 12.8-3 6.2-10.5 29.3-12.2 37.8C1.2 176.6.5 182.9.5 206c.1 25.9 2.6 45.8 8.5 68.2 2.6 9.8 2.9 10.9 4.7 15.6.3.9.7 2.3.9 3 1.7 8.6 22.5 50.6 25.7 52 .4.2.7.8.7 1.3 0 1 9.3 14.2 12.3 17.4 1.1 1.1 3.1 3.6 4.5 5.5 4.2 5.5 22.6 23.4 29.5 28.7 3.4 2.6 6.4 5 6.7 5.3.7.9 13.2 9.5 15.7 10.9 2.1 1.1 2.5.7 6.3-6.9 2.2-4.4 4-8.2 4-8.4 0-.2-1.5-.7-3.2-1.1-1.8-.4-6.5-2.2-10.5-4.1-6.5-3.1-7.3-3.8-8.9-7.9-2.2-6-2.3-7.9-.3-15 4.7-16.8 17.2-27.8 27.8-24.4 4.8 1.6 12.5 8.4 13.7 12.1.6 2.1 2.4 2.4 2.4.4 0-.7.7-1.9 1.5-2.6.8-.7 1.3-1.6 1-2-.2-.4.2-1.6 1-2.6s1.5-2.7 1.5-3.7c0-.9.4-1.7 1-1.7.5 0 .9-.3.8-.8-.1-.4 1-3.3 2.5-6.4l2.7-5.8 4.5 3.2c2.5 1.8 4.5 3.5 4.5 3.8 0 .3-3.8 8.1-8.4 17.3-4.6 9.2-8.2 16.7-7.9 16.7.3 0 0 .7-.7 1.5-2.4 2.9-4.7 1.7-7.9-4s-9.2-12.5-12.5-14.2c-3.2-1.7-8.4.6-11.6 5.2-4.1 5.9-6.6 15.9-5 20 1 2.7 5.7 5.5 9.2 5.5 4.8-.1 15.8.9 16.8 1.5 1.8 1.1 1.1 3.3-6 17-3.8 7.5-7 13.8-7 13.9 0 .9 25.4 12.6 33.5 15.6 5 1.8 9.7 3.5 10.5 3.8 2 .7 3.1 1 5.8 1.6 1.2.3 2.7.8 3.4 1.2.6.4 2.1.8 3.2.9 1.2.1 2.8.5 3.6.8 1.5.6 11.3 2.6 15.4 3.2 13.1 1.9 21.8 2.5 34.3 2.6 11.6 0 25.8-1.1 33.3-2.6 1.4-.3 3.6-.7 5-1 5.4-1 14.8-3.1 15.5-3.5.3-.1.8-.3 1.3-.4 9.5-2.5 27.8-9.8 39.5-15.9 24.3-12.6 48.8-32 69.4-55 1.9-2.2 14.7-19.3 18.3-24.6 4.7-6.8 15.3-27 19-36.1 1.2-3 2.6-6.4 3.1-7.5 2.3-5.4 3.8-9.7 3.8-10.3-.1-.4 0-.9.1-1.2.1-.3.3-1.2.6-2 .2-.8 1.5-5.4 2.8-10.3 3.7-13.3 6.1-27.6 7.1-43.7.4-4.7.8-10.4.9-12.7.4-4.9.6-4.8-13.4-4.8-10.7 0-10.2-.6-7.6 8.8 2 7.3 2 12 .1 15.7-1.9 3.6-7.4 7.9-11.1 8.6-1.6.3-3.3.8-3.9 1.2-.9.7-8.3.7-13-.1-4.2-.6-11.3-4.6-13.3-7.4-4.1-5.7-3.8-14 .8-23.6 2.2-4.5 3.9-4.2-18-3.2l-5.5.2v-13.1c-.1-15.7-.7-21.8-3.4-35.3-10.8-52.5-48.1-96.2-95.6-111.8-18.7-6.2-42.5-7.7-62-4.1-1.6.3-4.3.8-6 1.2-4.6.8-17.2 5.2-23 7.9-2.9 1.4-5.7 2.5-6.3 2.5-.7 0-1.2.4-1.2.9s-1 1.3-2.2 1.7c-1.3.4-4.9 2.4-8.1 4.6-3.1 2.1-6.1 3.7-6.6 3.4-.9-.6-9.1-14.1-9.1-15 0-.4-.9-2.5-2-4.9-3.8-8.1-5.5-16.6-3.6-18.4.1-.2 5.3-.4 11.5-.6 11-.2 11.3-.3 13.7-3 2.9-3.3 2.7-8.2-.5-14.5-2.9-5.7-9.4-12.5-12.2-12.7-3.1-.2-7.1 3.5-11.6 10.9-4.7 7.9-7.1 9.9-10.3 8.3-2.3-1.2-15.8-21.9-15.9-24.5-.2-2.5-2.8-1-13.1 7.2z"/></svg>