<svg version="1" xmlns="http://www.w3.org/2000/svg" width="346.667" height="346.667" viewBox="0 0 260.000000 260.000000"><path d="M2 127.5V211h19v-68.9l13.3 5.5C62.4 159.3 128.9 186 130 186c1 0 69.6-27.9 99.2-40.4l10.8-4.5V211h18V44h-18l-.2 37.4-.3 37.3-53-21.9c-29.1-12-53.9-22.1-55-22.4-1.3-.3-21.7 7.5-56 21.4l-54 21.9-.3-36.9L21 44H2v83.5zm172.6-15.8c23.9 9.8 43.4 18 43.4 18.3 0 .3-10.7 4.9-23.8 10.2-13 5.3-32 13.2-42.2 17.4-10.2 4.2-19.6 7.9-21 8.1-1.6.3-15.1-4.7-39-14.5-20.1-8.2-39.8-16.1-43.8-17.7-3.9-1.5-7.2-3.1-7.2-3.4 0-.8 86.1-35.9 88.4-36 1-.1 21.4 7.9 45.2 17.6z"/></svg>