<svg version="1" xmlns="http://www.w3.org/2000/svg" width="346.667" height="346.667" viewBox="0 0 260.000000 260.000000"><path d="M98.9 2.5c-42.8 10.8-78 44.1-91.2 86.1-4.9 15.4-6.1 23.8-6.1 40.9 0 23.8 3.5 39 13.9 60 17.8 36 51.8 61.7 91.3 69.1 13.3 2.5 40.4 1.5 53.3-1.9 47.7-12.6 83.6-50.6 94.4-99.7 2.6-11.9 3.1-35.7 1-48.1-5.8-35.4-25.2-66.7-53.7-86.9-9.3-6.7-26.7-15.1-38.3-18.6C155 .8 153.2.6 131.5.3 109.9.1 107.9.2 98.9 2.5zm86.3 98.2c3.9 3.6.9 10.3-4.7 10.3-5.5 0-8.6-6.7-4.9-10.4 2-2.1 7.3-2 9.6.1zM43 115.5V126h20v-21h12v53.8l-6 .4-6 .3V136H43v23.5l-6-.3-6-.4V105h12v10.5zm70 3.7c5.9 3 9 8.9 9 17v5.8h-12.5c-11.5 0-12.5.1-12.5 1.9 0 2.9 4.4 6.9 8.5 7.7 2.4.4 5 .1 7.5-.9l3.9-1.5 2.1 3.4 2 3.5-4.3 1.9c-7.6 3.5-19.5 2.2-25-2.8-6.1-5.5-8.1-18.9-4-26.7 5.4-10.3 15.7-14.1 25.3-9.3zm109.3.4c4.3 2.1 4.4 2.5 1.6 6.3l-2.1 2.9-4.3-1.9c-3.2-1.4-5-1.7-6.8-1-5.9 2.3-4.4 5.1 4.8 9.1 8.9 3.9 10.6 5.6 11.2 11.2.5 5.4-2.3 10.3-7.2 12.4-6.1 2.5-16.6 1.5-22.9-2.2-1.9-1.1-1.9-1.2.3-4.8 1.3-2 2.4-3.6 2.6-3.6.2 0 2 .9 3.9 2.1 4.2 2.4 10.3 2.3 12-.4 1.7-2.6-.2-4.6-6.9-7.4-8.2-3.3-11.5-7-11.5-12.8 0-10.5 13.2-15.7 25.3-9.9zm-78.8 5.4c1.9 3.8 3.9 7 4.3 7 .4 0 1.8-3.1 3.2-6.8l2.5-6.7 6.2-.3 6.2-.3-5.9 10.5c-3.3 5.8-6 10.8-6 11 0 .3 2.4 4.3 5.3 8.8 2.9 4.6 5.6 8.8 6 9.5.5.8-1.1 1.2-5.3 1.5l-5.9.3-4.3-7.4-4.2-7.4-3.5 7.2-3.5 7.1h-5.9c-5.9 0-5.9 0-4.5-2.3.8-1.2 3.6-5.9 6.2-10.5l4.8-8.3-5.6-9.4c-3.1-5.1-5.6-9.6-5.6-9.9 0-.3 2.7-.6 6-.6h6l3.5 7zm42.5 13.7v20.8l-5.5-.3-5.5-.4V118h11v20.7z"/><path d="M99.5 128.5c-1.4 1.3-2.5 3.3-2.5 4.5 0 2 .5 2.1 7.8 1.8 7.5-.3 7.7-.4 7.4-2.7-.7-6.2-8.1-8.3-12.7-3.6z"/></svg>