<svg id="Capa_1" enable-background="new 0 0 551.13 551.13" height="512" viewBox="0 0 551.13 551.13" width="512" xmlns="http://www.w3.org/2000/svg"><path d="m516.685 103.337h-251.211l-63.846-63.846c-3.229-3.229-7.602-5.046-12.177-5.046h-155.005c-18.989.001-34.446 15.457-34.446 34.446v413.348c0 19.006 15.457 34.446 34.446 34.446h482.239c18.989 0 34.446-15.44 34.446-34.446v-344.456c-.001-18.989-15.458-34.446-34.446-34.446zm0 378.902h-482.239v-413.348s-.017 0-.034 0l.034-17.223v17.206l147.874.017 63.846 63.846c3.229 3.229 7.602 5.046 12.177 5.046h258.342z"/><path d="m361.679 304.732v74.17h34.446v-74.17c10.11-6 17.223-16.556 17.223-29.167 0-19.025-15.421-34.446-34.446-34.446s-34.446 15.421-34.446 34.446c.001 12.61 7.113 23.166 17.223 29.167z"/></svg>