<?xml version="1.0" encoding="iso-8859-1"?>
<!-- Generator: Adobe Illustrator 19.0.0, SVG Export Plug-In . SVG Version: 6.00 Build 0)  -->
<svg version="1.1" id="Capa_1" xmlns="http://www.w3.org/2000/svg" xmlns:xlink="http://www.w3.org/1999/xlink" x="0px" y="0px"
	 viewBox="0 0 512 512" style="enable-background:new 0 0 512 512;" xml:space="preserve">
<g>
	<g>
		<path d="M489.502,162.499h-7.5V98.106l2.196,2.196c1.465,1.464,3.385,2.197,5.304,2.197c1.919,0,3.839-0.732,5.304-2.197
			c2.929-2.929,2.929-7.678,0-10.606l-15-15c-0.196-0.192-0.369-0.349-0.55-0.497c-0.085-0.069-0.174-0.13-0.261-0.195
			c-0.109-0.082-0.216-0.166-0.33-0.242c-0.103-0.069-0.21-0.128-0.315-0.192c-0.104-0.063-0.207-0.128-0.315-0.186
			c-0.107-0.057-0.217-0.105-0.326-0.157c-0.113-0.054-0.224-0.11-0.34-0.158c-0.105-0.044-0.213-0.078-0.32-0.117
			c-0.124-0.045-0.246-0.092-0.373-0.131c-0.106-0.032-0.214-0.055-0.32-0.082c-0.13-0.033-0.259-0.069-0.391-0.095
			c-0.121-0.024-0.243-0.038-0.365-0.056c-0.12-0.018-0.239-0.04-0.361-0.052c-0.216-0.021-0.432-0.03-0.648-0.033
			c-0.03,0-0.059-0.005-0.089-0.005c-0.03,0-0.059,0.004-0.089,0.005c-0.216,0.003-0.433,0.012-0.648,0.033
			c-0.122,0.012-0.241,0.034-0.361,0.052c-0.122,0.018-0.244,0.032-0.365,0.056c-0.133,0.026-0.261,0.062-0.391,0.095
			c-0.107,0.027-0.215,0.05-0.32,0.082c-0.127,0.038-0.249,0.086-0.373,0.13c-0.107,0.039-0.215,0.074-0.321,0.117
			c-0.115,0.048-0.226,0.104-0.339,0.157c-0.109,0.052-0.22,0.1-0.327,0.157c-0.108,0.058-0.21,0.123-0.315,0.186
			c-0.105,0.063-0.212,0.123-0.315,0.192c-0.114,0.076-0.221,0.161-0.33,0.242c-0.087,0.065-0.176,0.125-0.261,0.195
			c-0.181,0.148-0.354,0.305-0.52,0.47c-0.03,0.027-15.03,15.027-15.03,15.027c-2.929,2.929-2.929,7.678,0,10.606
			c2.93,2.929,7.678,2.929,10.607,0L467,98.104v64.395h-31.048c-3.274-11.528-13.889-20-26.452-20h-80
			c-15.163,0-27.5,12.336-27.5,27.5v100c0,4.142,3.357,7.5,7.5,7.5s7.5-3.358,7.5-7.5v-100c0-6.893,5.607-12.5,12.5-12.5h2.5v145.72
			c-0.002,0.041,0.001,0.083,0,0.124v19.156h-15v-22.5c0-4.142-3.357-7.5-7.5-7.5s-7.5,3.358-7.5,7.5v30c0,4.142,3.357,7.5,7.5,7.5
			H332v129.094l-24.872,8.291c-3.93,1.31-6.053,5.557-4.743,9.487c1.048,3.143,3.974,5.13,7.114,5.13
			c0.786,0,1.586-0.125,2.373-0.387l30-10c3.062-1.021,5.128-3.887,5.128-7.115V317.428c6.972,3.309,14.64,5.071,22.5,5.071
			s15.528-1.762,22.5-5.071v154.571c0,3.228,2.065,6.094,5.128,7.115l30,10c0.787,0.262,1.587,0.387,2.373,0.387
			c3.141,0,6.066-1.988,7.114-5.13c1.31-3.93-0.813-8.177-4.743-9.487L407,466.593V337.499h22.5c4.143,0,7.5-3.358,7.5-7.5v-152.5
			h30v52.5c0,4.142,3.357,7.5,7.5,7.5s7.5-3.358,7.5-7.5v-22.5h7.5c12.406,0,22.5-10.093,22.5-22.5S501.908,162.499,489.502,162.499
			z M392.002,299.996c-6.467,4.856-14.34,7.503-22.5,7.503s-16.033-2.646-22.5-7.503v-22.497h45V299.996z M392.002,262.499h-15
			v-7.512c0-4.142-3.357-7.5-7.5-7.5s-7.5,3.358-7.5,7.5v7.512h-15v-105h15v67.488c0,4.142,3.357,7.5,7.5,7.5s7.5-3.358,7.5-7.5
			v-67.488h15V262.499z M422.002,322.499h-15v-165h2.5c6.893,0,12.5,5.607,12.5,12.5V322.499z M489.502,192.499h-7.5v-15h7.5
			c4.136,0,7.5,3.364,7.5,7.5S493.637,192.499,489.502,192.499z"/>
	</g>
</g>
<g>
	<g>
		<path d="M282.639,68.187c-2.657-1.226-5.788-0.792-8.012,1.112c-39.797,34.03-62.621,82.579-62.621,133.2
			c0,50.621,22.824,99.17,62.621,133.2c1.385,1.185,3.121,1.8,4.875,1.8c1.063,0,2.134-0.226,3.137-0.688
			c2.659-1.225,4.362-3.885,4.362-6.812v-255C287.002,72.072,285.298,69.411,282.639,68.187z M272.002,312.597
			c-28.777-30.092-44.995-69.382-44.995-110.099c0-40.717,16.218-80.006,44.995-110.099V312.597z"/>
	</g>
</g>
<g>
	<g>
		<path d="M369.502,22.499c-28.948,0-52.5,23.551-52.5,52.5s23.551,52.5,52.5,52.5c28.948,0,52.5-23.551,52.5-52.5
			S398.45,22.499,369.502,22.499z M369.502,37.499c8.673,0,16.662,2.968,23.022,7.931c-13.839,9.42-32.206,9.42-46.044,0
			C352.84,40.467,360.829,37.499,369.502,37.499z M369.502,112.498c-20.678,0-37.5-16.822-37.5-37.5
			c0-6.566,1.701-12.742,4.68-18.116c9.751,7.072,21.284,10.615,32.82,10.615s23.069-3.542,32.82-10.615
			c2.978,5.374,4.68,11.549,4.68,18.116C407.002,95.676,390.18,112.498,369.502,112.498z"/>
	</g>
</g>
<g>
	<g>
		<path d="M97.502,179.999c-12.406,0-22.5,10.093-22.5,22.5s10.094,22.5,22.5,22.5s22.5-10.093,22.5-22.5
			S109.908,179.999,97.502,179.999z M97.502,209.999c-4.136,0-7.5-3.364-7.5-7.5s3.364-7.5,7.5-7.5s7.5,3.364,7.5,7.5
			S101.638,209.999,97.502,209.999z"/>
	</g>
</g>
<g>
	<g>
		<path d="M97.502,142.499c-33.084,0-60,26.916-60,60s26.916,60,60,60s60-26.916,60-60S130.586,142.499,97.502,142.499z
			 M97.502,247.499c-24.813,0-45-20.187-45-45s20.187-45,45-45s45,20.187,45,45S122.315,247.499,97.502,247.499z"/>
	</g>
</g>
<g>
	<g>
		<path d="M181.239,411.006c-0.006-0.032-25.529-130.336-25.529-130.336c23.833-17.792,39.292-46.21,39.292-78.171
			c0-53.762-43.738-97.5-97.5-97.5c-53.762,0-97.5,43.738-97.5,97.5c0,31.961,15.459,60.379,39.292,78.171L0.141,480.557
			c-0.796,4.064,1.854,8.005,5.919,8.802c0.486,0.095,0.972,0.141,1.449,0.141c3.514,0,6.651-2.482,7.353-6.06l12.426-63.441h40.213
			c4.143,0,7.5-3.358,7.5-7.5c0-4.142-3.357-7.5-7.5-7.5H30.226l22.684-115.81c11.27,5.821,23.812,9.51,37.091,10.525v182.285
			c0,4.142,3.357,7.5,7.5,7.5c4.143,0,7.5-3.358,7.5-7.5v-62h62.713l12.426,63.441c0.701,3.578,3.838,6.06,7.353,6.06
			c0.478,0,0.963-0.046,1.449-0.141c4.065-0.796,6.715-4.737,5.919-8.802L181.239,411.006z M97.502,284.999
			c-45.49,0-82.5-37.009-82.5-82.5c0-45.491,37.01-82.5,82.5-82.5s82.5,37.009,82.5,82.5
			C180.002,247.99,142.992,284.999,97.502,284.999z M105.002,404.999V299.713c13.279-1.015,25.821-4.704,37.091-10.525
			l22.684,115.811H105.002z"/>
	</g>
</g>
<g>
</g>
<g>
</g>
<g>
</g>
<g>
</g>
<g>
</g>
<g>
</g>
<g>
</g>
<g>
</g>
<g>
</g>
<g>
</g>
<g>
</g>
<g>
</g>
<g>
</g>
<g>
</g>
<g>
</g>
</svg>
