<?xml version="1.0"?>
<svg xmlns="http://www.w3.org/2000/svg" viewBox="0 0 512 512" width="512" height="512"><g id="Outline"><path d="M152,256a24,24,0,1,0,24,24A24.027,24.027,0,0,0,152,256Zm0,32a8,8,0,1,1,8-8A8.009,8.009,0,0,1,152,288Z"/><path d="M328.073,202.875A56.07,56.07,0,0,0,384,256a8,8,0,0,0,8-8V112a56.056,56.056,0,0,0-54.236-55.955A88.325,88.325,0,0,0,264,16H248a88.1,88.1,0,0,0-88,88v20.305A31.989,31.989,0,0,0,176,184h1.624a80.143,80.143,0,0,0,2.076,8H160a8,8,0,0,0-8,8v24H80a24.028,24.028,0,0,0-24,24v24.4a28.808,28.808,0,0,0-24,28.364v19.351a48.7,48.7,0,0,0,3.5,18.172L48,369.541V444a36,36,0,0,0,69.715,12.61l35.937-47.118A68.616,68.616,0,0,0,167.3,442.7l.012.019L168,496.1l16-.206-.721-56a8,8,0,0,0-1.978-5.165,7.009,7.009,0,0,1-.68-.9c-.146-.232-.3-.458-.473-.675a53.438,53.438,0,0,1-9.055-47.181l5.829-14.226a8,8,0,0,0-3.5-10.017l-16.32-9.12L127.139,336H208a23.691,23.691,0,0,0,5.039-.556A63.539,63.539,0,0,0,256,352c31.474,0,58.614-23.348,63.179-54.329A56.535,56.535,0,0,0,320,288v-2.562l29.219,4.849A32.043,32.043,0,0,1,376,321.92V352H336a8,8,0,0,0-6.11,13.164,54.38,54.38,0,0,1-.032,69.71A8,8,0,0,0,328,440v56h16V442.806A70.583,70.583,0,0,0,350.884,368H376V496h16V321.92a48.01,48.01,0,0,0-40.13-47.411l-38.555-6.4h0L296,265.2V237.257A79.566,79.566,0,0,0,328.073,202.875ZM376,112V239.2A40.071,40.071,0,0,1,344,200V182.987a31.989,31.989,0,0,0,8-58.682V104a87.8,87.8,0,0,0-5.52-30.6A40.065,40.065,0,0,1,376,112Zm-24,40a16.019,16.019,0,0,1-16,16V136A16.019,16.019,0,0,1,352,152ZM176,168a16,16,0,0,1,0-32Zm0-48.625V104a72.081,72.081,0,0,1,72-72h16a72.275,72.275,0,0,1,62,35.405c.1.232.223.458.35.68A71.832,71.832,0,0,1,336,104v16h-3.056L303.155,60.422a8,8,0,0,0-12.149-2.672c-.628.5-63.294,50.257-108.789,60.451Q178.992,118.938,176,119.375ZM168,208h32v16H168ZM104,444a20,20,0,0,1-40,0V368a8,8,0,0,0-.572-2.971L50.355,332.348A32.792,32.792,0,0,1,48,320.117V300.766A12.781,12.781,0,0,1,60.766,288H96v80a7.939,7.939,0,0,0,.081,1.132L104,424.568ZM96.581,272H72V248a8.009,8.009,0,0,1,8-8h32.862A55.882,55.882,0,0,0,96.581,272Zm44.557,90.023,18.292,10.222-2.911,7.1L120,427.23V424a7.939,7.939,0,0,0-.081-1.132L112,367.432v-21.54ZM152,320a40,40,0,1,1,40-40A40.045,40.045,0,0,1,152,320Zm64-55.28V312a8,8,0,0,1-4.482,7.139A7.689,7.689,0,0,1,208,320H191.138a55.875,55.875,0,0,0,0-80H208a8.009,8.009,0,0,1,8,8Zm88,18.057V288a40.408,40.408,0,0,1-.6,7.011c-.014.079-.026.159-.038.238a47.933,47.933,0,0,1-76.187,31.138A23.8,23.8,0,0,0,232,312V244.3a79.7,79.7,0,0,0,48,0v20.9a15.952,15.952,0,0,0,13.4,15.812Zm-19.578-57.452a63.849,63.849,0,0,1-56.883-.019A62.254,62.254,0,0,1,216,217.9V200a8,8,0,0,0-8-8H196.7a64.043,64.043,0,0,1-4.7-24V132.206c38.368-10.825,83.318-42.552,101.184-55.949L320,129.889V168A63.645,63.645,0,0,1,284.422,225.325Z"/><circle cx="220" cy="140" r="12"/><circle cx="292" cy="140" r="12"/><path d="M254.891,176H240v16h14.891c13.9,0,27.091-3.229,37.14-9.09l-8.062-13.82C276.44,173.481,265.841,176,254.891,176Z"/></g></svg>
