<?xml version="1.0" encoding="UTF-8" standalone="no"?><!DOCTYPE svg PUBLIC "-//W3C//DTD SVG 1.1//EN" "http://www.w3.org/Graphics/SVG/1.1/DTD/svg11.dtd"><svg width="100%" height="100%" viewBox="0 0 700 700" version="1.1" xmlns="http://www.w3.org/2000/svg" xmlns:xlink="http://www.w3.org/1999/xlink" xml:space="preserve" xmlns:serif="http://www.serif.com/" style="fill-rule:evenodd;clip-rule:evenodd;stroke-linejoin:round;stroke-miterlimit:2;"><path d="M69.067,547.236c-5.202,0 -9.418,4.091 -9.418,9.136l0.772,140.038c0,5.045 3.348,3.297 8.551,3.297c5.202,0 8.564,1.748 8.564,-3.297l0.949,-140.038c0,-5.044 -4.215,-9.136 -9.418,-9.136Z" style="fill-rule:nonzero;stroke:#000;stroke-width:6px;"/><path d="M489.661,282.203l8.966,-6.82c5.505,-4.185 5.761,-11.178 0.575,-15.618c-5.192,-4.44 -13.855,-4.646 -19.354,-0.461l-200.393,152.442c-9.397,-26.358 -16.381,-61.931 -17.993,-80.24c-4.666,-52.977 -54.569,-92.928 -116.082,-92.928c-61.51,0 -111.416,39.95 -116.083,92.928c-1.906,21.648 -11.317,67.423 -23.348,93.567c-5.263,11.43 1.017,23.857 14.601,28.907c10.372,3.855 25.911,8.643 46.634,12.483l-35.35,14.266c-19.635,7.926 -31.834,23.852 -31.834,41.57l1.695,137.067c0,6.101 2.566,6.346 10.129,6.346c7.562,0 14.001,2.326 14.001,-3.775l1.555,-139.638c0,-9.294 6.398,-17.648 16.699,-21.803l45.728,-18.454l15.903,12.197c11.113,8.522 25.365,12.787 39.638,12.787c14.299,0 28.616,-4.284 39.794,-12.859l27.251,-21.293c2.01,0.233 4.061,0.361 6.149,0.361l2.948,0c11.06,0 21.567,-3.385 29.547,-9.503l170.131,-129.421l19.445,15.693l-214.61,173.197c-13.641,11.01 -21.153,25.645 -21.153,41.212l1.41,156.912c0,6.102 11.781,4.691 19.343,4.691c1.307,0 5.55,3.326 5.622,-4.691c0.345,-38.221 1.006,-156.912 1.006,-156.912c0,-9.665 4.665,-18.753 13.133,-25.588l241.836,-195.17c10.611,-8.56 14.939,-21.176 11.299,-32.92l-8.838,-28.532Zm-401.869,165.086c-25.96,-3.65 -44.427,-9.155 -55.788,-13.379c-0.741,-0.275 -0.453,-1 -0.389,-1.141c5.836,-12.683 11.023,-29.205 15.167,-45.707c5.962,19.787 20.842,36.779 41.01,48.04l0,12.187Zm78.396,30.933c-11.666,8.949 -29.947,8.949 -41.617,0l-12.724,-9.758c2.146,-3.247 3.326,-6.928 3.326,-10.785l0,-11.766c9.544,2.407 19.692,3.705 30.207,3.705c10.839,0 21.295,-1.385 31.121,-3.929c1.613,6.211 5.293,11.815 10.43,16.323l-20.743,16.21Zm-20.808,-50.701c-40.86,0 -74.104,-26.827 -74.104,-59.804c0,-6.102 -6.127,-11.049 -13.69,-11.049c-1.537,0 -3.01,0.214 -4.39,0.591c1.669,-9.3 2.839,-17.671 3.414,-24.186c1.748,-19.84 11.574,-38.127 27.667,-51.488c16.238,-13.482 37.938,-20.907 61.105,-20.907c23.168,0 44.867,7.425 61.106,20.907c16.092,13.361 25.916,31.647 27.663,51.49c0.615,6.981 1.919,16.104 3.782,26.213c-14.745,-20.213 -38.677,-35.036 -70.141,-43.194c-27.457,-7.119 -51.073,-6.678 -52.055,-6.655c-3.585,0.081 -6.986,1.291 -9.474,3.374l-24.692,20.665c-5.249,4.392 -5.09,11.386 0.351,15.623c5.441,4.235 14.108,4.11 19.356,-0.284l20.544,-17.193c17.699,0.698 74.614,6.041 96.75,45.378c-5.571,28.99 -36.447,50.519 -73.192,50.519Zm86.836,20.163c-2.906,2.229 -6.715,3.456 -10.726,3.456l-2.948,0c-8.588,0 -15.573,-5.639 -15.573,-12.569c0,-0.193 0.01,-1.56 0.023,-3.379c20.125,-11.188 35.022,-28.131 40.985,-48.13c3.704,14.75 8.243,29.507 13.334,41.533l-25.095,19.089Zm235.626,-119.653l-7.867,6.349l-18.874,-15.232l25.723,-19.568l5.114,16.516c1.322,4.258 -0.25,8.831 -4.096,11.935Z" style="fill-rule:nonzero;"/><path d="M687.875,35.788l-9.604,0l18.178,-16.734c4.735,-4.359 4.735,-11.426 0,-15.783c-4.736,-4.359 -12.412,-4.359 -17.146,0l-18.177,16.732l0,-8.842c0,-6.164 -5.428,-11.161 -12.123,-11.161c-6.698,0 -12.124,4.997 -12.124,11.161l0,31.163l-9.525,8.768c-22.288,-17.001 -50.878,-27.234 -82.017,-27.234c-70.993,0 -128.749,53.169 -128.749,118.521c0,65.352 57.756,118.521 128.749,118.521c70.991,0 128.747,-53.169 128.747,-118.521c0,-28.666 -11.115,-54.985 -29.583,-75.503l9.522,-8.768l33.852,0c6.697,0 12.124,-4.997 12.124,-11.161c0,-6.164 -5.427,-11.159 -12.124,-11.159Zm-38.04,106.591c0,53.045 -46.877,96.199 -104.5,96.199c-57.622,0 -104.501,-43.155 -104.501,-96.199c0,-53.044 46.879,-96.2 104.501,-96.2c24.45,0 46.949,7.792 64.769,20.791l-73.343,67.517c-4.734,4.359 -4.734,11.426 0,15.783c2.369,2.179 5.472,3.27 8.574,3.27c3.102,0 6.206,-1.09 8.574,-3.27l36.236,-33.357c5.144,7.634 7.856,16.348 7.856,25.466c0,26.734 -23.625,48.484 -52.666,48.484c-29.04,0 -52.667,-21.75 -52.667,-48.484c0,-26.734 23.627,-48.485 52.667,-48.485c6.698,0 12.124,-4.997 12.124,-11.161c0,-6.163 -5.426,-11.16 -12.124,-11.16c-42.411,0 -76.915,31.763 -76.915,70.806c0,39.042 34.504,70.806 76.915,70.806c42.41,0 76.914,-31.764 76.914,-70.806c0,-15.073 -5.066,-29.405 -14.641,-41.543l19.643,-18.082c14.122,16.407 22.584,37.117 22.584,59.625Z" style="fill-rule:nonzero;"/><path d="M77.96,683.774l135.21,11.614" style="fill:none;stroke:#000;stroke-width:37px;stroke-linecap:round;stroke-miterlimit:1.5;"/></svg>