<svg id="_x33_0" enable-background="new 0 0 64 64" height="512" viewBox="0 0 64 64" width="512" xmlns="http://www.w3.org/2000/svg"><g><path d="m41 40c-.551 0-1-.448-1-1h-2c0 1.654 1.346 3 3 3s3-1.346 3-3h-2c0 .552-.449 1-1 1z"/><path d="m15 25h-1c-7.168 0-13 5.832-13 13v25h16v-8h1c4.411 0 8-3.589 8-8h4v-7c0-8.271-6.729-15-15-15zm-1 2h1c4.59 0 8.623 2.398 10.937 6h-8.937c-3.309 0-6 2.691-6 6v6c0 1.103-.897 2-2 2h-6v-9c0-6.065 4.935-11 11-11zm14 18h-4v2c0 3.309-2.691 6-6 6h-7v2h4v6h-12v-12h6c2.206 0 4-1.794 4-4v-6c0-2.206 1.794-4 4-4h9.997c.644 1.54 1.003 3.229 1.003 5z"/><path d="m23 40c-.551 0-1-.448-1-1h-2c0 1.654 1.346 3 3 3s3-1.346 3-3h-2c0 .552-.449 1-1 1z"/><path d="m38 11c-1.654 0-3 1.346-3 3s1.346 3 3 3 3-1.346 3-3-1.346-3-3-3zm0 4c-.551 0-1-.449-1-1s.449-1 1-1 1 .449 1 1-.449 1-1 1z"/><path d="m46 11c-1.654 0-3 1.346-3 3s1.346 3 3 3 3-1.346 3-3-1.346-3-3-3zm0 4c-.551 0-1-.449-1-1s.449-1 1-1 1 .449 1 1-.449 1-1 1z"/><path d="m57 14c0-1.654-1.346-3-3-3s-3 1.346-3 3 1.346 3 3 3 3-1.346 3-3zm-3 1c-.551 0-1-.449-1-1s.449-1 1-1 1 .449 1 1-.449 1-1 1z"/><path d="m57 23h3c1.654 0 3-1.346 3-3v-12c0-1.654-1.346-3-3-3h-25v-1c0-1.654-1.346-3-3-3h-28c-1.654 0-3 1.346-3 3v12c0 1.654 1.346 3 3 3h3v3.5c0 1.378 1.122 2.5 2.5 2.5.537 0 1.069-.177 1.5-.5l7.333-5.5h10.667v1c0 1.654 1.346 3 3 3h13.667l2.709 2.032c-7.981.331-14.376 6.908-14.376 14.968v7h4c0 4.411 3.589 8 8 8h1v8h16v-25c0-4.508-2.294-8.612-6.055-10.984.035-.167.055-.339.055-.516zm-39.333-6-7.866 5.899c-.31.233-.801-.014-.801-.399v-5.5h-5c-.551 0-1-.449-1-1v-12c0-.551.449-1 1-1h28c.551 0 1 .449 1 1v1h-1c-1.654 0-3 1.346-3 3v9zm14.333 4c-.551 0-1-.449-1-1v-12c0-.551.449-1 1-1h28c.551 0 1 .449 1 1v12c0 .551-.449 1-1 1h-5v5.5c0 .385-.492.63-.8.4l-7.867-5.9zm17 40v-6h4v-2h-7c-3.309 0-6-2.691-6-6v-2h-4v-5c0-1.771.359-3.46 1.003-5h9.997c2.206 0 4 1.794 4 4v6c0 2.206 1.794 4 4 4h6v12zm12-23v9h-6c-1.103 0-2-.897-2-2v-6c0-3.309-2.691-6-6-6h-8.937c2.314-3.602 6.347-6 10.937-6h1c.367 0 .73.032 1.091.068l1.91 1.433c.43.322.962.499 1.499.499.458 0 .882-.133 1.252-.349 3.248 1.997 5.248 5.489 5.248 9.349z"/><path d="m5 5h12v2h-12z"/><path d="m19 13h8v2h-8z"/><path d="m19 5h8v2h-8z"/><path d="m5 9h22v2h-22z"/><path d="m5 13h2v2h-2z"/><path d="m9 13h8v2h-8z"/></g></svg>