<svg height="512pt" viewBox="0 0 512 512" width="512pt" xmlns="http://www.w3.org/2000/svg"><path d="m474.984375 222.976562c-20.402344 0-37 16.597657-37 37v63.210938c0 16.164062-4.492187 31.726562-12.648437 45.128906-1.75-4.410156-4.390626-8.480468-7.84375-11.957031-9.917969-9.980469-24.8125-13.175781-37.953126-8.136719l-56.996093 21.851563c-33.421875 12.808593-58.523438 41.878906-66.550781 76.582031-8.027344-34.703125-33.132813-63.773438-66.550782-76.582031l-57-21.851563c-13.136718-5.039062-28.03125-1.84375-37.949218 8.136719-3.457032 3.476563-6.09375 7.546875-7.84375 11.957031-8.15625-13.402344-12.652344-28.964844-12.652344-45.128906v-63.210938c0-20.402343-16.597656-37-36.996094-37-20.402344 0-37 16.597657-37 37v86.8125c0 36.019532 10.875 70.6875 31.445312 100.253907 20.574219 29.566406 49.300782 51.8125 83.074219 64.328125 1.144531.425781 2.320313.628906 3.476563.628906 4.0625 0 7.882812-2.496094 9.375-6.527344 1.917968-5.179687-.722656-10.933594-5.898438-12.851562-60.695312-22.496094-101.472656-81.101563-101.472656-145.828125v-86.816407c0-9.375 7.625-17 17-17s17 7.625 17 17v63.210938c0 34.261719 16.402344 66.332031 44.023438 86.398438.75.578124 1.527343 1.128906 2.328124 1.652343.035157.023438.070313.046875.105469.070313.019531.015625.046875.027344.070313.042968.085937.054688.167968.117188.253906.171876l56.558594 35.578124c4.671875 2.9375 10.847656 1.535157 13.789062-3.140624 2.9375-4.675782 1.53125-10.847657-3.140625-13.789063l-56.347656-35.445313c-.582031-.402343-1.15625-.808593-1.722656-1.21875-3.160157-2.554687-5.195313-6.222656-5.660157-10.324218-.539062-4.71875 1.074219-9.359375 4.421876-12.726563 4.339843-4.367187 10.855468-5.765625 16.605468-3.5625l57 21.851563c28.523438 10.9375 49.628906 36.40625 55.074219 66.46875l8.792969 48.566406c.015625.070312.027344.128906.042968.191406.785157 3.898438 3.863282 7.113282 8.015626 7.867188.601562.105468 1.199218.160156 1.792968.160156 4.742188 0 8.953125-3.386719 9.828125-8.21875l8.796875-48.566406c5.441406-30.0625 26.546875-55.53125 55.074219-66.46875l56.996094-21.851563c5.746093-2.203125 12.265625-.804687 16.605469 3.5625 3.351562 3.371094 4.960937 8.007813 4.421874 12.726563-.464843 4.101562-2.5 7.769531-5.660156 10.324218-.570312.410157-1.140625.820313-1.722656 1.21875l-56.347656 35.445313c-4.675782 2.941406-6.078125 9.113281-3.140625 13.789063 2.941406 4.675781 9.117187 6.078124 13.789062 3.140624l56.558594-35.578124c.085937-.054688.167969-.117188.253906-.171876.023438-.015624.046875-.027343.070313-.042968.035156-.023438.066406-.050782.101562-.074219.804688-.519531 1.578125-1.070313 2.332032-1.648437 27.621093-20.0625 44.023437-52.136719 44.023437-86.398438v-63.210938c0-9.375 7.625-17 16.996094-17 9.375 0 17 7.625 17 17v86.816407c0 23.734375-5.539063 47.511719-16.023438 68.761719-2.441406 4.953124-.40625 10.949218 4.546875 13.394531 1.421875.699219 2.929688 1.03125 4.414063 1.03125 3.6875 0 7.234375-2.046875 8.976562-5.578125 11.832031-23.988282 18.085938-50.824219 18.085938-77.609375v-86.816407c.003906-20.402343-16.59375-37-36.996094-37zm0 0"/><path d="m469.191406 446.160156c-4.222656-3.5625-10.53125-3.027344-14.09375 1.195313l-.203125.238281c-3.582031 4.203125-3.082031 10.515625 1.121094 14.097656 1.882813 1.605469 4.1875 2.390625 6.484375 2.390625 2.824219 0 5.636719-1.191406 7.613281-3.511719l.269531-.320312c3.5625-4.21875 3.027344-10.527344-1.191406-14.089844zm0 0"/><path d="m427.246094 473.078125c-11.289063 8.117187-23.648438 14.691406-36.734375 19.542969-5.179688 1.917968-7.820313 7.671875-5.902344 12.851562 1.496094 4.035156 5.316406 6.527344 9.378906 6.527344 1.152344 0 2.328125-.203125 3.472657-.625 14.765624-5.476562 28.714843-12.894531 41.457031-22.058594 4.484375-3.222656 5.507812-9.472656 2.285156-13.957031-3.222656-4.480469-9.472656-5.503906-13.957031-2.28125zm0 0"/><path d="m189.996094 58.277344v21.066406c0 25.070312 9.761718 48.640625 27.488281 66.367188l24.363281 24.367187-24.363281 24.363281c-17.726563 17.730469-27.488281 41.296875-27.488281 66.371094v69.34375c0 5.519531 4.476562 10 9.996094 10 5.523437 0 10-4.480469 10-10v-37.832031h39c5.523437 0 10-4.476563 10-10 0-5.523438-4.476563-10-10-10h-39v-11.511719c0-5.707031.664062-11.3125 1.914062-16.738281.03125 0 .058594.003906.085938.003906h88.085937c1.25 5.425781 1.914063 11.027344 1.914063 16.730469v21.066406c-11.640626 4.128906-20 15.242188-20 28.28125 0 16.539062 13.457031 29.996094 29.996093 29.996094 16.542969 0 30-13.457032 30-29.996094 0-13.035156-8.359375-24.152344-20-28.28125v-21.0625c0-25.070312-9.761719-48.640625-27.488281-66.371094l-24.367188-24.363281 24.367188-24.367187c17.726562-17.726563 27.488281-41.296876 27.488281-66.367188v-69.34375c0-5.523438-4.476562-10-10-10-5.519531 0-9.996093 4.476562-9.996093 10v37.832031h-43.253907c-5.523437 0-10 4.476563-10 10 0 5.523438 4.476563 10 10 10h43.253907v11.511719c0 5.695312-.660157 11.285156-1.90625 16.699219h-88.1875c-1.246094-5.414063-1.90625-11.003907-1.90625-16.699219v-21.066406c11.640624-4.128906 20-15.242188 20-28.277344 0-16.542969-13.457032-30-30-30-16.539063 0-29.996094 13.457031-29.996094 30 0 13.035156 8.359375 24.148438 20 28.277344zm121.992187 261.878906c-5.511719 0-9.996093-4.488281-9.996093-10 0-5.515625 4.484374-10 9.996093-10 5.515625 0 10 4.484375 10 10 0 5.511719-4.484375 10-10 10zm-19.765625-96.078125h-72.460937c3.21875-5.59375 7.179687-10.808594 11.863281-15.496094l24.367188-24.363281 24.363281 24.363281c4.6875 4.6875 8.648437 9.902344 11.867187 15.496094zm.019532-108.035156c-3.222657 5.605469-7.1875 10.832031-11.886719 15.527343l-24.363281 24.363282-24.367188-24.363282c-4.695312-4.695312-8.660156-9.921874-11.882812-15.527343zm-92.25-96.042969c5.515624 0 10 4.484375 10 10 0 5.511719-4.484376 10-10 10-5.511719 0-9.996094-4.488281-9.996094-10 0-5.515625 4.484375-10 9.996094-10zm0 0"/><path d="m431.996094 180.964844h16.386718c5.519532 0 10-4.476563 10-10 0-5.523438-4.480468-10-10-10h-16.386718c-5.519532 0-9.996094 4.476562-9.996094 10 0 5.523437 4.476562 10 9.996094 10zm0 0"/><path d="m408.378906 155.023438c5.523438 0 10-4.476563 10-10v-14.453126c0-5.523437-4.476562-10-10-10-5.523437 0-10 4.476563-10 10v14.453126c0 5.523437 4.476563 10 10 10zm0 0"/><path d="m367.605469 180.964844h15.253906c5.519531 0 9.996094-4.476563 9.996094-10 0-5.523438-4.476563-10-9.996094-10h-15.253906c-5.523438 0-10 4.476562-10 10 0 5.523437 4.476562 10 10 10zm0 0"/><path d="m408.378906 219.582031c5.523438 0 10-4.476562 10-10v-11.636719c0-5.523437-4.476562-10-10-10-5.523437 0-10 4.476563-10 10v11.636719c0 5.523438 4.476563 10 10 10zm0 0"/><path d="m128.394531 74.886719h16.382813c5.523437 0 10-4.476563 10-10 0-5.523438-4.476563-10-10-10h-16.382813c-5.523437 0-10 4.476562-10 10 0 5.523437 4.476563 10 10 10zm0 0"/><path d="m104.773438 48.941406c5.523437 0 10-4.476562 10-9.996094v-14.453124c0-5.523438-4.476563-10-10-10-5.523438 0-10 4.476562-10 10v14.453124c0 5.519532 4.476562 9.996094 10 9.996094zm0 0"/><path d="m64 74.886719h15.25c5.523438 0 10-4.476563 10-10 0-5.523438-4.476562-10-10-10h-15.25c-5.523438 0-10 4.476562-10 10 0 5.523437 4.476562 10 10 10zm0 0"/><path d="m104.773438 113.503906c5.523437 0 10-4.476562 10-10v-11.640625c0-5.519531-4.476563-10-10-10-5.523438 0-10 4.480469-10 10v11.640625c0 5.523438 4.476562 10 10 10zm0 0"/></svg>