<svg id="icons" enable-background="new 0 0 64 64" height="512" viewBox="0 0 64 64" width="512" xmlns="http://www.w3.org/2000/svg"><path d="m62.999 21.002h-3v-4c0-.553-.447-1-1-1h-22.585l8.292-8.292c.041-.04.065-.095.1-.142.033-.047.069-.088.093-.139.01-.019.023-.033.031-.053.019-.045.018-.093.029-.14.016-.063.033-.122.036-.187.001-.019.011-.034.011-.053v.001c0-.046-.02-.089-.025-.134-.009-.064-.016-.126-.037-.188-.007-.021-.007-.041-.015-.062-.019-.044-.054-.077-.078-.118-.023-.041-.033-.086-.063-.124l-4.001-5c-.012-.015-.03-.021-.042-.035-.025-.028-.051-.054-.079-.079-.014-.013-.021-.03-.035-.042-.024-.02-.054-.023-.078-.04-.04-.026-.076-.054-.118-.074-.033-.016-.066-.026-.102-.038-.045-.016-.088-.026-.134-.035-.048-.01-.094-.019-.143-.021-.018 0-.032-.01-.051-.01h-16.01c-.02 0-.036.01-.056.012-.044.002-.085.01-.128.018-.05.01-.097.02-.145.037-.036.013-.07.024-.104.041-.039.019-.073.045-.11.069-.026.017-.057.021-.082.042-.015.012-.021.029-.035.042-.028.025-.054.051-.079.079-.013.014-.03.021-.042.035l-4.001 5.002c-.028.035-.037.078-.06.116-.026.043-.063.079-.082.127-.008.02-.008.041-.015.061-.021.063-.028.124-.037.188-.008.063-.019.124-.015.188.003.064.021.124.036.187.012.047.012.096.03.141.007.018.021.031.028.048.026.055.065.101.102.15.03.042.051.092.087.128l8.296 8.296h-7.169l-2.706-2.706c-.092-.093-.203-.166-.326-.217-.122-.051-.252-.077-.382-.077h-12c-.553 0-1 .447-1 1v7h-3c-.282 0-.552.119-.741.329-.189.207-.281.487-.253.769l4 40.002c.051.511.481.9.995.9h53.998c.514 0 .944-.39.995-.9l4-40.002c.028-.281-.064-.562-.254-.771-.189-.21-.459-.329-.741-.329zm-28.385-13.004-2.614 7.845-2.616-7.845zm-4.534-2 1.92-2.4 1.92 2.4zm6.642 2h4.868l-7.302 7.302zm1.363-2 1.92-2.4 1.921 2.4zm-2.083-.6-1.921-2.402h3.843zm-8.004 0-1.922-2.402h3.843zm-4.003-1.8 1.92 2.4h-3.84zm3.28 4.4 2.436 7.303-7.303-7.303zm-21.274 7.004h10.586l2.706 2.706c.092.093.203.166.326.217.122.051.252.077.382.077h9.583l1.709 1.709c.008.008.018.01.025.018.02.018.039.032.06.048.057.046.119.081.185.113.032.016.062.035.095.048.001 0 .002.001.003.001.009.003.015.011.023.014.002.001.004 0 .005.001.1.032.204.051.312.051s.212-.019.312-.051c.002-.001.003 0 .005-.001.009-.003.015-.01.023-.013.001-.001.002-.002.003-.002.034-.013.063-.032.095-.048.066-.032.129-.067.186-.114.02-.016.039-.029.058-.047.008-.008.019-.01.026-.018.002-.002.002-.004.004-.006l1.703-1.703h23.585v3h-52zm52.093 46.002h-52.188l-3.8-38.002h59.787z"/><path d="m38 44.01h-12c-.553 0-1 .447-1 1s.447 1 1 1h12c.553 0 1-.447 1-1s-.447-1-1-1z"/><path d="m47 40.01h-30c-.553 0-1 .447-1 1s.447 1 1 1h30c.553 0 1-.447 1-1s-.447-1-1-1z"/><path d="m47 36.01h-30c-.553 0-1 .447-1 1s.447 1 1 1h30c.553 0 1-.447 1-1s-.447-1-1-1z"/></svg>