<svg height="512" viewBox="0 0 512 512" width="512" xmlns="http://www.w3.org/2000/svg"><path d="m280 448h16v16h-16z"/><path d="m232 220.688a19.447 19.447 0 0 0 -5.656-13.657l-4.688-4.687a35.079 35.079 0 0 0 -24.968-10.344h-16.407l-29.625-44.438a8 8 0 0 0 -6.656-3.562h-24a7.992 7.992 0 0 0 -7.586 10.531l12.486 37.469h-17.588l-13.656-13.656a7.994 7.994 0 0 0 -5.656-2.344h-8a8 8 0 0 0 -8 8v48a8 8 0 0 0 8 8h44.9l-12.49 37.469a7.992 7.992 0 0 0 7.59 10.531h24a8 8 0 0 0 6.656-3.562l29.625-44.438h32.407a19.335 19.335 0 0 0 19.312-19.312zm-92.281-60.688 21.336 32h-19.289l-10.666-32zm0 112h-8.619l10.664-32h19.289zm-51.719-48v-28.688l10.344 10.344a7.994 7.994 0 0 0 5.656 2.344h92.688a19.191 19.191 0 0 1 13.656 5.656l4.687 4.688a3.314 3.314 0 0 1 -2.343 5.656z"/><path d="m272 176h16v16h-16z"/><path d="m272 208h16v16h-16z"/><path d="m272 240h16v16h-16z"/><path d="m312 240h48v16h-48z"/><path d="m312 208h48v16h-48z"/><path d="m312 176h48v16h-48z"/><path d="m312 144h48v16h-48z"/><path d="m48 144h48v16h-48z"/><path d="m200 272h48v16h-48z"/><path d="m424 213.274v-157.274a40.047 40.047 0 0 0 -40-40h-192a40.047 40.047 0 0 0 -40 40v40h16v-16h240v244.688l-16-16v-188.688a8 8 0 0 0 -8-8h-88a8 8 0 0 0 -6.656 3.562l-9.344 14.016-9.344-14.016a8 8 0 0 0 -6.656-3.562h-240a8 8 0 0 0 -8 8v192a8 8 0 0 0 8 8h240a8 8 0 0 0 6.656-3.562l9.344-14.016 9.344 14.016a8 8 0 0 0 6.656 3.562h16.363a35.886 35.886 0 0 0 10.262 21.938l59.075 59.078a78.67 78.67 0 0 0 -7.74 14.984h-205.96v-80h-16v120a40.047 40.047 0 0 0 40 40h296a8 8 0 0 0 8-8v-151.641a87.594 87.594 0 0 0 -21.453-57.559zm-232 266.726a24.027 24.027 0 0 1 -24-24v-24h201.613a77.581 77.581 0 0 0 7.752 48zm-24-416v-8a24.027 24.027 0 0 1 24-24h192a24.027 24.027 0 0 1 24 24v8zm146.287 240h-14.006l-12.281-18.422v-13.578h-16v13.578l-12.281 18.422h-227.719v-176h227.719l12.281 18.422v13.578h16v-13.578l12.281-18.422h75.719v164.688l-2.062-2.063a35.993 35.993 0 0 0 -13.938-8.541v-10.084h-48v16h13.833a36.2 36.2 0 0 0 -11.546 16zm165.713 176h-84.016a61.83 61.83 0 0 1 -.914-70.188l3.586-5.374a8 8 0 0 0 -1-10.094l-63.718-63.719a20.285 20.285 0 0 1 28.687-28.687l79.719 79.718 11.312-11.312-29.656-29.656v-101.227l38.188 49.484a72.01 72.01 0 0 1 17.812 47.414z"/><path d="m184 336h16v16h-16z"/><path d="m216 336h80v16h-80z"/><path d="m184 368h16v16h-16z"/><path d="m216 368h104v16h-104z"/></svg>