<?xml version="1.0" encoding="UTF-8" standalone="no"?><!DOCTYPE svg PUBLIC "-//W3C//DTD SVG 1.1//EN" "http://www.w3.org/Graphics/SVG/1.1/DTD/svg11.dtd"><svg width="100%" height="100%" viewBox="0 0 512 512" version="1.1" xmlns="http://www.w3.org/2000/svg" xmlns:xlink="http://www.w3.org/1999/xlink" xml:space="preserve" xmlns:serif="http://www.serif.com/" style="fill-rule:evenodd;clip-rule:evenodd;stroke-linejoin:round;stroke-miterlimit:2;"><path d="M452.852,239.828l-2.942,-23.492c-3.058,-24.473 -13.39,-47.102 -29.871,-65.445c-7.816,-8.696 -16.742,-16.102 -26.519,-22.11c0.007,-0.152 0.023,-0.297 0.023,-0.449l-20,-9.383c-4.992,-1.902 -10.125,-3.5 -15.395,-4.742c-27.961,-6.582 -57.406,-2.93 -82.914,10.293c-25.504,13.223 -45.461,35.18 -56.195,61.828l-1.648,4.09c-4.672,-15.988 -4.911,-32.992 -0.489,-49.492c1.43,-5.332 -1.738,-10.817 -7.07,-12.246c-5.336,-1.43 -10.816,1.738 -12.246,7.07c-6.109,22.793 -4.922,46.383 3.184,68.047l-9.629,-1.363c-28.446,-4.024 -57.438,2.277 -81.641,17.754c-24.203,15.476 -42.094,39.152 -50.371,66.66c-7.106,23.617 -6.824,48.492 0.824,71.937c7.645,23.445 22.078,43.707 41.738,58.594l18.875,14.293c37.282,28.226 77.356,51.168 119.106,68.183c1.933,0.79 3.871,1.563 5.812,2.332l11.739,4.633c8.769,3.465 17.929,5.18 27.054,5.18c12.7,0 25.321,-3.324 36.688,-9.887c17.039,-9.84 29.601,-26.414 34.465,-45.48c0.09,-0.352 0.293,-0.621 0.609,-0.801c0.313,-0.18 0.649,-0.223 0.996,-0.125c18.945,5.32 39.582,2.731 56.621,-7.109c19.532,-11.278 32.637,-30.539 35.949,-52.848l1.856,-12.484c0.309,-2.063 0.602,-4.129 0.887,-6.196c6.136,-44.668 6.308,-90.843 0.504,-137.242Zm-224.504,53.652c-5.801,21.649 -22.059,38.809 -43.09,45.907c-14.664,-16.664 -20.168,-39.653 -14.367,-61.301c5.8,-21.649 22.062,-38.809 43.093,-45.906c14.664,16.664 20.164,39.652 14.364,61.3Zm204.187,80.868c-0.273,1.996 -0.562,3.988 -0.855,5.98l-1.856,12.481c-2.414,16.238 -11.949,30.261 -26.168,38.468c-12.402,7.16 -27.422,9.047 -41.211,5.176c-5.57,-1.566 -11.394,-0.832 -16.406,2.059c-5.008,2.894 -8.555,7.574 -9.984,13.176c-3.539,13.878 -12.684,25.945 -25.086,33.105c-14.219,8.207 -31.129,9.457 -46.399,3.426l-11.738,-4.633c-1.871,-0.742 -3.742,-1.492 -5.605,-2.25c-40.141,-16.359 -78.692,-38.434 -114.586,-65.609l-18.875,-14.293c-33.239,-25.164 -47.5,-68.899 -35.485,-108.825c12.969,-43.089 51.899,-71.394 95.656,-71.394c4.75,0 9.563,0.336 14.403,1.019l0.359,0.055c-17.992,11.477 -31.433,29.383 -37.125,50.621c-8.176,30.512 0.918,63.074 23.735,84.977c1.882,1.808 4.375,2.789 6.925,2.789c0.797,0 1.598,-0.098 2.391,-0.293c30.707,-7.559 54.867,-31.211 63.043,-61.727c7.676,-28.644 0.129,-59.094 -19.699,-80.836c0.008,-0.062 0.015,-0.125 0.019,-0.187l9.602,-23.832c18.64,-46.274 67.418,-71.563 115.976,-60.125c40.582,9.554 71.329,43.773 76.504,85.144l2.938,23.492c5.59,44.668 5.429,89.094 -0.473,132.036Z" style="fill-rule:nonzero;stroke:#000;stroke-width:5.5px;"/><path d="M255.539,102.93c5.523,0 10,-5.872 10,-13.106l0,-85.402c0,-7.239 -4.477,-13.106 -10,-13.106c-5.52,0 -9.996,5.867 -9.996,13.106l0,85.402c0,7.234 4.476,13.106 9.996,13.106Z" style="fill-rule:nonzero;stroke:#000;stroke-width:5.5px;"/><path d="M123.847,147.579c5.523,0 10,-3.745 10,-8.363l0,-98.995c0,-4.621 -4.477,-8.366 -10,-8.366c-5.524,0 -10,3.745 -10,8.366l0,98.995c0,4.618 4.476,8.363 10,8.363Z" style="fill-rule:nonzero;stroke:#000;stroke-width:5.5px;"/><path d="M123.847,192.232c2.628,0 5.21,-1.071 7.07,-2.93c1.859,-1.859 2.93,-4.441 2.93,-7.07c0,-2.629 -1.071,-5.211 -2.93,-7.071c-1.86,-1.859 -4.442,-2.929 -7.07,-2.929c-2.629,0 -5.211,1.07 -7.071,2.929c-1.859,1.86 -2.929,4.442 -2.929,7.071c0,2.629 1.07,5.211 2.929,7.07c1.86,1.859 4.442,2.93 7.071,2.93Z" style="fill-rule:nonzero;stroke:#000;stroke-width:5.5px;"/></svg>