<svg id="Capa_1" enable-background="new 0 0 512 512" height="512" viewBox="0 0 512 512" width="512" xmlns="http://www.w3.org/2000/svg"><path d="m383.5 0h-255c-20.678 0-37.5 16.822-37.5 37.5v232.5c0 4.142 3.358 7.5 7.5 7.5s7.5-3.358 7.5-7.5v-195h300v332h-300v-107c0-4.142-3.358-7.5-7.5-7.5s-7.5 3.358-7.5 7.5v174.5c0 20.678 16.822 37.5 37.5 37.5h255c20.678 0 37.5-16.822 37.5-37.5v-437c0-20.678-16.822-37.5-37.5-37.5zm-277.5 60v-22.5c0-12.407 10.093-22.5 22.5-22.5h255c12.406 0 22.5 10.093 22.5 22.5v22.5zm277.5 437h-255c-12.407 0-22.5-10.093-22.5-22.5v-52.5h300v52.5c0 12.407-10.094 22.5-22.5 22.5z"/><path d="m256 437c-12.407 0-22.5 10.093-22.5 22.5s10.093 22.5 22.5 22.5c12.406 0 22.5-10.093 22.5-22.5s-10.094-22.5-22.5-22.5zm0 30c-4.136 0-7.5-3.364-7.5-7.5s3.364-7.5 7.5-7.5 7.5 3.364 7.5 7.5-3.364 7.5-7.5 7.5z"/><path d="m271 30h-30c-4.142 0-7.5 3.358-7.5 7.5s3.358 7.5 7.5 7.5h30c4.143 0 7.5-3.358 7.5-7.5s-3.357-7.5-7.5-7.5z"/><circle cx="301" cy="37.5" r="7.5"/><circle cx="211" cy="37.5" r="7.5"/><path d="m368.5 210c4.143 0 7.5-3.358 7.5-7.5v-30c0-37.22-30.28-67.5-67.5-67.5h-105c-37.22 0-67.5 30.28-67.5 67.5v30c0 4.142 3.358 7.5 7.5 7.5zm-217.5-37.5c0-28.949 23.551-52.5 52.5-52.5h105c28.948 0 52.5 23.551 52.5 52.5v22.5h-210z"/><path d="m121 285c0 16.542 13.458 30 30 30h71.894l15 15h-94.394c-4.142 0-7.5 3.358-7.5 7.5v2c0 20.678 16.822 37.5 37.5 37.5h165c20.678 0 37.5-16.822 37.5-37.5v-2c0-4.142-3.357-7.5-7.5-7.5h-94.393l15-15h71.893c16.542 0 30-13.458 30-30 0-9.798-4.722-18.512-12.009-23.991 3.152-4.175 4.735-9.263 4.484-14.586-.565-12.013-10.623-21.423-22.899-21.423h-209.152c-12.274 0-22.333 9.41-22.898 21.422-.251 5.325 1.332 10.413 4.484 14.587-7.288 5.479-12.01 14.193-12.01 23.991zm217.5 77h-165c-10.51 0-19.36-7.244-21.82-17h208.64c-2.461 9.756-11.31 17-21.82 17zm-187.5-62c-8.271 0-15-6.729-15-15s6.729-15 15-15h26.894l30 30zm210 0h-56.893l30-30h26.893c8.271 0 15 6.729 15 15s-6.729 15-15 15zm-215.428-47.325c-1.428-1.497-2.161-3.467-2.063-5.548.185-3.93 3.736-7.127 7.915-7.127h209.152c4.18 0 7.729 3.197 7.915 7.128.098 2.08-.635 4.05-2.063 5.547-1.43 1.499-3.358 2.325-5.428 2.325h-30c-1.989 0-3.896.79-5.304 2.197l-44.998 44.999c-.003.002-24.698 24.698-24.698 24.698l-69.697-69.697c-1.406-1.407-3.314-2.197-5.303-2.197h-30c-2.07 0-3.998-.826-5.428-2.325z"/><circle cx="301" cy="142.5" r="7.5"/><circle cx="256" cy="157.5" r="7.5"/><circle cx="211" cy="142.5" r="7.5"/></svg>