<svg height="512" viewBox="0 0 512 512" width="512" xmlns="http://www.w3.org/2000/svg"><g id="Outline"><path d="m488 352h-128v16h120v112h-72v16h80a8 8 0 0 0 8-8v-128a8 8 0 0 0 -8-8z"/><path d="m120 80a16.019 16.019 0 0 1 16-16h200v-16h-200a32.036 32.036 0 0 0 -32 32v32h16z"/><path d="m256 144h16v16h-16z"/><path d="m288 144h16v16h-16z"/><path d="m464 16h-80a32.036 32.036 0 0 0 -32 32v48a32.036 32.036 0 0 0 32 32v24a8 8 0 0 0 12.437 6.656l45.985-30.656h21.578a32.036 32.036 0 0 0 32-32v-48a32.036 32.036 0 0 0 -32-32zm16 80a16.019 16.019 0 0 1 -16 16h-24a8 8 0 0 0 -4.438 1.344l-35.562 23.708v-17.052a8 8 0 0 0 -8-8h-8a16.019 16.019 0 0 1 -16-16v-48a16.019 16.019 0 0 1 16-16h80a16.019 16.019 0 0 1 16 16z"/><path d="m384 48h16v16h-16z"/><path d="m416 48h48v16h-48z"/><path d="m384 80h80v16h-80z"/><path d="m136 80h16v16h-16z"/><path d="m168 80h16v16h-16z"/><path d="m200 80h16v16h-16z"/><path d="m24 496h136a8 8 0 0 0 8-8v-40l26.4 35.2a32.153 32.153 0 0 0 25.6 12.8h124a24.036 24.036 0 0 0 22.419-15.446l11.661 12.827 11.84-10.762-21.92-24.112v-10.507a24.027 24.027 0 0 0 -24-24h-7.371l-21.817-24h29.188a8 8 0 0 0 7.49-10.809l-19.947-53.191h92.457a32.036 32.036 0 0 0 32-32v-152h-16v120h-80v-32a40.045 40.045 0 0 0 -40-40h-.861a55.823 55.823 0 0 0 16.861-40v-48a32.036 32.036 0 0 0 -32-32h-48a32.036 32.036 0 0 0 -32 32v48a55.82 55.82 0 0 0 16.862 40h-.862a40.045 40.045 0 0 0 -40 40v32h-24v16h264v16a16.019 16.019 0 0 1 -16 16h-224v16h28.456l-11.946 31.857 14.98 5.619 14.054-37.476h68.912l18 48h-92.456v16h64l-5.92 5.381 16.925 18.619h-70.814l-60.07-86.769a40.008 40.008 0 0 0 -32.888-17.231h-7.233v-64h24a8 8 0 0 0 7.59-10.529l-16.95-50.86a74.158 74.158 0 0 0 -13.406-24.027 47.852 47.852 0 0 0 14.766-34.584 8 8 0 0 0 -8-8h-88a48.054 48.054 0 0 0 -48 48v312a8 8 0 0 0 8 8zm216-384a16.019 16.019 0 0 1 16-16h48a16.019 16.019 0 0 1 16 16v9.052l-11.563-7.708a7.992 7.992 0 0 0 -4.437-1.344h-48a8 8 0 0 0 -4.438 1.344l-11.562 7.708zm0 48v-19.719l18.422-12.281h43.156l18.422 12.281v19.719a40 40 0 0 1 -80 0zm80 112v-32h-16v32h-48v-32h-16v32h-24v-32a24.027 24.027 0 0 1 24-24h80a24.027 24.027 0 0 1 24 24v32zm32 176v24a8.009 8.009 0 0 1 -8 8h-32v-40h32a8.009 8.009 0 0 1 8 8zm-181.033-101.661 62.456 90.215a8 8 0 0 0 6.577 3.446h56v40h-76a16.076 16.076 0 0 1 -12.8-6.4l-40.8-54.4a8 8 0 0 0 -14.4 4.8v56h-120v-144h119.233a24.008 24.008 0 0 1 19.734 10.339zm-27.507-146.67 13.44 40.331h-20.9a8 8 0 0 0 -8 8v31.906a20.808 20.808 0 0 1 -16.845-11.484l-14.31 7.156a36.714 36.714 0 0 0 31.155 20.357v24.065h-96v-93.1l35.747-42.9h44.253a47.684 47.684 0 0 0 19.906-4.34 58.076 58.076 0 0 1 11.554 20.009zm-111.46-23.669a32.036 32.036 0 0 1 32-32h78.987a32.054 32.054 0 0 1 -30.987 24h-48a8 8 0 0 0 -6.146 2.878l-25.854 31.022z"/><circle cx="96" cy="224" r="16"/></g></svg>