<svg height="512" viewBox="0 0 64 64" width="512" xmlns="http://www.w3.org/2000/svg"><path d="m30 2h4v2h-4z"/><path d="m36 2h10v2h-10z"/><path d="m11 40h-8a1 1 0 0 0 -1 1v20a1 1 0 0 0 1 1h8a1 1 0 0 0 1-1v-20a1 1 0 0 0 -1-1zm-1 20h-6v-18h6z"/><path d="m23 36h-8a1 1 0 0 0 -1 1v24a1 1 0 0 0 1 1h8a1 1 0 0 0 1-1v-24a1 1 0 0 0 -1-1zm-1 24h-6v-22h6z"/><path d="m35 32h-8a1 1 0 0 0 -1 1v28a1 1 0 0 0 1 1h8a1 1 0 0 0 1-1v-28a1 1 0 0 0 -1-1zm-1 28h-6v-26h6z"/><path d="m47 28h-8a1 1 0 0 0 -1 1v32a1 1 0 0 0 1 1h8a1 1 0 0 0 1-1v-32a1 1 0 0 0 -1-1zm-1 32h-6v-30h6z"/><path d="m61.8 10.4-6-8a1.036 1.036 0 0 0 -1.6 0l-6 8a1 1 0 0 0 .8 1.6h2v49a1 1 0 0 0 1 1h6a1 1 0 0 0 1-1v-49h2a1 1 0 0 0 .8-1.6zm-3.8-.4a1 1 0 0 0 -1 1v49h-4v-49a1 1 0 0 0 -1-1h-1l4-5.333 4 5.333z"/><path d="m15 17a3 3 0 1 0 -3-3 3 3 0 0 0 3 3zm0-4a1 1 0 1 1 -1 1 1 1 0 0 1 1-1z"/><path d="m3 26h5v2a1.006 1.006 0 0 0 .168.555l2 3a1 1 0 0 0 1.664 0l.758-1.138 1.515 3.03a1 1 0 0 0 1.79 0l1.515-3.03.758 1.138a1 1 0 0 0 1.664 0l2-3a1.006 1.006 0 0 0 .168-.555v-2h5a1 1 0 0 0 .8-1.6l-5.8-7.733v-5.188a5 5 0 0 0 -1.2-3.252l-5.041-5.877a1.031 1.031 0 0 0 -1.518 0l-5.041 5.877a5 5 0 0 0 -1.2 3.252v5.188l-5.8 7.733a1 1 0 0 0 .8 1.6zm8 3.2-1-1.5v-1.7h2v1.7zm4 1.567-1-2v-2.767h2v2.764zm4-1.567-1-1.5v-1.7h2v1.7zm6-5.2h-3v-4zm-15-12.521a3 3 0 0 1 .723-1.952l4.277-4.99 4.278 4.99a3.009 3.009 0 0 1 .722 1.952v12.521h-4v-3h-2v3h-4zm-2 8.521v4h-3z"/><path d="m30 8h4v2h-4z"/><path d="m36 8h10v2h-10z"/><path d="m30 14h4v2h-4z"/><path d="m36 14h10v2h-10z"/><path d="m30 20h4v2h-4z"/><path d="m36 20h10v2h-10z"/></svg>