<svg height="512" viewBox="0 0 64 64" width="512" xmlns="http://www.w3.org/2000/svg"><path d="m61 25h-20v-1a3 3 0 0 0 -2-2.816v-5.184a7 7 0 0 0 -14 0v5.184a3 3 0 0 0 -2 2.816v1h-20a1 1 0 0 0 -1 1v12a1 1 0 0 0 1 1h1v23a1 1 0 0 0 1 1h6a1 1 0 0 0 1-1v-9h40v9a1 1 0 0 0 1 1h6a1 1 0 0 0 1-1v-23h1a1 1 0 0 0 1-1v-12a1 1 0 0 0 -1-1zm-55.586 12 10-10h8.172l-10 10zm23 0 10-10h9.172l-10 10zm-2.828 0h-9.172l10-10h9.172zm-13.586 2h40v8h-40zm28.414-2 10-10h8.172l-10 10zm-8.414-26a5.006 5.006 0 0 1 5 5v5h-10v-5a5.006 5.006 0 0 1 5-5zm-7 13a1 1 0 0 1 1-1h12a1 1 0 0 1 1 1v1h-14zm-12.414 3-8.586 8.586v-8.586zm-6.586 34v-22h4v22zm6-10v-2h40v2zm46 10h-4v-22h4zm-6.586-24 8.586-8.586v8.586z"/><path d="m31 2h2v4h-2z"/><path d="m22.515 5.515h2v4h-2z" transform="matrix(.707 -.707 .707 .707 1.574 18.828)"/><path d="m18 15h4v2h-4z"/><path d="m42 15h4v2h-4z"/><path d="m38.486 6.515h4v2h-4z" transform="matrix(.707 -.707 .707 .707 6.544 30.828)"/></svg>