<svg id="_x33_0" enable-background="new 0 0 64 64" height="512" viewBox="0 0 64 64" width="512" xmlns="http://www.w3.org/2000/svg"><path d="m9 45h2v2h-2z"/><path d="m13 45h2v2h-2z"/><path d="m17 45h2v2h-2z"/><path d="m15 33h-2c-2.206 0-4 1.794-4 4v6h10v-6c0-2.206-1.794-4-4-4zm2 8h-6v-4c0-1.103.897-2 2-2h2c1.103 0 2 .897 2 2z"/><path d="m23 55.101v-12.611l40.404-31.313-8.231-10.583-37.052 29.04c-.96-.408-2.014-.634-3.121-.634h-2c-4.411 0-8 3.589-8 8v18.101c-2.279.465-4 2.485-4 4.899v3h26v-3c0-2.414-1.721-4.434-4-4.899zm-.571-21.052 5.408 2.163-4.837 3.748v-2.96c0-1.043-.207-2.037-.571-2.951zm30.957-17.638-3.287 2.547-9.868-4.112 3.263-2.557zm-8.087-5.536 3.263-2.557 9.929 4.137-3.287 2.547zm2.982 9.492-3.287 2.547-9.831-4.096 3.263-2.557zm-5.105 3.956-3.287 2.547-9.794-4.081 3.263-2.557zm-5.104 3.957-3.287 2.547-9.756-4.065 3.263-2.557zm22.524-17.457-.287.222-9.943-4.143 4.461-3.496zm-37.372 17.353 9.743 4.06-3.297 2.555-9.299-3.72-.005.013c-.132-.12-.266-.238-.406-.349zm-16.224 8.824c0-3.309 2.691-6 6-6h2c3.309 0 6 2.691 6 6v18h-14zm18 24h-22v-1c0-1.654 1.346-3 3-3h16c1.654 0 3 1.346 3 3z"/><circle cx="14" cy="25" r="1"/><path d="m17.649 21.239c-1.945-1.658-5.354-1.658-7.299 0l1.299 1.521c1.186-1.012 3.516-1.012 4.701 0z"/><path d="m19.351 19.761 1.299-1.521c-3.48-2.971-9.818-2.971-13.299 0l1.299 1.521c2.749-2.348 7.951-2.348 10.701 0z"/></svg>