<?xml version="1.0" encoding="UTF-8" standalone="no"?><!DOCTYPE svg PUBLIC "-//W3C//DTD SVG 1.1//EN" "http://www.w3.org/Graphics/SVG/1.1/DTD/svg11.dtd"><svg width="100%" height="100%" viewBox="0 0 512 512" version="1.1" xmlns="http://www.w3.org/2000/svg" xmlns:xlink="http://www.w3.org/1999/xlink" xml:space="preserve" xmlns:serif="http://www.serif.com/" style="fill-rule:evenodd;clip-rule:evenodd;stroke-linejoin:round;stroke-miterlimit:2;"><g id="outline"><ellipse cx="218.704" cy="136.313" rx="8.412" ry="9.633"/><ellipse cx="285.998" cy="136.313" rx="8.412" ry="9.633"/><path d="M231.766,221.992c12.957,7.375 28.213,7.375 41.171,0c2.877,-1.615 4.708,-4.979 4.708,-8.649c0,-5.284 -3.797,-9.633 -8.412,-9.633c-1.328,0 -2.637,0.361 -3.821,1.051c-8.221,4.679 -17.901,4.679 -26.122,0c-1.183,-0.69 -2.493,-1.051 -3.821,-1.051c-4.615,0 -8.412,4.349 -8.412,9.633c0,3.67 1.831,7.034 4.709,8.649Z" style="fill-rule:nonzero;"/><path d="M100.94,415.67c13.844,0 25.236,-13.046 25.236,-28.899c0,-15.854 -11.392,-28.899 -25.236,-28.899c-13.843,0 -25.235,13.045 -25.235,28.899c0.016,15.847 11.398,28.881 25.235,28.899Zm0,-38.532c4.615,0 8.412,4.348 8.412,9.633c0,5.284 -3.797,9.633 -8.412,9.633c-4.614,0 -8.411,-4.349 -8.411,-9.633c0.005,-5.282 3.799,-9.627 8.411,-9.633Z" style="fill-rule:nonzero;"/><path d="M496.29,367.505l-75.705,0c-5.909,-0.005 -11.715,1.784 -16.823,5.184l0,-62.982c-0.142,-31.008 -18.833,-58.145 -45.131,-65.527c-5.307,-12.89 -16.678,-21.156 -29.123,-21.17l-5.79,0c2.875,-9.279 4.343,-19.053 4.338,-28.899l0,-19.266l4.206,0c16.151,0 29.441,-15.22 29.441,-33.716c0,-18.495 -13.29,-33.715 -29.441,-33.715l-4.206,0l0,-48.165c-0.026,-26.411 -18.995,-48.135 -42.058,-48.165l-126.176,0c-4.614,0 -8.411,4.348 -8.411,9.633c0,0.53 0.038,1.06 0.114,1.583l6.069,41.699c1.644,11.453 9.185,20.694 19.052,23.348l0,20.067l-4.206,0c-16.151,0 -29.441,15.22 -29.441,33.715c0,18.496 13.29,33.716 29.441,33.716l4.206,0l0,19.266c-0.004,9.846 1.463,19.62 4.338,28.899l-5.768,0c-12.426,0.038 -23.774,8.291 -29.087,21.155c-23.338,6.54 -41.002,28.698 -44.568,55.909l-93.149,0c-4.615,0 -8.412,4.348 -8.412,9.633l0,154.128c0,1.364 0.255,2.713 0.748,3.956c-0.497,1.838 -0.749,3.752 -0.748,5.677l0,19.266c0.011,10.564 7.598,19.253 16.823,19.266l471.056,0c9.225,-0.013 16.812,-8.702 16.823,-19.266l0,-19.266c-0.002,-4.726 -1.529,-9.288 -4.287,-12.803c2.799,-4.755 4.293,-10.362 4.287,-16.096l0,-67.431c0,-5.285 -3.797,-9.633 -8.412,-9.633Zm-8.411,77.064c-0.005,5.282 -3.799,9.627 -8.412,9.633l-33.647,0c-4.612,-0.006 -8.406,-4.351 -8.411,-9.633l0,-57.798l50.47,0l0,57.798Zm-294.41,9.633l0,-19.266l17.686,0c-0.564,3.154 -0.862,19.266 -0.862,19.266l-16.824,0Zm159.822,-38.532c4.615,0 8.412,-4.349 8.412,-9.633c0,-5.285 -3.797,-9.633 -8.412,-9.633l-16.823,0l0,-38.532l50.47,0l0,67.431c-0.016,15.847 -11.397,28.881 -25.235,28.899l-134.587,0l0,-9.633c-0.007,-4.887 1.085,-9.695 3.17,-13.959c4.415,-9.209 12.892,-14.949 22.065,-14.94l100.94,0Zm48.907,22.612c5.461,4.108 11.854,6.294 18.387,6.287c-0.001,3.282 0.488,6.54 1.447,9.633l-26.707,0c3.135,-4.771 5.466,-10.17 6.873,-15.92Zm18.387,-51.511l0,38.532c-9.229,0 -16.823,-8.697 -16.823,-19.266c0,-10.569 7.594,-19.266 16.823,-19.266Zm-33.647,-77.064l0,28.899l-58.882,0c-4.614,0 -8.411,4.348 -8.411,9.633l0,48.165l-67.294,0c-13.225,-0.008 -25.705,7.141 -33.631,19.266l-25.251,0l0,-86.697l8.412,0c3.922,-0.004 7.346,-3.149 8.201,-7.532c24.542,22.803 59.989,22.803 84.532,0c0.856,4.386 4.283,7.531 8.207,7.532l26.687,0c17.655,-0.022 32.176,-16.652 32.195,-36.869l0,-26.491c15.239,7.702 25.149,25.019 25.235,44.094Zm-92.528,-16.305c-9.312,16.177 -25.14,25.938 -42.059,25.938c-16.919,0 -32.747,-9.761 -42.058,-25.938l0,-27.231c25.397,19.476 58.719,19.476 84.117,0l0,27.231Zm50.47,-33.523l0,32.225c-0.009,9.653 -6.943,17.592 -15.372,17.603l-18.275,0l0,-67.431l18.275,0c8.429,0.01 15.363,7.95 15.372,17.603Zm-50.844,-78.963c-10.945,-9.721 -41.685,-14.93 -41.685,-14.93c0,0 6.816,-18.519 6.816,-20.04c0,-5.285 -5.862,-5.763 -10.476,-5.763c-3.205,0 -13.363,24.909 -12.955,27.043c-9.119,2.446 -17.67,7.116 -25.07,13.69l-17.197,-19.693l-0.255,-72.884l29.533,-0.191l87.192,-0.91l1.294,73.985l-17.197,19.693Zm38.226,-54.236c6.922,0 12.618,6.523 12.618,14.449c0,7.927 -5.696,14.45 -12.618,14.45l-4.206,0l0,-28.899l4.206,0Zm-158.074,-65.848l-4.436,-30.482l116.246,0c13.838,0.018 25.219,13.052 25.235,28.899l0,9.633l-128.747,0c-4.099,0.012 -7.634,-3.418 -8.298,-8.05Zm-1.748,94.747c-6.922,0 -12.618,-6.523 -12.618,-14.45c0,-7.926 5.696,-14.449 12.618,-14.449l4.206,0l0,28.899l-4.206,0Zm21.029,38.532l0,-5.644l10.875,12.456c1.577,1.806 3.718,2.821 5.949,2.821c2.23,0 4.371,-1.015 5.948,-2.821c9.17,-10.56 21.662,-16.486 34.666,-16.445l2.888,0c13.004,-0.041 25.496,5.885 34.666,16.445c1.577,1.806 3.718,2.821 5.949,2.821c2.23,0 4.371,-1.015 5.948,-2.821l10.875,-12.456l0,5.644c0.015,10.002 -1.939,19.88 -5.716,28.899l-2.696,0c-4.614,0 -8.411,4.348 -8.411,9.633l0,8.621c-1.008,1.179 -2.041,2.328 -3.116,3.412c-22.143,22.381 -55.741,22.381 -77.884,0c-1.077,-1.084 -2.11,-2.234 -3.117,-3.413l0,-8.62c0,-5.285 -3.798,-9.633 -8.412,-9.633l-2.696,0c-3.777,-9.019 -5.731,-18.897 -5.716,-28.899Zm-33.647,65.793c0.007,-1.565 0.205,-3.121 0.589,-4.624c0.011,-0.04 0.021,-0.081 0.031,-0.12c1.845,-7.575 7.906,-12.861 14.774,-12.884l18.253,0l0,67.431c0,-5.285 -3.797,-9.633 -8.412,-9.633l-23.507,0c-1.128,-2.468 -1.72,-5.21 -1.728,-7.995l0,-32.175Zm-16.823,5.714l0,26.461c0.001,2.689 0.261,5.371 0.777,7.995l-25.138,0c2.81,-15.289 11.887,-28.127 24.361,-34.456Zm-126.176,53.722l159.823,0l0,134.862l-159.823,0l0,-134.862Zm471.056,173.394l-471.056,0l0,-19.266l471.056,0l0.01,19.266l-0.01,0Z" style="fill-rule:nonzero;"/><path d="M428.997,348.239l16.823,0c0,-5.419 1.823,-7.731 5.948,-12.454c4.59,-5.256 10.876,-12.455 10.876,-26.078c0,-13.624 -6.286,-20.822 -10.876,-26.078c-4.125,-4.724 -5.948,-7.035 -5.948,-12.454l-16.823,0c0,13.623 6.285,20.822 10.875,26.078c4.125,4.723 5.948,7.035 5.948,12.454c0,5.419 -1.823,7.73 -5.948,12.454c-4.59,5.256 -10.875,12.454 -10.875,26.078Z" style="fill-rule:nonzero;"/><path d="M487.879,271.175l-16.824,0c0,13.623 6.286,20.822 10.876,26.078c4.124,4.723 5.948,7.035 5.948,12.454c0,5.419 -1.824,7.73 -5.948,12.454c-4.59,5.256 -10.876,12.454 -10.876,26.078l16.824,0c0,-5.419 1.823,-7.731 5.948,-12.454c4.589,-5.256 10.875,-12.455 10.875,-26.078c0,-13.624 -6.286,-20.822 -10.875,-26.078c-4.125,-4.724 -5.948,-7.035 -5.948,-12.454Z" style="fill-rule:nonzero;"/></g></svg>