<?xml version="1.0" encoding="UTF-8" standalone="no"?><!DOCTYPE svg PUBLIC "-//W3C//DTD SVG 1.1//EN" "http://www.w3.org/Graphics/SVG/1.1/DTD/svg11.dtd"><svg width="100%" height="100%" viewBox="0 0 500 502" version="1.1" xmlns="http://www.w3.org/2000/svg" xmlns:xlink="http://www.w3.org/1999/xlink" xml:space="preserve" xmlns:serif="http://www.serif.com/" style="fill-rule:evenodd;clip-rule:evenodd;stroke-linecap:round;stroke-linejoin:round;stroke-miterlimit:1.5;"><g id="Capa4"><path d="M152.9,162.032c6.057,7.859 11.434,6.7 16.79,0.932c2.559,-6.741 -1.165,-7.526 -8.068,-5.297c4.212,-12.397 -1.525,-12.512 -15.136,-4.969c-1.988,-14.335 -19.159,-9.117 -19.79,0c-8.446,-9.549 -24.461,-8.489 -23.515,4.194c-3.872,-2.026 -5.387,-1.529 -5.083,0.913c3.03,1.865 4.427,3.813 4.427,3.813c19.281,10.383 37.547,14.488 50.375,0.414Z" style="fill:#cff;"/><path d="M343.335,152.914c-4.388,3.93 -8.282,3.35 -12.161,0.467c-1.854,-3.371 0.843,-3.763 5.843,-2.649c-3.05,-6.198 1.105,-6.256 10.963,-2.485c1.44,-7.167 13.877,-4.558 14.334,0c6.117,-4.774 17.716,-4.244 17.031,2.097c2.805,-1.012 3.902,-0.764 3.682,0.457c-2.195,0.932 -3.207,1.906 -3.207,1.906c-13.964,5.192 -27.195,7.245 -36.485,0.207Z" style="fill:#cff;"/><path d="M369.568,166.553c-4.387,3.929 -8.282,3.35 -12.161,0.466c-1.853,-3.371 0.844,-3.763 5.844,-2.649c-3.051,-6.198 1.104,-6.256 10.963,-2.484c1.44,-7.168 13.876,-4.559 14.333,0c6.118,-4.775 17.717,-4.245 17.032,2.097c2.804,-1.013 3.901,-0.765 3.681,0.456c-2.195,0.932 -3.206,1.907 -3.206,1.907c-13.965,5.191 -27.195,7.244 -36.486,0.207Z" style="fill:#cff;"/><g><g><clipPath id="_clip1"><rect x="157.804" y="287.969" width="36.031" height="20.481"/></clipPath><g clip-path="url(#_clip1)"><ellipse cx="175.82" cy="291.434" rx="18.016" ry="26.562" style="fill:#0cf;"/></g><path d="M158.03,292.563c-9.592,-1.467 -7.141,7.727 2.433,10.316" style="fill:#0cf;stroke:#669;stroke-width:4.77px;"/></g><rect x="60.768" y="289.071" width="68.341" height="101.187" style="fill:#0cf;"/><rect x="71.394" y="210.641" width="41.591" height="79.618" style="fill:#0cf;"/><rect x="128.109" y="261.643" width="41.591" height="128.616" style="fill:#0cf;"/><rect x="387.672" y="260.279" width="41.591" height="128.616" style="fill:#0cf;"/><rect x="220.917" y="230.966" width="73.836" height="157.928" style="fill:#0cf;"/><rect x="84.191" y="188.2" width="17.74" height="22.441" style="fill:#0cf;"/><rect x="335.344" y="287.707" width="93.92" height="101.187" style="fill:#0cf;"/><rect x="351.467" y="230.966" width="41.591" height="57.928" style="fill:#0cf;"/><rect x="294.753" y="260.279" width="41.591" height="128.616" style="fill:#0cf;"/><rect x="362.522" y="197.645" width="17.74" height="33.322" style="fill:#0cf;"/><rect x="168.7" y="276.728" width="52.217" height="113.373" style="fill:#0cf;"/><rect x="179.326" y="188.2" width="41.591" height="101.901" style="fill:#0cf;"/><path d="M371.807,201.294l0,-24.447" style="fill:none;stroke:#0cf;stroke-width:3px;"/></g><path d="M341.98,308.45l-106.668,0l43.897,-146.948l22.902,0l39.869,146.948Z" style="fill:url(#_Linear2);"/><path d="M240.948,308.474l-106.668,0l43.897,-131.627l22.903,0l39.868,131.627Z" style="fill:url(#_Linear3);"/><path d="M432.005,255.466c0.36,0.167 -371.237,0 -371.237,0" style="fill:none;stroke:#000;stroke-width:3px;"/><g><clipPath id="_clip4"><rect x="166.603" y="287.644" width="34.37" height="20.83"/></clipPath><g clip-path="url(#_clip4)"><ellipse cx="183.788" cy="291.167" rx="17.185" ry="27.015" style="fill:#669;"/></g><path d="M166.819,292.316c-9.15,-1.492 -6.812,7.859 2.321,10.491" style="fill:none;stroke:#669;stroke-width:4.69px;"/></g><rect x="57.366" y="133.027" width="374.639" height="257.231" style="fill:none;stroke:#000;stroke-width:5px;"/><path d="M244.686,133.027l0,257.231" style="fill:none;stroke:#000;stroke-width:3px;"/><g><path d="M267.01,406.427c0,0 22.977,24.408 33.914,36.026c0.975,1.036 1.241,2.552 0.677,3.858c-0.564,1.306 -1.85,2.151 -3.273,2.151c-14.869,0 -46.057,0 -61.631,0c-1.596,0 -3.039,-0.948 -3.672,-2.413c-0.633,-1.465 -0.334,-3.167 0.76,-4.329c11.182,-11.878 33.225,-35.293 33.225,-35.293Z" style="fill:#33f;"/><rect x="251.386" y="361.662" width="31.248" height="65.782" style="fill:#33f;"/><rect x="209.232" y="320.474" width="112.485" height="6.08" style="fill:#009;"/><path d="M209.232,326.554l112.485,0c-14.2,12.714 -36.616,26.484 -36.964,41.352l-37.474,0.201c-0.655,-16.894 -22.455,-31.127 -38.047,-41.553Z" style="fill:#33f;"/></g><path d="M341.686,133.027l0,257.231" style="fill:none;stroke:#000;stroke-width:3px;"/><path d="M146.686,133.027l0,257.231" style="fill:none;stroke:#000;stroke-width:3px;"/><rect x="0" y="1.5" width="500" height="500" style="fill:#09f;fill-opacity:0.43;"/><g><rect x="222.931" y="296.86" width="49.706" height="11.614" style="fill:#33f;"/><g><rect x="219.916" y="287.018" width="55.469" height="9.842" style="fill:#939;"/><rect x="228.791" y="287.996" width="0.097" height="7.897" style="fill:#939;"/><rect x="224.411" y="287.996" width="0.097" height="7.897" style="fill:#939;"/></g><g><rect x="215.843" y="280.129" width="45.804" height="6.888" style="fill:#306;"/><rect x="254.239" y="280.806" width="0.08" height="5.527" style="fill:#306;stroke:#6d2b98;stroke-width:1.35px;"/><rect x="257.855" y="280.806" width="0.08" height="5.527" style="fill:#306;stroke:#6d2b98;stroke-width:1.35px;"/></g></g><g><clipPath id="_clip5"><rect x="258.519" y="1.5" width="60.948" height="171.7"/></clipPath><g clip-path="url(#_clip5)"><path d="M289.304,1.5l0,148.911" style="fill:none;stroke:#66c;stroke-width:3px;stroke-linecap:butt;"/><ellipse cx="289.877" cy="162.215" rx="11.932" ry="10.984" style="fill:#ffe292;"/><path d="M288.993,151.231l30.474,10.518l-60.948,0l30.474,-10.518Z" style="fill:#66c;stroke:#66c;stroke-width:3px;stroke-linecap:butt;"/></g></g><g><path d="M341.589,332.992c-1.566,0.408 -2.838,1.547 -3.414,3.059c-4.69,12.305 -25.746,67.558 -25.746,67.558l20.712,9.586c2.53,-10.746 58.819,-66.141 53.67,-91.963c0,0 -35.408,9.208 -45.222,11.76Z" style="fill:#966;"/><g><path d="M411.576,400.219c12.852,-0.058 25.703,-0.116 38.555,-0.174" style="fill:none;stroke:#036;stroke-width:6px;"/><path d="M416.792,366.383c-3.477,18.486 -6.955,36.972 -10.432,55.458" style="fill:none;stroke:#036;stroke-width:6px;"/><path d="M444.36,366.383c3.477,18.486 6.955,36.972 10.432,55.458" style="fill:none;stroke:#036;stroke-width:6px;"/><path d="M470.257,351.703c0,-2.701 -2.192,-4.894 -4.893,-4.894l-60.599,0c-2.701,0 -4.894,2.193 -4.894,4.894l0,9.787c0,2.701 2.193,4.893 4.894,4.893l60.599,0c2.701,0 4.893,-2.192 4.893,-4.893l0,-9.787Z" style="fill:#036;"/></g><path d="M313.578,424.806c-2.934,1.212 -5.515,4.97 -3.434,10.99c11.889,3.447 23.317,3.153 34.307,-0.711c0,0 1.635,-9.595 2.766,-8.046l0.165,7.986l3.638,-0.076l-0.388,-20.954c-9.509,3.775 -19.18,13.902 -27.954,7.474" style="fill:#603;"/><path d="M303.508,406.633c-2.934,1.212 -5.515,4.97 -3.434,10.99c11.889,3.446 23.317,3.153 34.307,-0.711c0,0 1.635,-9.595 2.766,-8.046l0.165,7.986l3.638,-0.076l-0.388,-20.954c-9.509,3.775 -19.18,13.902 -27.954,7.474" style="fill:#603;"/><path d="M458.145,296.559c0.735,3.719 0.493,3.925 -1.086,7.116c3.168,-3.48 3.524,-3.505 1.086,-7.116Z" style="fill:#fff;"/><path d="M392.104,242.05c3.312,0 6,2.408 6,5.375c0,2.966 -2.688,5.374 -6,5.374c-3.311,0 -6,-2.408 -6,-5.374c0,-2.967 2.689,-5.375 6,-5.375Zm0,2.687c1.656,0 3,1.204 3,2.688c0,1.483 -1.344,2.687 -3,2.687c-1.656,0 -3,-1.204 -3,-2.687c0,-1.484 1.344,-2.688 3,-2.688Z" style="fill:#f06;"/><path d="M389.303,289.644c-0.736,3.718 -0.493,3.925 1.085,7.116c-3.168,-3.48 -3.524,-3.505 -1.085,-7.116Z" style="fill:#fff;"/><path d="M449.225,308.325c-3.094,0.708 -6.505,1.086 -10.148,-0.093c-13.371,-6.617 -16.188,-1.932 -6.508,2.105l-8.384,-0.536c-6.364,3.039 -5.007,6.262 -1.326,9.636c9.436,1.252 18.742,1.951 27.514,0.386l-1.148,-11.498Z" style="fill:#966;"/><g><ellipse cx="412.034" cy="237.841" rx="21.524" ry="23.037" style="fill:#c99;"/><path d="M400.887,257.799l-6.613,7.327c4.495,12.878 27.835,6.419 32.234,-6.655l-3.219,-3.291l-22.402,2.619Z" style="fill:#c99;"/></g><path d="M427.157,245.45c10.423,-9.198 6.551,-18.875 -1.681,-18.308c-6.326,1.569 -11.421,-2.462 -14.892,-6.156l-10.014,3.595c-9.507,6.404 -11.162,24.382 -11.07,14.392c-7.439,-7.132 -8.219,-14.367 1.152,-19.875c-1.173,-10.121 25.872,-17.788 31.34,-11.748c9.948,-0.705 19.46,15.427 18.058,25.075c-2.363,16.266 -5.909,13.793 -12.893,13.025Z" style="fill:#633;stroke:#633;stroke-width:1px;"/><path d="M426.508,258.188c43.028,0.923 67.017,40.322 45.262,61.493c-5.944,5.784 -17.874,2.774 -31.031,2.895c-7.207,0.067 -24.044,1.256 -31.759,-0.03c-6.071,-1.012 -15.586,-5.078 -19.761,-5.103c-9.186,-0.055 1.169,2.054 -7.459,2.122c-3.839,0.031 -22.563,-9.98 -21.897,-19.448c0.099,-15.547 22.899,-29.284 37.206,-37.925c2.466,-1.49 3.898,9.649 11.786,8.912c5.062,-0.473 14.063,-8.857 17.653,-12.916Z" style="fill:#909;"/><path d="M344.319,344.383c-0.775,0.657 -1.331,1.534 -1.595,2.515c-2.881,10.705 -20.142,74.842 -20.142,74.842c-2.48,13.71 31.716,2.402 27.706,-10.843c3.301,-12.757 62.761,-48.364 57.293,-79.31l-35.947,-10.355c0,0 -21.918,18.576 -27.315,23.151Z" style="fill:#c99;"/><path d="M474.685,317.255c1.824,8.163 3.105,9.217 2.649,16.144c-1.08,16.394 -39.105,25.319 -70.659,18.522c0.916,4.04 -2.978,22.69 -10.249,21.972c-20.785,-2.051 -66.825,-36.643 -56.489,-46.523c13.95,-13.335 41.179,-19.827 61.199,-18.268l73.549,8.153Z" style="fill:#ccc;"/><path d="M430.296,196.141c0.643,-0.838 1.884,-1.468 3.263,-1.468c1.378,0 2.62,0.63 3.262,1.468c0.988,-0.415 2.388,-0.358 3.582,0.311c1.193,0.668 1.944,1.815 2.068,2.853c1.07,0.12 2.253,0.848 2.942,2.006c0.689,1.158 0.748,2.515 0.321,3.474c0.864,0.623 1.513,1.827 1.513,3.164c0,1.337 -0.649,2.541 -1.513,3.164c0.427,0.959 0.368,2.316 -0.321,3.474c-0.689,1.158 -1.872,1.886 -2.942,2.006c-0.124,1.038 -0.875,2.185 -2.068,2.853c-1.194,0.669 -2.594,0.725 -3.582,0.311c-0.642,0.838 -1.884,1.468 -3.262,1.468c-1.379,0 -2.62,-0.63 -3.263,-1.468c-0.988,0.414 -2.388,0.358 -3.581,-0.311c-1.194,-0.668 -1.945,-1.815 -2.069,-2.853c-1.07,-0.12 -2.252,-0.848 -2.941,-2.006c-0.69,-1.158 -0.748,-2.515 -0.321,-3.474c-0.864,-0.623 -1.513,-1.827 -1.513,-3.164c0,-1.337 0.649,-2.541 1.513,-3.164c-0.427,-0.959 -0.369,-2.316 0.321,-3.474c0.689,-1.158 1.871,-1.886 2.941,-2.006c0.124,-1.038 0.875,-2.185 2.069,-2.853c1.193,-0.669 2.593,-0.726 3.581,-0.311Z" style="fill:#633;"/><path d="M431.104,246.05c3.312,0 6,2.408 6,5.375c0,2.966 -2.688,5.374 -6,5.374c-3.311,0 -6,-2.408 -6,-5.374c0,-2.967 2.689,-5.375 6,-5.375Zm0,2.687c1.656,0 3,1.204 3,2.688c0,1.483 -1.344,2.687 -3,2.687c-1.656,0 -3,-1.204 -3,-2.687c0,-1.484 1.344,-2.688 3,-2.688Z" style="fill:#f06;"/><path d="M442.688,288.544c0,-3.897 -3.164,-7.06 -7.06,-7.06l-39.101,0c-3.897,0 -7.06,3.163 -7.06,7.06l0,14.12c0,3.897 3.163,7.06 7.06,7.06l39.101,0c3.896,0 7.06,-3.163 7.06,-7.06l0,-14.12Z"/><path d="M454.229,297.325c-3.094,0.708 -6.505,1.086 -10.148,-0.093c-13.37,-6.617 -16.187,-1.932 -6.508,2.105l-8.383,-0.536c-6.364,3.039 -5.008,6.262 -1.326,9.636c9.436,1.252 18.741,1.951 27.514,0.386l-1.149,-11.498Z" style="fill:#c99;"/><path d="M382.908,297.325c3.094,0.708 6.505,1.086 10.148,-0.093c13.371,-6.617 16.188,-1.932 6.508,2.105l8.384,-0.536c6.364,3.039 5.007,6.262 1.326,9.636c-9.436,1.252 -18.742,1.951 -27.514,0.386l1.148,-11.498Z" style="fill:#c99;"/></g><path d="M488.802,312.002c0,-1.947 -1.581,-3.528 -3.528,-3.528l-362.957,0c-1.948,0 -3.529,1.581 -3.529,3.528l0,7.056c0,1.948 1.581,3.529 3.529,3.529l362.957,0c1.947,0 3.528,-1.581 3.528,-3.529l0,-7.056Z" style="fill:#009;"/><g><clipPath id="_clip6"><rect x="332.53" y="287.969" width="36.031" height="20.481"/></clipPath><g clip-path="url(#_clip6)"><ellipse cx="350.546" cy="291.434" rx="18.016" ry="26.562" style="fill:#669;"/></g><path d="M368.335,292.563c9.592,-1.467 7.142,7.727 -2.432,10.316" style="fill:none;stroke:#669;stroke-width:4.77px;"/></g><g><g><path d="M41.534,408.219c12.852,-0.058 25.703,-0.116 38.555,-0.174" style="fill:none;stroke:#036;stroke-width:6px;"/><path d="M46.75,374.383c-3.477,18.486 -6.954,36.972 -10.431,55.458" style="fill:none;stroke:#036;stroke-width:6px;"/><path d="M74.319,374.383c3.477,18.486 6.954,36.972 10.431,55.458" style="fill:none;stroke:#036;stroke-width:6px;"/><path d="M100.216,359.703c0,-2.701 -2.193,-4.894 -4.894,-4.894l-60.599,0c-2.7,0 -4.893,2.193 -4.893,4.894l0,9.787c0,2.701 2.193,4.893 4.893,4.893l60.599,0c2.701,0 4.894,-2.192 4.894,-4.893l0,-9.787Z" style="fill:#036;"/></g><g><ellipse cx="68.986" cy="240.36" rx="19.967" ry="21.105" style="fill:#966;"/><path d="M79.326,258.643l6.134,6.713c-4.169,11.797 -25.82,5.88 -29.9,-6.097l2.986,-3.015l20.78,2.399Z" style="fill:#966;"/></g><path d="M169.637,404.474c-0.898,3.928 9.577,11.303 12.372,12.341c2.763,1.026 5.245,4.325 3.419,9.724c-10.727,3.345 -21.414,3.748 -32.042,0c0,0 -1.712,-8.515 -2.738,-7.115l0,7.115l-3.398,0l0,-18.032c8.2,-0.619 13.561,-0.638 22.437,-2.425" style="fill:#633;"/><path d="M134.837,411.552c-0.899,3.928 9.576,11.302 12.372,12.34c2.762,1.026 5.244,4.325 3.418,9.725c-10.727,3.344 -21.413,3.748 -32.042,0c0,0 -1.712,-8.516 -2.738,-7.115l0,7.115l-3.397,0l0,-18.032c8.2,-0.62 13.56,-0.639 22.436,-2.425" style="fill:#633;"/><path d="M10.878,330.56c-1.859,8.868 -3.164,10.014 -2.699,17.539c1.1,17.811 40.252,24.289 72.404,16.904c0.414,25.31 17.974,39.539 31.855,52.838l23.519,-4.976l-26.469,-66.586c11.139,29.064 22.343,51.681 38.265,64.274l23.36,-1.922c-4.25,-23.662 -11.095,-46.328 -22.931,-67.081l-62.36,-19.847l-74.944,8.857Z" style="fill:#ccc;"/><path d="M60.755,258.97c-43.844,1.003 -69.075,51.225 -46.907,74.226c6.057,6.284 18.213,3.013 31.62,3.145c7.343,0.072 24.5,1.364 32.361,-0.032c6.186,-1.099 15.882,-5.517 20.136,-5.544c9.36,-0.06 8.378,-7.559 5.202,-14.311c-1.525,-3.24 10.155,14.498 11.349,10.795l13.361,-15.307c-0.1,-16.891 -14.652,-34.329 -29.229,-43.717c-4.126,-2.657 -9.23,-2.184 -14.597,-4.63c-6.556,9.482 -13.938,6.655 -23.296,-4.625Z" style="fill:#f60;"/><path d="M27.732,308.076c-0.75,4.04 -0.503,4.264 1.106,7.731c-3.228,-3.781 -3.591,-3.808 -1.106,-7.731Z" style="fill:#fff;"/><path d="M111.043,307.607c0,0 50.501,-0.57 51.295,0c0.448,0.322 -12.682,34.872 -12.682,34.872l-51.008,-0.487l12.395,-34.385Z" style="fill:#666;"/><path d="M73.976,322.521c3.153,0.769 6.629,1.18 10.341,-0.101c13.624,-7.189 16.494,-2.099 6.631,2.287l8.543,-0.581c6.484,3.301 5.102,6.802 1.351,10.467c-9.615,1.361 -19.097,2.121 -28.036,0.42l1.17,-12.492Z" style="fill:#966;"/><g><path d="M56.79,260.189c14.327,35.959 26.914,35.181 27.373,3.818" style="fill:none;stroke:#003;stroke-width:1px;"/><path d="M69.268,279.407c0,-0.69 -0.56,-1.25 -1.25,-1.25l-2.5,0c-0.69,0 -1.25,0.56 -1.25,1.25l0,2.5c0,0.69 0.56,1.25 1.25,1.25l2.5,0c0.69,0 1.25,-0.56 1.25,-1.25l0,-2.5Z" style="fill:#009;stroke:#003;stroke-width:1px;"/><path d="M73.986,283.607c0,-0.69 -0.561,-1.25 -1.25,-1.25l-2.5,0c-0.69,0 -1.25,0.56 -1.25,1.25l0,2.5c0,0.69 0.56,1.25 1.25,1.25l2.5,0c0.689,0 1.25,-0.56 1.25,-1.25l0,-2.5Z" style="fill:#009;stroke:#003;stroke-width:1px;"/><path d="M78.986,285.042c0,-0.69 -0.561,-1.25 -1.25,-1.25l-2.5,0c-0.69,0 -1.25,0.56 -1.25,1.25l0,2.5c0,0.69 0.56,1.25 1.25,1.25l2.5,0c0.689,0 1.25,-0.56 1.25,-1.25l0,-2.5Z" style="fill:#009;stroke:#003;stroke-width:1px;"/><path d="M83.986,282.542c0,-0.69 -0.561,-1.25 -1.25,-1.25l-2.5,0c-0.69,0 -1.25,0.56 -1.25,1.25l0,2.5c0,0.69 0.56,1.25 1.25,1.25l2.5,0c0.689,0 1.25,-0.56 1.25,-1.25l0,-2.5Z" style="fill:#009;stroke:#003;stroke-width:1px;"/><path d="M85.256,277.542c0,-0.69 -0.561,-1.25 -1.25,-1.25l-2.5,0c-0.69,0 -1.25,0.56 -1.25,1.25l0,2.5c0,0.69 0.56,1.25 1.25,1.25l2.5,0c0.689,0 1.25,-0.56 1.25,-1.25l0,-2.5Z" style="fill:#009;stroke:#003;stroke-width:1px;"/><path d="M66.768,275.023c0,-0.69 -0.56,-1.25 -1.25,-1.25l-2.5,0c-0.69,0 -1.25,0.56 -1.25,1.25l0,2.5c0,0.69 0.56,1.25 1.25,1.25l2.5,0c0.69,0 1.25,-0.56 1.25,-1.25l0,-2.5Z" style="fill:#009;stroke:#003;stroke-width:1px;"/><path d="M85.718,272.523c0,-0.69 -0.56,-1.25 -1.25,-1.25l-2.5,0c-0.69,0 -1.25,0.56 -1.25,1.25l0,2.5c0,0.69 0.56,1.25 1.25,1.25l2.5,0c0.69,0 1.25,-0.56 1.25,-1.25l0,-2.5Z" style="fill:#009;stroke:#003;stroke-width:1px;"/><path d="M64.268,270.023c0,-0.69 -0.56,-1.25 -1.25,-1.25l-2.5,0c-0.69,0 -1.25,0.56 -1.25,1.25l0,2.5c0,0.69 0.56,1.25 1.25,1.25l2.5,0c0.69,0 1.25,-0.56 1.25,-1.25l0,-2.5Z" style="fill:#009;stroke:#003;stroke-width:1px;"/><path d="M75.774,287.104c0,-0.448 0.319,-0.812 0.712,-0.812c0.392,0 0.711,0.364 0.711,0.812c0.196,-0.388 0.632,-0.521 0.972,-0.297c0.34,0.223 0.456,0.72 0.26,1.108c0.34,-0.224 0.775,-0.091 0.972,0.297c0.196,0.387 0.079,0.884 -0.261,1.108c0.393,0 0.712,0.363 0.712,0.811c0,0.448 -0.319,0.811 -0.712,0.811c0.34,0.224 0.457,0.72 0.261,1.108c-0.197,0.388 -0.632,0.521 -0.972,0.297c0.196,0.388 0.08,0.884 -0.26,1.108c-0.34,0.224 -0.776,0.091 -0.972,-0.297c0,0.448 -0.319,0.811 -0.711,0.811c-0.393,0 -0.712,-0.363 -0.712,-0.811c-0.196,0.388 -0.631,0.521 -0.971,0.297c-0.34,-0.224 -0.457,-0.72 -0.261,-1.108c-0.34,0.224 -0.775,0.091 -0.971,-0.297c-0.197,-0.388 -0.08,-0.884 0.26,-1.108c-0.393,0 -0.711,-0.363 -0.711,-0.811c0,-0.448 0.318,-0.811 0.711,-0.811c-0.34,-0.224 -0.457,-0.721 -0.26,-1.108c0.196,-0.388 0.631,-0.521 0.971,-0.297c-0.196,-0.388 -0.079,-0.885 0.261,-1.108c0.34,-0.224 0.775,-0.091 0.971,0.297Z" style="fill:#009;stroke:#003;stroke-width:1px;"/></g><path d="M62.602,261.465c-3.683,-3.466 -9.024,-6.025 -10.783,-10.53c-0.936,-2.396 -0.152,-6.673 -0.461,-8.831c-0.784,-5.484 1.654,-9.733 5.586,-9.444c6.446,1.705 11.638,-2.674 15.175,-6.689l10.204,3.907c9.597,6.492 6.979,18.901 -4.27,30.74c10.317,-0.113 15.643,-4.251 15.549,-15.105c7.581,-7.748 6.885,-14.035 -2.663,-20.018c1.195,-10.996 -3.705,-13.315 -12.517,-10.066c-5.113,-6.419 -10.408,-7.678 -15.981,-1.116c-10.137,-0.766 -14.205,3.133 -13.422,10.764c-8.571,2.217 -7.925,8.023 -3.545,15.283c-2.347,13.597 4.688,21.213 17.128,21.105Z" style="stroke:#000;stroke-width:1px;"/></g><g><path d="M185.993,1.5l0,169.573" style="fill:none;stroke:#66c;stroke-width:3px;stroke-linecap:butt;"/><ellipse cx="186.877" cy="183.75" rx="11.932" ry="12.676" style="fill:#ffe292;"/><path d="M185.993,171.073l30.474,12.139l-60.948,0l30.474,-12.139Z" style="fill:#66c;stroke:#66c;stroke-width:3px;stroke-linecap:butt;"/></g><path d="M352.374,261.945l0.004,0.037l0.013,0.118l0.015,0.157l0.013,0.156l0.012,0.157l0.012,0.157l0.01,0.157l0.015,0.247l0.002,0.067l0.011,0.311l0.01,0.31l0.012,0.308l0.014,0.305l0.008,0.15l0.01,0.15l0.011,0.149l0.012,0.147l0.014,0.146l0.015,0.144l0.017,0.143l0.02,0.141l0.021,0.139l0.022,0.132l0.001,0.005l0.021,0.135l0.024,0.134l0.026,0.131l0.029,0.132l0.015,0.061l0.016,0.064l0.016,0.063l0.017,0.06l0.025,0.083l0.025,0.084l0.028,0.086l0.029,0.088l0.031,0.09l0.033,0.093l0.034,0.094l0.013,0.034l0.021,0.063l0.034,0.099l0.035,0.1l0.037,0.103l0.038,0.102l0.08,0.217l0.085,0.221l0.089,0.226l0.092,0.233l0.073,0.182l0.02,0.057l0.087,0.246l0.179,0.507l0.092,0.26l0.092,0.265l0.084,0.248l0.006,0.021l0.079,0.275l0.076,0.28l0.052,0.193l0.02,0.09l0.059,0.285l0.03,0.147l0.028,0.146l0.012,0.064l0.012,0.083l0.02,0.148l0.018,0.149l0.018,0.149l0.016,0.15l0.006,0.056l0.006,0.094l0.009,0.151l0.008,0.151l0.006,0.152l0.005,0.152l0.001,0.09l-0.001,0.062l-0.004,0.153l-0.007,0.153l-0.008,0.153l-0.01,0.153l-0.013,0.153l-0.014,0.153l-0.017,0.153l-0.02,0.152l-0.022,0.154l-0.025,0.156l-0.024,0.134l-0.005,0.023l-0.038,0.157l-0.041,0.156l-0.044,0.157l-0.047,0.157l-0.049,0.157l-0.052,0.157l-0.054,0.158l-0.056,0.158l-0.058,0.158l-0.058,0.154l-0.002,0.005l-0.067,0.158l-0.069,0.157l-0.071,0.158l-0.072,0.157l-0.073,0.157l-0.075,0.157l-0.075,0.157l-0.077,0.156l-0.069,0.139l-0.009,0.017l-0.084,0.153l-0.085,0.152l-0.086,0.152l-0.172,0.298l-0.172,0.294l-0.172,0.287l-0.17,0.28l-0.168,0.272l-0.164,0.263l-0.15,0.236l-0.011,0.015l-0.162,0.238l-0.155,0.224l-0.147,0.212l-0.139,0.196l-0.128,0.18l-0.222,0.309l-0.169,0.232l-0.108,0.146l-0.016,0.02l-0.022,0.03l-0.143,0.059l-0.059,-0.143l0.005,-0.036l0.004,-0.026l0.025,-0.178l0.037,-0.282l0.048,-0.374l0.027,-0.216l0.027,-0.236l0.029,-0.251l0.029,-0.267l0.028,-0.28l0.002,-0.019l0.035,-0.27l0.036,-0.3l0.035,-0.307l0.034,-0.315l0.031,-0.319l0.03,-0.324l0.027,-0.327l0.012,-0.161l0.011,-0.163l0.01,-0.162l0.001,-0.018l0.014,-0.142l0.014,-0.16l0.013,-0.158l0.012,-0.157l0.011,-0.155l0.01,-0.154l0.008,-0.151l0.006,-0.15l0.006,-0.147l0,-0.005l0.008,-0.138l0.008,-0.14l0.005,-0.137l0.004,-0.133l0.002,-0.129l0.001,-0.125l-0.002,-0.12l-0.004,-0.116l-0.005,-0.11l-0.008,-0.104l-0.001,-0.014l-0.003,-0.083l-0.006,-0.092l-0.007,-0.092l-0.008,-0.094l-0.011,-0.097l-0.011,-0.098l-0.013,-0.1l-0.015,-0.102l-0.017,-0.103l-0.017,-0.105l-0.02,-0.106l-0.008,-0.045l-0.009,-0.063l-0.016,-0.11l-0.018,-0.111l-0.019,-0.112l-0.02,-0.114l-0.014,-0.072l-0.006,-0.043l-0.018,-0.117l-0.019,-0.118l-0.02,-0.119l-0.021,-0.12l-0.012,-0.069l-0.007,-0.053l-0.017,-0.123l-0.016,-0.122l-0.038,-0.254l-0.013,-0.08l-0.019,-0.176l-0.03,-0.26l-0.033,-0.262l-0.003,-0.021l-0.02,-0.245l-0.023,-0.268l-0.024,-0.269l-0.05,-0.537l-0.025,-0.269l-0.006,-0.064l-0.01,-0.206l-0.012,-0.269l-0.01,-0.267l-0.009,-0.265l-0.006,-0.261l-0.002,-0.132l-0.001,-0.13l-0.001,-0.129l0.001,-0.128l0.001,-0.082l0.002,-0.045l0.006,-0.127l0.007,-0.126l0.008,-0.126l0.009,-0.124l0.011,-0.123l0.013,-0.122l0.014,-0.12l0.011,-0.09l0.013,-0.088l0.013,-0.088l0.014,-0.089l0.031,-0.169l0.035,-0.17l0.037,-0.167l0.04,-0.165l0.001,-0.006l0.045,-0.156l0.049,-0.16l0.05,-0.159l0.053,-0.156l0.054,-0.154l0.056,-0.153l0.057,-0.152l0.058,-0.149l0.059,-0.149l0.06,-0.148l0.122,-0.29l0.124,-0.288l0.123,-0.285l0.123,-0.284l0.026,-0.061l0.101,-0.221l0.063,-0.141l0.062,-0.141l0.061,-0.141l0.06,-0.142l0.059,-0.142l0.044,-0.109l0.014,-0.035l0.125,-0.102l0.092,0.132Z" style="fill:#cff;"/><path d="M183.318,266.415l0.014,0.034l0.044,0.11l0.059,0.142l0.06,0.142l0.061,0.141l0.062,0.141l0.063,0.141l0.101,0.221l0.026,0.061l0.123,0.284l0.124,0.285l0.123,0.288l0.122,0.29l0.06,0.148l0.059,0.148l0.058,0.15l0.057,0.151l0.056,0.153l0.054,0.155l0.053,0.156l0.051,0.158l0.048,0.161l0.045,0.156l0.002,0.006l0.04,0.165l0.037,0.167l0.034,0.17l0.031,0.169l0.014,0.089l0.014,0.088l0.012,0.088l0.012,0.09l0.014,0.119l0.012,0.123l0.011,0.123l0.009,0.124l0.009,0.125l0.007,0.126l0.006,0.127l0.001,0.046l0.001,0.082l0.001,0.128l0,0.129l-0.002,0.13l-0.002,0.132l-0.006,0.26l-0.008,0.266l-0.011,0.267l-0.012,0.269l-0.01,0.206l-0.006,0.063l-0.025,0.269l-0.05,0.538l-0.024,0.269l-0.023,0.268l-0.02,0.245l-0.003,0.021l-0.032,0.262l-0.031,0.259l-0.019,0.176l-0.012,0.08l-0.038,0.254l-0.017,0.122l-0.016,0.124l-0.007,0.053l-0.013,0.068l-0.021,0.121l-0.02,0.119l-0.019,0.118l-0.018,0.117l-0.006,0.043l-0.013,0.072l-0.021,0.114l-0.019,0.112l-0.017,0.111l-0.017,0.11l-0.008,0.063l-0.009,0.045l-0.019,0.106l-0.018,0.105l-0.016,0.103l-0.015,0.102l-0.013,0.1l-0.012,0.098l-0.01,0.096l-0.009,0.095l-0.007,0.092l-0.005,0.092l-0.003,0.083l-0.002,0.014l-0.007,0.104l-0.006,0.11l-0.003,0.115l-0.002,0.121l0,0.125l0.002,0.129l0.004,0.133l0.006,0.137l0.007,0.14l0.009,0.138l0,0.005l0.005,0.147l0.007,0.149l0.008,0.152l0.009,0.154l0.011,0.155l0.012,0.157l0.013,0.158l0.014,0.159l0.014,0.143l0.001,0.017l0.01,0.163l0.012,0.162l0.011,0.162l0.027,0.327l0.03,0.323l0.032,0.32l0.034,0.315l0.035,0.307l0.036,0.299l0.034,0.271l0.002,0.018l0.029,0.281l0.029,0.266l0.028,0.252l0.028,0.235l0.026,0.217l0.048,0.374l0.038,0.282l0.025,0.178l0.004,0.025l0.005,0.037l-0.059,0.143l-0.144,-0.059l-0.022,-0.03l-0.016,-0.021l-0.107,-0.146l-0.17,-0.231l-0.222,-0.309l-0.128,-0.18l-0.138,-0.197l-0.148,-0.211l-0.155,-0.225l-0.162,-0.237l-0.011,-0.016l-0.15,-0.236l-0.164,-0.262l-0.168,-0.272l-0.17,-0.28l-0.172,-0.287l-0.172,-0.294l-0.172,-0.298l-0.085,-0.152l-0.085,-0.153l-0.085,-0.153l-0.009,-0.017l-0.069,-0.138l-0.076,-0.156l-0.076,-0.157l-0.075,-0.157l-0.073,-0.157l-0.072,-0.158l-0.071,-0.157l-0.068,-0.158l-0.068,-0.157l-0.002,-0.006l-0.058,-0.153l-0.058,-0.158l-0.056,-0.158l-0.054,-0.158l-0.052,-0.157l-0.049,-0.158l-0.046,-0.156l-0.044,-0.157l-0.041,-0.157l-0.038,-0.156l-0.005,-0.023l-0.025,-0.134l-0.025,-0.156l-0.022,-0.154l-0.019,-0.153l-0.017,-0.152l-0.015,-0.153l-0.012,-0.153l-0.011,-0.153l-0.008,-0.153l-0.006,-0.153l-0.005,-0.153l-0.001,-0.063l0.002,-0.089l0.004,-0.152l0.006,-0.152l0.008,-0.151l0.009,-0.151l0.006,-0.095l0.006,-0.056l0.017,-0.149l0.017,-0.149l0.019,-0.149l0.02,-0.148l0.011,-0.083l0.012,-0.064l0.028,-0.146l0.03,-0.147l0.06,-0.285l0.019,-0.09l0.052,-0.194l0.077,-0.279l0.078,-0.275l0.006,-0.022l0.085,-0.247l0.092,-0.265l0.091,-0.26l0.179,-0.508l0.087,-0.245l0.02,-0.057l0.073,-0.182l0.093,-0.233l0.088,-0.227l0.085,-0.22l0.08,-0.217l0.038,-0.102l0.037,-0.103l0.035,-0.101l0.034,-0.098l0.021,-0.063l0.013,-0.034l0.034,-0.095l0.033,-0.092l0.031,-0.09l0.029,-0.088l0.028,-0.086l0.026,-0.084l0.024,-0.083l0.017,-0.061l0.017,-0.062l0.016,-0.064l0.015,-0.061l0.028,-0.132l0.026,-0.131l0.024,-0.134l0.021,-0.135l0.001,-0.005l0.023,-0.132l0.021,-0.14l0.019,-0.141l0.017,-0.142l0.016,-0.145l0.013,-0.145l0.013,-0.148l0.011,-0.148l0.009,-0.15l0.009,-0.15l0.014,-0.305l0.011,-0.308l0.011,-0.31l0.01,-0.312l0.003,-0.067l0.015,-0.246l0.01,-0.157l0.011,-0.157l0.012,-0.157l0.014,-0.157l0.015,-0.156l0.012,-0.118l0.004,-0.037l0.093,-0.133l0.124,0.103Z" style="fill:#cff;"/><path d="M347.802,271.567l0.011,0.025l0.033,0.08l0.045,0.104l0.046,0.104l0.047,0.103l0.095,0.207l0.078,0.162l0.019,0.044l0.189,0.416l0.094,0.211l0.094,0.213l0.046,0.108l0.045,0.109l0.045,0.11l0.043,0.112l0.043,0.112l0.041,0.114l0.041,0.115l0.038,0.117l0.038,0.118l0.035,0.121l0.03,0.122l0.028,0.124l0.026,0.125l0.024,0.128l0.021,0.13l0.018,0.13l0.01,0.091l0.009,0.092l0.007,0.091l0.007,0.093l0.006,0.093l0.004,0.094l0.004,0.094l0.002,0.043l0,0.052l0,0.095l-0.002,0.098l-0.003,0.19l-0.006,0.195l-0.008,0.196l-0.01,0.197l-0.011,0.199l-0.009,0.162l-0.004,0.037l-0.021,0.198l-0.04,0.396l-0.04,0.396l-0.017,0.189l-0.001,0.006l-0.026,0.192l-0.024,0.19l-0.016,0.138l-0.008,0.049l-0.03,0.184l-0.026,0.18l-0.006,0.049l-0.025,0.131l-0.015,0.084l-0.015,0.085l-0.013,0.085l-0.007,0.041l-0.008,0.043l-0.016,0.082l-0.014,0.081l-0.014,0.08l-0.012,0.08l-0.008,0.055l-0.004,0.022l-0.015,0.077l-0.014,0.075l-0.012,0.074l-0.011,0.073l-0.01,0.072l-0.009,0.07l-0.007,0.069l-0.007,0.068l-0.005,0.065l-0.004,0.065l-0.003,0.071l-0.005,0.073l-0.004,0.08l-0.003,0.083l-0.001,0.087l0.001,0.091l0.002,0.094l0.003,0.097l0.005,0.1l0.006,0.102l0.008,0.105l0.001,0.012l0.004,0.096l0.006,0.109l0.007,0.111l0.008,0.113l0.009,0.115l0.01,0.113l0.023,0.235l0.014,0.12l0.008,0.118l0.02,0.24l0.023,0.24l0.025,0.238l0.027,0.236l0.028,0.233l0.029,0.227l0.03,0.221l0.03,0.209l0.001,0.004l0.024,0.208l0.025,0.197l0.023,0.186l0.046,0.335l0.04,0.277l0.031,0.208l0.024,0.152l0.004,0.027l-0.042,0.108l-0.109,-0.042l-0.017,-0.021l-0.095,-0.122l-0.13,-0.168l-0.172,-0.225l-0.205,-0.274l-0.113,-0.154l-0.12,-0.164l-0.125,-0.173l-0.003,-0.004l-0.12,-0.179l-0.127,-0.192l-0.129,-0.198l-0.132,-0.205l-0.132,-0.21l-0.133,-0.215l-0.132,-0.219l-0.132,-0.222l-0.063,-0.11l-0.061,-0.116l-0.117,-0.228l-0.058,-0.117l-0.057,-0.115l-0.056,-0.116l-0.054,-0.116l-0.053,-0.116l-0.047,-0.103l-0.005,-0.013l-0.046,-0.117l-0.045,-0.117l-0.044,-0.117l-0.041,-0.117l-0.04,-0.116l-0.038,-0.117l-0.036,-0.116l-0.034,-0.117l-0.032,-0.116l-0.029,-0.115l0,-0.002l-0.023,-0.118l-0.019,-0.116l-0.017,-0.115l-0.015,-0.114l-0.013,-0.115l-0.011,-0.114l-0.009,-0.114l-0.008,-0.114l-0.006,-0.114l-0.004,-0.114l-0.003,-0.114l-0.001,-0.032l0.002,-0.082l0.004,-0.113l0.005,-0.112l0.006,-0.113l0.008,-0.112l0.004,-0.057l0.006,-0.055l0.013,-0.111l0.014,-0.11l0.015,-0.113l0.023,-0.158l0.011,-0.058l0.045,-0.215l0.047,-0.212l0.014,-0.056l0.042,-0.153l0.06,-0.206l0.061,-0.203l0.002,-0.006l0.068,-0.192l0.141,-0.384l0.139,-0.372l0.067,-0.18l0.012,-0.034l0.06,-0.14l0.071,-0.17l0.067,-0.166l0.065,-0.16l0.061,-0.156l0.058,-0.153l0.027,-0.071l0.026,-0.072l0.013,-0.038l0.012,-0.032l0.026,-0.068l0.025,-0.067l0.024,-0.065l0.022,-0.064l0.021,-0.062l0.019,-0.06l0.018,-0.057l0.026,-0.092l0.023,-0.091l0.022,-0.094l0.019,-0.095l0.018,-0.097l0.016,-0.098l0.017,-0.101l0.016,-0.101l0.014,-0.103l0.012,-0.105l0.012,-0.105l0.009,-0.107l0.009,-0.108l0.008,-0.109l0.006,-0.11l0.006,-0.111l0.009,-0.224l0.007,-0.227l0.012,-0.459l0.002,-0.048l0.01,-0.183l0.014,-0.232l0.009,-0.116l0.009,-0.115l0.011,-0.115l0.009,-0.088l0.003,-0.027l0.069,-0.1l0.094,0.076Z" style="fill:#cff;"/><path d="M189.04,260.652l0.003,0.028l0.009,0.087l0.011,0.115l0.009,0.116l0.009,0.116l0.014,0.231l0.01,0.183l0.002,0.049l0.012,0.458l0.007,0.227l0.009,0.225l0.006,0.11l0.006,0.11l0.008,0.109l0.008,0.108l0.01,0.107l0.012,0.106l0.012,0.104l0.014,0.103l0.016,0.102l0.017,0.1l0.016,0.098l0.018,0.097l0.019,0.095l0.022,0.094l0.023,0.092l0.026,0.091l0.018,0.058l0.019,0.06l0.021,0.062l0.022,0.063l0.024,0.065l0.025,0.067l0.026,0.068l0.012,0.032l0.013,0.038l0.026,0.072l0.027,0.071l0.058,0.153l0.061,0.156l0.064,0.161l0.068,0.165l0.071,0.17l0.06,0.141l0.012,0.033l0.067,0.18l0.139,0.373l0.141,0.383l0.068,0.192l0.002,0.007l0.061,0.202l0.06,0.206l0.042,0.153l0.014,0.056l0.047,0.213l0.044,0.215l0.012,0.057l0.023,0.158l0.015,0.113l0.014,0.11l0.013,0.111l0.006,0.055l0.004,0.057l0.008,0.112l0.006,0.113l0.005,0.113l0.004,0.113l0.002,0.081l-0.001,0.032l-0.003,0.114l-0.004,0.114l-0.006,0.114l-0.008,0.114l-0.009,0.114l-0.011,0.115l-0.013,0.114l-0.015,0.114l-0.017,0.115l-0.02,0.117l-0.022,0.117l0,0.002l-0.029,0.115l-0.032,0.117l-0.034,0.116l-0.036,0.116l-0.038,0.117l-0.04,0.117l-0.042,0.116l-0.043,0.117l-0.045,0.117l-0.046,0.117l-0.006,0.013l-0.046,0.103l-0.053,0.116l-0.054,0.116l-0.056,0.116l-0.057,0.115l-0.058,0.117l-0.117,0.228l-0.061,0.116l-0.063,0.11l-0.132,0.222l-0.132,0.219l-0.133,0.215l-0.132,0.21l-0.132,0.205l-0.129,0.198l-0.127,0.192l-0.12,0.179l-0.003,0.005l-0.125,0.173l-0.12,0.163l-0.113,0.154l-0.205,0.274l-0.172,0.225l-0.13,0.169l-0.095,0.121l-0.017,0.021l-0.109,0.043l-0.043,-0.109l0.005,-0.027l0.024,-0.151l0.031,-0.209l0.04,-0.277l0.046,-0.335l0.023,-0.186l0.025,-0.197l0.024,-0.207l0.001,-0.005l0.029,-0.209l0.031,-0.221l0.029,-0.227l0.028,-0.232l0.027,-0.237l0.025,-0.238l0.023,-0.24l0.02,-0.24l0.008,-0.118l0.014,-0.119l0.023,-0.235l0.01,-0.114l0.009,-0.114l0.008,-0.113l0.007,-0.112l0.006,-0.109l0.004,-0.096l0.001,-0.012l0.008,-0.104l0.006,-0.103l0.005,-0.099l0.003,-0.097l0.002,-0.095l0.001,-0.09l-0.001,-0.088l-0.003,-0.083l-0.004,-0.079l-0.005,-0.074l0,-0.001l-0.003,-0.069l-0.004,-0.066l-0.005,-0.065l-0.007,-0.068l-0.007,-0.069l-0.009,-0.07l-0.01,-0.071l-0.011,-0.073l-0.012,-0.075l-0.014,-0.075l-0.015,-0.076l-0.004,-0.022l-0.008,-0.056l-0.013,-0.079l-0.013,-0.081l-0.014,-0.081l-0.016,-0.082l-0.008,-0.043l-0.007,-0.041l-0.013,-0.085l-0.015,-0.085l-0.015,-0.084l-0.025,-0.131l-0.006,-0.048l-0.026,-0.181l-0.03,-0.183l-0.008,-0.05l-0.016,-0.138l-0.024,-0.19l-0.026,-0.192l-0.001,-0.006l-0.017,-0.188l-0.04,-0.397l-0.04,-0.395l-0.021,-0.199l-0.004,-0.037l-0.009,-0.162l-0.011,-0.198l-0.01,-0.198l-0.008,-0.196l-0.006,-0.195l-0.004,-0.19l-0.001,-0.098l0,-0.095l0,-0.052l0.002,-0.043l0.003,-0.094l0.005,-0.094l0.006,-0.093l0.007,-0.092l0.007,-0.092l0.009,-0.091l0.01,-0.092l0.018,-0.13l0.021,-0.13l0.024,-0.127l0.026,-0.126l0.028,-0.124l0.03,-0.122l0.035,-0.12l0.038,-0.119l0.038,-0.117l0.041,-0.115l0.041,-0.114l0.043,-0.112l0.043,-0.111l0.045,-0.111l0.045,-0.109l0.046,-0.108l0.094,-0.213l0.094,-0.211l0.189,-0.416l0.019,-0.043l0.078,-0.163l0.095,-0.207l0.047,-0.103l0.046,-0.103l0.045,-0.104l0.033,-0.08l0.011,-0.025l0.094,-0.077l0.069,0.1Z" style="fill:#cff;"/></g><defs><linearGradient id="_Linear2" x1="0" y1="0" x2="1" y2="0" gradientUnits="userSpaceOnUse" gradientTransform="matrix(6.86115e-15,-133.057,112.051,8.14738e-15,288.646,294.559)"><stop offset="0" style="stop-color:#ffc;stop-opacity:0.31"/><stop offset="0.57" style="stop-color:#ffffb0;stop-opacity:0.31"/><stop offset="0.8" style="stop-color:#ffff75;stop-opacity:0.31"/><stop offset="1" style="stop-color:#ffff3d;stop-opacity:0.31"/></linearGradient><linearGradient id="_Linear3" x1="0" y1="0" x2="1" y2="0" gradientUnits="userSpaceOnUse" gradientTransform="matrix(6.86115e-15,-119.184,112.051,7.29791e-15,187.614,296.031)"><stop offset="0" style="stop-color:#ffc;stop-opacity:0.31"/><stop offset="0.57" style="stop-color:#ffffb0;stop-opacity:0.31"/><stop offset="0.8" style="stop-color:#ffff75;stop-opacity:0.31"/><stop offset="1" style="stop-color:#ffff3d;stop-opacity:0.31"/></linearGradient></defs></svg>