<?xml version="1.0" encoding="UTF-8" standalone="no"?><!DOCTYPE svg PUBLIC "-//W3C//DTD SVG 1.1//EN" "http://www.w3.org/Graphics/SVG/1.1/DTD/svg11.dtd"><svg width="100%" height="100%" viewBox="0 0 497 515" version="1.1" xmlns="http://www.w3.org/2000/svg" xmlns:xlink="http://www.w3.org/1999/xlink" xml:space="preserve" xmlns:serif="http://www.serif.com/" style="fill-rule:evenodd;clip-rule:evenodd;stroke-linecap:square;stroke-miterlimit:1.5;"><rect x="76.111" y="114.471" width="319.083" height="152.132" style="fill:#9cf;"/><path d="M277.399,153.044c0.883,0 2.096,-0.421 2.865,-0.826c0.226,-0.119 0.72,0.076 0.933,0.102c0.71,0.089 0.988,0.25 1.581,0.454c0.328,0.113 0.715,0.015 1.044,0.128c0.423,0.146 0.599,-0.524 0.959,-0.524" style="fill:none;stroke:#000;stroke-width:0.65px;"/><path d="M182.542,155.053c0.883,0 2.095,-0.421 2.864,-0.826c0.227,-0.119 0.72,0.076 0.934,0.102c0.709,0.089 0.988,0.25 1.581,0.455c0.328,0.113 0.715,0.014 1.043,0.127c0.424,0.146 0.599,-0.524 0.96,-0.524" style="fill:none;stroke:#000;stroke-width:0.65px;"/><path d="M228.809,152.18c0.883,0 2.095,-0.421 2.864,-0.826c0.227,-0.119 0.72,0.076 0.934,0.102c0.709,0.089 0.988,0.25 1.581,0.454c0.328,0.113 0.715,0.015 1.043,0.128c0.424,0.146 0.599,-0.524 0.96,-0.524" style="fill:none;stroke:#000;stroke-width:0.65px;"/><rect x="319.444" y="145.242" width="16.777" height="15.36" style="fill:#f63;"/><rect x="318.593" y="170.525" width="16.777" height="15.36" style="fill:#f63;"/><rect x="318.218" y="191.023" width="16.777" height="15.36" style="fill:#f63;"/><rect x="296.594" y="212.361" width="16.777" height="15.36" style="fill:#f63;"/><rect x="246.007" y="221.684" width="16.777" height="15.36" style="fill:#06f;"/><rect x="269.528" y="221.684" width="16.777" height="15.36" style="fill:#06f;"/><rect x="249.968" y="145.242" width="16.777" height="15.36" style="fill:#f39;"/><rect x="249.155" y="170.525" width="16.777" height="15.36" style="fill:#f39;"/><path d="M276.231,179.966c1.299,0 2.583,-0.452 3.897,-0.291c0.115,0.015 0.219,0.297 0.382,0.354c0.513,0.176 1.209,-0.177 1.722,0c0.371,0.128 0.747,0.299 1.187,0.207c0.276,-0.058 0.491,-0.271 0.774,-0.271c0.063,0 1.088,0.263 1.088,0.118" style="fill:none;stroke:#000;stroke-width:0.65px;"/><rect x="272.875" y="170.525" width="16.777" height="15.36" style="fill:#f63;"/><rect x="272.368" y="145.242" width="16.777" height="15.36" style="fill:#f39;"/><rect x="202.043" y="145.242" width="16.777" height="15.36" style="fill:#0f3;"/><rect x="155.873" y="145.242" width="16.777" height="15.36" style="fill:#0f3;"/><rect x="179.593" y="170.525" width="16.777" height="15.36" style="fill:#0f3;"/><rect x="179.122" y="145.242" width="16.777" height="15.36" style="fill:#0f3;"/><rect x="203.312" y="170.525" width="16.777" height="15.36" style="fill:#0f3;"/><rect x="202.043" y="193.472" width="16.777" height="15.36" style="fill:#0f3;"/><path d="M183.457,150.132c1.298,0 2.582,-0.452 3.896,-0.29c0.115,0.014 0.219,0.297 0.383,0.353c0.513,0.176 1.208,-0.177 1.721,0c0.371,0.128 0.747,0.299 1.187,0.207c0.276,-0.058 0.491,-0.271 0.774,-0.271c0.063,0 1.088,0.263 1.088,0.118" style="fill:none;stroke:#000;stroke-width:0.65px;"/><path d="M205.907,152.937c1.299,0 2.582,-0.451 3.896,-0.29c0.116,0.014 0.22,0.297 0.383,0.353c0.513,0.177 1.208,-0.177 1.721,0c0.372,0.128 0.747,0.299 1.187,0.207c0.277,-0.058 0.491,-0.271 0.774,-0.271c0.063,0 1.088,0.263 1.088,0.118" style="fill:none;stroke:#000;stroke-width:0.65px;"/><rect x="202.043" y="217.717" width="16.777" height="15.36" style="fill:#0f3;"/><rect x="180.311" y="190.348" width="16.777" height="15.36" style="fill:#0f3;"/><rect x="155.873" y="213.204" width="16.777" height="15.36" style="fill:#ff0;"/><rect x="155.873" y="168.937" width="16.777" height="15.36" style="fill:#ff0;"/><path d="M183.457,194.777c1.62,0 3.221,-0.678 4.861,-0.436c0.143,0.021 0.273,0.446 0.477,0.53c0.64,0.265 1.507,-0.265 2.147,0c0.464,0.192 0.932,0.449 1.481,0.311c0.345,-0.088 0.612,-0.407 0.966,-0.407c0.078,0 1.357,0.395 1.357,0.177" style="fill:none;stroke:#000;stroke-width:0.9px;"/><rect x="155.873" y="190.536" width="16.777" height="15.36" style="fill:#ff0;"/><rect x="132.952" y="169.392" width="16.777" height="15.36" style="fill:#ff0;"/><rect x="108.275" y="194.91" width="16.777" height="15.36" style="fill:#ff0;"/><rect x="108.275" y="145.242" width="16.777" height="15.36" style="fill:#ff0;"/><rect x="132.952" y="145.242" width="16.777" height="15.36" style="fill:#ff0;"/><rect x="108.275" y="145.242" width="16.777" height="15.36" style="fill:#ff0;"/><rect x="108.275" y="169.392" width="16.777" height="15.36" style="fill:#ff0;"/><rect x="225.291" y="145.242" width="16.777" height="15.36" style="fill:#f39;"/><rect x="226.234" y="170.525" width="16.777" height="15.36" style="fill:#f39;"/><rect x="225.291" y="193.472" width="16.777" height="15.36" style="fill:#f39;"/><rect x="297.044" y="145.242" width="16.777" height="15.36" style="fill:#f63;"/><rect x="296.594" y="170.525" width="16.777" height="15.36" style="fill:#f63;"/><rect x="296.594" y="190.536" width="16.777" height="15.36" style="fill:#f63;"/><path d="M110.543,149.821c1.298,0 2.582,-0.451 3.896,-0.29c0.115,0.014 0.219,0.297 0.382,0.353c0.513,0.177 1.209,-0.176 1.722,0c0.371,0.128 0.747,0.3 1.187,0.207c0.276,-0.058 0.491,-0.271 0.774,-0.271c0.063,0 1.088,0.263 1.088,0.118" style="fill:none;stroke:#000;stroke-width:0.65px;"/><path d="M112.386,153.619c0.882,0 2.095,-0.421 2.864,-0.826c0.226,-0.119 0.72,0.075 0.934,0.102c0.709,0.088 0.988,0.25 1.581,0.454c0.328,0.113 0.714,0.015 1.043,0.128c0.423,0.146 0.599,-0.525 0.96,-0.525" style="fill:none;stroke:#000;stroke-width:0.65px;"/><path d="M160.452,152.612c0.883,0 2.096,-0.421 2.865,-0.826c0.226,-0.119 0.72,0.076 0.933,0.102c0.71,0.089 0.988,0.25 1.581,0.454c0.328,0.113 0.715,0.015 1.044,0.128c0.423,0.146 0.599,-0.524 0.959,-0.524" style="fill:none;stroke:#000;stroke-width:0.65px;"/><path d="M208.844,177.815c0.882,0 2.095,-0.422 2.864,-0.826c0.226,-0.119 0.72,0.075 0.933,0.102c0.71,0.088 0.988,0.25 1.581,0.454c0.329,0.113 0.715,0.015 1.044,0.128c0.423,0.146 0.599,-0.525 0.96,-0.525" style="fill:none;stroke:#000;stroke-width:0.65px;"/><path d="M118.67,173.988c-0.883,0 -2.096,-0.421 -2.865,-0.825c-0.226,-0.119 -0.72,0.075 -0.933,0.102c-0.71,0.088 -0.988,0.25 -1.581,0.454c-0.329,0.113 -0.715,0.014 -1.044,0.128c-0.423,0.145 -0.599,-0.525 -0.959,-0.525" style="fill:none;stroke:#000;stroke-width:0.65px;"/><path d="M136.816,172.644c1.298,0 2.582,-0.451 3.896,-0.29c0.115,0.014 0.22,0.297 0.383,0.353c0.513,0.177 1.208,-0.176 1.721,0c0.372,0.128 0.747,0.299 1.187,0.207c0.277,-0.058 0.491,-0.271 0.774,-0.271c0.063,0 1.088,0.263 1.088,0.118" style="fill:none;stroke:#000;stroke-width:0.65px;"/><path d="M159.619,180.587c1.298,0 2.582,-0.452 3.896,-0.29c0.115,0.014 0.219,0.297 0.383,0.353c0.513,0.176 1.208,-0.177 1.721,0c0.371,0.128 0.747,0.299 1.187,0.207c0.276,-0.058 0.491,-0.271 0.774,-0.271c0.063,0 1.088,0.263 1.088,0.118" style="fill:none;stroke:#000;stroke-width:0.65px;"/><path d="M112.386,177.086c1.298,0 2.582,-0.451 3.896,-0.29c0.115,0.014 0.219,0.297 0.383,0.353c0.513,0.177 1.208,-0.176 1.721,0c0.371,0.128 0.747,0.3 1.187,0.207c0.276,-0.058 0.491,-0.271 0.774,-0.271c0.063,0 1.088,0.263 1.088,0.118" style="fill:none;stroke:#000;stroke-width:0.65px;"/><path d="M183.457,174.624c1.298,0 2.582,-0.451 3.896,-0.29c0.115,0.014 0.219,0.297 0.383,0.353c0.513,0.177 1.208,-0.177 1.721,0c0.371,0.128 0.747,0.299 1.187,0.207c0.276,-0.058 0.491,-0.271 0.774,-0.271c0.063,0 1.088,0.263 1.088,0.118" style="fill:none;stroke:#000;stroke-width:0.65px;"/><path d="M193.224,176.776c-1.298,0 -2.582,-0.452 -3.896,-0.29c-0.115,0.014 -0.219,0.297 -0.382,0.353c-0.513,0.176 -1.209,-0.177 -1.722,0c-0.371,0.128 -0.747,0.299 -1.187,0.207c-0.276,-0.058 -0.491,-0.271 -0.774,-0.271c-0.063,0 -1.088,0.263 -1.088,0.118" style="fill:none;stroke:#000;stroke-width:0.65px;"/><path d="M159.619,157.904c1.298,0 2.582,-0.452 3.896,-0.29c0.115,0.014 0.219,0.297 0.383,0.353c0.513,0.177 1.208,-0.177 1.721,0c0.371,0.128 0.747,0.299 1.187,0.207c0.276,-0.058 0.491,-0.271 0.774,-0.271c0.063,0 1.088,0.263 1.088,0.118" style="fill:none;stroke:#000;stroke-width:0.65px;"/><path d="M136.896,150.442c1.299,0 2.582,-0.451 3.896,-0.29c0.115,0.014 0.22,0.297 0.383,0.353c0.513,0.177 1.208,-0.176 1.721,0c0.372,0.128 0.747,0.3 1.187,0.207c0.277,-0.058 0.491,-0.27 0.774,-0.27c0.063,0 1.088,0.263 1.088,0.117" style="fill:none;stroke:#000;stroke-width:0.65px;"/><path d="M163.02,194.614c1.06,0 2.107,-0.451 3.179,-0.29c0.094,0.014 0.179,0.297 0.312,0.353c0.418,0.177 0.986,-0.177 1.404,0c0.303,0.128 0.61,0.299 0.968,0.207c0.226,-0.058 0.401,-0.271 0.632,-0.271c0.051,0 0.887,0.263 0.887,0.118" style="fill:none;stroke:#000;stroke-width:0.59px;"/><path d="M114.145,198.043c1.298,0 2.582,-0.452 3.896,-0.29c0.115,0.014 0.22,0.297 0.383,0.353c0.513,0.176 1.208,-0.177 1.721,0c0.372,0.128 0.747,0.299 1.187,0.207c0.277,-0.058 0.491,-0.271 0.774,-0.271c0.063,0 1.088,0.263 1.088,0.118" style="fill:none;stroke:#000;stroke-width:0.65px;"/><path d="M168.668,217.421c-1.299,0 -2.582,-0.451 -3.896,-0.29c-0.115,0.014 -0.22,0.297 -0.383,0.353c-0.513,0.177 -1.208,-0.176 -1.721,0c-0.372,0.128 -0.747,0.3 -1.187,0.207c-0.277,-0.058 -0.491,-0.271 -0.774,-0.271c-0.063,0 -1.088,0.263 -1.088,0.118" style="fill:none;stroke:#000;stroke-width:0.65px;"/><path d="M207.176,181.208c1.299,0 2.582,-0.451 3.897,-0.29c0.115,0.014 0.219,0.297 0.382,0.353c0.513,0.177 1.208,-0.177 1.721,0c0.372,0.128 0.748,0.299 1.187,0.207c0.277,-0.058 0.491,-0.271 0.774,-0.271c0.063,0 1.089,0.263 1.089,0.118" style="fill:none;stroke:#000;stroke-width:0.65px;"/><path d="M229.155,156.248c1.299,0 2.582,-0.451 3.897,-0.29c0.115,0.014 0.219,0.297 0.382,0.353c0.513,0.177 1.208,-0.176 1.721,0c0.372,0.128 0.748,0.299 1.187,0.207c0.277,-0.058 0.491,-0.271 0.774,-0.271c0.063,0 1.089,0.263 1.089,0.118" style="fill:none;stroke:#000;stroke-width:0.65px;"/><path d="M229.155,174.935c1.299,0 2.582,-0.452 3.897,-0.291c0.115,0.014 0.219,0.297 0.382,0.354c0.513,0.176 1.208,-0.177 1.721,0c0.372,0.127 0.748,0.299 1.187,0.207c0.277,-0.059 0.491,-0.271 0.774,-0.271c0.063,0 1.089,0.263 1.089,0.117" style="fill:none;stroke:#000;stroke-width:0.65px;"/><path d="M205.907,197.732c1.299,0 2.582,-0.451 3.896,-0.29c0.116,0.014 0.22,0.297 0.383,0.353c0.513,0.177 1.208,-0.176 1.721,0c0.372,0.128 0.747,0.299 1.187,0.207c0.277,-0.058 0.491,-0.271 0.774,-0.271c0.063,0 1.088,0.263 1.088,0.118" style="fill:none;stroke:#000;stroke-width:0.65px;"/><path d="M237.858,199.028c-1.298,0 -2.582,-0.451 -3.896,-0.29c-0.115,0.014 -0.219,0.297 -0.383,0.353c-0.512,0.177 -1.208,-0.176 -1.721,0c-0.371,0.128 -0.747,0.3 -1.187,0.207c-0.276,-0.058 -0.491,-0.27 -0.774,-0.27c-0.063,0 -1.088,0.263 -1.088,0.117" style="fill:none;stroke:#000;stroke-width:0.65px;"/><path d="M253.019,149.821c1.299,0 2.582,-0.451 3.897,-0.29c0.115,0.014 0.219,0.297 0.382,0.353c0.513,0.177 1.208,-0.176 1.721,0c0.372,0.128 0.748,0.3 1.187,0.207c0.277,-0.058 0.491,-0.271 0.774,-0.271c0.063,0 1.089,0.263 1.089,0.118" style="fill:none;stroke:#000;stroke-width:0.65px;"/><path d="M253.019,149.821c1.299,0 2.582,-0.451 3.897,-0.29c0.115,0.014 0.219,0.297 0.382,0.353c0.513,0.177 1.208,-0.176 1.721,0c0.372,0.128 0.748,0.3 1.187,0.207c0.277,-0.058 0.491,-0.271 0.774,-0.271c0.063,0 1.089,0.263 1.089,0.118" style="fill:none;stroke:#000;stroke-width:0.65px;"/><path d="M276.231,178.53c1.299,0 2.583,-0.451 3.897,-0.29c0.115,0.014 0.219,0.297 0.382,0.353c0.513,0.177 1.209,-0.177 1.722,0c0.371,0.128 0.747,0.299 1.187,0.207c0.276,-0.058 0.491,-0.271 0.774,-0.271c0.063,0 1.088,0.263 1.088,0.118" style="fill:none;stroke:#000;stroke-width:0.65px;"/><path d="M250.911,174.313c1.298,0 2.582,-0.451 3.896,-0.29c0.115,0.014 0.219,0.297 0.383,0.353c0.512,0.177 1.208,-0.176 1.721,0c0.371,0.128 0.747,0.3 1.187,0.207c0.276,-0.058 0.491,-0.271 0.774,-0.271c0.063,0 1.088,0.263 1.088,0.118" style="fill:none;stroke:#000;stroke-width:0.65px;"/><path d="M253.019,177.708c1.299,0 2.582,-0.452 3.897,-0.291c0.115,0.014 0.219,0.297 0.382,0.354c0.513,0.176 1.208,-0.177 1.721,0c0.372,0.127 0.748,0.299 1.187,0.206c0.277,-0.058 0.491,-0.27 0.774,-0.27c0.063,0 1.089,0.263 1.089,0.117" style="fill:none;stroke:#000;stroke-width:0.65px;"/><path d="M205.907,225.412c1.299,0 2.582,-0.451 3.896,-0.29c0.116,0.014 0.22,0.297 0.383,0.353c0.513,0.177 1.208,-0.177 1.721,0c0.372,0.128 0.747,0.299 1.187,0.207c0.277,-0.058 0.491,-0.271 0.774,-0.271c0.063,0 1.088,0.263 1.088,0.118" style="fill:none;stroke:#000;stroke-width:0.65px;"/><path d="M285.281,157.904c-1.299,0 -2.582,-0.452 -3.897,-0.29c-0.115,0.014 -0.219,0.297 -0.382,0.353c-0.513,0.177 -1.208,-0.177 -1.721,0c-0.372,0.128 -0.748,0.299 -1.187,0.207c-0.277,-0.058 -0.491,-0.271 -0.774,-0.271c-0.063,0 -1.089,0.263 -1.089,0.118" style="fill:none;stroke:#000;stroke-width:0.65px;"/><path d="M300.908,151.064c1.299,0 2.582,-0.452 3.897,-0.291c0.115,0.015 0.219,0.297 0.382,0.354c0.513,0.176 1.209,-0.177 1.722,0c0.371,0.128 0.747,0.299 1.187,0.207c0.276,-0.058 0.49,-0.271 0.774,-0.271c0.062,0 1.088,0.263 1.088,0.118" style="fill:none;stroke:#000;stroke-width:0.65px;"/><path d="M303.099,155.068c1.299,0 2.582,-0.452 3.897,-0.291c0.115,0.015 0.219,0.297 0.382,0.354c0.513,0.176 1.208,-0.177 1.721,0c0.372,0.128 0.748,0.299 1.187,0.207c0.277,-0.058 0.491,-0.271 0.774,-0.271c0.063,0 1.089,0.263 1.089,0.118" style="fill:none;stroke:#000;stroke-width:0.65px;"/><path d="M321.606,157.904c1.299,0 2.582,-0.452 3.896,-0.29c0.116,0.014 0.22,0.297 0.383,0.353c0.513,0.177 1.208,-0.177 1.721,0c0.372,0.128 0.747,0.299 1.187,0.207c0.277,-0.058 0.491,-0.271 0.774,-0.271c0.063,0 1.088,0.263 1.088,0.118" style="fill:none;stroke:#000;stroke-width:0.65px;"/><path d="M300.908,174.624c1.299,0 2.582,-0.451 3.897,-0.29c0.115,0.014 0.219,0.297 0.382,0.353c0.513,0.177 1.209,-0.177 1.722,0c0.371,0.128 0.747,0.299 1.187,0.207c0.276,-0.058 0.49,-0.271 0.774,-0.271c0.062,0 1.088,0.263 1.088,0.118" style="fill:none;stroke:#000;stroke-width:0.65px;"/><path d="M322.082,179.151c1.299,0 2.582,-0.451 3.896,-0.29c0.116,0.014 0.22,0.297 0.383,0.353c0.513,0.177 1.208,-0.176 1.721,0c0.372,0.128 0.747,0.299 1.187,0.207c0.277,-0.058 0.491,-0.271 0.774,-0.271c0.063,0 1.088,0.263 1.088,0.118" style="fill:none;stroke:#000;stroke-width:0.65px;"/><path d="M330.106,196.132c-1.299,0 -2.582,-0.451 -3.896,-0.29c-0.116,0.014 -0.22,0.297 -0.383,0.353c-0.513,0.177 -1.208,-0.176 -1.721,0c-0.372,0.128 -0.747,0.3 -1.187,0.207c-0.277,-0.058 -0.491,-0.27 -0.774,-0.27c-0.063,0 -1.088,0.263 -1.088,0.117" style="fill:none;stroke:#000;stroke-width:0.65px;"/><path d="M300.458,194.304c1.299,0 2.582,-0.452 3.896,-0.291c0.116,0.014 0.22,0.297 0.383,0.354c0.513,0.176 1.208,-0.177 1.721,0c0.372,0.127 0.747,0.299 1.187,0.206c0.277,-0.058 0.491,-0.27 0.774,-0.27c0.063,0 1.088,0.263 1.088,0.117" style="fill:none;stroke:#000;stroke-width:0.65px;"/><path d="M300.908,197.732c1.299,0 2.582,-0.451 3.897,-0.29c0.115,0.014 0.219,0.297 0.382,0.353c0.513,0.177 1.209,-0.176 1.722,0c0.371,0.128 0.747,0.299 1.187,0.207c0.276,-0.058 0.49,-0.271 0.774,-0.271c0.062,0 1.088,0.263 1.088,0.118" style="fill:none;stroke:#000;stroke-width:0.65px;"/><path d="M300.458,201.477c1.299,0 2.582,-0.451 3.896,-0.29c0.116,0.014 0.22,0.297 0.383,0.353c0.513,0.177 1.208,-0.176 1.721,0c0.372,0.128 0.747,0.299 1.187,0.207c0.277,-0.058 0.491,-0.271 0.774,-0.271c0.063,0 1.088,0.263 1.088,0.118" style="fill:none;stroke:#000;stroke-width:0.65px;"/><path d="M258.205,228.268c-1.299,0 -2.582,-0.452 -3.897,-0.291c-0.115,0.015 -0.219,0.297 -0.382,0.354c-0.513,0.176 -1.209,-0.177 -1.722,0c-0.371,0.128 -0.747,0.299 -1.187,0.207c-0.276,-0.058 -0.49,-0.271 -0.774,-0.271c-0.062,0 -1.088,0.263 -1.088,0.118" style="fill:none;stroke:#000;stroke-width:0.65px;"/><path d="M281.924,233.403c-1.299,0 -2.582,-0.452 -3.896,-0.29c-0.116,0.014 -0.22,0.296 -0.383,0.353c-0.513,0.176 -1.208,-0.177 -1.721,0c-0.372,0.128 -0.747,0.299 -1.187,0.207c-0.277,-0.058 -0.491,-0.271 -0.774,-0.271c-0.063,0 -1.088,0.263 -1.088,0.118" style="fill:none;stroke:#000;stroke-width:0.65px;"/><path d="M309.507,220.055c-1.298,0 -2.582,-0.451 -3.896,-0.29c-0.115,0.014 -0.219,0.297 -0.383,0.353c-0.512,0.177 -1.208,-0.177 -1.721,0c-0.371,0.128 -0.747,0.299 -1.187,0.207c-0.276,-0.058 -0.491,-0.271 -0.774,-0.271c-0.063,0 -1.088,0.263 -1.088,0.118" style="fill:none;stroke:#000;stroke-width:0.65px;"/><path d="M228.809,152.18c0.883,0 2.095,-0.421 2.864,-0.826c0.227,-0.119 0.72,0.076 0.934,0.102c0.709,0.089 0.988,0.25 1.581,0.454c0.328,0.113 0.715,0.015 1.043,0.128c0.424,0.146 0.599,-0.524 0.96,-0.524" style="fill:none;stroke:#000;stroke-width:0.65px;"/><path d="M229.155,203.022c0.883,0 2.095,-0.421 2.864,-0.825c0.227,-0.119 0.72,0.075 0.934,0.102c0.71,0.088 0.988,0.25 1.581,0.454c0.328,0.113 0.715,0.014 1.043,0.128c0.424,0.145 0.599,-0.525 0.96,-0.525" style="fill:none;stroke:#000;stroke-width:0.65px;"/><path d="M300.242,180.694c0.883,0 2.095,-0.421 2.864,-0.826c0.226,-0.119 0.72,0.075 0.934,0.102c0.709,0.088 0.988,0.25 1.581,0.454c0.328,0.113 0.715,0.015 1.043,0.128c0.424,0.146 0.599,-0.524 0.96,-0.524" style="fill:none;stroke:#000;stroke-width:0.65px;"/><path d="M272.368,226.14c0.882,0 2.095,-0.421 2.864,-0.826c0.226,-0.119 0.72,0.076 0.933,0.102c0.71,0.089 0.988,0.25 1.581,0.455c0.329,0.113 0.715,0.014 1.044,0.127c0.423,0.146 0.599,-0.524 0.96,-0.524" style="fill:none;stroke:#000;stroke-width:0.65px;"/><path d="M277.572,175.163c0.883,0 2.096,-0.421 2.865,-0.826c0.226,-0.119 0.719,0.076 0.933,0.102c0.71,0.089 0.988,0.25 1.581,0.454c0.328,0.113 0.715,0.015 1.044,0.128c0.423,0.146 0.599,-0.524 0.959,-0.524" style="fill:none;stroke:#000;stroke-width:0.65px;"/><g><rect x="136.903" y="354.99" width="202.571" height="8.717" style="fill:#036;"/><path d="M158.354,359.348l0,83.627l8.717,0l0,-83.627l-8.717,0Z" style="fill:#036;"/><path d="M310.043,359.348l0,83.627l8.717,0l0,-83.627l-8.717,0Z" style="fill:#036;"/><g><ellipse cx="250.92" cy="351.105" rx="20.5" ry="2.181" style="fill:#a3a3a3;"/><path d="M242.243,334.74c0,-0.483 -1.482,12.831 -1.612,13.01c-1.954,2.697 -3.478,2.495 -5.969,3.39c-1.631,0.585 28.258,-0.3 32.441,0.084c0.48,0.044 -3.901,-1.808 -4.411,-2.955c-0.544,-1.224 -2.184,-13.975 -1.973,-13.542c0.211,0.432 -18.477,1.093 -18.476,0.013Z" style="fill:#63646c;fill-opacity:0.5;"/><path d="M234.595,351.234l0.139,-0.069" style="fill:none;"/><path d="M266.885,351.096l-0.069,0" style="fill:none;"/><path d="M234.803,351.442l16.522,-0.024l15.422,-0.022" style="fill:#fafbff;"/><path d="M266.965,347.402l0.224,0.018l0.222,0.031l0.22,0.044l0.217,0.055l0.214,0.068l0.21,0.08l0.205,0.091l0.199,0.103l0.194,0.114l0.187,0.124l0.179,0.135l0.172,0.144l0.163,0.154l0.154,0.163l0.145,0.171l0.136,0.179l0.124,0.187l0.115,0.193l0.103,0.199l0.092,0.205l0.08,0.209l0.069,0.214l0.056,0.217l0.044,0.22l0.032,0.222l0.019,0.224l0.007,0.224l-0.006,0.224l-0.019,0.224l-0.031,0.222l-0.043,0.22l-0.056,0.217l-0.068,0.214l-0.08,0.21l-0.091,0.205l-0.103,0.199l-0.113,0.194l-0.125,0.187l-0.134,0.179l-0.145,0.172l-0.154,0.163l-0.163,0.154l-0.171,0.145l-0.179,0.136l-0.186,0.124l-0.193,0.115l-0.2,0.103l-0.204,0.092l-0.21,0.08l-0.213,0.069l-0.218,0.056l-0.22,0.044l-0.222,0.032l-0.223,0.019l-0.225,0.007l-15.421,0.022l-16.523,0.024l-0.224,-0.006l-0.223,-0.019l-0.223,-0.031l-0.22,-0.043l-0.217,-0.056l-0.214,-0.068l-0.21,-0.08l-0.205,-0.091l-0.199,-0.103l-0.194,-0.113l-0.186,-0.125l-0.18,-0.134l-0.171,-0.145l-0.164,-0.154l-0.154,-0.163l-0.145,-0.171l-0.135,-0.179l-0.125,-0.186l-0.114,-0.193l-0.104,-0.2l-0.092,-0.204l-0.08,-0.21l-0.068,-0.214l-0.057,-0.217l-0.044,-0.22l-0.031,-0.222l-0.02,-0.223l-0.006,-0.225l0.006,-0.224l0.018,-0.224l0.031,-0.222l0.044,-0.22l0.055,-0.217l0.068,-0.214l0.08,-0.21l0.091,-0.205l0.103,-0.199l0.114,-0.194l0.124,-0.186l0.135,-0.18l0.144,-0.171l0.154,-0.164l0.163,-0.154l0.171,-0.145l0.179,-0.135l0.187,-0.125l0.193,-0.114l0.199,-0.104l0.205,-0.092l0.209,-0.08l0.214,-0.068l0.217,-0.057l0.22,-0.044l0.222,-0.032l0.224,-0.019l0.224,-0.006l16.523,-0.024l15.421,-0.022l0.224,0.006Z" style="fill:#beb9b9;"/><path d="M242.05,335.163l18.834,-0.019l0,0.756l-18.833,0.02l-0.001,-0.757Z" style="fill:#808186;"/><path d="M301.107,278.616c0,-2.135 -1.734,-3.869 -3.869,-3.869l-92.262,0c-2.135,0 -3.869,1.734 -3.869,3.869l0,52.892c0,2.135 1.734,3.869 3.869,3.869l92.262,0c2.135,0 3.869,-1.734 3.869,-3.869l0,-52.892Z"/><rect x="203.784" y="277.611" width="94.782" height="54.842" style="fill:#fcfcfc;"/></g><g><path d="M264.565,287.793l0.048,0.022l0.04,0.034l0.029,0.044l0.015,0.051l0,0.052l-0.015,0.051l-0.028,0.044l-0.006,0.007l-0.008,0.011l-0.038,0.054l-0.056,0.082l-0.071,0.109l-0.184,0.285l-0.231,0.362l-0.567,0.892l-0.318,0.5l-0.329,0.516l-0.331,0.515l-0.323,0.501l-0.157,0.24l-0.151,0.23l-0.145,0.219l-0.138,0.206l-0.13,0.191l-0.12,0.174l-0.109,0.156l-0.098,0.134l-0.045,0.06l-0.042,0.054l-0.039,0.049l-0.036,0.043l-0.033,0.038l-0.033,0.033l-0.026,0.023l-0.014,0.011l-0.009,0.006l-0.015,0.01l-0.003,0.002l-0.012,0.012l-0.026,0.027l-0.036,0.04l-0.043,0.051l-0.051,0.061l-0.056,0.07l-0.063,0.079l-0.143,0.185l-0.163,0.214l-0.182,0.243l-0.198,0.268l-0.213,0.289l-0.225,0.309l-0.237,0.326l-0.245,0.339l-0.508,0.707l-0.521,0.728l-0.516,0.727l-0.498,0.702l-0.464,0.656l-0.414,0.587l-0.616,0.877l-0.231,0.329l-0.33,0.515l-0.875,1.369l-0.585,0.917l-0.652,1.024l-0.698,1.098l-0.72,1.137l-0.72,1.14l-0.698,1.109l-0.333,0.531l-0.319,0.511l-0.302,0.486l-0.282,0.455l-0.26,0.422l-0.234,0.383l-0.205,0.341l-0.174,0.293l-0.075,0.127l-0.065,0.114l-0.056,0.099l-0.046,0.084l-0.035,0.067l-0.025,0.05l-0.006,0.015l-0.004,0.008l0.002,-0.006l0.002,-0.009l0,-0.002l-0.012,0.051l-0.001,0.002l-0.021,0.037l-0.028,0.032l-0.001,0.002l-0.043,0.028l-0.049,0.016l-0.002,0l-0.048,0.002l-0.047,-0.011l-0.006,-0.002l-0.043,-0.023l-0.008,-0.005l-0.018,-0.014l-0.014,-0.014l-0.02,-0.02l-0.037,-0.043l-0.042,-0.053l-0.049,-0.065l-0.055,-0.076l-0.063,-0.088l-0.069,-0.099l-0.075,-0.109l-0.17,-0.249l-0.192,-0.287l-0.213,-0.322l-0.231,-0.352l-0.246,-0.379l-0.261,-0.402l-0.272,-0.422l-0.28,-0.438l-0.287,-0.449l-0.292,-0.458l-0.293,-0.463l-0.293,-0.464l-0.29,-0.46l-0.285,-0.455l-0.277,-0.444l-0.268,-0.429l-0.255,-0.413l-0.241,-0.39l-0.224,-0.366l-0.205,-0.337l-0.183,-0.304l-0.16,-0.268l-0.133,-0.228l-0.057,-0.098l-0.049,-0.088l-0.042,-0.076l-0.017,-0.031l-0.075,0.023l-0.189,0.056l-0.238,0.07l-0.283,0.082l-0.683,0.197l-0.813,0.231l-0.911,0.258l-0.977,0.274l-1.008,0.282l-1.009,0.28l-0.976,0.269l-0.911,0.249l-0.421,0.114l-0.393,0.105l-0.36,0.096l-0.324,0.084l-0.283,0.073l-0.239,0.06l-0.191,0.045l-0.077,0.017l-0.064,0.014l-0.037,0.007l-0.179,0.218l-0.695,0.839l-0.474,0.572l-0.532,0.643l-0.571,0.692l-0.591,0.719l-0.59,0.722l-0.289,0.355l-0.282,0.347l-0.272,0.337l-0.26,0.324l-0.245,0.308l-0.227,0.288l-0.209,0.267l-0.186,0.242l-0.084,0.11l-0.077,0.103l-0.071,0.096l-0.063,0.087l-0.056,0.079l-0.048,0.069l-0.04,0.06l-0.03,0.048l-0.021,0.036l-0.001,0.004l-0.003,0.024l-0.02,0.049l-0.033,0.041l-0.043,0.03l-0.05,0.017l-0.053,0.002l-0.051,-0.013l-0.045,-0.027l-0.036,-0.039l-0.001,-0.002l-0.015,-0.024l-0.01,-0.026l-0.001,-0.003l-0.006,-0.027l-0.002,-0.028l0,-0.008l0.004,-0.04l0.002,-0.01l0.007,-0.022l0.007,-0.02l0.011,-0.026l0.014,-0.027l0.029,-0.051l0.037,-0.059l0.043,-0.066l0.052,-0.074l0.058,-0.083l0.066,-0.09l0.072,-0.098l0.079,-0.105l0.085,-0.112l0.188,-0.244l0.21,-0.268l0.229,-0.29l0.246,-0.309l0.26,-0.324l0.273,-0.338l0.282,-0.348l0.289,-0.356l0.591,-0.723l0.591,-0.719l0.572,-0.692l0.532,-0.644l0.474,-0.572l0.694,-0.838l0.181,-0.221l0.037,-0.046l0.006,-0.01l0.002,-0.002l0.022,-0.024l0.002,-0.002l0.045,-0.029l0.05,-0.015l0.053,0l0.005,0.001l0.028,-0.005l0.057,-0.012l0.072,-0.016l0.186,-0.044l0.236,-0.059l0.281,-0.073l0.323,-0.084l0.359,-0.095l0.391,-0.105l0.421,-0.114l0.91,-0.248l0.975,-0.269l1.009,-0.28l1.008,-0.282l0.975,-0.274l0.911,-0.257l0.812,-0.232l0.682,-0.196l0.282,-0.082l0.237,-0.069l0.187,-0.056l0.133,-0.041l0.068,-0.022l0.028,-0.013l0.001,0l0.038,-0.008l0.04,0.001l0.038,0.009l0.001,0l0.046,0.023l0.037,0.035l0.027,0.044l0.013,0.049l0,0.004l0.002,0.005l0.022,0.043l0.03,0.058l0.04,0.071l0.047,0.085l0.055,0.096l0.132,0.225l0.159,0.266l0.182,0.303l0.204,0.335l0.224,0.365l0.24,0.39l0.255,0.412l0.267,0.429l0.278,0.443l0.284,0.454l0.29,0.46l0.292,0.463l0.293,0.462l0.291,0.458l0.287,0.449l0.28,0.437l0.272,0.421l0.26,0.402l0.246,0.378l0.23,0.351l0.212,0.32l0.191,0.285l0.168,0.247l0.074,0.107l0.067,0.097l0.061,0.084l0.014,0.02l0.019,-0.034l0.058,-0.103l0.067,-0.116l0.075,-0.129l0.176,-0.295l0.206,-0.342l0.235,-0.385l0.26,-0.423l0.283,-0.456l0.302,-0.486l0.32,-0.512l0.333,-0.532l0.698,-1.109l0.721,-1.141l0.72,-1.137l0.698,-1.098l0.653,-1.025l0.584,-0.917l0.875,-1.369l0.335,-0.522l0.235,-0.336l0.617,-0.877l0.414,-0.587l0.464,-0.656l0.498,-0.703l0.517,-0.727l0.521,-0.729l0.509,-0.709l0.246,-0.339l0.237,-0.326l0.226,-0.31l0.214,-0.291l0.199,-0.269l0.183,-0.244l0.165,-0.218l0.145,-0.187l0.065,-0.082l0.059,-0.073l0.053,-0.065l0.048,-0.056l0.043,-0.048l0.039,-0.04l0.029,-0.028l0.013,-0.01l0.01,-0.008l0.016,-0.011l0.008,-0.005l0.007,-0.006l0.017,-0.018l0.024,-0.027l0.03,-0.035l0.034,-0.043l0.038,-0.05l0.042,-0.055l0.095,-0.131l0.107,-0.151l0.118,-0.172l0.128,-0.188l0.137,-0.205l0.144,-0.217l0.151,-0.23l0.156,-0.239l0.322,-0.499l0.331,-0.515l0.328,-0.514l0.318,-0.5l0.567,-0.893l0.232,-0.363l0.186,-0.287l0.073,-0.111l0.058,-0.087l0.044,-0.063l0.019,-0.025l0.014,-0.016l0.039,-0.034l0.048,-0.022l0.052,-0.008l0.052,0.007Zm-17.437,26.053l-0.002,0.018l0.002,-0.013l0.003,-0.013l-0.003,0.008Z" style="fill:#f90e96;"/><path d="M217.495,278.079l-0.255,43.882" style="fill:none;"/><path d="M217.535,277.712l0.076,0.016l0.07,0.032l0.063,0.046l0.051,0.058l0.038,0.067l0.024,0.073l0.007,0.077l-0.255,43.882l-0.008,0.077l-0.024,0.073l-0.04,0.067l-0.052,0.057l-0.062,0.045l-0.071,0.031l-0.076,0.016l-0.077,-0.001l-0.076,-0.016l-0.07,-0.032l-0.062,-0.046l-0.052,-0.058l-0.038,-0.067l-0.023,-0.073l-0.008,-0.077l0.255,-43.882l0.008,-0.077l0.025,-0.073l0.039,-0.067l0.052,-0.057l0.063,-0.045l0.07,-0.031l0.076,-0.016l0.077,0.001Z" style="fill:#040404;"/><path d="M267.24,321.386l-49.91,0.584" style="fill:none;"/><path d="M267.318,321.025l0.078,0.026l0.071,0.043l0.059,0.058l0.045,0.07l0.028,0.078l0.01,0.082l-0.008,0.082l-0.026,0.079l-0.044,0.07l-0.057,0.06l-0.07,0.044l-0.078,0.029l-0.082,0.01l-49.91,0.584l-0.082,-0.008l-0.078,-0.027l-0.071,-0.043l-0.059,-0.058l-0.045,-0.069l-0.028,-0.078l-0.011,-0.082l0.009,-0.083l0.026,-0.078l0.043,-0.071l0.058,-0.059l0.07,-0.045l0.078,-0.028l0.082,-0.01l49.909,-0.585l0.083,0.009Z" style="fill:#040404;"/><ellipse cx="224.446" cy="315.397" rx="1.146" ry="1.156" style="fill:#ec8e14;"/><ellipse cx="224.446" cy="315.397" rx="1.146" ry="1.156" style="fill:#f90e96;"/><ellipse cx="220.68" cy="306.714" rx="1.146" ry="1.156" style="fill:#0b12f2;"/><ellipse cx="226.213" cy="300.526" rx="1.146" ry="1.156" style="fill:#0b12f2;"/><ellipse cx="233.984" cy="292.139" rx="1.146" ry="1.156" style="fill:#0b12f2;"/><ellipse cx="237.021" cy="301.653" rx="1.146" ry="1.156" style="fill:#0b12f2;"/><ellipse cx="239.856" cy="309.632" rx="1.146" ry="1.156" style="fill:#0b12f2;"/><ellipse cx="246.507" cy="305.559" rx="1.146" ry="1.156" style="fill:#0b12f2;"/><ellipse cx="252.187" cy="314.01" rx="1.146" ry="1.156" style="fill:#0b12f2;"/><ellipse cx="230.206" cy="307.818" rx="1.146" ry="1.156" style="fill:#f90e96;"/><ellipse cx="241.442" cy="304.687" rx="1.146" ry="1.156" style="fill:#f90e96;"/><ellipse cx="247.563" cy="314.281" rx="1.146" ry="1.156" style="fill:#f90e96;stroke:#f90e96;stroke-width:0.05px;stroke-linecap:round;stroke-linejoin:round;"/><ellipse cx="254.852" cy="301.787" rx="1.146" ry="1.156" style="fill:#f90e96;"/><ellipse cx="261.037" cy="293.23" rx="1.146" ry="1.156" style="fill:#f90e96;"/><ellipse cx="222.381" cy="297.811" rx="1.146" ry="1.156" style="fill:#8d14ec;"/><ellipse cx="232.949" cy="300.419" rx="1.146" ry="1.156" style="fill:#8d14ec;"/><ellipse cx="227.136" cy="287.589" rx="1.146" ry="1.156" style="fill:#8d14ec;"/><path d="M244.076,293.03l0.001,0.001l0.04,0.026l0.031,0.036l0.022,0.043l0.001,0.004l0.021,0.041l0.039,0.072l0.055,0.099l0.156,0.274l0.211,0.365l0.262,0.451l0.308,0.528l0.352,0.598l0.389,0.661l0.424,0.718l0.453,0.766l0.979,1.65l1.046,1.758l1.08,1.811l1.081,1.805l0.529,0.883l0.517,0.86l0.5,0.83l0.479,0.792l0.453,0.749l0.423,0.696l0.39,0.639l0.351,0.572l0.309,0.499l0.137,0.22l0.125,0.199l0.112,0.177l0.098,0.154l0.085,0.13l0.069,0.104l0.054,0.079l0.001,0.001l0.018,0.006l0.005,0.003l0.021,0.012l0.006,0.003l0.018,0.014l0.014,0.012l0.013,0.012l0.02,0.021l0.026,0.029l0.026,0.032l0.027,0.035l0.03,0.04l0.064,0.09l0.072,0.106l0.079,0.119l0.086,0.131l0.091,0.143l0.096,0.152l0.101,0.16l0.21,0.339l0.216,0.352l0.426,0.697l0.195,0.32l0.175,0.283l0.078,0.125l0.07,0.11l0.018,0.029l0.065,-0.136l0.102,-0.208l0.119,-0.241l0.286,-0.572l0.337,-0.67l0.375,-0.743l0.811,-1.607l0.41,-0.813l0.394,-0.786l0.366,-0.734l0.168,-0.339l0.156,-0.317l0.141,-0.291l0.127,-0.262l0.109,-0.23l0.09,-0.195l0.037,-0.082l0.031,-0.072l0.026,-0.061l0.02,-0.049l0.012,-0.034l0,-0.001l0,-0.017l0.013,-0.051l0.027,-0.045l0.039,-0.035l0.047,-0.024l0.052,-0.009l0.052,0.006l0.001,0l0.045,0.018l0.038,0.029l0.001,0.001l0.032,0.041l0.019,0.048l0.001,0.005l0.005,0.028l0,0.029l-0.001,0.007l-0.003,0.023l-0.002,0.011l-0.004,0.017l-0.011,0.035l-0.018,0.05l-0.023,0.057l-0.028,0.067l-0.033,0.076l-0.039,0.086l-0.091,0.198l-0.111,0.232l-0.127,0.264l-0.142,0.292l-0.157,0.318l-0.168,0.34l-0.366,0.735l-0.395,0.787l-0.41,0.813l-0.811,1.607l-0.375,0.744l-0.337,0.669l-0.285,0.571l-0.118,0.24l-0.101,0.205l-0.081,0.168l-0.059,0.127l-0.021,0.045l-0.013,0.032l-0.006,0.016l0.003,-0.011l0.001,-0.007l0,0.004l-0.01,0.035l-0.015,0.033l-0.023,0.029l-0.001,0.001l-0.041,0.034l-0.05,0.02l-0.053,0.005l-0.002,0l-0.041,-0.006l-0.039,-0.016l-0.003,-0.002l-0.036,-0.026l-0.008,-0.007l-0.015,-0.015l-0.015,-0.017l-0.019,-0.025l-0.02,-0.027l-0.045,-0.065l-0.054,-0.083l-0.062,-0.097l-0.071,-0.113l-0.079,-0.126l-0.176,-0.285l-0.196,-0.32l-0.425,-0.697l-0.216,-0.351l-0.209,-0.337l-0.099,-0.159l-0.096,-0.151l-0.09,-0.14l-0.084,-0.129l-0.076,-0.116l-0.069,-0.1l-0.06,-0.084l-0.025,-0.034l-0.023,-0.029l-0.003,-0.005l-0.014,-0.002l-0.002,-0.001l-0.047,-0.024l-0.004,-0.002l-0.025,-0.022l-0.016,-0.016l-0.022,-0.027l-0.022,-0.029l-0.025,-0.034l-0.058,-0.084l-0.072,-0.109l-0.087,-0.133l-0.099,-0.156l-0.113,-0.178l-0.126,-0.2l-0.137,-0.221l-0.31,-0.5l-0.351,-0.573l-0.39,-0.639l-0.424,-0.698l-0.454,-0.748l-0.478,-0.793l-0.5,-0.831l-0.518,-0.86l-0.529,-0.883l-1.081,-1.805l-1.081,-1.811l-1.046,-1.76l-0.979,-1.65l-0.454,-0.766l-0.423,-0.718l-0.39,-0.661l-0.352,-0.599l-0.309,-0.529l-0.262,-0.451l-0.212,-0.367l-0.157,-0.276l-0.05,-0.09l-0.017,0.01l-0.08,0.049l-0.094,0.058l-0.107,0.067l-0.251,0.16l-0.297,0.191l-0.337,0.221l-0.375,0.245l-0.407,0.269l-0.436,0.289l-0.943,0.627l-1.01,0.673l-1.044,0.698l-2.06,1.379l-0.953,0.636l-0.857,0.571l-0.383,0.254l-0.347,0.229l-0.307,0.202l-0.264,0.172l-0.215,0.138l-0.165,0.104l-0.063,0.038l-0.05,0.029l-0.041,0.022l-0.017,0.007l-0.028,0.009l-0.006,0.002l-0.049,0.005l-0.049,-0.008l-0.002,0l-0.029,-0.012l-0.027,-0.016l-0.002,-0.002l-0.028,-0.025l-0.006,-0.007l-0.015,-0.018l-0.011,-0.017l-0.016,-0.025l-0.03,-0.054l-0.036,-0.07l-0.043,-0.086l-0.049,-0.101l-0.055,-0.118l-0.062,-0.133l-0.14,-0.309l-0.163,-0.364l-0.183,-0.414l-0.201,-0.458l-0.217,-0.499l-0.231,-0.533l-0.243,-0.564l-0.252,-0.589l-0.527,-1.233l-0.541,-1.275l-0.54,-1.276l-0.521,-1.239l-0.487,-1.161l-0.435,-1.045l-0.367,-0.887l-0.153,-0.373l-0.13,-0.32l-0.105,-0.26l-0.008,-0.019l-0.032,0.058l-0.121,0.223l-0.142,0.267l-0.162,0.305l-0.179,0.341l-0.195,0.372l-0.207,0.4l-0.219,0.424l-0.227,0.444l-0.235,0.46l-0.239,0.473l-0.242,0.482l-0.243,0.487l-0.241,0.488l-0.238,0.486l-0.232,0.48l-0.225,0.469l-0.109,0.23l-0.106,0.226l-0.103,0.222l-0.1,0.216l-0.097,0.211l-0.093,0.206l-0.088,0.199l-0.085,0.192l-0.08,0.185l-0.075,0.177l-0.071,0.169l-0.065,0.16l-0.059,0.15l-0.053,0.141l-0.048,0.13l-0.041,0.119l-0.034,0.108l-0.014,0.048l-0.013,0.045l-0.011,0.042l-0.008,0.038l-0.007,0.035l-0.006,0.03l-0.003,0.024l-0.001,0.02l-0.001,0.004l0.018,0.034l0.01,0.051l-0.005,0.053l-0.02,0.049l-0.032,0.041l-0.043,0.031l-0.05,0.017l-0.052,0.002l-0.051,-0.012l-0.046,-0.026l-0.005,-0.005l-0.022,-0.019l-0.004,-0.005l-0.016,-0.02l-0.004,-0.006l-0.012,-0.019l-0.003,-0.007l-0.009,-0.019l-0.006,-0.015l-0.005,-0.016l-0.005,-0.02l-0.003,-0.02l-0.003,-0.02l-0.002,-0.031l0.001,-0.04l0.003,-0.041l0.006,-0.041l0.007,-0.043l0.009,-0.045l0.011,-0.047l0.013,-0.049l0.014,-0.052l0.017,-0.055l0.036,-0.115l0.044,-0.126l0.049,-0.136l0.055,-0.145l0.061,-0.155l0.066,-0.163l0.072,-0.171l0.076,-0.18l0.081,-0.187l0.086,-0.194l0.089,-0.201l0.094,-0.207l0.097,-0.212l0.101,-0.218l0.103,-0.223l0.107,-0.227l0.109,-0.23l0.226,-0.472l0.233,-0.481l0.238,-0.487l0.242,-0.489l0.243,-0.488l0.243,-0.483l0.24,-0.474l0.234,-0.461l0.228,-0.445l0.219,-0.425l0.208,-0.401l0.195,-0.373l0.18,-0.342l0.163,-0.306l0.143,-0.268l0.122,-0.225l0.099,-0.18l0.075,-0.13l0.028,-0.048l0.025,-0.038l0.016,-0.022l0.019,-0.021l0.022,-0.018l0.003,-0.002l0.045,-0.023l0.051,-0.01l0.051,0.004l0.047,0.018l0.001,0l0.034,0.024l0.027,0.03l0.02,0.035l0.012,0.039l0.001,0.003l-0.001,-0.003l0,-0.003l0.01,0.03l0.019,0.051l0.027,0.071l0.076,0.194l0.104,0.259l0.13,0.318l0.153,0.372l0.367,0.887l0.434,1.043l0.486,1.161l0.522,1.238l0.539,1.276l0.541,1.274l0.527,1.233l0.252,0.588l0.243,0.563l0.23,0.533l0.217,0.498l0.2,0.457l0.183,0.413l0.162,0.362l0.139,0.307l0.061,0.131l0.054,0.115l0.047,0.098l0.034,0.068l0.148,-0.094l0.213,-0.137l0.262,-0.17l0.307,-0.202l0.346,-0.228l0.382,-0.254l0.857,-0.571l0.952,-0.636l2.061,-1.378l1.044,-0.698l1.01,-0.674l0.943,-0.627l0.437,-0.289l0.408,-0.27l0.375,-0.246l0.339,-0.221l0.298,-0.192l0.253,-0.162l0.109,-0.068l0.096,-0.06l0.084,-0.05l0.071,-0.042l0.059,-0.033l0.047,-0.024l0.019,-0.008l0.016,-0.006l0.01,-0.004l0.041,-0.008l0.006,-0.001l0.051,0.002l0.049,0.017Zm11.688,19.507l0.001,-0.004l0.001,-0.011l-0.002,0.015Zm-0.365,-0.059l-0.001,0.008l-0.001,0.004l0.002,-0.012l0,0Zm6.7,-5.088l0.001,0.001l-0.002,-0.002l0.001,0.001Zm-40.061,-10.142l-0.003,-0.005l-0.014,-0.015l-0.006,-0.005l0.023,0.025Zm22.133,-4.106l0,-0.001l0,-0.001l0,0.002Z" style="fill:#8d14ec;"/><ellipse cx="244.07" cy="293.812" rx="1.146" ry="1.156" style="fill:#8d14ec;"/><ellipse cx="257.826" cy="315.833" rx="1.146" ry="1.156" style="fill:#8d14ec;"/><ellipse cx="248.68" cy="301.118" rx="1.146" ry="1.156" style="fill:#8d14ec;"/><ellipse cx="260.988" cy="310.204" rx="1.146" ry="1.156" style="fill:#8d14ec;"/><path d="M262.775,305.796l0.211,2.241l-1.927,-0.784l1.716,-1.457Z" style="fill:#8d14ec;"/><path d="M254.854,318.115l-1.929,-1.161l1.776,-1.085l0.153,2.246Z" style="fill:#0b12f2;stroke:#0b12f2;stroke-width:0.05px;stroke-linecap:round;stroke-linejoin:round;"/><path d="M265.159,287.046l-0.135,2.247l-1.784,-1.07l1.919,-1.177Z" style="fill:#f90e96;"/><path d="M246.515,305.156l0.037,0.021l0.03,0.028l0.002,0.002l0.022,0.033l0.015,0.037l-0.003,-0.011l-0.006,-0.013l0.007,0.013l0.046,0.075l0.077,0.12l0.105,0.161l0.131,0.199l0.155,0.233l0.371,0.556l0.439,0.654l0.49,0.727l0.525,0.776l0.542,0.8l1.066,1.572l0.93,1.368l0.909,1.337l0.28,0.443l0.285,0.454l0.327,0.523l0.167,0.267l0.161,0.261l0.15,0.246l0.136,0.222l0.114,0.192l0.049,0.082l0.041,0.072l0.034,0.061l0.027,0.051l0.02,0.042l0.006,0.018l0.008,0.028l0.002,0.006l0.003,0.048l-0.009,0.048l-0.021,0.043l-0.032,0.036l-0.04,0.027l-0.046,0.016l-0.048,0.003l-0.047,-0.009l-0.044,-0.021l-0.036,-0.032l-0.027,-0.04l-0.016,-0.045l0.002,0.008l0.004,0.01l-0.01,-0.02l-0.021,-0.04l-0.031,-0.056l-0.039,-0.068l-0.047,-0.08l-0.113,-0.189l-0.134,-0.221l-0.15,-0.244l-0.161,-0.26l-0.165,-0.266l-0.327,-0.523l-0.285,-0.453l-0.276,-0.438l-0.906,-1.331l-0.93,-1.368l-1.067,-1.572l-0.541,-0.801l-0.525,-0.776l-0.491,-0.728l-0.439,-0.655l-0.372,-0.556l-0.155,-0.234l-0.132,-0.2l-0.107,-0.164l-0.06,-0.093l-0.116,0.068l-0.147,0.088l-0.174,0.106l-0.198,0.122l-0.22,0.136l-0.496,0.31l-0.553,0.348l-0.592,0.374l-0.612,0.388l-0.611,0.389l-0.592,0.378l-1.051,0.672l-0.742,0.476l-0.282,0.181l-0.042,0.02l-0.045,0.009l-0.047,-0.003l-0.044,-0.014l-0.04,-0.025l-0.031,-0.034l-0.023,-0.041l-0.136,-0.347l-0.156,-0.398l-0.203,-0.517l-0.238,-0.613l-0.265,-0.685l-0.282,-0.734l-0.29,-0.76l-0.144,-0.382l-0.143,-0.38l-0.14,-0.374l-0.136,-0.367l-0.13,-0.355l-0.124,-0.342l-0.117,-0.324l-0.107,-0.305l-0.097,-0.283l-0.086,-0.257l-0.039,-0.119l-0.035,-0.111l-0.032,-0.103l-0.028,-0.096l-0.025,-0.087l-0.021,-0.08l-0.017,-0.071l-0.014,-0.064l-0.009,-0.056l-0.003,-0.029l-0.002,-0.028l0.001,-0.021l0.001,-0.019l0.001,-0.012l0.007,-0.031l0.002,-0.009l0.003,-0.007l0,-0.005l-0.007,-0.042l-0.011,-0.056l-0.015,-0.069l-0.019,-0.08l-0.023,-0.09l-0.028,-0.101l-0.03,-0.111l-0.035,-0.119l-0.037,-0.128l-0.085,-0.279l-0.096,-0.309l-0.106,-0.334l-0.115,-0.356l-0.123,-0.375l-0.128,-0.391l-0.135,-0.403l-0.138,-0.412l-0.283,-0.84l-0.284,-0.837l-0.276,-0.81l-0.257,-0.756l-0.229,-0.677l-0.102,-0.3l-0.09,-0.272l-0.079,-0.238l-0.065,-0.203l-0.018,-0.055l-0.091,0.099l-0.177,0.19l-0.209,0.222l-0.504,0.533l-0.599,0.63l-0.672,0.703l-0.718,0.75l-0.743,0.774l-1.461,1.519l-1.27,1.319l-0.888,0.921l-0.307,0.319l-0.007,0.009l-0.04,0.046l-0.161,0.186l-0.602,0.688l-0.865,0.988l-0.997,1.141l-0.507,0.582l-0.49,0.563l-0.457,0.528l-0.407,0.474l-0.18,0.21l-0.161,0.189l-0.141,0.167l-0.118,0.141l-0.092,0.112l-0.065,0.082l-0.019,0.026l-0.005,0.007l-0.017,0.032l-0.033,0.035l-0.041,0.026l-0.046,0.014l-0.048,0.001l-0.047,-0.011l-0.001,0l-0.044,-0.023l-0.035,-0.034l-0.026,-0.042l0,-0.001l-0.012,-0.039l-0.004,-0.041l0.006,-0.04l0.001,-0.003l0.019,-0.046l0.007,-0.013l0.009,-0.014l0.017,-0.025l0.027,-0.035l0.069,-0.088l0.095,-0.116l0.12,-0.143l0.142,-0.168l0.162,-0.19l0.18,-0.211l0.409,-0.474l0.457,-0.529l0.49,-0.564l0.507,-0.582l0.997,-1.141l0.866,-0.989l0.601,-0.687l0.16,-0.184l0.037,-0.043l-0.001,0.001l-0.005,0.008l0.001,0l0.02,-0.028l0.315,-0.327l0.888,-0.921l1.27,-1.319l1.461,-1.519l0.743,-0.774l0.718,-0.75l0.671,-0.702l0.599,-0.629l0.503,-0.532l0.208,-0.222l0.175,-0.188l0.139,-0.151l0.1,-0.11l0.032,-0.038l0.016,-0.018l0.002,-0.005l0,-0.001l0.023,-0.032l0.029,-0.026l0.034,-0.02l0.001,0l0.039,-0.013l0.04,-0.003l0.041,0.005l0.038,0.014l0.001,0.001l0.034,0.022l0.028,0.029l0.022,0.035l0.013,0.039l0.005,0.04l0,0.001l-0.001,0.003l0.002,0.008l0.011,0.038l0.014,0.052l0.02,0.064l0.05,0.16l0.065,0.201l0.078,0.237l0.09,0.27l0.101,0.3l0.229,0.676l0.257,0.756l0.276,0.81l0.284,0.838l0.284,0.84l0.138,0.413l0.134,0.404l0.13,0.392l0.123,0.376l0.115,0.358l0.107,0.335l0.096,0.311l0.086,0.283l0.038,0.13l0.035,0.121l0.032,0.114l0.028,0.104l0.025,0.096l0.021,0.086l0.017,0.077l0.013,0.069l0.009,0.059l0.002,0.03l0.002,0.028l0,0.021l-0.001,0.019l-0.002,0.013l-0.005,0.028l-0.003,0.009l-0.003,0.009l0.006,0.037l0.01,0.05l0.015,0.062l0.02,0.073l0.023,0.082l0.027,0.092l0.031,0.1l0.034,0.108l0.038,0.116l0.085,0.254l0.096,0.28l0.107,0.303l0.116,0.323l0.123,0.34l0.13,0.354l0.135,0.366l0.14,0.374l0.143,0.379l0.144,0.381l0.289,0.759l0.282,0.733l0.265,0.684l0.238,0.612l0.202,0.517l0.156,0.398l0.054,0.137l0.092,-0.059l0.743,-0.477l1.051,-0.671l0.592,-0.378l0.612,-0.39l0.612,-0.388l0.592,-0.375l0.555,-0.349l0.497,-0.31l0.221,-0.137l0.199,-0.123l0.176,-0.107l0.15,-0.089l0.122,-0.072l0.092,-0.051l0.038,-0.02l0.027,-0.013l0.018,-0.007l0.014,-0.005l0.026,-0.006l0.026,-0.003l0.003,-0.001l0.042,0.003l0.04,0.013Zm-25.564,1.437l0.001,-0.004l0,0l-0.001,0.004Zm16.096,-5.295l-0.004,0.006l0.01,-0.016l0.001,-0.004l-0.007,0.014Z" style="fill:#0b12f2;"/></g><g><clipPath id="_clip1"><rect x="152.05" y="345.331" width="24.23" height="9.659"/></clipPath><g clip-path="url(#_clip1)"><ellipse cx="164.165" cy="354.073" rx="12.115" ry="8.742" style="fill:#003;"/></g><path d="M163.28,346.536l-11.927,-37.024l21.927,-30.234" style="fill:none;stroke:#003;stroke-width:4.5px;stroke-linecap:round;stroke-linejoin:bevel;"/><ellipse cx="151.353" cy="309.765" rx="3.335" ry="2.874" style="fill:#003;"/><path d="M151.439,306.892l0.085,0.002l0.085,0.005l0.085,0.006l0.083,0.009l0.083,0.01l0.083,0.012l0.082,0.013l0.081,0.015l0.08,0.017l0.079,0.019l0.079,0.02l0.078,0.022l0.077,0.023l0.076,0.025l0.075,0.027l0.075,0.028l0.073,0.029l0.072,0.031l0.072,0.033l0.07,0.034l0.069,0.035l0.069,0.037l0.067,0.038l0.066,0.039l0.064,0.041l0.064,0.042l0.062,0.043l0.062,0.045l0.059,0.046l0.059,0.047l0.057,0.048l0.056,0.049l0.055,0.051l0.053,0.051l0.052,0.053l0.05,0.054l0.049,0.055l0.047,0.055l0.046,0.057l0.044,0.058l0.042,0.059l0.041,0.06l0.04,0.06l0.037,0.062l0.036,0.062l0.035,0.063l0.032,0.065l0.031,0.064l0.029,0.066l0.027,0.066l0.025,0.068l0.024,0.067l0.021,0.069l0.02,0.069l0.018,0.07l0.015,0.07l0.014,0.071l0.012,0.072l0.009,0.072l0.008,0.073l0.005,0.073l0.003,0.074l0.001,0.074l-0.001,0.074l-0.003,0.074l-0.005,0.073l-0.008,0.073l-0.009,0.072l-0.012,0.071l-0.014,0.071l-0.015,0.071l-0.018,0.07l-0.02,0.069l-0.021,0.068l-0.024,0.068l-0.025,0.067l-0.027,0.067l-0.029,0.065l-0.031,0.065l-0.032,0.064l-0.035,0.064l-0.036,0.062l-0.037,0.061l-0.04,0.061l-0.041,0.06l-0.042,0.059l-0.044,0.057l-0.046,0.057l-0.047,0.056l-0.049,0.055l-0.05,0.054l-0.052,0.052l-0.053,0.052l-0.055,0.051l-0.056,0.049l-0.057,0.048l-0.059,0.047l-0.059,0.046l-0.062,0.044l-0.062,0.044l-0.064,0.042l-0.064,0.041l-0.066,0.039l-0.067,0.038l-0.069,0.037l-0.069,0.035l-0.07,0.034l-0.072,0.032l-0.072,0.032l-0.073,0.029l-0.075,0.028l-0.075,0.027l-0.076,0.025l-0.077,0.023l-0.078,0.022l-0.079,0.02l-0.079,0.019l-0.08,0.016l-0.081,0.016l-0.082,0.013l-0.083,0.012l-0.083,0.01l-0.083,0.008l-0.085,0.007l-0.085,0.004l-0.085,0.003l-0.086,0.001l-0.086,-0.001l-0.086,-0.003l-0.085,-0.004l-0.084,-0.007l-0.084,-0.008l-0.083,-0.01l-0.082,-0.012l-0.082,-0.013l-0.081,-0.016l-0.08,-0.016l-0.08,-0.019l-0.078,-0.02l-0.078,-0.022l-0.077,-0.023l-0.076,-0.025l-0.076,-0.027l-0.074,-0.028l-0.073,-0.029l-0.073,-0.032l-0.071,-0.032l-0.07,-0.034l-0.07,-0.035l-0.068,-0.037l-0.067,-0.038l-0.066,-0.039l-0.065,-0.041l-0.063,-0.042l-0.063,-0.044l-0.061,-0.044l-0.06,-0.046l-0.058,-0.047l-0.058,-0.048l-0.055,-0.049l-0.055,-0.051l-0.053,-0.052l-0.052,-0.052l-0.05,-0.054l-0.049,-0.055l-0.047,-0.056l-0.046,-0.057l-0.044,-0.057l-0.043,-0.059l-0.041,-0.06l-0.039,-0.061l-0.038,-0.061l-0.036,-0.062l-0.034,-0.064l-0.032,-0.064l-0.031,-0.065l-0.029,-0.065l-0.027,-0.067l-0.026,-0.067l-0.023,-0.068l-0.022,-0.068l-0.019,-0.069l-0.018,-0.07l-0.016,-0.071l-0.013,-0.071l-0.012,-0.071l-0.009,-0.072l-0.008,-0.073l-0.005,-0.073l-0.004,-0.074l-0.001,-0.074l0.001,-0.074l0.004,-0.074l0.005,-0.073l0.008,-0.073l0.009,-0.072l0.012,-0.072l0.013,-0.071l0.016,-0.07l0.018,-0.07l0.019,-0.069l0.022,-0.069l0.023,-0.067l0.026,-0.068l0.027,-0.066l0.029,-0.066l0.031,-0.064l0.032,-0.065l0.034,-0.063l0.036,-0.062l0.038,-0.062l0.039,-0.06l0.041,-0.06l0.043,-0.059l0.044,-0.058l0.046,-0.057l0.047,-0.055l0.049,-0.055l0.05,-0.054l0.052,-0.053l0.053,-0.051l0.055,-0.051l0.055,-0.049l0.058,-0.048l0.058,-0.047l0.06,-0.046l0.061,-0.045l0.063,-0.043l0.063,-0.042l0.065,-0.041l0.066,-0.039l0.067,-0.038l0.068,-0.037l0.07,-0.035l0.07,-0.034l0.071,-0.033l0.073,-0.031l0.073,-0.029l0.074,-0.028l0.076,-0.027l0.076,-0.025l0.077,-0.023l0.078,-0.022l0.078,-0.02l0.08,-0.019l0.08,-0.017l0.081,-0.015l0.082,-0.013l0.082,-0.012l0.083,-0.01l0.084,-0.009l0.084,-0.006l0.085,-0.005l0.086,-0.002l0.086,-0.001l0.086,0.001Zm-0.11,2.868l-0.022,0l-0.022,0.002l-0.023,0.001l-0.014,0.002l0.014,0.001l0.022,0.002l0.022,0.001l0.024,0.001l0.023,0l0.023,0l0.023,-0.001l0.023,-0.001l0.021,-0.002l0.015,-0.001l-0.015,-0.002l-0.022,-0.001l-0.022,-0.002l-0.022,0l-0.024,0l-0.024,0Z" style="fill:#003;"/><clipPath id="_clip2"><path d="M196.641,275.688l-18.095,-9.086l-9.121,18.167l18.095,9.085l9.121,-18.166Z"/></clipPath><g clip-path="url(#_clip2)"><path d="M190.364,272.536c6.523,3.275 9.775,10.004 7.258,15.017c-2.517,5.013 -9.857,6.425 -16.379,3.15c-6.523,-3.275 -9.775,-10.004 -7.258,-15.017c2.517,-5.014 9.856,-6.425 16.379,-3.15Z" style="fill:#003;"/><path d="M183.277,270.771l0.15,0.001l0.15,0.004l0.151,0.005l0.151,0.007l0.151,0.008l0.152,0.01l0.152,0.011l0.153,0.013l0.152,0.015l0.153,0.016l0.154,0.018l0.153,0.019l0.154,0.021l0.154,0.023l0.154,0.024l0.155,0.026l0.155,0.027l0.154,0.029l0.155,0.031l0.156,0.032l0.155,0.034l0.155,0.036l0.156,0.037l0.155,0.039l0.156,0.041l0.155,0.042l0.156,0.044l0.156,0.045l0.155,0.048l0.156,0.048l0.155,0.051l0.156,0.052l0.155,0.054l0.156,0.056l0.155,0.057l0.155,0.059l0.155,0.06l0.155,0.063l0.155,0.064l0.154,0.065l0.154,0.068l0.154,0.069l0.154,0.07l0.154,0.073l0.153,0.074l0.153,0.076l0.152,0.077l0.151,0.079l0.15,0.08l0.149,0.081l0.147,0.082l0.147,0.084l0.144,0.084l0.144,0.086l0.143,0.087l0.141,0.088l0.14,0.09l0.138,0.09l0.138,0.091l0.136,0.093l0.134,0.093l0.134,0.095l0.132,0.096l0.131,0.096l0.129,0.098l0.129,0.098l0.126,0.1l0.126,0.101l0.124,0.101l0.123,0.102l0.121,0.104l0.12,0.104l0.119,0.105l0.117,0.106l0.116,0.107l0.114,0.107l0.113,0.109l0.112,0.109l0.11,0.11l0.109,0.111l0.107,0.112l0.106,0.112l0.104,0.113l0.103,0.114l0.102,0.114l0.1,0.115l0.098,0.116l0.097,0.117l0.096,0.117l0.094,0.118l0.092,0.118l0.091,0.119l0.09,0.12l0.088,0.12l0.086,0.121l0.085,0.121l0.083,0.122l0.082,0.122l0.08,0.123l0.078,0.123l0.077,0.124l0.076,0.124l0.074,0.124l0.072,0.126l0.07,0.125l0.069,0.126l0.068,0.126l0.065,0.127l0.064,0.127l0.063,0.127l0.061,0.127l0.059,0.128l0.057,0.128l0.056,0.129l0.054,0.129l0.052,0.128l0.051,0.13l0.049,0.129l0.047,0.13l0.046,0.129l0.043,0.13l0.043,0.13l0.04,0.131l0.038,0.13l0.037,0.131l0.035,0.13l0.034,0.131l0.031,0.13l0.03,0.131l0.028,0.131l0.026,0.131l0.024,0.131l0.023,0.131l0.021,0.13l0.018,0.131l0.017,0.131l0.016,0.131l0.013,0.13l0.012,0.131l0.009,0.13l0.008,0.13l0.006,0.13l0.004,0.13l0.002,0.13l0,0.13l-0.002,0.129l-0.003,0.129l-0.006,0.129l-0.007,0.129l-0.009,0.128l-0.012,0.129l-0.013,0.127l-0.015,0.128l-0.017,0.127l-0.02,0.127l-0.021,0.127l-0.023,0.126l-0.025,0.126l-0.027,0.125l-0.029,0.125l-0.031,0.125l-0.033,0.124l-0.036,0.124l-0.037,0.123l-0.039,0.123l-0.041,0.122l-0.044,0.122l-0.045,0.121l-0.048,0.121l-0.049,0.12l-0.052,0.12l-0.054,0.119l-0.055,0.118l-0.058,0.118l-0.06,0.117l-0.062,0.116l-0.063,0.114l-0.065,0.113l-0.067,0.111l-0.069,0.11l-0.07,0.109l-0.071,0.108l-0.074,0.106l-0.075,0.105l-0.077,0.103l-0.078,0.102l-0.08,0.101l-0.081,0.1l-0.083,0.098l-0.084,0.096l-0.086,0.096l-0.088,0.093l-0.089,0.093l-0.09,0.091l-0.092,0.09l-0.093,0.088l-0.095,0.087l-0.096,0.086l-0.097,0.084l-0.099,0.083l-0.1,0.082l-0.101,0.08l-0.103,0.078l-0.104,0.078l-0.106,0.075l-0.106,0.075l-0.108,0.073l-0.109,0.071l-0.11,0.071l-0.112,0.068l-0.113,0.068l-0.114,0.065l-0.115,0.065l-0.116,0.063l-0.117,0.061l-0.118,0.06l-0.12,0.059l-0.12,0.057l-0.122,0.056l-0.123,0.054l-0.123,0.053l-0.125,0.051l-0.126,0.05l-0.126,0.049l-0.128,0.047l-0.128,0.045l-0.13,0.044l-0.13,0.042l-0.132,0.041l-0.132,0.04l-0.133,0.038l-0.134,0.037l-0.134,0.035l-0.136,0.033l-0.136,0.032l-0.137,0.031l-0.138,0.029l-0.139,0.027l-0.139,0.026l-0.14,0.025l-0.141,0.022l-0.141,0.022l-0.142,0.02l-0.143,0.018l-0.144,0.017l-0.144,0.015l-0.144,0.014l-0.145,0.012l-0.146,0.011l-0.147,0.009l-0.146,0.007l-0.148,0.006l-0.148,0.004l-0.148,0.003l-0.149,0.002l-0.149,-0.001l-0.15,-0.002l-0.15,-0.003l-0.151,-0.005l-0.151,-0.007l-0.151,-0.008l-0.152,-0.01l-0.152,-0.011l-0.153,-0.013l-0.152,-0.015l-0.153,-0.016l-0.154,-0.018l-0.153,-0.019l-0.154,-0.021l-0.154,-0.023l-0.155,-0.024l-0.154,-0.026l-0.155,-0.027l-0.155,-0.029l-0.155,-0.031l-0.155,-0.032l-0.155,-0.034l-0.155,-0.036l-0.156,-0.037l-0.155,-0.039l-0.156,-0.041l-0.155,-0.042l-0.156,-0.044l-0.156,-0.046l-0.155,-0.047l-0.156,-0.049l-0.156,-0.05l-0.155,-0.052l-0.155,-0.054l-0.156,-0.056l-0.155,-0.057l-0.155,-0.059l-0.155,-0.061l-0.155,-0.062l-0.155,-0.064l-0.154,-0.065l-0.154,-0.068l-0.155,-0.069l-0.153,-0.071l-0.154,-0.072l-0.153,-0.074l-0.153,-0.076l-0.152,-0.078l-0.152,-0.078l-0.149,-0.08l-0.149,-0.081l-0.147,-0.082l-0.147,-0.084l-0.145,-0.085l-0.143,-0.085l-0.143,-0.087l-0.141,-0.089l-0.14,-0.089l-0.138,-0.09l-0.138,-0.091l-0.136,-0.093l-0.135,-0.094l-0.133,-0.094l-0.132,-0.096l-0.131,-0.096l-0.129,-0.098l-0.129,-0.099l-0.126,-0.099l-0.126,-0.101l-0.124,-0.101l-0.123,-0.103l-0.121,-0.103l-0.12,-0.104l-0.119,-0.105l-0.117,-0.106l-0.116,-0.107l-0.114,-0.108l-0.113,-0.108l-0.112,-0.109l-0.11,-0.11l-0.109,-0.111l-0.107,-0.112l-0.106,-0.112l-0.104,-0.113l-0.103,-0.114l-0.102,-0.114l-0.1,-0.116l-0.098,-0.115l-0.097,-0.117l-0.096,-0.117l-0.094,-0.118l-0.092,-0.118l-0.091,-0.119l-0.09,-0.12l-0.088,-0.12l-0.086,-0.121l-0.085,-0.121l-0.083,-0.122l-0.082,-0.122l-0.08,-0.123l-0.079,-0.123l-0.077,-0.124l-0.075,-0.124l-0.074,-0.125l-0.072,-0.125l-0.07,-0.125l-0.069,-0.126l-0.068,-0.126l-0.065,-0.127l-0.065,-0.127l-0.062,-0.127l-0.061,-0.127l-0.059,-0.128l-0.057,-0.129l-0.056,-0.128l-0.054,-0.129l-0.052,-0.129l-0.051,-0.129l-0.049,-0.129l-0.047,-0.13l-0.046,-0.13l-0.044,-0.13l-0.042,-0.13l-0.04,-0.13l-0.039,-0.13l-0.036,-0.131l-0.035,-0.13l-0.034,-0.131l-0.031,-0.131l-0.03,-0.13l-0.028,-0.131l-0.026,-0.131l-0.024,-0.131l-0.023,-0.131l-0.021,-0.131l-0.019,-0.13l-0.017,-0.131l-0.015,-0.131l-0.013,-0.13l-0.012,-0.131l-0.009,-0.13l-0.008,-0.13l-0.006,-0.131l-0.004,-0.129l-0.002,-0.13l0,-0.13l0.001,-0.129l0.004,-0.129l0.006,-0.129l0.007,-0.129l0.009,-0.129l0.012,-0.128l0.013,-0.128l0.015,-0.127l0.017,-0.127l0.019,-0.127l0.022,-0.127l0.023,-0.126l0.025,-0.126l0.027,-0.126l0.029,-0.125l0.031,-0.124l0.033,-0.124l0.036,-0.124l0.037,-0.123l0.039,-0.123l0.041,-0.123l0.044,-0.121l0.045,-0.122l0.048,-0.12l0.049,-0.121l0.052,-0.119l0.053,-0.119l0.056,-0.119l0.058,-0.117l0.06,-0.117l0.062,-0.116l0.063,-0.114l0.065,-0.113l0.067,-0.111l0.068,-0.111l0.071,-0.108l0.071,-0.108l0.074,-0.106l0.075,-0.105l0.076,-0.103l0.079,-0.102l0.079,-0.101l0.082,-0.1l0.083,-0.098l0.084,-0.096l0.086,-0.096l0.088,-0.094l0.088,-0.092l0.091,-0.091l0.092,-0.09l0.093,-0.089l0.094,-0.087l0.096,-0.085l0.098,-0.085l0.099,-0.082l0.1,-0.082l0.101,-0.08l0.103,-0.079l0.104,-0.077l0.105,-0.076l0.107,-0.074l0.108,-0.073l0.109,-0.072l0.11,-0.07l0.112,-0.068l0.113,-0.068l0.113,-0.066l0.115,-0.064l0.117,-0.063l0.117,-0.061l0.118,-0.061l0.12,-0.058l0.12,-0.057l0.122,-0.056l0.123,-0.054l0.123,-0.053l0.125,-0.052l0.126,-0.049l0.126,-0.049l0.128,-0.047l0.128,-0.045l0.13,-0.044l0.13,-0.043l0.131,-0.041l0.133,-0.039l0.133,-0.038l0.134,-0.037l0.134,-0.035l0.136,-0.033l0.136,-0.032l0.137,-0.031l0.138,-0.029l0.139,-0.027l0.139,-0.026l0.14,-0.025l0.141,-0.023l0.141,-0.021l0.142,-0.02l0.143,-0.018l0.143,-0.017l0.144,-0.015l0.145,-0.014l0.145,-0.012l0.146,-0.011l0.146,-0.009l0.147,-0.007l0.148,-0.006l0.148,-0.005l0.148,-0.002l0.149,-0.002l0.149,0.001Zm-0.225,5.299l-0.092,0.002l-0.092,0.003l-0.09,0.003l-0.09,0.005l-0.09,0.005l-0.088,0.007l-0.087,0.007l-0.087,0.008l-0.087,0.01l-0.084,0.01l-0.084,0.01l-0.084,0.012l-0.082,0.012l-0.082,0.014l-0.08,0.014l-0.08,0.015l-0.078,0.015l-0.078,0.016l-0.077,0.018l-0.075,0.017l-0.075,0.019l-0.073,0.019l-0.072,0.02l-0.072,0.02l-0.071,0.021l-0.069,0.022l-0.068,0.022l-0.067,0.023l-0.066,0.023l-0.066,0.024l-0.063,0.024l-0.062,0.025l-0.062,0.025l-0.061,0.027l-0.059,0.026l-0.058,0.026l-0.057,0.027l-0.056,0.028l-0.055,0.027l-0.054,0.029l-0.052,0.028l-0.051,0.029l-0.051,0.029l-0.049,0.029l-0.048,0.03l-0.047,0.03l-0.046,0.03l-0.044,0.03l-0.044,0.031l-0.043,0.031l-0.042,0.03l-0.04,0.032l-0.04,0.031l-0.038,0.031l-0.038,0.032l-0.037,0.031l-0.036,0.032l-0.034,0.032l-0.034,0.032l-0.033,0.033l-0.033,0.032l-0.031,0.033l-0.03,0.032l-0.03,0.034l-0.029,0.033l-0.028,0.033l-0.028,0.034l-0.027,0.034l-0.026,0.034l-0.025,0.035l-0.026,0.035l-0.024,0.034l-0.023,0.036l-0.023,0.036l-0.023,0.036l-0.022,0.037l-0.021,0.037l-0.022,0.038l-0.02,0.038l-0.02,0.039l-0.019,0.04l-0.019,0.039l-0.017,0.039l-0.018,0.04l-0.016,0.04l-0.016,0.039l-0.015,0.04l-0.014,0.041l-0.014,0.04l-0.013,0.041l-0.012,0.041l-0.012,0.041l-0.011,0.043l-0.01,0.041l-0.01,0.043l-0.01,0.043l-0.008,0.044l-0.008,0.043l-0.008,0.045l-0.007,0.046l-0.006,0.046l-0.006,0.046l-0.004,0.047l-0.005,0.048l-0.003,0.048l-0.003,0.049l-0.002,0.049l-0.001,0.051l-0.001,0.051l0,0.052l0.001,0.052l0.001,0.054l0.003,0.054l0.003,0.055l0.004,0.055l0.005,0.056l0.006,0.058l0.007,0.057l0.007,0.058l0.009,0.059l0.009,0.06l0.011,0.061l0.011,0.061l0.013,0.062l0.013,0.063l0.014,0.062l0.016,0.065l0.016,0.065l0.018,0.064l0.018,0.066l0.02,0.067l0.021,0.067l0.021,0.067l0.023,0.068l0.024,0.068l0.026,0.069l0.026,0.07l0.027,0.069l0.029,0.071l0.03,0.071l0.031,0.071l0.032,0.072l0.033,0.072l0.034,0.072l0.036,0.073l0.037,0.073l0.038,0.073l0.039,0.074l0.04,0.073l0.042,0.074l0.043,0.075l0.044,0.074l0.045,0.075l0.047,0.074l0.047,0.075l0.049,0.075l0.05,0.074l0.051,0.075l0.053,0.075l0.054,0.076l0.054,0.074l0.056,0.075l0.058,0.075l0.058,0.075l0.06,0.075l0.061,0.075l0.062,0.074l0.063,0.074l0.064,0.074l0.066,0.074l0.066,0.074l0.068,0.074l0.069,0.073l0.07,0.073l0.072,0.073l0.072,0.072l0.074,0.072l0.075,0.072l0.075,0.071l0.078,0.071l0.078,0.071l0.079,0.07l0.08,0.07l0.082,0.069l0.082,0.069l0.084,0.068l0.085,0.068l0.086,0.068l0.086,0.066l0.088,0.067l0.089,0.066l0.09,0.065l0.091,0.064l0.092,0.064l0.094,0.064l0.094,0.062l0.095,0.062l0.097,0.062l0.097,0.06l0.098,0.06l0.1,0.06l0.1,0.059l0.101,0.057l0.102,0.057l0.104,0.057l0.104,0.055l0.106,0.055l0.106,0.054l0.106,0.053l0.107,0.052l0.107,0.05l0.107,0.049l0.106,0.048l0.108,0.047l0.107,0.046l0.107,0.044l0.106,0.043l0.107,0.041l0.107,0.041l0.106,0.039l0.107,0.038l0.107,0.037l0.106,0.036l0.107,0.035l0.106,0.033l0.105,0.032l0.106,0.031l0.106,0.03l0.105,0.028l0.105,0.028l0.104,0.026l0.105,0.025l0.104,0.024l0.104,0.022l0.104,0.022l0.103,0.021l0.103,0.019l0.103,0.018l0.103,0.017l0.101,0.016l0.101,0.015l0.101,0.014l0.1,0.013l0.101,0.011l0.099,0.011l0.1,0.009l0.097,0.009l0.098,0.007l0.098,0.006l0.096,0.005l0.097,0.005l0.096,0.003l0.094,0.002l0.094,0.001l0.093,0l0.094,0l0.092,-0.002l0.092,-0.003l0.09,-0.003l0.09,-0.005l0.09,-0.006l0.088,-0.006l0.087,-0.007l0.087,-0.009l0.086,-0.009l0.085,-0.01l0.084,-0.01l0.084,-0.012l0.082,-0.013l0.082,-0.013l0.08,-0.014l0.08,-0.015l0.078,-0.015l0.078,-0.017l0.077,-0.017l0.075,-0.017l0.075,-0.019l0.073,-0.019l0.072,-0.02l0.071,-0.02l0.072,-0.021l0.069,-0.022l0.068,-0.022l0.067,-0.023l0.066,-0.023l0.065,-0.024l0.064,-0.025l0.063,-0.025l0.061,-0.025l0.061,-0.026l0.059,-0.026l0.058,-0.026l0.057,-0.028l0.056,-0.027l0.054,-0.028l0.055,-0.028l0.052,-0.029l0.051,-0.028l0.051,-0.029l0.049,-0.03l0.048,-0.029l0.047,-0.03l0.045,-0.03l0.045,-0.03l0.045,-0.031l0.042,-0.031l0.041,-0.031l0.041,-0.031l0.04,-0.031l0.038,-0.031l0.038,-0.032l0.037,-0.032l0.035,-0.032l0.035,-0.032l0.034,-0.032l0.033,-0.032l0.032,-0.033l0.032,-0.032l0.03,-0.033l0.03,-0.033l0.029,-0.033l0.028,-0.033l0.028,-0.034l0.027,-0.034l0.026,-0.034l0.025,-0.034l0.025,-0.036l0.025,-0.035l0.023,-0.035l0.023,-0.036l0.023,-0.037l0.022,-0.036l0.021,-0.037l0.022,-0.039l0.02,-0.038l0.02,-0.039l0.019,-0.039l0.019,-0.039l0.017,-0.039l0.018,-0.04l0.016,-0.04l0.016,-0.039l0.015,-0.041l0.014,-0.04l0.013,-0.04l0.014,-0.041l0.012,-0.041l0.012,-0.041l0.011,-0.043l0.011,-0.042l0.009,-0.041l0.01,-0.044l0.008,-0.045l0.008,-0.042l0.008,-0.045l0.007,-0.046l0.006,-0.046l0.005,-0.046l0.005,-0.047l0.005,-0.048l0.003,-0.048l0.003,-0.049l0.002,-0.05l0.001,-0.05l0.001,-0.051l0,-0.052l-0.001,-0.053l-0.002,-0.053l-0.002,-0.054l-0.003,-0.055l-0.004,-0.055l-0.005,-0.056l-0.006,-0.058l-0.007,-0.057l-0.007,-0.058l-0.009,-0.06l-0.009,-0.059l-0.011,-0.062l-0.011,-0.06l-0.013,-0.062l-0.013,-0.063l-0.014,-0.063l-0.016,-0.064l-0.016,-0.065l-0.018,-0.064l-0.018,-0.066l-0.02,-0.067l-0.021,-0.067l-0.021,-0.067l-0.023,-0.068l-0.024,-0.068l-0.026,-0.07l-0.026,-0.069l-0.027,-0.07l-0.029,-0.07l-0.03,-0.071l-0.031,-0.071l-0.032,-0.072l-0.033,-0.072l-0.035,-0.073l-0.035,-0.072l-0.037,-0.073l-0.038,-0.073l-0.039,-0.074l-0.04,-0.073l-0.042,-0.074l-0.043,-0.075l-0.044,-0.074l-0.045,-0.075l-0.047,-0.074l-0.047,-0.075l-0.049,-0.075l-0.05,-0.075l-0.051,-0.074l-0.053,-0.075l-0.053,-0.075l-0.056,-0.076l-0.055,-0.075l-0.058,-0.074l-0.058,-0.075l-0.06,-0.075l-0.061,-0.075l-0.062,-0.074l-0.063,-0.074l-0.064,-0.075l-0.066,-0.073l-0.066,-0.074l-0.068,-0.074l-0.07,-0.073l-0.07,-0.073l-0.071,-0.073l-0.072,-0.072l-0.074,-0.072l-0.075,-0.072l-0.076,-0.071l-0.076,-0.071l-0.079,-0.071l-0.079,-0.07l-0.08,-0.07l-0.082,-0.069l-0.082,-0.069l-0.084,-0.068l-0.085,-0.068l-0.086,-0.068l-0.086,-0.067l-0.088,-0.066l-0.089,-0.066l-0.091,-0.065l-0.09,-0.064l-0.092,-0.064l-0.094,-0.064l-0.094,-0.062l-0.095,-0.062l-0.097,-0.062l-0.097,-0.061l-0.098,-0.059l-0.1,-0.06l-0.1,-0.059l-0.101,-0.057l-0.103,-0.058l-0.103,-0.056l-0.105,-0.056l-0.105,-0.054l-0.105,-0.054l-0.108,-0.053l-0.106,-0.052l-0.107,-0.05l-0.107,-0.05l-0.107,-0.047l-0.107,-0.047l-0.107,-0.046l-0.107,-0.044l-0.106,-0.043l-0.107,-0.042l-0.107,-0.04l-0.107,-0.039l-0.107,-0.039l-0.106,-0.036l-0.106,-0.036l-0.107,-0.035l-0.105,-0.033l-0.106,-0.032l-0.106,-0.031l-0.106,-0.03l-0.105,-0.028l-0.105,-0.028l-0.104,-0.026l-0.105,-0.025l-0.105,-0.024l-0.103,-0.023l-0.104,-0.021l-0.103,-0.021l-0.103,-0.019l-0.103,-0.018l-0.103,-0.018l-0.101,-0.015l-0.101,-0.015l-0.101,-0.014l-0.101,-0.013l-0.1,-0.011l-0.099,-0.011l-0.1,-0.009l-0.097,-0.009l-0.099,-0.007l-0.097,-0.006l-0.096,-0.006l-0.097,-0.004l-0.096,-0.003l-0.094,-0.002l-0.094,-0.001l-0.094,-0.001l-0.093,0.001Z" style="fill:#003;"/></g><path d="M172.862,279.883c-0.977,-3.535 -2.799,-5.638 -5.951,-5.489l1.554,-6.588c2.742,3.006 9.975,6.331 14.568,5.769l-9.753,6.653" style="fill:#003;stroke:#003;stroke-width:4.5px;stroke-linecap:round;stroke-linejoin:round;"/></g></g><g><path d="M47.382,460.858c12.852,-0.058 25.703,-0.116 38.555,-0.173" style="fill:none;stroke:#036;stroke-width:6px;stroke-linecap:round;stroke-linejoin:round;"/><path d="M52.598,427.023c-3.477,18.486 -6.955,36.972 -10.432,55.457" style="fill:none;stroke:#036;stroke-width:6px;stroke-linecap:round;stroke-linejoin:round;"/><path d="M80.166,427.023c3.477,18.486 6.955,36.972 10.432,55.457" style="fill:none;stroke:#036;stroke-width:6px;stroke-linecap:round;stroke-linejoin:round;"/><path d="M106.063,412.342c0,-2.701 -2.193,-4.893 -4.893,-4.893l-60.599,0c-2.701,0 -4.894,2.192 -4.894,4.893l0,9.787c0,2.701 2.193,4.894 4.894,4.894l60.599,0c2.7,0 4.893,-2.193 4.893,-4.894l0,-9.787Z" style="fill:#036;"/></g><path d="M140.368,467.274c-0.788,3.995 7.011,10.054 9.463,11.11c2.423,1.043 4.601,4.399 2.999,9.89l-28.107,0c0,0 -1.502,-8.66 -2.402,-7.236l0,7.236l-2.98,0l0,-18.339c7.851,3.241 13.95,3.326 21.027,-2.661" style="fill:#633;"/><path d="M175.524,462.307c-0.788,3.739 8.4,10.757 10.852,11.745c2.423,0.977 4.601,4.116 2.999,9.255l-28.107,0c0,0 -1.502,-8.104 -2.402,-6.771l0,6.771l-2.98,0l0,-17.161c7.193,-0.59 11.895,-0.608 19.681,-2.309" style="fill:#633;"/><path d="M16.725,387.2c-1.859,8.868 -3.163,10.014 -2.699,17.539c1.1,17.811 40.252,24.288 72.405,16.904c0.413,25.309 17.974,39.539 31.854,52.837l23.519,-4.975l-26.468,-66.586c11.139,29.063 22.342,51.681 38.264,64.273l23.36,-1.922c-4.249,-23.661 -11.095,-46.327 -22.93,-67.081l-62.361,-19.846l-74.944,8.857Z" style="fill:#ccc;"/><path d="M66.603,315.609c-43.845,1.003 -69.075,51.226 -46.907,74.227c6.056,6.284 18.213,3.013 31.619,3.145c7.344,0.072 24.5,1.364 32.362,-0.033c6.186,-1.099 15.881,-5.516 20.136,-5.544c9.36,-0.06 8.377,-7.558 5.201,-14.31c-1.524,-3.241 10.156,14.497 11.35,10.794l13.361,-15.307c-0.1,-16.891 -14.652,-34.329 -29.23,-43.717c-4.125,-2.656 -8.424,-2.407 -13.791,-4.853c-6.557,9.482 -14.743,6.879 -24.101,-4.402Z" style="fill:#f60;"/><path d="M33.579,364.716c-0.749,4.039 -0.502,4.264 1.106,7.731c-3.227,-3.781 -3.59,-3.808 -1.106,-7.731Z" style="fill:#fff;"/><path d="M116.891,364.247c0,0 50.5,-0.57 51.295,0c0.447,0.321 -12.683,34.871 -12.683,34.871l-51.008,-0.486l12.396,-34.385Z" style="fill:#666;"/><path d="M79.824,379.161c3.153,0.769 6.628,1.18 10.34,-0.101c13.624,-7.189 16.495,-2.099 6.631,2.287l8.543,-0.582c6.485,3.301 5.103,6.802 1.351,10.468c-9.614,1.36 -19.097,2.12 -28.036,0.42l1.171,-12.492Z" style="fill:#966;"/><g><g><ellipse cx="74.833" cy="297" rx="19.967" ry="21.105" style="fill:#966;"/><path d="M85.173,315.283l6.135,6.712c-4.169,11.797 -25.821,5.881 -29.901,-6.096l2.987,-3.015l20.779,2.399Z" style="fill:#966;"/></g><path d="M68.45,318.104c-10.621,-9.993 -14.046,-29.421 -5.658,-28.804c6.446,1.704 11.638,-2.675 15.175,-6.689l10.203,3.907c9.687,6.957 7.535,21.796 -4.269,30.739c10.317,-0.113 15.643,-4.25 15.549,-15.104c7.581,-7.748 6.885,-14.035 -2.664,-20.019c1.196,-10.996 -3.705,-13.315 -12.517,-10.066c-5.112,-6.418 -10.408,-7.678 -15.98,-1.115c-10.137,-0.767 -14.206,3.133 -13.422,10.764c-8.572,2.216 -7.926,8.022 -3.546,15.283c-2.347,13.597 4.688,21.212 17.129,21.104Z" style="stroke:#000;stroke-width:1px;stroke-linecap:round;stroke-linejoin:round;"/></g><path d="M388.25,227.358l-0.433,6.773l4.311,-0.421l-3.878,-6.352" style="fill:#966;"/><g><path d="M366.024,345.441c-8.859,9.918 -2.39,32.875 0.569,46.053c-0.205,21.818 2.569,40.288 8.027,57.2c11.616,3.445 23.592,2.986 35.786,0.164c2.481,-13.499 5.275,-39.243 2.43,-52.741l8.04,-0.406c-3.828,12.63 -0.976,38.234 0.246,51.489c13.955,4.265 24.692,3.085 34.302,0c7.086,-17.694 9.081,-37.533 8.015,-58.661c4.67,-10.233 10.205,-39.023 6.502,-47.44l-103.917,4.342Z" style="fill:#036;"/><path d="M455.044,454.534c0.862,2.136 6.248,1.346 9.783,2.255c3.493,0.897 6.631,3.784 4.322,8.509l-48.273,0l0,-18.098c5.628,2.264 20.122,2.516 32.929,0.461" style="fill:#003;"/><path d="M439.664,259.166c50.281,25.366 43.397,54.284 30.614,83.729c-29.238,18.676 -73.814,11.348 -106.999,2.768c-7.242,-25.903 -8.022,-53.565 8.193,-70.31c8.92,-9.211 24.636,-14.714 43.373,-15.752l24.819,-0.435Z" style="fill:#9c9;"/><path d="M376.239,454.534c-0.862,2.136 -6.248,1.346 -9.783,2.255c-3.493,0.897 -6.631,3.784 -4.322,8.509l48.272,0l0,-18.098c-5.627,2.264 -20.695,4.035 -33.502,1.98" style="fill:#003;"/><path d="M395.86,314.393c-8.367,-5.345 -17.199,-6.789 -26.118,-7.496c6.088,-5.32 11.323,-11.21 14.872,-18.223l-15.795,-7.371c-26.852,20.334 -33.748,35.316 -10.391,42.189l37.432,-9.099Z" style="fill:#9c9;"/><path d="M440.142,312.989c8.896,-4.654 17.842,-5.386 26.798,-5.379c-5.501,-5.784 -10.092,-12.066 -12.886,-19.333l16.506,-6.079c24.594,22.391 29.88,37.862 5.896,42.84l-36.314,-12.049Z" style="fill:#9c9;"/><path d="M412.227,260.78l-3.097,8.652c5.672,5.472 12.257,5.47 19.6,0.934l-0.312,-11.2l-16.191,1.614Z" style="fill:#966;"/><path d="M456.187,313.987c-4.124,0.912 -8.462,2.587 -13.777,3.729c-21.169,-3.241 -22.805,3.707 -7.83,5.108c0,0 17.355,10.45 28.501,5.161l-6.894,-13.998Z" style="fill:#966;"/><path d="M428.509,309.75c0,-2.642 -2.146,-4.787 -4.788,-4.787l-11.571,0c-2.643,0 -4.788,2.145 -4.788,4.787l0,20.923c0,2.642 2.145,4.788 4.788,4.788l11.571,0c2.642,0 4.788,-2.146 4.788,-4.788l0,-20.923Z"/><path d="M376.203,310.259c4.154,0.055 8.744,0.796 14.089,0.834c18.901,-7.286 22.566,-0.973 8.922,3.329c0,0 -13.111,13.418 -25.204,10.573l2.193,-14.736Z" style="fill:#966;"/><path d="M376.054,310.373c4.119,0.082 8.675,0.849 13.975,0.922c10.357,-3.944 11.982,-2.822 12.746,-1.166c0.613,1.33 2.135,2.669 -3.872,4.532l11.563,0.173c8.638,4.548 6.641,8.54 1.437,12.488c-13.04,0.637 -25.879,0.58 -37.893,-2.327l2.044,-14.622Z" style="fill:#966;"/><path d="M456.187,313.987c-4.124,0.912 -8.462,2.587 -13.777,3.729c-11.741,-1.798 -13.008,-0.364 -13.231,1.423c-0.178,1.434 -1.269,3.061 5.401,3.685l-11.595,2.503c-7.203,6.226 -3.87,9.757 2.679,12.598c13.352,-2.004 26.271,-4.651 37.417,-9.94l-6.894,-13.998Z" style="fill:#966;"/></g><path d="M404.181,218.595c13.245,-4.069 27.563,3.073 31.954,15.94c4.392,12.867 -2.795,26.616 -16.039,30.685c-13.245,4.069 -27.563,-3.074 -31.955,-15.94c-4.391,-12.867 2.796,-26.616 16.04,-30.685Z" style="fill:#966;"/><path d="M387.421,235.104c-2.322,-4.074 -5.027,-9.567 -1.209,-7.703c1.307,0.638 3.183,0.273 3.085,0.165c-0.476,-0.521 -2.146,-3.563 -0.518,-4.59c0.598,-0.377 4.412,1.662 4.878,1.178c18.528,-19.214 60.147,5.951 39.064,31.828l-7.729,-10.198c4.407,-1.986 1.54,-13.906 -5.258,-6.356c-6.397,0.941 -5.921,-5.685 -10.73,-5.707c-8.015,-0.037 -19.823,4.965 -21.583,1.383Z"/><rect x="0" y="0" width="496.367" height="514.882" style="fill:none;"/></svg>