<?xml version="1.0" encoding="UTF-8" standalone="no"?><!DOCTYPE svg PUBLIC "-//W3C//DTD SVG 1.1//EN" "http://www.w3.org/Graphics/SVG/1.1/DTD/svg11.dtd"><svg width="100%" height="100%" viewBox="0 0 551 397" version="1.1" xmlns="http://www.w3.org/2000/svg" xmlns:xlink="http://www.w3.org/1999/xlink" xml:space="preserve" xmlns:serif="http://www.serif.com/" style="fill-rule:evenodd;clip-rule:evenodd;stroke-linecap:round;stroke-linejoin:round;stroke-miterlimit:1.5;"><g><rect x="0" y="0" width="550" height="395.578" style="fill:#fff;"/><path d="M178.456,62.384c14.039,24.003 26.502,20.462 38.914,2.848c5.932,-20.589 -2.699,-22.986 -18.697,-16.179c9.76,-37.859 -3.535,-38.21 -35.082,-15.175c-4.608,-43.779 -44.404,-27.845 -45.866,0c-19.575,-29.162 -56.691,-25.926 -54.501,12.808c-8.973,-6.186 -12.483,-4.67 -11.78,2.79c7.024,5.694 10.26,11.644 10.26,11.644c44.687,31.71 87.022,44.248 116.752,1.264Z" style="fill:#cff;"/><path d="M267.97,102.29c-12.583,9.201 -25.533,10.614 -38.914,2.849l6.158,-9.496l12.54,-6.683c-0.892,-11.344 -20.754,-20.546 -20.084,-27.482c2.269,-23.469 33.402,-20.986 55.165,12.307c5.423,-37.711 45.047,-24.778 45.866,0c11.863,-8.363 21.97,-10.462 27.187,4.889c11.941,-10.798 20.969,-7.796 27.314,7.919c8.973,-6.186 12.484,-4.67 11.78,2.789c-7.023,5.695 -14.051,6.604 -21.079,6.092l10.819,5.553c-42.027,27.786 -82.734,57.57 -116.752,1.263Z" style="fill:#cff;"/><path d="M158.661,214.857l111.647,-6.746l191.835,95.912l87.857,0l0,92.366l-550,-1.218l0,-123.409l158.661,-56.905Z" style="fill:#06f;"/><path d="M338.711,146.952l-63.711,22.138l0,55.599l66.907,19.131l-3.196,-96.868Z" style="fill:#366;"/><path d="M0,61.478l11.916,0l37.991,33.026l0.553,146.619l-50.46,11.922l0,-191.567Z" style="fill:#9fc;"/><path d="M50.46,145.205l36.101,20.89l-0.024,65.052l-36.077,11.036l0,-96.978Z" style="fill:#09c;"/><path d="M86.561,164.829l0,-30.007l56.393,40.613l0.037,43.786l-56.43,11.982" style="fill:#069;"/><path d="M142.991,183.012l14.331,0l1.071,31.845l-16.203,5.682l0.801,-37.527Z" style="fill:#ccf;"/><path d="M61.941,238.768l13.635,-4.56c-0.171,-11.669 0.434,-21.225 -0.333,-27.823c-0.8,-6.88 -10.65,-7.127 -12.625,-1.947c-2.215,5.805 -0.813,21.331 -0.677,34.33Z" style="fill:#93f;"/><path d="M68.711,200.852l0.132,0.003l0.132,0.005l0.133,0.007l0.132,0.01l0.131,0.012l0.132,0.014l0.131,0.016l0.131,0.018l0.131,0.021l0.13,0.023l0.13,0.025l0.129,0.027l0.129,0.03l0.128,0.031l0.127,0.034l0.127,0.037l0.126,0.038l0.125,0.041l0.125,0.043l0.123,0.045l0.123,0.047l0.121,0.05l0.121,0.052l0.119,0.055l0.118,0.056l0.118,0.059l0.115,0.061l0.115,0.064l0.113,0.065l0.112,0.068l0.111,0.071l0.109,0.072l0.107,0.075l0.106,0.077l0.104,0.08l0.103,0.081l0.101,0.085l0.099,0.086l0.097,0.089l0.096,0.091l0.047,0.046l0.046,0.047l0.046,0.048l0.046,0.048l0.045,0.049l0.044,0.049l0.044,0.05l0.044,0.051l0.043,0.051l0.042,0.051l0.042,0.053l0.041,0.052l0.041,0.054l0.04,0.054l0.04,0.055l0.039,0.055l0.039,0.056l0.038,0.056l0.037,0.057l0.037,0.057l0.036,0.059l0.036,0.058l0.035,0.06l0.034,0.06l0.034,0.06l0.033,0.061l0.032,0.062l0.032,0.062l0.031,0.063l0.031,0.064l0.03,0.064l0.029,0.064l0.028,0.066l0.028,0.066l0.027,0.066l0.027,0.067l0.026,0.068l0.025,0.068l0.024,0.069l0.024,0.069l0.023,0.07l0.022,0.071l0.022,0.071l0.02,0.072l0.02,0.073l0.02,0.073l0.018,0.073l0.018,0.075l0.017,0.075l0.016,0.075l0.015,0.076l0.015,0.077l0.014,0.077l0.013,0.078l0.012,0.078l0.012,0.08l0.01,0.079l0.01,0.081l0.035,0.311l0.033,0.316l0.031,0.32l0.029,0.324l0.028,0.329l0.025,0.333l0.024,0.337l0.022,0.341l0.021,0.345l0.019,0.35l0.018,0.354l0.016,0.357l0.014,0.362l0.014,0.366l0.012,0.37l0.01,0.375l0.01,0.378l0.008,0.382l0.007,0.386l0.007,0.39l0.005,0.394l0.004,0.398l0.003,0.402l0.002,0.406l0.002,0.409l0,0.414l0,0.838l-0.004,0.854l-0.005,0.869l-0.007,0.883l-0.009,0.898l-0.019,1.84l-0.021,1.897l-0.009,0.969l-0.008,0.984l-0.007,0.996l-0.006,1.011l-0.002,1.023l-0.001,1.037l0.001,0.523l0.002,0.527l0.002,0.529l0.004,0.533l0.004,0.536l0.005,0.539l0.007,0.543l0.007,0.545l-13.635,4.56l-0.007,-0.611l-0.009,-0.615l-0.011,-0.618l-0.012,-0.62l-0.014,-0.623l-0.015,-0.626l-0.016,-0.627l-0.017,-0.629l-0.018,-0.631l-0.019,-0.632l-0.04,-1.266l-0.042,-1.267l-0.043,-1.267l-0.086,-2.521l-0.042,-1.251l-0.038,-1.24l-0.019,-0.616l-0.017,-0.613l-0.016,-0.609l-0.015,-0.605l-0.014,-0.601l-0.013,-0.596l-0.011,-0.592l-0.009,-0.587l-0.008,-0.581l-0.005,-0.576l-0.004,-0.571l-0.002,-0.564l0,-0.557l0.003,-0.551l0.005,-0.545l0.008,-0.536l0.01,-0.53l0.013,-0.521l0.007,-0.258l0.008,-0.256l0.009,-0.253l0.01,-0.252l0.011,-0.249l0.011,-0.247l0.012,-0.245l0.013,-0.243l0.013,-0.24l0.015,-0.238l0.015,-0.236l0.017,-0.233l0.017,-0.231l0.018,-0.228l0.019,-0.226l0.019,-0.223l0.021,-0.221l0.022,-0.218l0.023,-0.216l0.023,-0.212l0.025,-0.21l0.025,-0.208l0.027,-0.204l0.028,-0.202l0.029,-0.199l0.029,-0.196l0.031,-0.193l0.032,-0.19l0.033,-0.187l0.034,-0.184l0.036,-0.181l0.036,-0.177l0.038,-0.175l0.038,-0.172l0.04,-0.168l0.042,-0.165l0.042,-0.162l0.043,-0.158l0.045,-0.155l0.046,-0.152l0.048,-0.148l0.048,-0.145l0.05,-0.141l0.052,-0.138l0.023,-0.061l0.024,-0.06l0.025,-0.059l0.026,-0.059l0.026,-0.059l0.027,-0.058l0.028,-0.057l0.028,-0.057l0.029,-0.056l0.03,-0.056l0.031,-0.056l0.031,-0.055l0.031,-0.054l0.033,-0.054l0.033,-0.054l0.033,-0.053l0.034,-0.052l0.035,-0.052l0.036,-0.051l0.036,-0.051l0.036,-0.051l0.038,-0.05l0.037,-0.049l0.039,-0.049l0.039,-0.048l0.039,-0.048l0.041,-0.048l0.04,-0.047l0.083,-0.092l0.086,-0.09l0.087,-0.088l0.089,-0.086l0.092,-0.084l0.093,-0.082l0.095,-0.08l0.097,-0.078l0.099,-0.076l0.101,-0.074l0.102,-0.071l0.104,-0.07l0.106,-0.067l0.107,-0.066l0.109,-0.063l0.111,-0.062l0.111,-0.059l0.113,-0.057l0.115,-0.055l0.116,-0.053l0.117,-0.05l0.118,-0.049l0.119,-0.047l0.12,-0.044l0.122,-0.043l0.122,-0.04l0.124,-0.038l0.124,-0.036l0.125,-0.034l0.126,-0.031l0.127,-0.03l0.127,-0.027l0.128,-0.025l0.129,-0.024l0.129,-0.021l0.13,-0.018l0.13,-0.017l0.13,-0.014l0.131,-0.013l0.132,-0.01l0.131,-0.008l0.132,-0.006l0.132,-0.003l0.132,-0.002l0.132,0.001Z" style="fill:#366;"/><path d="M99.79,195.994l12.525,-2.311c-0.158,-5.916 0.398,-10.76 -0.306,-14.105c-0.735,-3.487 -9.783,-3.613 -11.598,-0.987c-2.034,2.943 -0.746,10.814 -0.621,17.403Z" style="fill:#93f;"/><path d="M99.901,195.897l0.1,0.058l-0.211,0.039l-0.004,-0.166l0.115,0.069Zm6.108,-19.124l0.121,0.002l0.121,0.003l0.122,0.003l0.121,0.005l0.121,0.006l0.121,0.007l0.121,0.008l0.12,0.01l0.12,0.01l0.12,0.012l0.119,0.012l0.118,0.014l0.119,0.015l0.117,0.016l0.117,0.018l0.117,0.018l0.116,0.019l0.115,0.021l0.114,0.022l0.113,0.023l0.113,0.024l0.112,0.025l0.11,0.026l0.11,0.028l0.109,0.029l0.107,0.029l0.107,0.031l0.105,0.033l0.104,0.033l0.103,0.034l0.101,0.036l0.1,0.037l0.099,0.038l0.097,0.039l0.096,0.04l0.094,0.042l0.093,0.042l0.091,0.044l0.089,0.045l0.088,0.046l0.086,0.048l0.084,0.048l0.082,0.05l0.081,0.051l0.078,0.052l0.077,0.053l0.074,0.055l0.072,0.055l0.071,0.057l0.068,0.058l0.066,0.06l0.063,0.06l0.062,0.062l0.059,0.063l0.057,0.064l0.054,0.065l0.052,0.066l0.049,0.068l0.047,0.069l0.044,0.07l0.041,0.071l0.039,0.073l0.018,0.037l0.018,0.037l0.017,0.037l0.016,0.038l0.016,0.038l0.015,0.038l0.014,0.039l0.014,0.038l0.012,0.04l0.012,0.039l0.011,0.04l0.011,0.04l0.01,0.04l0.009,0.041l0.032,0.158l0.03,0.16l0.029,0.162l0.027,0.165l0.025,0.166l0.023,0.169l0.022,0.171l0.021,0.173l0.019,0.175l0.017,0.177l0.016,0.179l0.015,0.182l0.014,0.183l0.012,0.186l0.011,0.187l0.01,0.19l0.008,0.192l0.008,0.193l0.007,0.196l0.005,0.198l0.005,0.2l0.004,0.201l0.003,0.204l0.002,0.206l0.002,0.417l-0.001,0.425l-0.003,0.433l-0.005,0.44l-0.007,0.448l-0.008,0.455l-0.017,0.933l-0.019,0.962l-0.003,0.178l-9.922,-8.078l-3.117,3.841l0.002,-0.204l0.005,-0.276l0.007,-0.272l0.009,-0.268l0.012,-0.264l0.014,-0.261l0.009,-0.128l0.009,-0.128l0.009,-0.126l0.011,-0.125l0.011,-0.125l0.011,-0.123l0.013,-0.121l0.013,-0.121l0.014,-0.12l0.015,-0.118l0.016,-0.117l0.017,-0.116l0.017,-0.114l0.018,-0.113l0.019,-0.112l0.02,-0.111l0.021,-0.109l0.022,-0.108l0.022,-0.106l0.024,-0.105l0.024,-0.104l0.026,-0.102l0.026,-0.101l0.028,-0.099l0.028,-0.098l0.029,-0.096l0.031,-0.095l0.031,-0.094l0.032,-0.091l0.034,-0.09l0.034,-0.089l0.036,-0.087l0.037,-0.085l0.038,-0.084l0.038,-0.082l0.041,-0.08l0.041,-0.079l0.042,-0.077l0.044,-0.075l0.044,-0.073l0.046,-0.072l0.047,-0.07l0.044,-0.061l0.046,-0.06l0.049,-0.059l0.052,-0.058l0.054,-0.057l0.056,-0.056l0.059,-0.055l0.061,-0.054l0.064,-0.053l0.066,-0.052l0.067,-0.051l0.071,-0.049l0.072,-0.049l0.074,-0.048l0.076,-0.047l0.078,-0.045l0.081,-0.045l0.082,-0.044l0.084,-0.042l0.085,-0.042l0.088,-0.04l0.089,-0.04l0.091,-0.038l0.092,-0.038l0.095,-0.036l0.095,-0.035l0.097,-0.035l0.099,-0.033l0.1,-0.032l0.101,-0.031l0.103,-0.03l0.104,-0.029l0.105,-0.028l0.106,-0.027l0.108,-0.025l0.108,-0.025l0.11,-0.024l0.11,-0.022l0.112,-0.022l0.112,-0.02l0.114,-0.019l0.114,-0.019l0.115,-0.017l0.115,-0.016l0.117,-0.015l0.117,-0.014l0.117,-0.012l0.119,-0.012l0.118,-0.011l0.119,-0.009l0.12,-0.009l0.12,-0.007l0.12,-0.006l0.121,-0.005l0.121,-0.004l0.121,-0.003l0.121,-0.002l0.121,-0.001l0.122,0Z" style="fill:#00f;"/><path d="M125.755,217.721l12.525,-2.311c-0.157,-5.916 0.398,-10.76 -0.306,-14.105c-0.735,-3.487 -9.783,-3.612 -11.598,-0.986c-2.034,2.942 -0.746,10.813 -0.621,17.402Z" style="fill:#93f;"/><path d="M125.866,217.625l0.1,0.057l-0.211,0.039l-0.004,-0.166l0.115,0.07Zm6.108,-19.124l0.121,0.001l0.122,0.003l0.121,0.004l0.121,0.004l0.121,0.006l0.121,0.008l0.121,0.008l0.12,0.009l0.12,0.01l0.12,0.012l0.119,0.013l0.119,0.014l0.118,0.015l0.118,0.016l0.117,0.017l0.116,0.018l0.116,0.02l0.115,0.02l0.114,0.022l0.114,0.023l0.112,0.024l0.112,0.025l0.111,0.027l0.109,0.027l0.109,0.029l0.107,0.03l0.107,0.031l0.105,0.032l0.104,0.033l0.103,0.035l0.101,0.035l0.101,0.037l0.098,0.038l0.097,0.039l0.096,0.041l0.095,0.041l0.092,0.043l0.091,0.043l0.09,0.045l0.087,0.047l0.086,0.047l0.084,0.049l0.083,0.049l0.08,0.051l0.078,0.052l0.077,0.054l0.074,0.054l0.073,0.056l0.07,0.057l0.068,0.058l0.066,0.059l0.064,0.06l0.061,0.062l0.059,0.063l0.057,0.064l0.054,0.065l0.052,0.067l0.049,0.067l0.047,0.069l0.044,0.07l0.042,0.072l0.038,0.072l0.019,0.037l0.017,0.037l0.017,0.037l0.017,0.038l0.015,0.038l0.015,0.038l0.014,0.039l0.014,0.039l0.013,0.039l0.011,0.039l0.012,0.04l0.01,0.04l0.01,0.041l0.009,0.04l0.032,0.158l0.03,0.16l0.029,0.163l0.027,0.164l0.025,0.167l0.023,0.168l0.022,0.171l0.021,0.173l0.019,0.175l0.017,0.177l0.017,0.18l0.014,0.181l0.014,0.184l0.012,0.185l0.011,0.188l0.01,0.189l0.009,0.192l0.007,0.194l0.007,0.196l0.005,0.197l0.005,0.2l0.004,0.202l0.003,0.204l0.002,0.205l0.002,0.418l-0.001,0.425l-0.003,0.432l-0.005,0.441l-0.006,0.448l-0.008,0.455l-0.018,0.933l-0.019,0.961l-0.003,0.179l-9.922,-8.079l-3.116,3.841l0.001,-0.203l0.005,-0.276l0.007,-0.272l0.009,-0.269l0.012,-0.264l0.015,-0.26l0.008,-0.129l0.009,-0.127l0.009,-0.127l0.011,-0.125l0.011,-0.124l0.012,-0.123l0.012,-0.122l0.014,-0.121l0.014,-0.119l0.015,-0.118l0.015,-0.117l0.017,-0.116l0.017,-0.115l0.018,-0.113l0.02,-0.112l0.019,-0.11l0.021,-0.11l0.022,-0.107l0.023,-0.107l0.023,-0.105l0.025,-0.104l0.025,-0.102l0.027,-0.101l0.027,-0.099l0.028,-0.098l0.03,-0.096l0.03,-0.095l0.031,-0.093l0.033,-0.092l0.033,-0.09l0.035,-0.089l0.035,-0.087l0.037,-0.085l0.038,-0.084l0.039,-0.082l0.04,-0.08l0.041,-0.078l0.042,-0.077l0.044,-0.076l0.044,-0.073l0.046,-0.072l0.047,-0.069l0.044,-0.062l0.047,-0.06l0.049,-0.059l0.051,-0.058l0.054,-0.057l0.057,-0.056l0.059,-0.055l0.061,-0.053l0.063,-0.053l0.066,-0.052l0.068,-0.051l0.07,-0.05l0.072,-0.049l0.074,-0.048l0.076,-0.046l0.079,-0.046l0.08,-0.045l0.082,-0.043l0.084,-0.043l0.086,-0.042l0.087,-0.04l0.089,-0.04l0.091,-0.038l0.093,-0.037l0.094,-0.037l0.095,-0.035l0.098,-0.034l0.098,-0.033l0.1,-0.033l0.101,-0.031l0.103,-0.03l0.104,-0.029l0.105,-0.027l0.106,-0.027l0.108,-0.026l0.108,-0.025l0.11,-0.023l0.111,-0.023l0.111,-0.021l0.113,-0.021l0.113,-0.019l0.114,-0.018l0.115,-0.017l0.116,-0.016l0.116,-0.015l0.117,-0.014l0.118,-0.013l0.118,-0.012l0.119,-0.01l0.119,-0.01l0.119,-0.008l0.12,-0.008l0.121,-0.006l0.12,-0.005l0.121,-0.004l0.121,-0.003l0.121,-0.002l0.122,-0.001l0.121,0.001Z" style="fill:#00c;"/><path d="M147.988,206.581l4.781,-1.156c-0.06,-2.958 0.152,-5.38 -0.117,-7.052c-0.28,-1.744 -3.734,-1.807 -4.426,-0.494c-0.777,1.472 -0.285,5.407 -0.238,8.702Z" style="fill:#93f;"/><path d="M0,251.65l0,20.112l161.568,-56.905l-161.568,36.793Z" style="fill:#fff;"/><path d="M0,271.762l0,-20.112l161.568,-36.793l-161.568,56.905Z" style="fill:#fff;"/><path d="M0,271.362l0,30.888l161.568,-87.393l-161.568,56.505Z" style="fill:#0fc;"/><path d="M0,302.25l0,-30.888l161.568,-56.505l-161.568,87.393Z" style="fill:#fff;"/><path d="M104.593,214.857l7.745,-1.457c-0.097,-3.73 0.246,-6.783 -0.189,-8.892c-0.454,-2.198 -6.049,-2.277 -7.171,-0.622c-1.258,1.855 -0.462,6.817 -0.385,10.971Z" style="fill:#93f;"/><g><path d="M140.532,190.68l8.958,53.435c-4.098,5.606 -19.867,6.705 -24.032,-0.697l8.748,-50.687l6.326,-2.051Z" style="fill:#006;stroke:#006;stroke-width:4.5px;"/><path d="M135.82,240.46l-1.173,-102.013l0.054,9.914l17.056,-6.753c-1.223,3.093 -16.821,3.497 -17.056,6.753c-1.035,14.311 -0.085,32.65 0.267,49.009l16.823,-35.914c-7.101,11.038 -12.129,22.852 -16.823,35.914c11.675,-4.014 22.501,-9.399 24.705,-29.216c-1.934,18.102 -13.007,24.163 -24.705,29.216c-4.971,-15.139 -12.636,-38.067 -14.567,-56.525l5.692,19.674c-9.383,5.385 -20.806,1.814 -20.885,-7.847" style="fill:none;stroke:#006;stroke-width:9px;"/><path d="M102.906,159.018c-3.111,2.025 -7.269,2.782 -9.865,3.776c-13.369,5.117 -20.465,-6.262 -17.838,-16.857c1.159,-4.676 6.681,-5.657 13.105,-7.49c-3.24,-3.249 -8.756,-3.269 -10.446,-5.593c-7.892,-10.849 3.249,-15.193 18.245,-15.673c4.351,-12.712 13.312,-17.027 30.911,-5.61c10.162,-13.469 20.841,-17.782 32.655,-1.949c34.179,-12.342 46.731,9.889 26.664,28.825c-1.991,1.879 8.556,10.666 8.148,12.729c-2.279,11.494 -14.56,20.33 -18.535,2.67c-0.847,-3.761 -1.693,5.729 -2.596,9.482c-2.922,12.139 -28.847,3.027 -32.335,-11.097c-0.832,-3.369 3.654,-8.551 7.153,-9.38c-4.827,2.123 -6.264,4.765 -9.902,4.094c-3.396,-0.627 -6.243,-5.15 -8.481,-8.498c3.502,10.869 -7.019,19.497 -26.883,20.571Z" style="fill:#39f;"/></g><path d="M550,279.563l-85.133,-0.373l-29.551,-8.94l-2.192,-269.867l116.876,-0.383l0,279.563Z" style="fill:#33c;"/><rect x="466.068" y="153.28" width="83.932" height="39.07" style="fill:#93f;"/><path d="M433.124,56.161l-61.616,32.597l0,163.753l65.663,17.985l-4.047,-214.335Z" style="fill:#09f;"/><path d="M398.906,273.633l-22.623,-10.772c0.285,-27.569 -0.719,-50.145 0.553,-65.733c1.327,-16.253 17.669,-16.837 20.948,-4.599c3.674,13.714 1.348,50.394 1.122,81.104Z" style="fill:#39f;"/><path d="M388.002,184.057l0.11,0.002l0.109,0.004l0.11,0.005l0.109,0.006l0.109,0.007l0.11,0.009l0.109,0.01l0.109,0.012l0.109,0.012l0.108,0.014l0.109,0.015l0.108,0.017l0.108,0.017l0.109,0.019l0.107,0.021l0.108,0.021l0.108,0.023l0.107,0.024l0.107,0.026l0.107,0.026l0.107,0.028l0.106,0.029l0.106,0.031l0.106,0.032l0.105,0.033l0.106,0.034l0.105,0.036l0.104,0.036l0.104,0.038l0.104,0.04l0.104,0.04l0.103,0.042l0.103,0.043l0.103,0.045l0.102,0.045l0.102,0.047l0.101,0.048l0.101,0.05l0.101,0.05l0.1,0.052l0.099,0.053l0.1,0.055l0.098,0.055l0.099,0.057l0.097,0.058l0.098,0.06l0.096,0.06l0.097,0.062l0.095,0.063l0.096,0.064l0.094,0.066l0.094,0.067l0.094,0.068l0.093,0.069l0.092,0.071l0.092,0.072l0.091,0.073l0.091,0.074l0.09,0.075l0.089,0.077l0.089,0.078l0.088,0.079l0.087,0.08l0.087,0.082l0.086,0.083l0.085,0.084l0.085,0.085l0.084,0.087l0.083,0.087l0.083,0.089l0.081,0.09l0.081,0.092l0.08,0.092l0.08,0.094l0.078,0.095l0.078,0.097l0.077,0.097l0.077,0.099l0.075,0.1l0.074,0.101l0.074,0.102l0.073,0.103l0.072,0.105l0.071,0.106l0.07,0.107l0.07,0.109l0.068,0.109l0.068,0.111l0.066,0.112l0.066,0.113l0.065,0.114l0.063,0.116l0.063,0.117l0.062,0.118l0.061,0.119l0.06,0.12l0.058,0.122l0.058,0.122l0.057,0.124l0.056,0.125l0.054,0.127l0.054,0.127l0.053,0.129l0.051,0.129l0.051,0.132l0.049,0.132l0.048,0.133l0.047,0.135l0.046,0.135l0.045,0.137l0.044,0.138l0.042,0.14l0.042,0.14l0.04,0.142l0.039,0.143l0.043,0.161l0.042,0.164l0.042,0.166l0.041,0.168l0.04,0.17l0.04,0.172l0.04,0.175l0.039,0.176l0.039,0.178l0.038,0.18l0.037,0.182l0.037,0.185l0.036,0.186l0.036,0.188l0.036,0.19l0.034,0.192l0.035,0.194l0.034,0.196l0.033,0.198l0.033,0.2l0.032,0.201l0.032,0.204l0.032,0.205l0.031,0.208l0.06,0.42l0.059,0.427l0.056,0.435l0.055,0.442l0.053,0.449l0.051,0.455l0.05,0.463l0.048,0.47l0.046,0.476l0.044,0.484l0.042,0.489l0.041,0.496l0.039,0.503l0.038,0.509l0.036,0.515l0.034,0.522l0.033,0.527l0.032,0.534l0.03,0.539l0.028,0.545l0.027,0.551l0.025,0.557l0.025,0.563l0.022,0.567l0.022,0.574l0.02,0.578l0.018,0.584l0.018,0.589l0.016,0.594l0.015,0.599l0.013,0.605l0.013,0.608l0.011,0.614l0.01,0.619l0.009,0.623l0.008,0.627l0.007,0.632l0.006,0.636l0.004,0.641l0.004,0.645l0.003,0.649l0.001,0.653l0.001,0.656l0,0.661l-0.001,0.665l-0.002,0.668l-0.003,0.672l-0.003,0.675l-0.005,0.679l-0.005,0.682l-0.013,1.374l-0.015,1.386l-0.018,1.398l-0.021,1.409l-0.023,1.42l-0.025,1.43l-0.027,1.439l-0.029,1.447l-0.03,1.455l-0.032,1.462l-0.033,1.468l-0.033,1.475l-0.035,1.48l-0.071,2.972l-0.072,2.984l-0.072,2.993l-0.07,2.994l-0.033,1.496l-0.033,1.495l-0.031,1.493l-0.03,1.49l-0.029,1.486l-0.027,1.482l-0.024,1.478l-0.023,1.472l-0.02,1.466l-0.018,1.459l-0.014,1.452l-0.013,1.444l-22.623,-10.772l0.013,-1.289l0.01,-1.281l0.009,-1.274l0.007,-1.266l0.006,-1.259l0.004,-1.251l0.003,-1.244l0.002,-1.236l0,-1.229l-0.001,-1.221l-0.002,-1.213l-0.003,-1.205l-0.004,-1.197l-0.005,-1.189l-0.011,-2.355l-0.014,-2.323l-0.016,-2.29l-0.016,-2.257l-0.017,-2.224l-0.017,-2.191l-0.016,-2.156l-0.014,-2.122l-0.012,-2.087l-0.005,-1.031l-0.004,-1.021l-0.003,-1.013l-0.002,-1.004l-0.001,-0.995l0,-0.986l0.001,-0.977l0.002,-0.968l0.004,-0.958l0.005,-0.95l0.007,-0.94l0.008,-0.931l0.011,-0.921l0.012,-0.913l0.013,-0.903l0.016,-0.893l0.018,-0.884l0.02,-0.874l0.022,-0.865l0.024,-0.855l0.027,-0.845l0.029,-0.836l0.032,-0.826l0.016,-0.409l0.018,-0.407l0.018,-0.404l0.019,-0.402l0.019,-0.399l0.02,-0.397l0.021,-0.395l0.022,-0.391l0.022,-0.39l0.024,-0.387l0.023,-0.384l0.025,-0.382l0.025,-0.379l0.027,-0.377l0.027,-0.374l0.027,-0.372l0.029,-0.369l0.029,-0.367l0.017,-0.19l0.017,-0.188l0.019,-0.187l0.02,-0.185l0.022,-0.184l0.023,-0.183l0.024,-0.181l0.026,-0.18l0.027,-0.178l0.028,-0.177l0.029,-0.175l0.031,-0.174l0.032,-0.173l0.033,-0.171l0.035,-0.17l0.035,-0.168l0.037,-0.167l0.038,-0.166l0.039,-0.164l0.041,-0.163l0.041,-0.161l0.043,-0.16l0.044,-0.158l0.045,-0.157l0.046,-0.156l0.048,-0.154l0.048,-0.153l0.05,-0.151l0.05,-0.15l0.052,-0.149l0.053,-0.147l0.054,-0.146l0.055,-0.144l0.056,-0.143l0.057,-0.142l0.058,-0.14l0.059,-0.139l0.06,-0.137l0.061,-0.136l0.062,-0.135l0.063,-0.133l0.064,-0.132l0.065,-0.13l0.066,-0.129l0.066,-0.128l0.068,-0.126l0.069,-0.125l0.069,-0.123l0.071,-0.122l0.071,-0.121l0.072,-0.119l0.073,-0.118l0.074,-0.117l0.075,-0.115l0.075,-0.114l0.077,-0.112l0.077,-0.111l0.078,-0.11l0.079,-0.108l0.079,-0.107l0.081,-0.106l0.081,-0.104l0.082,-0.103l0.082,-0.101l0.083,-0.1l0.084,-0.099l0.085,-0.097l0.086,-0.096l0.086,-0.095l0.087,-0.093l0.087,-0.092l0.088,-0.09l0.089,-0.09l0.09,-0.087l0.09,-0.087l0.09,-0.085l0.092,-0.083l0.092,-0.083l0.092,-0.081l0.093,-0.079l0.094,-0.079l0.094,-0.077l0.095,-0.075l0.095,-0.074l0.096,-0.073l0.097,-0.072l0.097,-0.07l0.097,-0.069l0.098,-0.067l0.098,-0.067l0.099,-0.064l0.099,-0.064l0.1,-0.062l0.1,-0.061l0.101,-0.059l0.101,-0.058l0.101,-0.057l0.102,-0.056l0.102,-0.054l0.103,-0.052l0.103,-0.052l0.103,-0.05l0.104,-0.049l0.104,-0.047l0.105,-0.046l0.104,-0.045l0.105,-0.044l0.106,-0.042l0.105,-0.04l0.106,-0.04l0.106,-0.038l0.107,-0.037l0.106,-0.036l0.107,-0.034l0.107,-0.033l0.108,-0.031l0.107,-0.03l0.108,-0.029l0.108,-0.028l0.108,-0.026l0.108,-0.025l0.109,-0.024l0.108,-0.022l0.109,-0.021l0.109,-0.02l0.109,-0.019l0.109,-0.017l0.109,-0.016l0.11,-0.014l0.109,-0.013l0.109,-0.012l0.11,-0.011l0.109,-0.009l0.11,-0.008l0.11,-0.007l0.109,-0.005l0.11,-0.005l0.11,-0.002l0.109,-0.002l0.11,0l0.109,0.001Z" style="fill:#366;"/><path d="M325.718,238.043l-24.677,-4.504c0.31,-11.526 -0.785,-20.966 0.603,-27.483c1.448,-6.795 19.274,-7.04 22.85,-1.923c4.008,5.734 1.47,21.07 1.224,33.91Z" style="fill:#339;"/><path d="M424.702,177.058l-21.756,1.969l0.788,40.783l21.331,5.191l-0.363,-47.943Z" style="fill:#c3c;"/><path d="M383.664,133.727l19.282,1.78l-0.699,36.859l-18.904,4.692l0.321,-43.331Z" style="fill:#c3c;"/><path d="M371.508,113.133l-35.507,8.75l1.548,121.937l33.959,8.062l0,-138.749Z" style="fill:#c3c;"/><path d="M466.068,279.563l83.932,0l0,44.844l-88.954,-1.165l-218.725,-108.385l223.747,64.706Zm0.026,22.743l62.906,0.824l0,-2.567l-62.932,0l-4.89,-0.693l4.916,2.436Z" style="fill:#fff;"/><path d="M12.857,248.253l31.02,-6.841c-0.39,-17.508 0.986,-31.845 -0.758,-41.744c-1.82,-10.322 -24.227,-10.693 -28.723,-2.921c-5.037,8.709 -1.847,32.004 -1.539,51.506Z" style="fill:#93f;"/><path d="M21.727,129.097l-0.546,46.047" style="fill:none;stroke:#93f;stroke-width:3.5px;stroke-linecap:square;stroke-linejoin:bevel;"/><path d="M14.493,125.272l-0.545,46.047" style="fill:none;stroke:#93f;stroke-width:3.5px;stroke-linecap:square;stroke-linejoin:bevel;"/><path d="M28.348,133.485l-0.545,46.047" style="fill:none;stroke:#93f;stroke-width:3.5px;stroke-linecap:square;stroke-linejoin:bevel;"/><path d="M34.669,137.454l-0.545,46.048" style="fill:none;stroke:#93f;stroke-width:3.5px;stroke-linecap:square;stroke-linejoin:bevel;"/><path d="M40.749,141.702l-0.545,46.048" style="fill:none;stroke:#93f;stroke-width:3.5px;stroke-linecap:square;stroke-linejoin:bevel;"/><path d="M23.844,85.979l-0.526,35.61" style="fill:none;stroke:#93f;stroke-width:3.5px;stroke-linecap:square;stroke-linejoin:bevel;"/><path d="M16.872,83.022l-0.526,35.609" style="fill:none;stroke:#93f;stroke-width:3.5px;stroke-linecap:square;stroke-linejoin:bevel;"/><path d="M30.226,89.373l-0.526,35.609" style="fill:none;stroke:#93f;stroke-width:3.5px;stroke-linecap:square;stroke-linejoin:bevel;"/><path d="M36.281,92.443l-0.525,35.609" style="fill:none;stroke:#93f;stroke-width:3.5px;stroke-linecap:square;stroke-linejoin:bevel;"/><path d="M42.178,95.728l-0.525,35.609" style="fill:none;stroke:#93f;stroke-width:3.5px;stroke-linecap:square;stroke-linejoin:bevel;"/><path d="M56.701,187.47l21.574,6.224l1.574,-19.225l-22.001,-7.784l-1.147,20.785" style="fill:#366;"/><path d="M364.451,200.618l-21.756,1.969l0.788,40.783l21.331,5.191l-0.363,-47.943Z" style="fill:#60c;"/><path d="M343.058,134.564l21.756,1.969l-0.788,40.783l-21.331,5.191l0.363,-47.943Z" style="fill:#639;"/><path d="M293.416,170.985l-13.11,1.216l0.475,25.184l12.854,3.205l-0.219,-29.605Z" style="fill:#c3c;"/><path d="M312.019,165.78l-13.11,1.216l0.475,25.184l12.854,3.206l-0.219,-29.606Z" style="fill:#c3c;"/><path d="M331.29,160.144l-13.11,1.216l0.475,25.184l12.854,3.205l-0.219,-29.605Z" style="fill:#c3c;"/><rect x="300.921" y="213.678" width="8.929" height="38.317" style="fill:#309;stroke:#309;stroke-width:15px;"/><path d="M309.85,106.605c0,-1.232 -1,-2.232 -2.232,-2.232l-4.464,0c-1.233,0 -2.233,1 -2.233,2.232l0,9.818c0,1.232 1,2.233 2.233,2.233l4.464,0c1.232,0 2.232,-1.001 2.232,-2.233l0,-9.818Z" style="fill:#ffc;stroke:#309;stroke-width:15px;"/><rect x="300.921" y="101.095" width="8.929" height="3.278" style="fill:#309;stroke:#309;stroke-width:15px;"/><rect x="303.341" y="118.656" width="4.465" height="95.517" style="fill:#309;stroke:#309;stroke-width:10px;"/><rect x="85.469" y="213.544" width="8.929" height="38.317" style="fill:#309;stroke:#309;stroke-width:15px;"/><path d="M94.399,106.471c0,-1.232 -1.001,-2.232 -2.233,-2.232l-4.464,0c-1.232,0 -2.233,1 -2.233,2.232l0,9.818c0,1.232 1.001,2.232 2.233,2.232l4.464,0c1.232,0 2.233,-1 2.233,-2.232l0,-9.818Z" style="fill:#ffc;stroke:#309;stroke-width:15px;"/><rect x="85.469" y="100.961" width="8.929" height="3.278" style="fill:#309;stroke:#309;stroke-width:15px;"/><rect x="87.89" y="118.521" width="4.465" height="95.517" style="fill:#309;stroke:#309;stroke-width:10px;"/><path d="M466.068,214.857l-20.211,-6.746l1.12,32.981l19.091,4.163l0,-30.398" style="fill:#069;"/><g><path d="M467.253,161.768l-10.151,176.526c20.99,24.23 68.199,24.54 85.977,1.049l-15.77,-205.986l-60.056,28.411Z" style="fill:#006;stroke:#006;stroke-width:4.5px;"/><path d="M501.25,327.417l-0.391,-296.629l-0.166,28.268l-16.934,-22.27c3.747,8.819 16.213,12.988 16.934,22.27c3.17,40.809 0.261,93.103 -0.817,139.752l-56.749,-141.377c19.306,30.071 41.467,103.613 56.749,141.377c-161.036,-151.109 -133.215,-84.427 0,0c15.229,-43.168 26.596,-90.261 32.511,-142.894l-5.323,37.813" style="fill:none;stroke:#006;stroke-width:32px;"/><path d="M437.747,179.291c9.315,-0.857 81.996,-106.787 19.213,-142.22c-6.184,-3.49 -77.316,-44.927 -118.764,20.656c-20.494,32.427 -20.676,67.206 30.562,104.406c40.72,29.563 45.648,19.304 68.989,17.158Z" style="fill:#39f;stroke:#06f;stroke-width:1.5px;"/><path d="M436.909,179.62c9.323,-0.756 83.148,-105.893 20.752,-142.004c-6.146,-3.557 -76.826,-45.761 -118.981,19.369c-20.844,32.204 -21.403,66.979 29.43,104.731c40.398,30.002 45.436,19.797 68.799,17.904Z" style="fill:#39f;stroke:#06f;stroke-width:1.5px;"/><rect x="433.413" y="0" width="116.587" height="157.71" style="fill:#1d99ff;"/><path d="M437.151,52.544c3.145,0.453 35.875,-26.116 18.08,-41.665c-1.753,-1.532 -21.809,-19.541 -40.901,-2.82c-9.44,8.267 -12.37,18.802 1.469,34.004c10.999,12.081 13.472,9.347 21.352,10.481Z" style="fill:#39f;stroke:#06f;stroke-width:1.5px;"/><path d="M470.627,163.458c10.317,1.13 115.643,-79.263 56.41,-123.924c-5.834,-4.399 -72.62,-56.161 -133.978,-5.664c-30.338,24.967 -39.235,56.194 7.035,100.088c36.77,34.883 44.68,26.667 70.533,29.5Z" style="fill:#39f;stroke:#06f;stroke-width:1.5px;"/><path d="M505.587,116.115c4.091,-1.405 14.735,-70.151 -21.67,-84.669c-3.586,-1.43 -45.108,-18.632 -50.069,23.584c-2.453,20.874 4.918,41.14 36.404,57.81c25.023,13.249 25.085,6.797 35.335,3.275Z" style="fill:#39f;stroke:#06f;stroke-width:1.5px;"/><path d="M509,193.175c5.834,0.699 64.407,-54.825 30.506,-84.858c-3.34,-2.958 -41.579,-37.778 -75.662,-2.935c-16.852,17.227 -21.538,38.573 5.04,68.172c21.122,23.523 25.498,17.868 40.116,19.621Z" style="fill:#39f;stroke:#06f;stroke-width:1.5px;"/></g><path d="M100.649,102.939c0,-2.867 -2.328,-5.194 -5.194,-5.194l-11.349,0c-2.866,0 -5.194,2.327 -5.194,5.194l0,10.388c0,2.867 2.328,5.194 5.194,5.194l11.349,0c2.866,0 5.194,-2.327 5.194,-5.194l0,-10.388Z" style="fill:#ff9;"/><path d="M317.116,102.973c0,-2.886 -2.342,-5.228 -5.228,-5.228l-12.003,0c-2.885,0 -5.228,2.342 -5.228,5.228l0,10.455c0,2.885 2.343,5.228 5.228,5.228l12.003,0c2.886,0 5.228,-2.343 5.228,-5.228l0,-10.455Z" style="fill:#ff9;"/><rect x="0" y="0" width="550" height="395.578" style="fill:#09f;fill-opacity:0.43;"/><g><g><path d="M287.626,229.673l5.039,-20.932" style="fill:none;stroke:#006;stroke-width:0.7px;"/><path d="M283.107,230.967l19.338,-8.067l8.697,-0.805l-19.402,9.825l-8.633,-0.953Z" style="fill:#003;"/><path d="M280.719,285.783l19.302,2.456c-3.208,-3.816 -6.725,-8.325 -10.572,-11.184c-3.126,2.074 -5.906,5.841 -8.73,8.728Z" style="fill:#339;"/><path d="M291.727,231.774l-8.708,-0.799c-2.952,19.059 -3.787,37.364 -2.297,54.84l8.472,-7.652l10.827,10.076l-8.294,-56.465Z" style="fill:#30c;"/><path d="M291.325,231.958c2.789,18.775 2.543,37.93 8.798,56.271c9.39,-1.048 18.556,-4.569 26.881,-17.348c-3.115,-17.397 -8.492,-33.654 -16.157,-48.758l-19.522,9.835Z" style="fill:#66f;"/><path d="M297.77,233.507l-5.105,-24.766l15.918,19.868" style="fill:none;stroke:#006;stroke-width:0.7px;"/></g><path d="M222.177,315.518c3.514,3.669 5.717,7.162 6.89,10.515c1.051,3.008 -5.265,4.346 -7.107,7.095c-1.821,2.716 -1.827,7.696 3.545,12.393l29.277,-18.795c0,0 -4.274,-10.101 -2.377,-9.206l4.879,7.6l3.105,-1.993l-12.365,-19.262c-5.993,8.654 -14.003,13.671 -25.411,12.114" style="fill:#fc9;"/><path d="M269.672,157.015c28.388,5.587 46.084,52.289 30.794,64.057c-1.993,1.534 -3.94,-11.413 -9.558,-13.001c2.186,-0.534 6.318,9.294 4.087,8.724c-5.736,-1.466 -11.178,-13.77 -14.019,-21.436c-11.714,-6.971 -20.569,-16.37 -27.269,-27.599l15.965,-10.745Z" style="fill:#c99;"/><path d="M225.396,105.309c-31.629,0.644 -48.336,9.655 -47.104,46.091l-1.359,10.617c1.441,3.232 17.337,2.54 23.879,1.961c-113.794,99.047 -42.947,171.987 37.617,150.292c23.901,2.188 35.889,-4.879 35.823,-21.312l-17.098,-35.923c41.838,-24.41 30.692,-86.195 6.9,-95.018l16.965,0c7.169,-20.099 -0.305,-37.303 -7.76,-44.99c-7.523,-7.757 -18.689,-9.942 -32.531,-11.718c-5.746,8.012 -10.965,9.429 -15.332,0Z" style="fill:#603;"/><path d="M178.039,162.017c-16.84,19.481 -3.955,68.133 7.231,72.769c2.391,0.991 1.082,-12.205 5.092,-16.868c-2.143,0.688 0.643,10.57 2.246,8.916c4.12,-4.252 1.155,-16.928 -0.438,-24.947c6.332,-12.072 13.93,-26.055 13.761,-39.13l-27.892,-0.74Z" style="fill:#c99;"/><g><ellipse cx="234.288" cy="74.666" rx="29.862" ry="30.578" style="fill:#c99;"/><path d="M263.532,73.177l3.092,7.882l-5.018,1.074l1.926,-8.956" style="fill:#c99;stroke:#c99;stroke-width:1.83px;"/><path d="M212.228,64.974c6.038,-2.321 11.975,-1.181 17.325,1.554l3.867,0.172c6.568,-3.756 13.369,-2.1 17.873,1.36l0.157,7.242c-8.103,5.598 -16.017,5.178 -18.475,-5.369l-2.907,-0.08c-4.916,10.176 -11.516,11.07 -18.149,1.371l0.309,-6.25Z" style="stroke:#000;stroke-width:0.25px;"/><path d="M248.69,98.571l4.555,9.969c-9.002,4.592 -27.223,4.506 -38.877,0.831l7.541,-10.093l26.781,-0.707Z" style="fill:#c99;stroke:#c99;stroke-width:2.32px;"/><path d="M221.965,96.572c-1.37,7.746 -9.083,10.414 -20.248,4.618c-5.085,-7.2 -6.297,-16.705 -7.413,-23.438c-3.859,-23.287 19.655,-40.816 38.196,-40.509c32.407,0.537 45.882,29.6 31.649,59.155c-1.3,2.701 -3.189,4.722 -4.941,7.44c-6.717,-0.825 -12.245,-3.972 -12.385,-8.313c5.876,-9.375 6.653,-22.817 1.04,-33.916c-5.121,0.48 -10.242,0.617 -15.363,0c-3.066,-2.432 -3.474,-6.188 -3.233,-10.267c-2.701,3.139 -4.999,6.384 -4.872,10.267l-11.661,0c-0.673,6.112 -1.165,11.542 -1.109,16.223c0.113,9.581 2.517,16.022 10.34,18.74Z" style="fill:#fc0;"/></g><path d="M199.088,290.564c11.711,-4.356 24.424,-2.743 38.32,5.903l-3.272,35.016l3.272,19.251c-14.123,8.772 -27.884,10.272 -41.107,0.95l4.528,-20.6l-1.741,-40.52Z" style="fill:#c99;"/><path d="M201.035,331.425c8.956,10.304 20.644,10.435 33.321,0.352c6.529,7.331 6.931,13.515 3.052,18.897c-14.157,10.009 -27.929,10.089 -41.107,0.982c-2.911,-6.035 -1.037,-12.825 4.734,-20.231Z" style="fill:#fc9;"/></g></g></svg>