<svg height="512pt" viewBox="0 0 512.00016 512" width="512pt" xmlns="http://www.w3.org/2000/svg"><path d="m512 256c0 141.386719-114.613281 256-256 256-141.382812 0-256-114.613281-256-256s114.617188-256 256-256c141.386719 0 256 114.613281 256 256zm0 0" fill="#e5e1dc"/><path d="m390.550781 88.648438s39.898438-21.625 62.25-51.75c5.390625-7.265626 16.832031-3.59375 16.921875 5.453124.242188 24.554688-5.441406 58.582032-33.167968 84.027344" fill="#fecf32"/><path d="m422.605469 175.640625s41.167969-19.101563 78.679687-19.054687c9.046875.011718 12.929688-11.359376 5.722656-16.828126-19.554687-14.851562-50.246093-30.605468-87.210937-23.546874" fill="#fdae2f"/><path d="m458.535156 184.828125c0 124.0625-81.785156 256.980469-257.476562 301.851563-5.023438 1.300781-10.132813 2.5-15.324219 3.648437-44.269531 9.71875-81.308594-34.695313-63.542969-76.382813 20.394532-47.84375 35.164063-112.570312 19.640625-187.957031h.011719c-3.46875-13.140625-5.320312-26.929687-5.320312-41.15625 0-88.917969 72.085937-161.007812 161.003906-161.007812 8.589844 0 17.023437.675781 25.246094 1.972656 76.921874 12.113281 135.761718 78.703125 135.761718 159.03125zm0 0" fill="#35a2da"/><path d="m458.535156 184.828125c0 124.0625-81.785156 256.980469-257.476562 301.851563-25.832032-11.867188-41.050782-42.996094-28.371094-72.734376 20.386719-47.84375 35.15625-112.570312 19.628906-187.957031h.011719c-3.46875-13.140625-5.320313-26.929687-5.320313-41.15625 0-80.332031 58.839844-146.921875 135.761719-159.035156 76.925781 12.113281 135.765625 78.703125 135.765625 159.03125zm0 0" fill="#46b8fc"/><path d="m209.621094 187.472656c-6.738282-.269531-101.066406-5.550781-175.414063-77.128906-.070312-.066406-.140625-.132812-.207031-.199219-11.125-10.746093-29.746094-4.964843-32.5625 10.246094-2.035156 10.996094-2.308594 24.25 1.839844 38.777344 4.929687 17.265625 16.089844 36.332031 37.941406 55.546875 0 0-5.625-.222656-13.644531-1.910156-14.632813-3.074219-27.277344 10.804687-22.464844 24.960937 7.589844 22.339844 26.023437 48.886719 70.261719 59.238281 0 0-4.355469 1.648438-12.148438 2.628906-15.097656 1.898438-22.246094 19.753907-12.535156 31.472657 12.878906 15.546875 34.578125 31.425781 70.210938 34.199219 66.117187 0 115.191406-49.140626 115.191406-49.140626" fill="#46b8fc"/><path d="m394.976562 118.804688c0 14.53125-11.785156 26.316406-26.316406 26.316406-14.535156 0-26.316406-11.785156-26.316406-26.316406 0-14.535157 11.78125-26.320313 26.316406-26.320313 14.53125 0 26.316406 11.785156 26.316406 26.320313zm0 0" fill="#2f373b"/><path d="m389.609375 114.160156c0 6.226563-5.046875 11.277344-11.277344 11.277344-6.226562 0-11.273437-5.050781-11.273437-11.277344 0-6.230468 5.046875-11.277344 11.273437-11.277344 6.230469 0 11.277344 5.046876 11.277344 11.277344zm0 0" fill="#fff"/></svg>