<?xml version="1.0" encoding="UTF-8" standalone="no"?><!DOCTYPE svg PUBLIC "-//W3C//DTD SVG 1.1//EN" "http://www.w3.org/Graphics/SVG/1.1/DTD/svg11.dtd"><svg width="100%" height="100%" viewBox="0 0 512 512" version="1.1" xmlns="http://www.w3.org/2000/svg" xmlns:xlink="http://www.w3.org/1999/xlink" xml:space="preserve" xmlns:serif="http://www.serif.com/" style="fill-rule:evenodd;clip-rule:evenodd;stroke-linejoin:round;stroke-miterlimit:2;"><path d="M390.551,88.648c0,0 39.898,-21.625 62.25,-51.75c5.39,-7.265 16.832,-3.593 16.922,5.454c0.242,24.554 -5.442,58.582 -33.168,84.027" style="fill:#fdae2f;fill-rule:nonzero;"/><path d="M422.605,175.641c0,0 41.168,-19.102 78.68,-19.055c9.047,0.012 12.93,-11.359 5.723,-16.828c-19.555,-14.852 -50.246,-30.606 -87.211,-23.547" style="fill:#fdae2f;fill-rule:nonzero;"/><g><path d="M458.535,184.828c0,124.063 -81.785,256.981 -257.476,301.852c-5.024,1.3 -10.133,2.5 -15.325,3.648c-44.269,9.719 -81.308,-34.695 -63.543,-76.383c20.395,-47.843 35.164,-112.57 19.641,-187.957l0.012,0c-3.469,-13.14 -5.321,-26.929 -5.321,-41.156c0,-88.918 72.086,-161.008 161.004,-161.008c8.59,0 17.024,0.676 25.246,1.973c76.922,12.113 135.762,78.703 135.762,159.031Z" style="fill:#1877f2;fill-rule:nonzero;"/><path d="M458.535,184.828c0,124.063 -81.785,256.981 -257.476,301.852c-25.832,-11.868 -41.051,-42.996 -28.372,-72.735c20.387,-47.843 35.157,-112.57 19.629,-187.957l0.012,0c-3.469,-13.14 -5.32,-26.929 -5.32,-41.156c0,-80.332 58.84,-146.922 135.762,-159.035c76.925,12.113 135.765,78.703 135.765,159.031Z" style="fill:#1877f2;fill-rule:nonzero;"/><path d="M209.621,234.473c-6.738,-0.27 -101.066,-5.551 -175.414,-77.129c-0.07,-0.067 -0.141,-0.133 -0.207,-0.199c-11.125,-10.747 -29.746,-4.965 -32.562,10.246c-2.036,10.996 -2.309,24.25 1.839,38.777c4.93,17.266 16.09,36.332 37.942,55.547c0,0 -5.625,-0.223 -13.645,-1.91c-14.633,-3.075 -27.277,10.804 -22.465,24.961c7.59,22.339 26.024,48.886 70.262,59.238c0,0 -4.355,1.648 -12.148,2.629c-15.098,1.898 -22.246,19.754 -12.535,31.472c12.878,15.547 34.578,31.426 70.21,34.2c66.118,0 115.192,-49.141 115.192,-49.141" style="fill:#1877f2;fill-rule:nonzero;"/></g><path d="M394.977,118.805c0,14.531 -11.786,26.316 -26.317,26.316c-14.535,0 -26.316,-11.785 -26.316,-26.316c0,-14.535 11.781,-26.321 26.316,-26.321c14.531,0 26.317,11.786 26.317,26.321Z" style="fill:#2f373b;fill-rule:nonzero;"/><path d="M389.609,114.16c0,6.227 -5.046,11.278 -11.277,11.278c-6.227,-0.001 -11.273,-5.051 -11.273,-11.278c0,-6.23 5.046,-11.277 11.273,-11.277c6.231,0 11.277,5.047 11.277,11.277Z" style="fill:#fff;fill-rule:nonzero;"/></svg>